<?xml version="1.0" encoding="UTF-8" standalone="no"?>
<!-- Created with Inkscape (http://www.inkscape.org/) -->

<svg
   width="110.01363mm"
   height="165.40579mm"
   viewBox="0 0 110.01363 165.40579"
   version="1.1"
   id="svg1"
   inkscape:version="1.4.3 (0d15f75, 2025-12-25)"
   sodipodi:docname="celebrating.svg"
   xmlns:inkscape="http://www.inkscape.org/namespaces/inkscape"
   xmlns:sodipodi="http://sodipodi.sourceforge.net/DTD/sodipodi-0.dtd"
   xmlns="http://www.w3.org/2000/svg"
   xmlns:svg="http://www.w3.org/2000/svg">
  <sodipodi:namedview
     id="namedview1"
     pagecolor="#ffffff"
     bordercolor="#000000"
     borderopacity="0.25"
     inkscape:showpageshadow="2"
     inkscape:pageopacity="0.0"
     inkscape:pagecheckerboard="0"
     inkscape:deskcolor="#d1d1d1"
     inkscape:document-units="mm"
     inkscape:zoom="0.023162177"
     inkscape:cx="194.28225"
     inkscape:cy="302.21684"
     inkscape:window-width="944"
     inkscape:window-height="245"
     inkscape:window-x="0"
     inkscape:window-y="34"
     inkscape:window-maximized="0"
     inkscape:current-layer="layer1" />
  <defs
     id="defs1">
    <linearGradient
       x1="81.97998"
       y1="195.52148"
       x2="75.596336"
       y2="198.95068"
       gradientUnits="userSpaceOnUse"
       id="color-3"
       gradientTransform="matrix(1.3229562,0,0,1.3229562,28.850477,-141.2206)">
      <stop
         offset="0"
         stop-color="#333134"
         id="stop5" />
      <stop
         offset="1"
         stop-color="#3e2858"
         id="stop6" />
    </linearGradient>
  </defs>
  <g
     inkscape:label="Layer 1"
     inkscape:groupmode="layer"
     id="layer1"
     transform="translate(-53.445834,-71.437505)">
    <path
       d="m 114.54528,88.787745 c 2.13695,-2.625883 11.31554,-16.092519 13.51721,-17.35024 0.34495,0.01191 0.81839,0.0639 1.01315,0.426349 4.12855,7.689683 4.6483,16.861884 4.60567,25.377118 3.52101,3.515398 5.58723,8.379578 5.88102,13.329048 0.20698,0.85656 0.14534,1.68211 0.13973,2.56775 1.18698,0.13953 3.79891,0.41085 4.50993,1.3643 l -0.10601,0.26356 c -1.20829,0.14146 -3.2278,-1.34686 -4.32195,-0.81974 l -0.15775,0.39921 c -0.17209,1.0678 -0.32906,2.25187 -0.59766,3.29059 1.42283,0.17054 3.68071,1.24608 4.89133,2.00962 0.71141,-1.55808 0.81625,-3.07354 1.14473,-4.64132 0.88215,-4.21112 2.83692,-2.94177 5.48393,-4.0929 3.44271,-1.49995 3.39137,1.32941 6.17888,2.65496 0.18372,0.0853 0.92807,3.12199 1.1521,3.45338 1.11488,3.48827 -3.46637,5.54634 -5.11205,7.80984 -1.61314,2.21892 -2.84682,5.04635 -4.38552,7.29046 -3.53691,5.15488 -7.72825,9.98225 -12.54631,13.9705 -0.72285,0.59882 -1.17419,0.93795 -0.98214,1.91661 0.43662,1.41274 0.69106,2.88556 0.92168,4.34675 1.50092,9.50746 0.82808,18.25525 -3.3373,27.02048 0.9085,6.32927 1.42747,14.06934 -2.61407,19.50715 -2.74449,3.69175 -6.17946,4.87388 -10.43088,5.88935 1.42108,4.76923 5.40895,16.0499 -3.87332,15.35611 -1.16508,-0.30038 -1.74297,-0.59882 -2.62725,-1.39918 -1.30171,-1.62592 -4.6233,-16.69328 -3.88495,-18.21843 1.54589,-3.1937 6.14807,-2.52706 2.37008,-8.0889 -0.92439,-0.0755 -1.84685,-0.17054 -2.76736,-0.28294 -3.26502,6.80986 -8.710387,11.27096 -16.5212,10.23805 -0.991052,4.36033 -2.630341,13.31548 -8.678407,13.02673 -1.359642,-0.0659 -2.633834,-0.68409 -3.52761,-1.71119 -2.668521,-3.05029 -0.262196,-6.67809 0.690478,-10.01519 0.63351,-1.6046 2.220476,-9.91054 3.333426,-10.80005 4.163819,-3.32935 5.135689,0.85463 4.99113,-7.18001 -12.674026,0.47867 -20.969504,-6.68971 -20.335795,-20.14472 0.278482,-5.91261 1.604018,-13.77864 -6.271315,-15.5189 -2.350509,-0.51936 -6.303873,-0.0717 -6.909086,-3.30804 -0.472084,-3.746 2.911536,-5.61998 6.218794,-5.44556 9.007863,-0.0349 15.651643,10.15859 14.54974,18.6157 -1.229423,9.43769 0.355994,20.09627 13.052696,18.79592 2.78518,-11.02485 9.677411,-13.66236 8.591397,-26.15034 -5.461269,-2.91463 -10.175465,-5.25566 -15.09837,-9.20127 -2.179002,-1.78095 -4.134371,-3.8274 -6.364729,-5.54633 -2.140636,-1.65305 -7.998594,-2.81581 -6.936987,-6.41647 0.391648,-1.32942 -0.673425,-1.88754 -0.37363,-3.00379 0.386621,-1.44181 2.410969,-2.08133 2.690417,-3.71306 0.252711,-1.59879 3.402802,-0.3624 4.672337,-0.93407 3.33594,-1.49801 5.107789,3.93398 6.323837,6.10058 l 0.147867,0.0697 c 0.741649,-0.81199 2.212525,-1.97087 3.106301,-2.71891 -3.255901,-6.40484 -4.052387,-10.01713 -2.529572,-17.35992 -3.942317,-6.9494 -7.491239,-15.365808 -7.553643,-23.472143 -0.005,-0.658899 0.02965,-1.141434 0.500368,-1.612353 1.227293,-0.358521 17.602171,7.509456 19.779227,8.666395 8.105569,-3.433997 9.000299,-4.447541 18.387409,-4.610317 z"
       fill="#333334"
       id="path83"
       style="mix-blend-mode:normal;stroke-width:0.264583" />
    <path
       d="m 114.54528,88.787745 c 2.13695,-2.625883 11.31554,-16.092519 13.51721,-17.35024 0.34495,0.01191 0.81839,0.0639 1.01315,0.426349 4.12855,7.689683 4.6483,16.861884 4.60567,25.377118 3.52101,3.515398 5.58723,8.379578 5.88102,13.329048 0.20698,0.85656 0.14534,1.68211 0.13973,2.56775 1.18698,0.13953 3.79891,0.41085 4.50993,1.3643 l -0.10601,0.26356 c -1.20829,0.14146 -3.2278,-1.34686 -4.32195,-0.81974 l -0.15775,0.39921 c -0.17209,1.0678 -0.32906,2.25187 -0.59766,3.29059 1.42283,0.17054 3.68071,1.24608 4.89133,2.00962 0.71141,-1.55808 0.81625,-3.07354 1.14473,-4.64132 0.88215,-4.21112 2.83692,-2.94177 5.48393,-4.0929 3.44271,-1.49995 3.39137,1.32941 6.17888,2.65496 0.18372,0.0853 0.92807,3.12199 1.1521,3.45338 1.11488,3.48827 -3.46637,5.54634 -5.11205,7.80984 -1.61314,2.21892 -2.84682,5.04635 -4.38552,7.29046 -3.53691,5.15488 -7.72825,9.98225 -12.54631,13.9705 -0.72285,0.59882 -1.17419,0.93795 -0.98214,1.91661 -0.21859,0.0119 -0.0829,0.0291 -0.36413,-0.18991 -0.0663,-0.54844 -0.11879,-0.65308 0.1281,-1.15113 l -0.39397,-0.20154 c -0.34069,-0.58332 -0.39572,-1.05617 -0.5496,-1.71313 -0.67555,-2.88751 -3.54485,-7.64123 -4.0805,-10.26324 0.0316,-0.50386 -0.0814,-1.44181 -0.12189,-1.99024 l -0.23508,-0.92051 -0.33042,0.12978 c -7.26741,4.77117 -11.20198,7.24396 -20.30014,6.69553 -1.37631,-0.0814 -5.25197,-0.6085 -6.32772,-0.62207 -0.90326,-0.27131 -1.9201,-0.46316 -2.848546,-0.6647 l -0.23837,-0.10663 c -1.325351,-0.41472 -2.768908,-1.05423 -4.065762,-1.59297 l -0.127903,-0.20736 c 0.204449,-2.19761 5.831601,-5.32736 6.226361,-6.18005 l -0.32984,-1.80226 c 0.33933,-0.85656 0.3151,-0.47673 -0.0862,-1.49801 l -0.19089,0.10663 c -2.979366,-0.45735 -7.187954,1.37786 -9.567926,3.10843 -0.771482,0.55425 -1.49162,1.17827 -2.151682,1.86428 -1.049581,-1.01547 -1.714089,-1.87591 -2.629177,-3.02316 -0.912959,0.40309 -2.034046,1.74994 -2.73131,2.54062 l -0.681759,-0.43023 c 0.74165,-0.81199 2.212525,-1.97087 3.106301,-2.71891 -3.255901,-6.40484 -4.052386,-10.01714 -2.529571,-17.35993 -3.942317,-6.94939 -7.49124,-15.365802 -7.553643,-23.472137 -0.005,-0.658898 0.02965,-1.141433 0.500368,-1.612353 1.227293,-0.358521 17.60217,7.509457 19.779227,8.666395 8.105572,-3.433997 9.000292,-4.44754 18.387412,-4.610317 z"
       fill="#333334"
       id="path84"
       style="mix-blend-mode:normal;stroke-width:0.264583" />
    <path
       d="m 143.91995,119.6453 c 0.71141,-1.55808 0.81625,-3.07354 1.14473,-4.64133 0.88215,-4.21111 2.83692,-2.94176 5.48393,-4.09289 3.44271,-1.49996 3.39137,1.32941 6.17888,2.65496 0.18372,0.0853 0.92807,3.12199 1.1521,3.45338 1.11488,3.48826 -3.46637,5.54633 -5.11205,7.80983 -1.61314,2.21893 -2.84682,5.04635 -4.38552,7.29047 -3.53691,5.15487 -7.72825,9.98225 -12.54631,13.9705 -0.72285,0.59882 -1.17419,0.93795 -0.98214,1.9166 -0.21859,0.0119 -0.0829,0.0291 -0.36413,-0.18991 -0.0663,-0.54843 -0.11879,-0.65307 0.1281,-1.15113 l -0.39397,-0.20154 c -0.34069,-0.58332 -0.39572,-1.05617 -0.5496,-1.71312 -0.67555,-2.88751 -3.54485,-7.64124 -4.0805,-10.26324 0.0316,-0.50386 -0.0814,-1.44181 -0.12189,-1.99024 l -0.23508,-0.92052 0.0393,-0.14341 c 2.01796,-1.22283 5.40837,-4.95915 6.69592,-6.9649 -1.17399,-1.59104 -7.30752,-1.52709 -8.11409,-2.30225 l -0.28894,-1.49607 -0.66432,-1.37981 c -0.71975,-0.18022 -0.99571,-0.62013 -1.28,-1.26158 0.42478,-0.009 2.0007,-1.02904 2.49468,-1.3643 2.31214,-1.56778 8.64721,-3.47664 11.30081,-2.75185 l 0.2064,0.43215 c -0.17209,1.0678 -0.32906,2.25187 -0.59766,3.29059 1.42282,0.17054 3.6807,1.24608 4.89132,2.00962 z"
       fill="#302d36"
       id="path85"
       style="mix-blend-mode:normal;stroke-width:0.264583" />
    <path
       d="m 125.62441,118.02907 c 0.42478,-0.009 2.0007,-1.02903 2.49468,-1.3643 2.31214,-1.56778 8.64721,-3.47663 11.30081,-2.75185 l 0.2064,0.43216 c -0.17209,1.06779 -0.32906,2.25187 -0.59766,3.29058 1.42282,0.17055 3.6807,1.24608 4.89132,2.00963 l -0.3684,0.5368 c -0.74494,1.0581 -1.5674,2.29644 -2.41872,3.24796 -0.72846,-0.59882 -2.50244,-1.49607 -3.40765,-1.82164 -1.86331,-1.07555 -8.485,-2.56388 -10.15646,-0.93795 l -0.66432,-1.3798 c -0.71975,-0.18023 -0.99571,-0.62014 -1.28,-1.26159 z"
       fill="#302d36"
       id="path86"
       style="mix-blend-mode:normal;stroke-width:0.264583" />
    <path
       d="m 126.90441,119.29067 c 3.56268,-1.30616 8.27125,-2.19373 11.94012,-0.85269 -0.38467,1.0523 -0.75792,2.10847 -1.11934,3.17044 -1.86331,-1.07555 -8.485,-2.56387 -10.15646,-0.93795 z"
       fill="url(#color-3)"
       id="path87"
       style="mix-blend-mode:normal;fill:url(#color-3);stroke-width:0.264583" />
    <path
       d="m 138.84453,118.43797 c 0.79242,-0.28682 4.00705,1.24608 4.70703,1.74413 -0.74494,1.0581 -1.5674,2.29644 -2.41872,3.24797 -0.72846,-0.59883 -2.50244,-1.49608 -3.40765,-1.82165 0.36142,-1.06197 0.73467,-2.11814 1.11934,-3.17044 z"
       fill="#e8e7ec"
       id="path88"
       style="mix-blend-mode:normal;stroke-width:0.264583" />
    <path
       d="m 126.90441,119.29067 c 1.77823,-2.68015 9.39079,-1.97281 12.12423,-1.65499 1.42282,0.17054 3.6807,1.24608 4.89132,2.00962 l -0.3684,0.5368 c -0.69998,-0.49804 -3.9146,-2.03095 -4.70703,-1.74413 -3.66887,-1.34104 -8.37744,-0.45347 -11.94012,0.85269 z"
       fill="#6c31a8"
       id="path89"
       style="mix-blend-mode:normal;stroke-width:0.264583" />
    <path
       d="m 127.56871,120.67046 c 1.67147,-1.62591 8.29315,-0.13759 10.15647,0.93795 0.90521,0.32557 2.67919,1.22283 3.40765,1.82164 0.77322,0.77905 1.38988,1.37011 2.05826,2.25187 -1.00481,-0.57362 -1.64549,-0.90888 -2.4569,-1.78677 l -1.53231,1.69956 0.16492,0.26162 c 0.44843,0.7054 0.80462,0.80811 1.02168,1.59879 -0.55153,-0.14534 -1.27962,-0.9457 -1.75693,-1.39143 -0.72749,-0.51742 -1.84839,-1.39919 -2.6598,-1.59492 -1.17399,-1.59104 -7.30752,-1.52709 -8.11409,-2.30225 z"
       fill="#342246"
       id="path90"
       style="mix-blend-mode:normal;stroke-width:0.264583" />
    <path
       d="m 127.56871,120.67046 c 1.67147,-1.62591 8.29315,-0.13759 10.15647,0.93795 0.90521,0.32557 2.67919,1.22283 3.40765,1.82164 0.77322,0.77905 1.38988,1.37011 2.05826,2.25187 -1.00481,-0.57362 -1.64549,-0.90888 -2.4569,-1.78677 l -1.53231,1.69956 c -0.16201,-0.0466 -2.44101,-1.49995 -2.84778,-1.73638 0.34223,-0.56199 0.63757,-1.17632 0.93834,-1.76544 -1.59239,-1.66468 -7.65479,-1.14338 -9.72373,-1.42244 z"
       fill="#6c31a8"
       id="path91"
       style="mix-blend-mode:normal;stroke-width:0.264583" />
    <path
       d="m 137.29244,122.0929 c 0.56103,0.16279 2.91483,1.45344 3.44175,1.80227 l -1.53231,1.69956 c -0.16201,-0.0466 -2.44101,-1.49996 -2.84778,-1.73638 0.34223,-0.56199 0.63757,-1.17632 0.93834,-1.76545 z"
       fill="#e8e7ec"
       id="path92"
       style="mix-blend-mode:normal;stroke-width:0.264583" />
    <path
       d="m 127.85766,122.16654 c 2.12202,-0.97478 6.54592,0.59882 8.49644,1.69181 0.40677,0.23642 2.68577,1.68986 2.84778,1.73638 l 0.16492,0.26161 c 0.44843,0.7054 0.80462,0.80812 1.02168,1.59879 -0.55153,-0.14533 -1.27962,-0.9457 -1.75693,-1.39143 -0.72749,-0.51742 -1.84839,-1.39918 -2.6598,-1.59491 -1.17399,-1.59104 -7.30752,-1.52709 -8.11409,-2.30225 z"
       fill="#6c31a8"
       id="path93"
       style="mix-blend-mode:normal;stroke-width:0.264583" />
    <path
       d="m 135.97175,124.4688 c 0.81141,0.19573 1.93231,1.07748 2.6598,1.59492 -2.91929,2.8623 -5.48529,4.61226 -9.15999,6.4339 l -0.23507,-0.92051 0.0393,-0.14341 c 2.01796,-1.22283 5.40836,-4.95915 6.69592,-6.9649 z"
       fill="#e8e7ec"
       id="path94"
       style="mix-blend-mode:normal;stroke-width:0.264583" />
    <path
       d="m 149.54652,116.14348 c 3.90783,-0.37789 4.70548,3.57935 1.9387,4.86612 -2.1009,-1.38174 -5.58413,-2.77317 -1.9387,-4.86612 z"
       fill="#815e6e"
       id="path95"
       style="mix-blend-mode:normal;stroke-width:0.264583" />
    <path
       d="m 151.32108,112.72498 c 0.57014,-0.18603 1.18291,0.12396 1.3734,0.69184 0.1905,0.56782 -0.1122,1.18408 -0.67866,1.37981 -0.5746,0.1996 -1.20093,-0.10849 -1.39414,-0.68409 -0.19341,-0.5775 0.12093,-1.20151 0.69939,-1.38756 z"
       fill="#815e6e"
       id="path96"
       style="mix-blend-mode:normal;stroke-width:0.264583" />
    <path
       d="m 148.31091,112.90909 c 0.77847,0.33719 0.92497,0.52711 1.14783,1.28291 -0.13003,0.7771 -0.23138,0.81974 -0.78234,1.436 -0.85521,-0.27131 -1.0116,-0.42247 -1.24124,-1.22671 0.16492,-0.79261 0.30504,-0.86238 0.87575,-1.4922 z"
       fill="#815e6e"
       id="path97"
       style="mix-blend-mode:normal;stroke-width:0.264583" />
    <path
       d="m 153.9274,114.42841 c 0.35949,-0.18217 0.79068,-0.14729 1.11586,0.091 0.32518,0.23837 0.48932,0.63757 0.42499,1.03485 -0.0643,0.39727 -0.3465,0.72673 -0.73002,0.84881 -0.53196,0.17055 -1.10578,-0.0968 -1.31779,-0.61238 -0.2122,-0.51742 0.009,-1.11044 0.50696,-1.36237 z"
       fill="#815e6e"
       id="path98"
       style="mix-blend-mode:normal;stroke-width:0.264583" />
    <path
       d="m 154.82795,117.56397 c 0.32227,-0.13758 0.69455,-0.0892 0.97012,0.12793 0.27577,0.21705 0.41045,0.56782 0.35096,0.91276 -0.0593,0.3469 -0.30329,0.63177 -0.63545,0.74417 -0.48642,0.16666 -1.01644,-0.0834 -1.20074,-0.562 -0.1843,-0.4806 0.0432,-1.01935 0.51511,-1.22283 z"
       fill="#815e6e"
       id="path99"
       style="mix-blend-mode:normal;stroke-width:0.264583" />
    <path
       d="m 100.96974,124.0502 c 0.25135,0.64533 0.21472,1.04454 -0.16181,1.67824 l -0.19089,0.10663 c -2.979363,-0.45735 -7.187951,1.37786 -9.567923,3.10843 -0.771482,0.55425 -1.49162,1.17826 -2.151682,1.86428 -1.049581,-1.01547 -1.714088,-1.87591 -2.629177,-3.02316 3.843677,-3.06192 9.67548,-3.5619 14.353422,-3.37199 z"
       fill="#302d36"
       id="path100"
       style="mix-blend-mode:normal;stroke-width:0.264583" />
    <path
       d="m 99.191304,137.0091 0.14321,-0.42635 c 0.658118,-0.23837 4.572916,0.59495 5.445766,0.7616 6.68893,1.27904 12.85754,0.28682 18.85968,-2.89914 1.21081,-0.64339 4.49075,-3.32547 5.42871,-3.41849 l 0.20716,0.40697 -0.0393,0.14341 -0.33043,0.12978 c -7.2674,4.77117 -11.20197,7.24396 -20.30014,6.69553 -1.37631,-0.0814 -5.25196,-0.6085 -6.32771,-0.62206 -0.90326,-0.27132 -1.9201,-0.46317 -2.848549,-0.66471 z"
       fill="#1d1a26"
       id="path101"
       style="mix-blend-mode:normal;stroke-width:0.264583" />
    <path
       d="m 139.56234,110.57001 c 0.20698,0.85656 0.14534,1.68211 0.13974,2.56775 1.18698,0.13953 3.7989,0.41084 4.50993,1.3643 l -0.10601,0.26356 c -1.2083,0.14146 -3.2278,-1.34687 -4.32195,-0.81975 l -0.15775,0.39922 -0.2064,-0.43216 c -2.6536,-0.72478 -8.98867,1.18407 -11.30081,2.75186 -0.49398,0.33526 -2.0699,1.35461 -2.49468,1.3643 1.51971,-3.59486 10.52099,-4.94171 13.94181,-5.02892 -0.0277,-0.81004 -0.0291,-1.6201 -0.004,-2.43015 z"
       fill="#6c31a8"
       id="path102"
       style="mix-blend-mode:normal;stroke-width:0.264583" />
    <path
       d="m 85.961491,127.17607 c 3.634769,-2.59682 10.663622,-4.7014 15.008249,-3.12587 l -0.34806,0.3624 c -4.677956,-0.18991 -10.509745,0.31007 -14.353422,3.37199 -0.912959,0.40309 -2.034045,1.74994 -2.731309,2.54062 l -0.681759,-0.43023 c 0.741649,-0.81199 2.212525,-1.97087 3.106301,-2.71891 z"
       fill="#6c31a8"
       id="path103"
       style="mix-blend-mode:normal;stroke-width:0.264583" />
    <path
       d="m 128.13673,75.431563 c 3.58224,4.852563 3.62062,14.668144 3.1776,20.472231 -2.05652,-1.59104 -3.53438,-2.658838 -5.68412,-4.08902 0.67285,-0.408899 1.48969,-0.790678 1.87708,-1.443755 l -0.20116,-0.344948 c -1.59452,-0.06787 -2.44372,0.224797 -3.92313,0.695717 0.36453,-0.507738 0.72207,-1.021283 1.07206,-1.538718 0.32886,-0.494177 0.63118,-0.936017 0.51181,-1.530964 l -0.38817,-0.06787 c -1.39201,0.509669 -2.64972,1.505763 -3.79561,2.426275 1.38077,-4.197541 4.46536,-11.350421 7.35365,-14.579003 z"
       fill="#5e4a55"
       id="path104"
       style="mix-blend-mode:normal;stroke-width:0.264583" />
    <path
       d="m 78.247386,88.276131 c 2.901455,1.073605 11.435104,6.831177 13.274199,9.170256 -1.706336,-0.405023 -3.340981,-0.773228 -5.038215,-0.249986 l -0.0467,0.242247 c 1.095514,0.565868 1.859243,0.978657 2.900489,1.639487 -1.504029,0.426349 -2.39721,0.57362 -3.56714,1.643365 l 2.603988,0.45929 c -1.179614,2.07164 -2.278421,4.18979 -3.293883,6.3467 -3.724889,-5.14907 -6.881185,-12.80581 -6.832738,-19.251346 z"
       fill="#5e4a55"
       id="path105"
       style="mix-blend-mode:normal;stroke-width:0.264583" />
    <path
       d="m 114.61369,123.87773 c 0.40231,2.2228 3.29661,2.23249 5.07427,1.87009 1.1238,-0.23062 2.05264,-2.43597 3.1435,-2.89139 l 0.16763,0.24613 c -0.32848,1.53677 -1.09919,2.59488 -1.59743,3.98825 -1.22185,3.41461 -3.09796,7.09668 -7.42012,5.85446 -1.43096,-0.41084 -7.45635,-4.65101 -7.72204,-5.81765 0.71374,-0.38951 1.44956,0.36433 2.06893,0.80424 2.691,0.12396 5.59131,-0.56199 5.657,-3.84677 z"
       fill="#1d1a26"
       id="path106"
       style="mix-blend-mode:normal;stroke-width:0.264583" />
    <path
       d="m 110.52971,129.20509 c 1.94355,-0.69765 2.96135,-1.22284 4.17081,-2.91463 2.44276,0.78098 2.93828,0.83718 5.51669,0.63369 -0.28255,1.08331 -0.38158,1.53678 -0.89049,2.56776 -1.99257,2.9127 -4.0768,3.27315 -7.12187,1.63173 -0.72459,-0.65502 -1.08,-1.15694 -1.67514,-1.91855 z"
       fill="#b04254"
       id="path107"
       style="mix-blend-mode:normal;stroke-width:0.264583" />
    <path
       d="m 112.20485,131.12363 c 2.06602,-1.68599 4.46615,-3.01154 7.12187,-1.63174 -1.99257,2.9127 -4.0768,3.27315 -7.12187,1.63174 z"
       fill="#f86e90"
       id="path108"
       style="mix-blend-mode:normal;stroke-width:0.264583" />
    <path
       d="m 110.37584,97.634366 c 0.7147,0.137587 1.55421,0.72285 2.00285,1.263529 2.77569,3.339045 -0.80695,8.532685 -4.89985,7.753635 -1.61371,-0.30813 -2.65554,-1.35074 -3.4933,-2.63364 -0.0816,-0.22092 -0.15542,-0.44571 -0.2215,-0.67245 -0.32402,-1.08136 -0.41898,-3.889416 0.80927,-4.207243 0.0287,0.327511 0.063,0.682156 0.0924,1.011603 0.47654,5.30797 9.33014,3.50764 5.71009,-2.515434 z"
       fill="#ebabbf"
       id="path109"
       style="mix-blend-mode:normal;stroke-width:0.264583" />
    <path
       d="m 123.7917,105.89379 c 2.3476,-0.12211 3.27199,0.21512 5.28085,1.28679 l 0.20019,-0.093 c 0.84087,-0.40115 1.08969,-0.70153 1.8447,-0.0717 0.25057,0.99415 -0.7899,2.89332 -1.24706,2.75379 -2.59876,-0.79649 -3.94213,-1.717 -6.75754,-0.98447 l -0.25348,0.0679 c -2.76891,1.15694 -3.51888,4.81768 -4.7609,4.84869 -0.6866,-1.05423 -0.0843,-3.22858 0.51801,-4.24211 1.18775,-1.99994 2.95805,-3.02705 5.17523,-3.56578 z"
       fill="#1d1a26"
       id="path110"
       style="mix-blend-mode:normal;stroke-width:0.264583" />
    <path
       d="m 98.862444,112.49824 c 2.423176,-0.11629 7.148426,2.02708 6.673246,4.76148 -1.90363,0.80811 -3.33014,-4.02314 -8.709223,-1.53872 l -0.25115,0.11828 c -1.846265,1.30615 -2.108263,1.88366 -3.341179,3.79445 -1.380769,-0.74417 -1.931913,-1.39337 -3.005915,-2.50186 l 2.261554,-0.4748 c 2.226099,-2.54061 3.016181,-3.4592 6.372667,-4.15878 z"
       fill="#1d1a26"
       id="path111"
       style="mix-blend-mode:normal;stroke-width:0.264583" />
    <path
       d="m 113.98542,124.08509 c -0.56142,-0.19961 -0.54029,-0.16279 -0.90055,-0.62982 -0.0508,-0.59107 -0.008,-0.99997 -0.37829,-1.44376 -1.69723,-0.76547 -1.50692,0.4031 -2.73867,0.32364 -0.43061,-0.77711 -0.34999,-0.38177 -0.32693,-1.21121 1.0209,-2.00187 7.5798,-3.5871 7.70751,-0.99028 -0.37033,0.66083 -0.10968,0.48642 -0.71198,0.66665 -0.23663,-0.0988 -0.82634,-0.38759 -1.05617,-0.26744 -1.65072,0.86432 0.0252,1.69762 -0.96663,3.34486 z"
       fill="#f86e90"
       id="path112"
       style="mix-blend-mode:normal;stroke-width:0.264583" />
    <path
       d="m 128.90608,131.70694 0.33042,-0.12978 0.23508,0.92052 c 0.0405,0.54843 0.15348,1.48639 0.12189,1.99024 -7.14318,8.05013 -18.96918,10.27487 -28.46868,5.07155 -0.64552,-0.35465 -1.540449,-0.98446 -1.935603,-1.57941 0.06415,-0.13371 0.194766,-0.68797 0.240501,-0.86432 0.928462,0.20154 1.945292,0.3934 2.848552,0.66471 1.07573,0.0136 4.9514,0.54068 6.32771,0.62207 9.09817,0.54843 13.03273,-1.92436 20.30014,-6.69554 z"
       fill="#7c29de"
       id="path113"
       style="mix-blend-mode:normal;stroke-width:0.264583" />
    <path
       d="m 102.27822,137.7804 c 1.07574,0.0136 4.95141,0.54068 6.32772,0.62207 9.09816,0.54843 13.03273,-1.92436 20.30014,-6.69554 -0.27557,1.80809 -3.2687,3.62005 -4.67196,4.8235 -4.88783,4.18979 -16.70451,5.32736 -21.9559,1.24995 z"
       fill="#6c31a8"
       id="path114"
       style="mix-blend-mode:normal;stroke-width:0.264583" />
    <path
       d="m 88.897448,130.80774 c 0.660063,-0.68601 1.380187,-1.31003 2.151682,-1.86428 2.379959,-1.73057 6.58856,-3.56578 9.56792,-3.10843 l 0.19089,-0.10663 c 0.40135,1.02128 0.42557,0.64145 0.0862,1.49801 l -0.19128,0.11245 -0.12654,0.45735 c -0.793189,0.42635 -1.311007,0.52711 -2.02494,0.88175 -2.212525,1.09686 -4.603927,3.23826 -6.041862,5.2382 -0.281776,0.56199 -0.416268,0.88175 -0.813737,1.38368 l -0.165502,-0.0408 c -0.831954,0.90889 -0.996874,3.17432 -2.016992,3.53091 l -0.205415,-0.24418 c 0.211421,-1.25383 1.188147,-2.36814 1.643164,-3.68205 l -0.23972,-0.15697 c -1.143761,-0.59107 -1.975716,-1.08911 -3.069284,-1.76932 -0.343599,0.4903 -0.892996,1.45538 -1.547039,1.35654 0.07809,-0.67245 0.551342,-1.07942 1.007722,-1.62203 0.49804,-0.60076 1.231739,-1.29842 1.794709,-1.86429 z"
       fill="#302d36"
       id="path115"
       style="mix-blend-mode:normal;stroke-width:0.264583" />
    <path
       d="m 88.897448,130.80774 c 0.660063,-0.68601 1.380187,-1.31003 2.151682,-1.86428 2.379959,-1.73057 6.58856,-3.56578 9.56792,-3.10843 -0.773423,0.6744 -3.258225,0.78486 -4.511488,1.28872 -2.699135,1.0833 -4.738618,2.17048 -6.948616,4.05025 l -1.514878,1.76352 c -0.343598,0.4903 -0.892995,1.45538 -1.547038,1.35654 0.07809,-0.67245 0.551342,-1.07942 1.007722,-1.62203 0.49804,-0.60076 1.231738,-1.29842 1.794709,-1.86429 z"
       fill="#6c31a8"
       id="path116"
       style="mix-blend-mode:normal;stroke-width:0.264583" />
    <path
       d="m 100.70289,127.33886 -0.12654,0.45735 c -0.793195,0.42635 -1.311013,0.52711 -2.024947,0.88175 -2.212525,1.09686 -4.603927,3.23826 -6.041861,5.2382 -0.281777,0.56199 -0.416268,0.88175 -0.813737,1.38368 l -0.165502,-0.0408 c -0.831954,0.90889 -0.996874,3.17432 -2.016992,3.53091 l -0.205416,-0.24418 c 0.211422,-1.25383 1.188147,-2.36814 1.643165,-3.68205 l -0.23972,-0.15697 c 0.472851,-0.33914 0.797848,-0.81005 1.183107,-1.27128 0.221886,-0.13371 2.028038,-1.97668 2.300118,-2.25768 1.983852,-2.05226 3.768877,-3.05416 6.508325,-3.83903 z"
       fill="#6c31a8"
       id="path117"
       style="mix-blend-mode:normal;stroke-width:0.264583" />
    <path
       d="m 89.156933,131.17402 c 1.053073,1.03873 1.524958,1.39724 2.737514,2.26155 -0.385259,0.46122 -0.710256,0.93214 -1.183107,1.27128 -1.143762,-0.59107 -1.975716,-1.08911 -3.069285,-1.76932 z"
       fill="#e8e7ec"
       id="path118"
       style="mix-blend-mode:normal;stroke-width:0.264583" />
    <path
       d="m 100.70289,127.33886 0.19127,-0.11245 0.32984,1.80226 c -2.717934,0.40115 -5.475028,3.67818 -7.079046,5.78276 l -1.635412,-0.89532 c 1.437934,-1.99994 3.829336,-4.14134 6.041861,-5.23821 0.713934,-0.35464 1.231739,-0.45541 2.024947,-0.88175 z"
       fill="#342246"
       id="path119"
       style="mix-blend-mode:normal;stroke-width:0.264583" />
    <path
       d="m 83.536949,130.32521 c 0.697264,-0.79068 1.81835,-2.13753 2.731309,-2.54062 0.915089,1.14726 1.579596,2.00769 2.629177,3.02317 -0.562971,0.56587 -1.296669,1.26353 -1.794709,1.86428 -0.648619,-0.41084 -1.192989,-0.73448 -1.867379,-1.10268 -0.551726,-0.4748 -1.09861,-0.83138 -1.698398,-1.24415 z"
       fill="#e8e7ec"
       id="path120"
       style="mix-blend-mode:normal;stroke-width:0.264583" />
    <path
       d="m 101.224,129.02874 c -0.39476,0.85268 -6.021912,3.98243 -6.226361,6.18004 l 0.127903,0.20736 c -0.466646,0.39147 -0.442039,0.38952 -0.76529,0.91471 -0.753662,0.86431 -1.376126,3.55027 -2.295276,3.79832 0.173055,-1.07748 1.403643,-3.9398 1.409067,-4.11227 0.169563,-0.38952 0.450956,-0.82943 0.670911,-1.20539 1.604018,-2.10458 4.361098,-5.38161 7.079046,-5.78276 z"
       fill="#6c31a8"
       id="path121"
       style="mix-blend-mode:normal;stroke-width:0.264583" />
    <path
       d="m 112.89243,218.72748 c 0.40794,-0.20348 2.3104,-0.81586 2.41021,-1.37785 0.14786,-0.83138 0.21724,-1.9263 0.97341,-2.51543 1.01315,1.30034 -0.72536,3.84871 -0.75637,5.29247 -1.16508,-0.30038 -1.74297,-0.59882 -2.62725,-1.39919 z"
       fill="#1d1a26"
       id="path122"
       style="mix-blend-mode:normal;stroke-width:0.264583" />
    <path
       d="m 94.360252,136.33083 c 0.323251,-0.52517 0.298631,-0.52324 0.76529,-0.9147 1.296854,0.53875 2.740425,1.17826 4.065762,1.59297 l 0.23837,0.10663 c -0.04573,0.17635 -0.17635,0.7306 -0.2405,0.86432 -1.341425,-0.53488 -3.295828,-1.07361 -4.828922,-1.64918 z"
       fill="#e8e7ec"
       id="path123"
       style="mix-blend-mode:normal;stroke-width:0.264583" />
    <path
       d="m 92.509542,133.91618 1.635412,0.89532 c -0.219955,0.37596 -0.501348,0.81587 -0.670911,1.20538 l -1.778238,-0.71702 c 0.397469,-0.50192 0.53196,-0.82168 0.813737,-1.38368 z"
       fill="#e8e7ec"
       id="path124"
       style="mix-blend-mode:normal;stroke-width:0.264583" />
    <path
       d="m 82.707323,129.82522 0.147867,0.0697 0.681759,0.43023 c 0.599788,0.41277 1.146672,0.76935 1.698398,1.24415 -0.999004,-0.16279 -1.396473,-0.0775 -2.220093,-0.60463 -0.444169,-0.73448 -0.37654,-0.36046 -0.307931,-1.13951 z"
       fill="#1d1a26"
       id="path125"
       style="mix-blend-mode:normal;stroke-width:0.264583" />
    <path
       d="m 75.869359,128.58301 c 1.271282,-0.0504 2.378993,-0.19766 3.092146,0.97865 0.05212,1.44569 -1.084653,2.47086 -1.982887,3.67237 -2.914631,1.23252 -3.945029,-2.93401 -1.109272,-4.65101 z"
       fill="#815e6e"
       id="path126"
       style="mix-blend-mode:normal;stroke-width:0.264583" />
    <path
       d="m 73.894424,125.58117 c 0.610451,-0.16472 1.239887,0.19185 1.412163,0.80036 0.17209,0.60851 -0.177131,1.2422 -0.783508,1.4205 -0.398818,0.11827 -0.830009,0.0135 -1.129222,-0.27519 -0.299213,-0.28875 -0.420145,-0.71703 -0.316465,-1.12012 0.103482,-0.40115 0.415686,-0.71703 0.817032,-0.82555 z"
       fill="#815e6e"
       id="path127"
       style="mix-blend-mode:normal;stroke-width:0.264583" />
    <path
       d="m 71.549537,128.29426 c 0.486424,-0.30038 1.123613,-0.15891 1.439495,0.31781 0.315684,0.47673 0.196313,1.11625 -0.270148,1.44763 -0.315101,0.2248 -0.72711,0.25774 -1.074968,0.0892 -0.347858,-0.1686 -0.576147,-0.51354 -0.595912,-0.8992 -0.01957,-0.38564 0.172474,-0.75191 0.501533,-0.9554 z"
       fill="#815e6e"
       id="path128"
       style="mix-blend-mode:normal;stroke-width:0.264583" />
    <path
       d="m 71.285977,131.41625 c 0.915288,-0.0562 1.319728,-0.19766 1.991803,0.4806 0.139334,0.66471 0.0064,0.84106 -0.240103,1.47089 -0.736992,-0.005 -1.124195,-0.12211 -1.637357,-0.61432 -0.289132,-0.66666 -0.268017,-0.61821 -0.114343,-1.33717 z"
       fill="#815e6e"
       id="path129"
       style="mix-blend-mode:normal;stroke-width:0.264583" />
    <path
       d="m 76.961764,125.59085 c 0.494746,-0.28294 1.125161,-0.11047 1.404807,0.38759 0.279832,0.49611 0.101934,1.12399 -0.396106,1.40111 -0.49378,0.27519 -1.116443,0.0988 -1.393761,-0.39339 -0.277318,-0.49223 -0.105228,-1.11624 0.38506,-1.39531 z"
       fill="#815e6e"
       id="path130"
       style="mix-blend-mode:normal;stroke-width:0.264583" />
    <path
       d="m 118.76512,214.65397 c 0.41781,0.22286 0.26685,0.11629 0.56723,0.51937 0.16142,1.02128 -0.0771,1.9573 -0.24806,2.99021 -0.78194,-0.60463 -0.39727,-2.52899 -0.31917,-3.50958 z"
       fill="#110721"
       id="path131"
       style="mix-blend-mode:normal;stroke-width:0.264583" />
    <path
       d="m 102.16273,225.91913 c 8.88732,-0.44572 26.5577,0.0193 35.03457,3.8681 0.412,0.1841 1.02632,0.98834 1.04667,1.40111 0.068,1.36818 -1.55732,2.12978 -3.03034,2.59489 -7.3211,2.30807 -15.56871,2.66271 -23.16227,3.03867 -5.59401,0.10663 -33.419695,0.005 -36.303898,-4.9979 -0.412776,-5.07543 22.800647,-5.76145 26.415268,-5.90486 z"
       fill="#c4c4d7"
       id="path372"
       style="mix-blend-mode:normal;stroke-width:0.264583" />
    <path
       d="m 63.40522,108.12047 c 2.174159,2.54837 2.245863,2.78868 5.528898,3.64911 -0.08197,0.90308 0.02229,3.02317 -0.45929,3.57548 l -0.524407,0.008 c -2.651469,-0.70153 -4.399663,-1.75382 -6.208329,-3.83516 0.484863,-1.17632 1.076132,-2.26738 1.663128,-3.39718 z"
       fill="#fac25c"
       id="path383"
       style="mix-blend-mode:normal;stroke-width:0.264583" />
    <path
       d="m 148.59616,91.248906 3.29002,1.48445 c -0.95985,3.071613 -1.49142,4.350634 -4.28901,6.116092 -1.08852,-0.653077 -2.11912,-1.449563 -3.14312,-2.203423 3.11424,-1.2519 3.65279,-2.230557 4.14213,-5.397119 z"
       fill="#4bc9cf"
       id="path387"
       style="mix-blend-mode:normal;stroke-width:0.264583" />
    <path
       d="m 145.32611,74.45485 c 0.72846,0.490301 0.19302,1.831342 0.69204,2.815807 0.50347,0.994149 1.41254,1.800332 2.20187,2.575505 -0.97225,0.418596 -2.0854,0.97478 -3.05707,1.432126 -0.10931,-0.06205 -0.20736,-0.141464 -0.30697,-0.218989 -1.68096,-1.286786 -2.25768,-3.242142 -2.5226,-5.238205 0.88292,-0.507738 2.04025,-0.959276 2.99274,-1.36623 z"
       fill="#f86e90"
       id="path390"
       style="mix-blend-mode:normal;stroke-width:0.264583" />
    <path
       d="m 61.008195,127.116 c 0.865478,0.75191 1.197249,1.35266 1.790449,2.29837 -0.886407,2.16466 -1.499372,2.76541 -3.35241,3.99793 -0.545521,-0.37015 -1.034274,-1.75188 -1.336583,-2.43403 1.871652,-1.22283 2.263499,-1.77126 2.898557,-3.86227 z"
       fill="#7c29de"
       id="path395"
       style="mix-blend-mode:normal;stroke-width:0.264583" />
    <path
       d="m 158.95166,99.605227 c 1.63328,1.724753 2.23307,1.827463 4.5078,2.092953 -0.48255,0.97672 -0.67479,1.38949 -1.34686,2.28481 -2.34742,-0.091 -3.26327,-0.85656 -4.76497,-2.45728 0.44242,-0.61045 1.1021,-1.33523 1.60401,-1.920483 z"
       fill="#7c29de"
       id="path396"
       style="mix-blend-mode:normal;stroke-width:0.264583" />
    <path
       d="m 159.12006,81.239525 c 0.93601,-0.02514 1.71796,-0.0426 2.36368,0.713153 -0.0777,1.255777 -1.89218,2.432096 -2.72918,3.662671 -0.5746,0.05808 -1.91176,-0.965084 -2.55088,-1.368175 0.9461,-1.499955 1.37747,-2.017376 2.91638,-3.007662 z"
       fill="#fac25c"
       id="path397"
       style="mix-blend-mode:normal;stroke-width:0.264583" />
    <path
       d="m 54.860325,117.0543 c 1.578446,0.031 2.605734,0.77905 3.764221,1.73445 l -1.611388,2.06777 c -1.201508,-1.11431 -2.028806,-1.28097 -3.567324,-1.7325 z"
       fill="#4bc9cf"
       id="path400"
       style="mix-blend-mode:normal;stroke-width:0.264583" />
  </g>
</svg>
