<?xml version="1.0" encoding="UTF-8" standalone="no"?>
<!-- Created with Inkscape (http://www.inkscape.org/) -->

<svg
   width="300mm"
   height="360.6705mm"
   viewBox="0 0 300 360.67051"
   version="1.1"
   id="svg1"
   inkscape:version="1.4.3 (0d15f75, 2025-12-25)"
   sodipodi:docname="error.svg"
   xmlns:inkscape="http://www.inkscape.org/namespaces/inkscape"
   xmlns:sodipodi="http://sodipodi.sourceforge.net/DTD/sodipodi-0.dtd"
   xmlns="http://www.w3.org/2000/svg"
   xmlns:svg="http://www.w3.org/2000/svg">
  <sodipodi:namedview
     id="namedview1"
     pagecolor="#ffffff"
     bordercolor="#000000"
     borderopacity="0.25"
     inkscape:showpageshadow="2"
     inkscape:pageopacity="0.0"
     inkscape:pagecheckerboard="0"
     inkscape:deskcolor="#d1d1d1"
     inkscape:document-units="mm"
     inkscape:zoom="0.41080892"
     inkscape:cx="567.17366"
     inkscape:cy="681.58208"
     inkscape:window-width="1594"
     inkscape:window-height="779"
     inkscape:window-x="0"
     inkscape:window-y="34"
     inkscape:window-maximized="0"
     inkscape:current-layer="layer1" />
  <defs
     id="defs1">
    <linearGradient
       x1="214.50439"
       y1="279.44531"
       x2="292.7373"
       y2="227.57227"
       gradientUnits="userSpaceOnUse"
       id="color-18">
      <stop
         offset="0"
         stop-color="#242332"
         id="stop35" />
      <stop
         offset="1"
         stop-color="#3f3f38"
         id="stop36" />
    </linearGradient>
    <linearGradient
       x1="258.18164"
       y1="244.9248"
       x2="258.95508"
       y2="249.71777"
       gradientUnits="userSpaceOnUse"
       id="color-19">
      <stop
         offset="0"
         stop-color="#592d8e"
         id="stop37" />
      <stop
         offset="1"
         stop-color="#7d42c6"
         id="stop38" />
    </linearGradient>
  </defs>
  <g
     inkscape:label="Layer 1"
     inkscape:groupmode="layer"
     id="layer1"
     transform="translate(-170.65625,-88.106241)">
    <g
       id="g718"
       style="mix-blend-mode:normal;stroke-width:0.0811062"
       transform="matrix(3.2621854,0,0,3.2621854,-492.28259,-478.99308)">
      <path
         d="m 216.8584,192.375 c 8.05664,-0.0952 16.33008,0.003 24.40576,0.004 l 8.44922,0.003 c 1.53809,0 3.07324,-0.0249 4.60986,0.0542 0.97559,0.0498 1.37695,0.68115 1.87939,1.43262 -0.0132,4.76221 0.0571,9.79688 -0.0703,14.53857 1.83398,0.16699 2.98682,0.36621 4.7915,0.65332 l 0.15381,-0.22266 c 1.38867,-2.40381 6.87598,-8.04346 9.19482,-9.23291 3.58594,3.78955 4.73145,12.65918 4.59082,17.79639 -0.022,0.81885 -0.19775,3.14941 0.0308,3.68994 2.23096,5.25879 2.33643,9.97412 -0.0513,15.48633 -0.16406,-0.006 -0.5332,-0.0937 -0.71191,-0.13037 0.14941,0.43066 0.18457,0.271 0.0908,0.6123 l 0.16406,0.14502 c -0.4292,0.97412 -1.3125,2.07422 -1.98193,2.9209 1.31836,0.79395 2.27051,1.18652 3.43066,2.2251 -1.27734,-0.35742 -3.2417,-1.5 -4.06201,-1.55566 l -0.2373,0.13916 -0.39844,-0.26807 c -0.81738,0.21973 -2.15039,1.22314 -2.70117,1.8501 l 0.71191,0.41309 c -0.19922,0.0439 -0.41602,0.0762 -0.59619,0.15234 l -0.7749,-0.26221 c -5.22363,2.57666 -8.87842,3.87598 -14.85645,3.78369 -4.98633,-0.0762 -11.28369,-1.99512 -14.84619,-5.52979 l -0.56836,0.5127 c -0.40869,0.37939 -4.93945,3.88184 -5.45947,4.21143 1.53809,-2.11816 2.91943,-3.17285 5.13281,-4.52051 -0.48047,-0.58447 -1.00049,-1.31396 -1.46045,-1.9292 -0.5625,0.27539 -1.78857,0.64307 -2.47119,0.93018 -1.32129,0.55664 -2.61621,1.14258 -3.93457,1.69482 1.67139,-1.71533 4.01221,-2.43896 6.23438,-3.1582 -0.43506,-0.69727 -0.67529,-1.31982 -0.99756,-2.06982 -0.90674,-0.50391 -4.4458,0.7002 -5.94727,0.67969 0.37939,-1.00635 5.06982,-1.10449 5.56201,-1.5542 -1.06934,-2.96484 -1.05322,-6.06152 -0.74561,-9.14209 -1.14258,-0.78809 -18.89941,0.13184 -22.16602,-0.32666 -0.61523,-0.0864 -1.39893,-0.30176 -1.84717,-0.76172 -0.30029,-0.30908 -0.36182,-0.61377 -0.38672,-1.02686 -0.10107,-1.64355 -0.0132,-3.33984 -0.0146,-4.98926 l -0.001,-10.08691 0.0278,-10.79443 c 0.0103,-1.85449 -0.54199,-4.81055 0.87305,-6.04102 1.23047,-0.54639 5.35547,-0.34131 6.95508,-0.32666 z"
         fill="#383837"
         id="path409"
         style="stroke-width:0.0811062" />
      <path
         d="m 216.8584,192.375 c 8.05664,-0.0952 16.33008,0.003 24.40576,0.004 l 8.44922,0.003 c 1.53809,0 3.07324,-0.0249 4.60986,0.0542 0.97559,0.0498 1.37695,0.68115 1.87939,1.43262 -0.0132,4.76221 0.0571,9.79688 -0.0703,14.53857 -3.81006,0.007 -5.67773,0.31055 -9.22266,1.46631 -0.52881,-0.52441 -1.69629,-1.42529 -2.34521,-1.99951 -0.86572,-0.32959 -1.13086,-0.57275 -1.8457,-1.125 -0.84961,-0.28564 -1.99512,-1.03564 -2.74805,-1.53516 l -1.3418,-0.68262 c -1.31104,-0.40137 -3.4043,-1.95996 -5.06543,-2.04346 l -0.58594,0.0278 c -0.33105,0.57422 -0.56689,1.29199 -0.53906,1.95996 l -0.18604,0.74707 0.0308,1.48242 -0.009,1.12354 c -0.009,0.45557 0.001,1.14844 -0.0352,1.58203 l 0.16699,0.67383 c 0.15674,1.39307 0.61963,5.44482 1.05469,6.67529 l 0.2915,1.0752 c 0.0776,0.48193 0.36182,1.14697 0.54199,1.62012 l 0.33105,1.02393 c 0.22266,0.75586 0.36035,1.00049 -0.0483,1.70068 l -0.39111,1.08105 c -0.27393,1.05908 -0.62695,2.38477 -0.76758,3.46729 -1.14258,-0.78809 -18.89941,0.13184 -22.16602,-0.32666 -0.61523,-0.0864 -1.39893,-0.30176 -1.84717,-0.76172 -0.30029,-0.30908 -0.36182,-0.61377 -0.38672,-1.02686 -0.10107,-1.64355 -0.0132,-3.33984 -0.0146,-4.98926 l -0.001,-10.08691 0.0278,-10.79443 c 0.0103,-1.85449 -0.54199,-4.81055 0.87305,-6.04102 1.23047,-0.54639 5.35547,-0.34131 6.95508,-0.32666 z"
         fill="#4c505e"
         id="path410"
         style="stroke-width:0.0811062" />
      <path
         d="m 210.48926,193.15283 c 3.36768,-0.10254 7.14258,0.0776 10.60986,0.0366 2.42285,0.16113 6.2915,0.0513 8.8418,0.0527 h 16.23633 c 1.56299,-0.003 7.69189,-0.16406 8.77441,0.21387 0.62109,0.67236 0.4585,1.89111 0.44824,2.82861 l -45.68262,-0.0498 c -0.007,-0.375 -0.0102,-0.75 -0.009,-1.125 0.0161,-1.02246 0.0674,-1.25391 0.78076,-1.95703 z"
         fill="#878aa0"
         id="path411"
         style="stroke-width:0.0811062" />
      <path
         d="m 213.7793,193.87354 c 0.28711,-0.0776 0.59326,0.004 0.7998,0.2168 0.20654,0.21387 0.28125,0.52148 0.19482,0.80566 -0.0864,0.28418 -0.31934,0.49805 -0.61084,0.55957 -0.4292,0.0908 -0.854,-0.17725 -0.95801,-0.60498 -0.104,-0.42773 0.15088,-0.85986 0.57422,-0.97705 z"
         fill="#ece5c8"
         id="path412"
         style="stroke-width:0.0811062" />
      <path
         d="m 211.48682,193.99951 c 0.41016,-0.0806 0.81006,0.18018 0.90381,0.5874 0.0937,0.40723 -0.15234,0.81592 -0.55664,0.92285 -0.27393,0.0718 -0.56543,-0.0103 -0.76025,-0.21533 -0.19482,-0.20508 -0.26367,-0.50098 -0.17725,-0.77051 0.0864,-0.26953 0.31201,-0.47021 0.59033,-0.52441 z"
         fill="#ce99a6"
         id="path413"
         style="stroke-width:0.0811062" />
      <path
         d="m 216.0293,194.18701 c 0.20361,-0.14502 0.46875,-0.16699 0.69434,-0.0586 0.22412,0.1084 0.37354,0.32959 0.38672,0.57861 0.0147,0.24902 -0.10693,0.48633 -0.31787,0.61963 -0.31494,0.19775 -0.72949,0.10986 -0.93604,-0.19922 -0.20801,-0.30908 -0.13037,-0.72656 0.17285,-0.94043 z"
         fill="#9dd694"
         id="path414"
         style="stroke-width:0.0811062" />
      <path
         d="m 232.97754,202.51611 c -0.94336,-0.0352 -3.29297,0.2959 -3.84375,-0.4248 0.0996,-0.37207 0.5332,-0.70312 0.90967,-0.69727 5.54443,0.0791 11.09619,-0.0439 16.63916,0.0542 0.51709,0.009 0.79248,-0.019 1.11621,0.35303 0.007,0.41748 0.0601,0.22705 -0.22998,0.56104 -1.00195,0.40137 -12.01758,0.15674 -14.00537,0.12598 z"
         fill="#9dd694"
         id="path415"
         style="stroke-width:0.0811062" />
      <path
         d="m 232.27441,207.8291 c -3.54785,0.21826 -7.41357,-0.16699 -10.98779,0.0454 -0.55811,0.0337 -1.38135,0.11719 -1.8208,-0.2417 -0.0322,-0.56543 -0.12744,-0.50537 0.14355,-0.84375 2.92529,-0.28271 9.50977,-0.0908 12.67383,-0.0835 z"
         fill="#9dd694"
         id="path416"
         style="stroke-width:0.0811062" />
      <path
         d="m 232.40625,210.08496 c -0.0835,0.27393 -0.009,0.15381 -0.23437,0.35449 -1.15869,0.13477 -9.1084,0.23438 -9.66504,-0.15674 -0.0674,-0.48633 -0.0894,-0.24463 0.1377,-0.73975 0.50244,-0.34863 8.26025,-0.12891 9.59473,-0.13184 z"
         fill="#9dd694"
         id="path417"
         style="stroke-width:0.0811062" />
      <path
         d="m 233.75244,217.83545 c -1.21143,0.0703 -8.10352,0.21387 -9.02197,0.0234 -0.1333,-0.48047 -0.1377,-0.44531 -0.0381,-0.93164 1.02539,-0.32812 7.31396,-0.17578 8.76855,-0.16699 z"
         fill="#d67c7b"
         id="path418"
         style="stroke-width:0.0811062" />
      <path
         d="m 209.90332,192.70166 c 1.23047,-0.54639 5.35547,-0.34131 6.95508,-0.32666 1.25391,0.29004 9.271,0.17871 10.88818,0.17871 l 24.69727,-0.004 c -1.87646,0.78076 -19.55273,-0.31201 -22.7373,0.14502 -3.03955,0.43652 -10.35937,-0.64453 -13.31396,0.15527 0.81152,0.0776 4.3125,0.22998 4.70654,0.33984 -3.46729,0.041 -7.24219,-0.13916 -10.60986,-0.0366 0.42334,-0.48047 2.4668,-0.0923 3.38379,-0.35596 -1.14404,-0.085 -3.0498,0.001 -3.76611,-0.0732 z"
         fill="#1e1a28"
         id="path419"
         style="stroke-width:0.0811062" />
      <path
         d="m 242.71875,206.74951 c 1.32861,-0.13037 6.53467,-0.24023 7.60986,0.20361 0.18896,0.39551 0.12305,0.18457 0.0439,0.70166 -0.84814,0.42188 -4.57031,0.1875 -5.80811,0.21973 -0.86572,-0.32959 -1.13086,-0.57275 -1.8457,-1.125 z"
         fill="#9dd694"
         id="path420"
         style="stroke-width:0.0811062" />
      <path
         d="m 234.62549,220.47949 c -1.00635,0.31641 -5.58545,0.25635 -6.51416,-0.40137 l -0.0103,-0.18457 c 1.00928,-0.70898 4.82227,-0.45703 6.19336,-0.43799 z"
         fill="#d67c7b"
         id="path421"
         style="stroke-width:0.0811062" />
      <path
         d="m 232.25244,205.22314 c -1.53076,-0.009 -3.4248,0.0791 -4.97314,-0.001 -0.38525,-0.0205 -0.5332,-0.30908 -0.68848,-0.59033 0.0352,-0.31055 -0.0234,-0.18164 0.14355,-0.39844 0.80713,-0.30029 4.57324,-0.21826 5.51514,-0.0762 l 0.18896,0.31934 z"
         fill="#d67c7b"
         id="path422"
         style="stroke-width:0.0811062" />
      <path
         d="m 234.18604,223.26123 c -0.9082,0.0117 -3.41455,0.26074 -4.01807,-0.38818 -0.0571,-0.45996 -0.12598,-0.27832 0.0937,-0.59619 0.9668,-0.1582 3.22412,-0.0937 4.31543,-0.0967 z"
         fill="#9dd694"
         id="path423"
         style="stroke-width:0.0811062" />
      <path
         d="m 238.62891,204.53174 c 0.30908,-0.32373 0.40869,-0.29883 0.84814,-0.40137 0.51709,0.12451 0.30762,0 0.66357,0.36621 -0.0542,0.24023 -0.11133,0.479 -0.16992,0.71777 z"
         fill="#574b54"
         id="path424"
         style="stroke-width:0.0811062" />
      <path
         d="m 214.979,198.76318 c 2.81104,-0.0776 5.64111,-0.0147 8.45361,-0.0132 2.07715,0 4.22607,-0.11279 6.29297,0.0732 0.25635,0.36475 0.14648,0.63135 0.12012,1.06348 -1.21582,0.19775 -13.25244,0.1582 -14.5957,-0.0234 -0.26367,-0.37061 -0.22998,-0.65332 -0.271,-1.1001 z"
         fill="#d67c7b"
         id="path425"
         style="stroke-width:0.0811062" />
      <path
         d="m 215.09033,214.05029 c 2.6001,-0.006 7.72412,-0.31055 10.06641,0.13037 0.2373,0.37061 0.13916,0.60791 0.10254,1.04004 -2.59277,0.082 -7.57031,0.30908 -9.94775,-0.0308 -0.26514,-0.3252 -0.21094,-0.73975 -0.22119,-1.13965 z"
         fill="#d67c7b"
         id="path426"
         style="stroke-width:0.0811062" />
      <path
         d="m 219.93457,222.14063 c 1.71533,-0.007 7.64063,-0.35303 8.87402,0.2666 0.14941,0.31787 0.11133,0.36621 0.041,0.71631 l -0.31201,0.10693 c -1.42383,0.0103 -8.10059,0.32373 -8.98682,-0.2373 -0.17285,-0.10986 -0.17432,-0.29004 -0.22998,-0.47314 0.22998,-0.27832 0.26367,-0.28271 0.61377,-0.37939 z"
         fill="#9dd694"
         id="path427"
         style="stroke-width:0.0811062" />
      <path
         d="m 219.63867,219.50391 c 2.07129,-0.0381 4.35791,-0.26367 6.40576,-0.0278 0.41602,0.0483 0.59473,0.0864 0.85547,0.41162 l -0.0601,0.51416 -0.33838,0.11133 c -2.05957,0.007 -4.3125,0.23877 -6.3501,0.0249 -0.42041,-0.044 -0.62109,-0.0542 -0.89355,-0.38379 l 0.0879,-0.53027 z"
         fill="#74b5ce"
         id="path428"
         style="stroke-width:0.0811062" />
      <path
         d="m 219.39404,204.10986 c 1.90576,-0.0483 3.9917,-0.19775 5.87988,0.009 0.23145,0.33691 0.17285,0.70605 0.19482,1.10889 -1.88818,0.007 -4.0957,0.2373 -5.94434,-0.0688 -0.19775,-0.38232 -0.14209,-0.62256 -0.13037,-1.04883 z"
         fill="#74b5ce"
         id="path429"
         style="stroke-width:0.0811062" />
      <path
         d="m 216.89063,216.78662 c 1.9585,-0.041 4.16748,-0.26074 6.09668,0.0337 0.21973,0.34863 0.18311,0.60791 0.20654,1.01367 -1.98633,-0.007 -4.02686,0.2373 -6.00146,0.041 -0.30469,-0.36768 -0.25781,-0.61963 -0.30176,-1.08838 z"
         fill="#74b5ce"
         id="path430"
         style="stroke-width:0.0811062" />
      <path
         d="m 216.9375,201.479 c 1.69336,-0.041 3.6167,-0.24756 5.2749,0.022 0.22559,0.30762 0.1582,0.69141 0.15088,1.05469 -1.6875,-0.0132 -3.54492,0.31934 -5.18262,-0.12012 -0.31641,-0.35596 -0.2417,-0.49365 -0.24316,-0.95654 z"
         fill="#d67c7b"
         id="path431"
         style="stroke-width:0.0811062" />
      <path
         d="m 223.48682,201.43799 c 1.44873,0.0161 3.03809,-0.27539 4.43555,0.13037 0.31201,0.35303 0.24023,0.51855 0.24902,0.97852 -1.10156,-0.0249 -2.2002,0.10107 -3.29736,0.0615 -0.53613,-0.0205 -1.04443,-0.0395 -1.41943,-0.44824 z"
         fill="#9dd694"
         id="path432"
         style="stroke-width:0.0811062" />
      <path
         d="m 219.42773,209.38184 c 0.68408,-0.0454 1.50732,-0.20801 2.14746,0.0659 0.28564,0.38525 0.22852,0.57422 0.23877,1.0459 -0.71484,-0.0103 -1.44434,0.17725 -2.13281,-0.0659 -0.31934,-0.37354 -0.24316,-0.56543 -0.25342,-1.0459 z"
         fill="#d67c7b"
         id="path433"
         style="stroke-width:0.0811062" />
      <path
         d="m 212.12402,216.76758 c 0.18896,-0.13916 0.43799,-0.16699 0.65186,-0.0703 0.21387,0.0952 0.35889,0.29883 0.38086,0.5332 0.0205,0.23291 -0.085,0.45996 -0.27832,0.59326 -0.2915,0.20068 -0.69141,0.13037 -0.89648,-0.1582 -0.20508,-0.28711 -0.14209,-0.68701 0.14209,-0.89795 z"
         fill="#bebfd3"
         id="path434"
         style="stroke-width:0.0811062" />
      <path
         d="m 212.07129,206.81396 c 0.23877,-0.22998 0.61377,-0.24023 0.86572,-0.0234 0.25049,0.2168 0.29736,0.58887 0.10547,0.8584 -0.14209,0.20068 -0.38379,0.30322 -0.62549,0.26514 -0.2417,-0.0381 -0.44092,-0.20947 -0.51416,-0.44238 -0.0732,-0.23291 -0.007,-0.48779 0.16846,-0.65771 z"
         fill="#bebfd3"
         id="path435"
         style="stroke-width:0.0811062" />
      <path
         d="m 211.96582,209.26172 c 0.32959,0.022 0.59912,0.0586 0.91406,0.1582 0.23438,0.43506 0.14502,0.76318 0.12158,1.25098 -0.28271,-0.0264 -0.55225,-0.0776 -0.83057,-0.13477 -0.28271,-0.4248 -0.20068,-0.77051 -0.20508,-1.27441 z"
         fill="#bebfd3"
         id="path436"
         style="stroke-width:0.0811062" />
      <path
         d="m 211.94385,213.99023 c 0.31494,0.001 0.58008,0.0249 0.8877,0.0952 0.24902,0.39111 0.17139,0.76025 0.17725,1.21729 -0.27686,0.003 -0.54053,-0.0249 -0.81592,-0.0571 -0.31787,-0.38232 -0.22852,-0.76758 -0.24902,-1.25537 z"
         fill="#bebfd3"
         id="path437"
         style="stroke-width:0.0811062" />
      <path
         d="m 212.1123,222.18311 c 0.17871,-0.14062 0.42041,-0.17432 0.63135,-0.0879 0.21094,0.0864 0.35742,0.27979 0.38525,0.50684 0.0278,0.22559 -0.0688,0.44971 -0.25195,0.58447 -0.27686,0.20361 -0.6665,0.14795 -0.87598,-0.12598 -0.20801,-0.27393 -0.15967,-0.66357 0.11133,-0.87744 z"
         fill="#bebfd3"
         id="path438"
         style="stroke-width:0.0811062" />
      <path
         d="m 212.16943,198.75732 c 0.28564,-0.18164 0.66504,-0.10547 0.85693,0.17432 0.19189,0.27979 0.12598,0.66211 -0.14795,0.86133 -0.18457,0.13623 -0.42773,0.15967 -0.63574,0.063 -0.20801,-0.0967 -0.3457,-0.29883 -0.36182,-0.52734 -0.0147,-0.22852 0.0952,-0.44678 0.28857,-0.57129 z"
         fill="#9fa3be"
         id="path439"
         style="stroke-width:0.0811062" />
      <path
         d="m 212.04639,211.78711 c 0.16113,-0.16992 0.40576,-0.23584 0.63135,-0.16846 0.22559,0.0659 0.39551,0.25342 0.43799,0.48486 0.0439,0.23145 -0.0454,0.46729 -0.23145,0.6123 -0.25928,0.20068 -0.62988,0.16699 -0.84961,-0.0762 -0.21973,-0.24316 -0.21533,-0.61523 0.0117,-0.85254 z"
         fill="#bebfd3"
         id="path440"
         style="stroke-width:0.0811062" />
      <path
         d="m 212.06836,201.53906 c 0.25342,-0.23584 0.65186,-0.22119 0.8877,0.0337 0.23438,0.25635 0.21533,0.65479 -0.0425,0.8877 -0.25342,0.22998 -0.64746,0.2124 -0.87891,-0.041 -0.23291,-0.25195 -0.21826,-0.64453 0.0337,-0.88037 z"
         fill="#bebfd3"
         id="path441"
         style="stroke-width:0.0811062" />
      <path
         d="m 212.06982,204.17432 c 0.16406,-0.1582 0.3999,-0.21387 0.61816,-0.14648 0.2168,0.0674 0.38086,0.24756 0.42627,0.47168 0.0454,0.22266 -0.0337,0.45264 -0.20801,0.60059 -0.25635,0.21826 -0.6416,0.19336 -0.86719,-0.0571 -0.22559,-0.25049 -0.2124,-0.63574 0.0308,-0.86865 z"
         fill="#bebfd3"
         id="path442"
         style="stroke-width:0.0811062" />
      <path
         d="m 212.10352,219.54199 c 0.17139,-0.14502 0.40723,-0.1875 0.61816,-0.1084 0.21094,0.0791 0.36182,0.26514 0.39551,0.48779 0.0322,0.22266 -0.0571,0.44531 -0.23584,0.58154 -0.2666,0.20508 -0.646,0.15967 -0.85693,-0.10107 -0.21094,-0.26074 -0.17578,-0.6416 0.0791,-0.85986 z"
         fill="#bebfd3"
         id="path443"
         style="stroke-width:0.0811062" />
      <path
         d="m 217.30811,211.10889 c 0.25928,0.0527 0.17285,0.019 0.39404,0.11719 0.20801,0.0923 0.22852,0.20361 0.2959,0.41162 0.15527,0.47607 -0.004,0.92139 -0.22998,1.3374 l -0.27686,-0.11426 c -0.0586,-0.58447 -0.11865,-1.16748 -0.18311,-1.75195 z"
         fill="#e4e5ef"
         id="path444"
         style="stroke-width:0.0811062" />
      <path
         d="m 271.77246,240.79541 0.019,-0.28271 c -2.04053,-0.82324 -4.44434,-1.46777 -6.63721,-1.71094 -0.71045,-0.0791 -3.07471,0.14941 -3.36621,-0.36035 2.68213,-0.90527 7.59961,0.61523 10.17334,1.50439 l 0.44238,0.18018 c 1.31836,0.79395 2.27051,1.18652 3.43066,2.2251 -1.27734,-0.35742 -3.2417,-1.5 -4.06201,-1.55566 z"
         fill="#604978"
         id="path445"
         style="stroke-width:0.0811062" />
      <path
         d="m 260.88721,237.36475 c 3.90527,-2.37451 9.00146,-1.79736 13.24365,-0.91699 0.14941,0.43066 0.18457,0.271 0.0908,0.6123 l -0.55078,-0.11279 c -3.71777,-1.52197 -9.11426,-0.14795 -12.78369,0.41748 z"
         fill="#604978"
         id="path446"
         style="stroke-width:0.0811062" />
      <path
         d="m 235.71826,239.34814 0.22119,-0.31641 0.45117,-0.0278 c 0.5127,0.90381 0.70752,1.13232 1.34619,1.9292 0.66064,-0.34717 1.13672,-0.67822 1.86914,-0.72949 l 0.3252,0.12598 c -0.0527,0.71191 -1.33008,0.83496 -1.85742,0.74414 l -0.56836,0.5127 c -0.40869,0.37939 -4.93945,3.88184 -5.45947,4.21143 1.53809,-2.11816 2.91943,-3.17285 5.13281,-4.52051 -0.48047,-0.58447 -1.00049,-1.31396 -1.46045,-1.9292 z"
         fill="#604978"
         id="path447"
         style="stroke-width:0.0811062" />
      <path
         d="m 234.16406,235.87061 c 0.69141,0.43066 4.49561,0.10547 5.79346,1.40625 -1.37109,0.0161 -4.14111,-1.09717 -5.4082,-0.53174 -0.90674,-0.50391 -4.4458,0.7002 -5.94727,0.67969 0.37939,-1.00635 5.06982,-1.10449 5.56201,-1.5542 z"
         fill="#604978"
         id="path448"
         style="stroke-width:0.0811062" />
      <path
         d="m 235.54688,238.81494 c 0.95508,-0.34863 3.72217,-0.83057 4.53516,-0.0835 -0.68555,0.32813 -2.79053,0.19336 -3.69141,0.27246 l -0.45117,0.0278 -0.22119,0.31641 c -0.5625,0.27539 -1.78857,0.64307 -2.47119,0.93018 -1.32129,0.55664 -2.61621,1.14258 -3.93457,1.69482 1.67139,-1.71533 4.01221,-2.43896 6.23438,-3.1582 z"
         fill="#604978"
         id="path449"
         style="stroke-width:0.0811062" />
      <path
         d="m 267.77637,242.81982 c -2.12402,-1.43555 -4.59229,-1.59961 -5.83301,-2.35107 l 0.0234,-0.21826 0.30322,-0.12158 c 1.99365,0.33398 4.53369,1.19385 6.16553,2.3877 l 0.71191,0.41309 c -0.19922,0.0439 -0.41602,0.0762 -0.59619,0.15234 z"
         fill="#604978"
         id="path450"
         style="stroke-width:0.0811062" />
      <path
         d="m 273.6709,236.94727 0.55078,0.11279 0.16406,0.14502 c -0.4292,0.97412 -1.3125,2.07422 -1.98193,2.9209 l -0.44238,-0.18018 c 0.30908,-0.75879 1.19678,-2.3833 1.70947,-2.99854 z"
         fill="#1e1a28"
         id="path451"
         style="stroke-width:0.0811062" />
      <path
         d="m 261.07764,208.83838 0.27246,0.30322 c -0.0718,1.0166 -0.52881,1.56299 -1.4707,1.90723 0.3501,-0.80566 0.76025,-1.03564 1.04443,-1.98779 z"
         fill="#2d2b31"
         id="path452"
         style="stroke-width:0.0811062" />
      <path
         d="m 238.10449,226.95117 c -0.49658,-0.28564 -0.85693,-0.42627 -1.17187,-0.89941 l 0.11133,-0.19629 c 2.55029,-0.23291 5.51953,3.34717 8.32764,3.51709 0.27393,0.0176 0.41016,0.0469 0.65186,0.17578 l 0.0132,0.31641 c -0.46143,0.51416 -0.74561,0.26367 -1.26709,0.70459 0.80713,1.58057 1.46045,3.52881 -0.54492,4.68604 -0.35889,0.20654 -2.19434,0.35742 -2.60156,0.24463 l -0.5625,-0.44678 -0.71484,-0.31494 -0.83057,-0.32959 -0.58887,0.2959 -1.70215,-1.27002 c -1.09863,-3.0498 -2.47705,-4.67285 0.88037,-6.4834 z"
         fill="#22182c"
         id="path453"
         style="stroke-width:0.0811062" />
      <path
         d="m 242.11523,229.54102 c 0.61523,0.24609 1.31982,0.49072 1.87061,0.84229 l 0.12451,0.34424 0.11572,0.15234 0.54346,-0.31055 c 0.80713,1.58057 1.46045,3.52881 -0.54492,4.68604 -0.35889,0.20654 -2.19434,0.35742 -2.60156,0.24463 l -0.5625,-0.44678 -0.71484,-0.31494 0.0469,-0.0718 c -0.35303,-0.98145 -1.13965,-1.55713 -0.7207,-2.97217 0.30762,-1.03857 0.86865,-1.4209 1.75928,-1.93945 z"
         fill="#204d91"
         id="path454"
         style="stroke-width:0.0811062" />
      <path
         d="m 244.76953,230.56934 c 0.80713,1.58057 1.46045,3.52881 -0.54492,4.68604 -0.35889,0.20654 -2.19434,0.35742 -2.60156,0.24463 l -0.5625,-0.44678 c 1.03711,-0.001 2.04932,-0.0205 3.02344,-0.3999 0.0879,-0.71777 0.16699,-1.43701 0.23877,-2.15625 l 0.36182,-0.006 -0.4585,-1.61133 z"
         fill="#2d2b31"
         id="path455"
         style="stroke-width:0.0811062" />
      <path
         d="m 244.68457,232.49121 c 0.0791,0.63721 0.22119,1.1543 -0.006,1.73291 -0.2666,0.24316 -0.27539,0.27246 -0.59473,0.4292 0.0879,-0.71777 0.16699,-1.43701 0.23877,-2.15625 z"
         fill="#e4e5ef"
         id="path456"
         style="stroke-width:0.0811062" />
      <path
         d="m 244.11035,230.72754 0.11572,0.15234 0.4585,1.61133 -0.36182,0.006 -0.25195,-0.0864 c -0.67383,0.26367 -1.64502,0.37354 -1.90576,-0.47754 0.37354,-1.20996 0.81152,-1.23193 1.94531,-1.20557 z"
         fill="#e4e5ef"
         id="path457"
         style="stroke-width:0.0811062" />
      <path
         d="m 242.11523,229.54102 c 0.61523,0.24609 1.31982,0.49072 1.87061,0.84229 -0.4292,0.18164 -1.6626,-0.48779 -2.55469,-0.62842 z"
         fill="#9fa3be"
         id="path458"
         style="stroke-width:0.0811062" />
      <path
         d="m 237.2373,230.7583 0.32959,-0.57715 c 1.24219,-2.20166 1.90137,-0.97412 3.72217,-1.02686 l 0.82617,0.38672 -0.68408,0.21387 c -0.89062,0.51855 -1.45166,0.90088 -1.75928,1.93945 -0.41895,1.41504 0.36768,1.99072 0.7207,2.97217 l -0.0469,0.0718 -0.83057,-0.32959 c -1.51758,-1.05615 -1.95117,-1.89404 -2.27783,-3.65039 z"
         fill="#e4e5ef"
         id="path459"
         style="stroke-width:0.0811062" />
      <path
         d="m 237.2373,230.7583 c -0.20508,-1.58203 0.3208,-3.33398 2.34961,-2.75537 0.38818,0.11133 1.34033,0.87744 1.70215,1.15137 -1.8208,0.0527 -2.47998,-1.1748 -3.72217,1.02686 z"
         fill="#9fa3be"
         id="path460"
         style="stroke-width:0.0811062" />
      <path
         d="m 269.26025,203.12549 c 0.0645,0.0571 0.1377,0.10547 0.19043,0.17285 0.30469,0.38379 0.46436,1.12646 0.5918,1.59961 1.17188,4.35645 0.93311,9.30615 0.43359,13.74902 -1.29053,-1.67432 -3.07471,-2.83594 -4.36377,-4.4502 l 0.21387,-0.18604 c 0.67969,-0.24756 1.34326,-0.54639 2.0083,-0.82617 -1.38428,-0.32227 -2.55469,-0.52002 -3.97412,-0.36328 l 1.75928,-1.9248 c -1.04443,0.0381 -1.86475,0.27979 -2.80811,0.70166 1.61279,-3.04248 3.67969,-5.88867 5.94873,-8.47266 z"
         fill="#574b54"
         id="path461"
         style="stroke-width:0.0811062" />
      <path
         d="m 260.89746,227.18994 c 1.68896,0.48193 3.47314,1.10156 3.479,3.17285 -0.76025,2.71436 -2.07275,4.06787 -4.90723,4.5791 -1.48535,0.37793 -2.74365,-0.0937 -4.14258,-0.55078 -0.62842,-0.18896 -0.3999,-0.0161 -0.78955,-0.42773 -0.26367,-1.05029 0.0879,-1.75049 0.40869,-2.81396 0.2666,-1.05029 1.20264,-1.33447 2.13281,-1.66113 l 1.74756,-0.94189 c 0.69434,-0.48047 1.33154,-0.94189 2.07129,-1.35645 z"
         fill="#204d91"
         id="path462"
         style="stroke-width:0.0811062" />
      <path
         d="m 260.89746,227.18994 c 1.68896,0.48193 3.47314,1.10156 3.479,3.17285 -0.76025,2.71436 -2.07275,4.06787 -4.90723,4.5791 0.95361,-1.29053 0.94775,-1.77393 0.81592,-3.3501 0.14355,-0.35156 0.0879,-0.75293 -0.14648,-1.05322 -0.23291,-0.29883 -0.60937,-0.44971 -0.98584,-0.39697 l -0.14795,-0.2124 c -0.62842,-0.39258 -1.17627,-0.36768 -1.92627,-0.44092 l 1.74756,-0.94189 c 0.69434,-0.48047 1.33154,-0.94189 2.07129,-1.35645 z"
         fill="#c9cce5"
         id="path463"
         style="stroke-width:0.0811062" />
      <path
         d="m 260.89746,227.18994 c 1.68896,0.48193 3.47314,1.10156 3.479,3.17285 -0.51709,-0.41602 -0.87012,-0.97998 -1.36963,-1.38135 -1.22461,-0.98145 -2.69824,-0.60645 -4.18066,-0.43506 0.69434,-0.48047 1.33154,-0.94189 2.07129,-1.35645 z"
         fill="#9fa3be"
         id="path464"
         style="stroke-width:0.0811062" />
      <path
         d="m 259.15283,230.1416 c 0.37646,-0.0527 0.75293,0.0981 0.98584,0.39697 0.23438,0.30029 0.29004,0.70166 0.14648,1.05322 -0.19336,0.47607 -0.7002,0.74561 -1.2041,0.63721 -0.50244,-0.10693 -0.85547,-0.55957 -0.83789,-1.07373 0.0176,-0.51416 0.40137,-0.94043 0.90967,-1.01367 z"
         fill="#e4e5ef"
         id="path465"
         style="stroke-width:0.0811062" />
      <path
         d="m 254.9458,231.14941 c -0.0937,2.05078 0.28271,1.96143 0.38086,3.2417 -0.62842,-0.18896 -0.3999,-0.0161 -0.78955,-0.42773 -0.26367,-1.05029 0.0879,-1.75049 0.40869,-2.81396 z"
         fill="#e4e5ef"
         id="path466"
         style="stroke-width:0.0811062" />
      <path
         d="m 234.19336,204.93018 c 2.7832,1.84277 5.06836,4.97314 7.31104,7.42383 -0.92139,-0.23584 -1.88086,-0.45557 -2.83594,-0.40283 l -0.15967,0.20068 c 0.27832,0.7251 1.18213,1.2627 1.78271,1.73438 -1.01074,0.0806 -1.74316,0.16992 -2.60742,0.74121 0.34863,0.33838 1.10156,0.39844 1.56885,0.49951 -1.13818,1.21729 -1.81055,2.78613 -3.03076,3.93018 -1.66699,-4.24951 -2.55029,-9.57861 -2.02881,-14.12695 z"
         fill="#574b54"
         id="path467"
         style="stroke-width:0.0811062" />
      <path
         d="m 248.7085,239.32764 0.28564,0.32959 c 1.01953,0.12744 2.11523,-0.0864 3.1377,-0.19043 0.80127,0.32959 1.77979,0.81445 2.36719,1.46484 0.51563,0.57129 1.02539,1.37842 0.89941,2.18555 -0.0483,0.31201 -0.24609,0.55957 -0.49512,0.73682 -0.7207,0.51855 -1.8208,0.31787 -2.62354,0.19043 -1.48242,-0.1875 -3.87012,0.16553 -5.1416,-0.646 -0.46875,-0.29883 -1.43262,-2.26318 -1.54102,-2.86523 l 0.12158,-0.12012 c 0.5332,0.041 1.02686,0.14648 1.54834,0.26807 0.70752,-0.17285 0.97412,-0.61377 1.34326,-1.19531 z"
         fill="#22182c"
         id="path468"
         style="stroke-width:0.0811062" />
      <path
         d="m 249.24316,240.67529 c 1.02393,-0.66797 1.75488,-0.479 2.89307,-0.30176 l 0.19629,0.16113 c -0.11572,0.2417 -0.20801,0.4541 -0.28711,0.71191 0.56982,0.29883 0.78809,0.0176 1.29053,-0.3252 0.78076,0.11426 1.32129,0.97998 1.45166,1.71826 -0.51562,1.66992 -4.74023,0.44971 -6.36182,0.55664 -0.82031,0.17578 -1.60254,-0.45996 -1.56006,-1.30078 0.49951,-0.81885 1.43408,-0.93896 2.37744,-1.22021 z"
         fill="#d67c7b"
         id="path469"
         style="stroke-width:0.0811062" />
      <path
         d="m 249.24316,240.67529 c 1.02393,-0.66797 1.75488,-0.479 2.89307,-0.30176 -1.44727,0.54785 -2.66602,1.52344 -3.75439,2.61035 l 0.0439,0.2124 c -0.82031,0.17578 -1.60254,-0.45996 -1.56006,-1.30078 0.49951,-0.81885 1.43408,-0.93896 2.37744,-1.22021 z"
         fill="#975f5e"
         id="path470"
         style="stroke-width:0.0811062" />
      <path
         d="m 248.42578,243.19629 c -0.82031,0.17578 -1.60254,-0.45996 -1.56006,-1.30078 0.49951,-0.81885 1.43408,-0.93896 2.37744,-1.22021 -0.46729,0.86719 -1.08398,1.33301 -0.86133,2.30859 z"
         fill="#5b3b4e"
         id="path471"
         style="stroke-width:0.0811062" />
      <path
         d="m 251.68213,217.74902 c 0.33545,0.25195 0.66797,0.55957 0.9082,0.90381 0.54639,0.78662 0.70313,1.73145 0.47754,2.65723 -0.26221,1.07959 -1.00049,2.01709 -1.96143,2.56494 -0.94043,0.53467 -2.11377,0.70313 -3.14941,0.35889 -1.17627,-0.39111 -1.771,-1.23633 -2.2749,-2.31152 -0.23145,-1.88525 0.0996,-2.69531 1.17188,-4.19824 -0.0674,0.50684 -0.16406,1.06641 -0.12012,1.57764 0.0601,0.66797 0.46875,1.37549 0.9873,1.7959 0.57568,0.45996 1.32275,0.64893 2.04932,0.52002 0.66504,-0.11426 1.25391,-0.49658 1.62598,-1.05908 0.61816,-0.9126 0.48926,-1.78564 0.28564,-2.80957 z"
         fill="#ce99a6"
         id="path472"
         style="stroke-width:0.0811062" />
      <path
         d="m 247.44141,235.73584 c 0.88037,-0.0381 2.40527,-0.23437 3.16406,0.30908 0.2666,0.19043 0.271,0.29004 0.28271,0.60205 -0.375,0.35449 -0.73535,0.37939 -1.22314,0.45117 -0.0498,0.007 -0.0996,0.0117 -0.14941,0.019 l -0.1333,0.91846 c -0.35596,0.30615 -0.50391,0.4292 -0.98877,0.4585 -0.53467,-0.27539 -0.75146,-0.93018 -1.00342,-1.46045 -0.41162,-0.15527 -0.81006,-0.26514 -1.11914,-0.5918 l 0.0322,-0.29004 c 0.33398,-0.29297 0.71631,-0.33105 1.13818,-0.41602 z"
         fill="#d67c7b"
         id="path473"
         style="stroke-width:0.0811062" />
      <path
         d="m 238.92627,234.70459 0.58887,-0.2959 0.83057,0.32959 0.71484,0.31494 0.5625,0.44678 c -1.17334,-0.085 -1.64795,-0.32959 -2.69678,-0.79541 z"
         fill="#1e1a28"
         id="path474"
         style="stroke-width:0.0811062" />
      <path
         d="m 282.09229,265.19092 c 4.51904,-4.49707 2.9502,-10.10742 0.57422,-15.21973 -2.95605,-6.35596 -3.5376,-13.62305 1.42822,-19.17187 1.76953,-1.97754 5.12109,-3.83057 7.85889,-3.2959 1.67285,0.34277 2.70264,1.9248 2.64111,3.55518 -0.13037,3.47461 -4.85449,3.26074 -6.28711,5.85645 -0.70166,1.35059 -1.07373,1.79297 -1.19238,3.46436 -0.38525,5.39063 3.31641,9.92285 4.0957,15.12744 0.79834,5.18701 -0.79102,10.6333 -4.79443,14.14307 -0.45703,0.3999 -2.44043,1.57324 -2.51074,1.75928 l 0.53467,0.24902 -0.13184,0.16699 c 0.57422,0.0908 0.79102,0.1084 1.32715,0.31201 l 0.0937,0.24463 -0.15967,0.10254 c -0.46729,-0.12012 -0.88037,-0.28711 -1.33447,-0.21826 l -0.0249,0.14209 c -1.07959,-0.10254 -4.16016,-0.82031 -5.29834,-1.05615 -3.3252,-0.65625 -6.64746,-1.33447 -9.96387,-2.0332 -3.8584,-0.81152 -6.5332,-1.56299 -10.45752,-0.26514 1.58643,0.30615 4.0752,0.73682 5.58398,1.1748 2.36719,0.39111 5.98828,0.5918 4.23047,4.09277 -1.60107,1.30664 -20.24707,9.43945 -22.48242,9.99609 -0.78662,0.19482 -1.52197,0.0102 -2.29834,-0.14648 -3.17432,-0.63867 -30.70312,-7.47803 -31.55273,-8.17529 -0.46436,-0.38086 -0.48779,-1.07227 -0.55078,-1.61426 -0.10693,-0.90234 -0.88916,-1.05908 -1.23193,-1.78271 -0.46289,-0.98145 -0.65771,-2.34668 -0.92725,-3.4043 l -1.95557,-7.64062 c -1.10889,-4.31396 -2.23975,-8.76123 -3.39844,-13.0708 -0.45117,-1.67871 0.18896,-2.53711 1.66992,-3.25195 2.06104,0.0366 31.99365,5.81982 33.07324,6.43066 1.32129,0.74707 1.62891,2.94727 1.96436,4.30518 2.17383,-1.62158 2.83447,-2.99121 3.98438,-5.21191 2.07861,-4.01221 1.92627,-4.10156 -2.16943,-5.61768 -1.51318,-0.56104 -3.68555,-2.38477 -4.9248,-3.55078 l 0.56836,-0.5127 c 3.5625,3.53467 9.85986,5.45361 14.84619,5.52979 5.97803,0.0923 9.63281,-1.20703 14.85645,-3.78369 l 0.7749,0.26221 c 0.18018,-0.0762 0.39697,-0.1084 0.59619,-0.15234 l -0.71191,-0.41309 c 0.55078,-0.62695 1.88379,-1.63037 2.70117,-1.8501 l 0.39844,0.26807 c 0.57422,3.37354 3.76318,7.16309 5.44775,10.2627 2.58838,4.76367 4.07959,8.63672 5.10938,13.99365 z"
         fill="url(#color-18)"
         id="path475"
         style="fill:url(#color-18);stroke-width:0.0811062" />
      <path
         d="m 243.09668,266.64111 c 1.50146,0.27686 2.90039,0.62109 4.37988,0.97998 0.79395,4.35645 6.34277,4.43115 9.03076,1.81201 2.51074,0.43359 5.10498,1.11475 7.69336,1.58789 0.79248,0.32227 2.04639,0.55078 2.9165,0.73828 -0.80273,0.37061 -1.62598,0.73682 -2.44482,1.07373 -6.16699,2.53564 -12.27393,5.45654 -18.50098,7.83398 -0.0425,-0.61816 -0.11133,-1.05029 -0.2124,-1.6626 1.48096,-0.60205 11.05518,-4.40332 11.43896,-5.18555 l -0.16406,-0.26221 c -1.07373,-0.66064 -11.39941,-2.89307 -13.23486,-3.26221 z"
         fill="#9fa3be"
         id="path476"
         style="stroke-width:0.0811062" />
      <path
         d="m 269.14746,242.92969 c 0.4585,-0.3208 1.13525,-0.8877 1.64795,-0.94043 0.14502,0.43799 -0.12305,0.76465 -0.34277,1.17627 l -0.31494,0.0557 c -0.009,0.43066 0.104,0.63574 -0.31348,0.87012 -5.84619,5.40234 -15.09961,8.99121 -22.51611,4.06494 -0.46582,-0.30908 -0.65771,-0.74414 -0.71338,-1.2832 0.57422,-0.22119 2.29395,0.21826 3.05127,0.31348 1.26855,0.17139 2.54883,0.25342 3.8291,0.24902 2.96484,-0.004 6.01904,-0.32373 8.83154,-1.28467 1.0708,-0.36621 5.77588,-2.12988 6.24463,-3.06885 0.18018,-0.0762 0.39697,-0.1084 0.59619,-0.15234 z"
         fill="url(#color-19)"
         id="path477"
         style="fill:url(#color-19);stroke-width:0.0811062" />
      <path
         d="m 256.50732,269.43311 -0.12305,-0.0703 c 0.92725,-0.31494 2.23389,0.35449 3.07324,0.40283 -0.24463,-0.28271 -0.71338,-0.36035 -1.08984,-0.57129 l 0.12305,-0.14062 c 1.58643,0.30615 4.0752,0.73682 5.58398,1.1748 l -0.23584,0.14648 c -0.49805,-0.10254 -1.10449,-0.31201 -1.52051,-0.17725 l 0.0439,0.16992 c 0.68701,0.22559 1.46631,0.23145 1.83838,0.65332 -2.58838,-0.47314 -5.18262,-1.1543 -7.69336,-1.58789 z"
         fill="#0d0a11"
         id="path478"
         style="stroke-width:0.0811062" />
      <path
         d="m 269.82422,244.09131 c 0.41748,-0.23437 0.30469,-0.43945 0.31348,-0.87012 l 0.31494,-0.0557 -0.12305,0.27539 c 0.72363,0.9375 1.52197,1.33447 2.23242,2.46387 -1.2583,-0.69141 -1.61133,-0.9873 -2.73779,-1.81348 z"
         fill="#604978"
         id="path479"
         style="stroke-width:0.0811062" />
      <path
         d="m 204.91699,246.60791 c 1.36963,-0.85107 3.52588,-0.085 5.11816,0.21826 2.71729,0.51416 5.43164,1.04443 8.1416,1.59082 l 12.69873,2.45068 c 2.22803,0.42188 4.81641,0.83057 6.99902,1.33447 l 0.1626,0.0381 c 0.44531,0.48633 0.83203,0.91699 1.06055,1.54395 0.72949,2.00391 6.15088,25.3374 6.08789,26.33789 -0.0249,0.39111 -0.18457,0.6123 -0.48193,0.86426 -0.0601,0.0513 -0.12451,0.0981 -0.1875,0.14648 -1.01953,-0.13037 -3.05859,-0.7002 -4.14404,-0.97119 l -7.51025,-1.86328 -14.23242,-3.52734 c -1.9292,-0.479 -5.60303,-1.09424 -7.19238,-1.97168 -0.73096,-0.4043 -5.31152,-19.30078 -5.8916,-21.5376 -0.29004,-1.11475 -1.22021,-3.64453 -0.62842,-4.65381 z"
         fill="#878aa0"
         id="path480"
         style="stroke-width:0.0811062" />
      <path
         d="m 204.91699,246.60791 c 1.36963,-0.85107 3.52588,-0.085 5.11816,0.21826 2.71729,0.51416 5.43164,1.04443 8.1416,1.59082 l 12.69873,2.45068 c 2.22803,0.42188 4.81641,0.83057 6.99902,1.33447 l 0.1626,0.0381 c 0.44531,0.48633 0.83203,0.91699 1.06055,1.54395 0.72949,2.00391 6.15088,25.3374 6.08789,26.33789 -0.0249,0.39111 -0.18457,0.6123 -0.48193,0.86426 -0.0601,0.0513 -0.12451,0.0981 -0.1875,0.14648 -0.43652,-0.45264 -1.13672,-4.10303 -1.36963,-5.09326 -1.1543,-5.06104 -2.36133,-10.11035 -3.62109,-15.14648 -0.5376,-2.19873 -1.1001,-5.92383 -2.37744,-7.61719 -2.39941,-0.78955 -7.72412,-1.68457 -10.30664,-2.16064 l -15.99316,-3.05127 c -1.2085,-0.2417 -5.10498,-0.91406 -5.93115,-1.45605 z"
         fill="#bebfd3"
         id="path481"
         style="stroke-width:0.0811062" />
      <path
         d="m 222.05859,260.75684 c 0.479,-0.0176 0.93604,0.0439 1.39746,0.18311 1.0752,0.3252 2.04346,1.25244 2.55029,2.23828 0.39404,0.76758 0.58301,1.68311 0.26221,2.50928 -0.28711,0.73682 -0.80566,1.18213 -1.51465,1.48828 -0.40576,-0.0308 -0.82324,-0.0688 -1.22168,-0.1582 -0.99463,-0.22119 -1.95117,-1.00635 -2.49316,-1.85156 -0.46143,-0.71777 -0.75439,-1.6626 -0.54492,-2.51367 0.22998,-0.93604 0.75586,-1.43262 1.56445,-1.89551 z"
         fill="#c9cce5"
         id="path482"
         style="stroke-width:0.0811062" />
      <path
         d="m 223.15723,259.08691 c 0.44238,0.0264 0.60791,-0.0205 0.96094,0.26221 0.10107,0.39258 -0.0498,0.73682 -0.1626,1.11182 -0.29297,-0.0542 -0.44385,-0.16699 -0.67822,-0.34277 -0.20215,-0.39258 -0.1626,-0.60791 -0.12012,-1.03125 z"
         fill="#c9cce5"
         id="path483"
         style="stroke-width:0.0811062" />
      <path
         d="m 267.63281,272.48584 0.0908,0.10693 c 0.0469,0.33691 0.0835,0.55371 0.006,0.89209 -0.0981,0.42627 -0.48193,0.60498 -0.83643,0.80273 -2.99707,1.66846 -6.4541,2.87695 -9.61377,4.24365 -3.30908,1.42969 -6.56543,3.06006 -9.91406,4.38867 -0.62695,0.24756 -1.42236,0.58154 -2.09473,0.62109 -1.69922,0.0967 -11.8916,-2.8125 -14.34668,-3.43359 -6.08496,-1.53809 -12.26221,-2.896 -18.29443,-4.62305 -0.25342,-0.2168 -0.40723,-0.5083 -0.5874,-0.78662 0.0293,-0.0937 0.0439,-0.19482 0.0879,-0.28271 0.22559,-0.45264 2.84473,0.32813 3.32373,0.44678 8.95898,2.22656 17.91211,4.64648 26.90771,6.70752 0.79834,0.18311 1.6875,0.42041 2.50635,0.29297 2.57227,-0.40137 5.36719,-1.90723 7.76367,-2.92236 5.01123,-2.12402 9.97412,-4.3667 15.00146,-6.4541 z"
         fill="#70728a"
         id="path484"
         style="stroke-width:0.0811062" />
      <path
         d="m 247.66699,253.74756 0.0176,0.0161 c 0.0601,0.25928 0.0688,0.16992 0.0322,0.38672 -0.21094,1.24951 0.75586,6.30615 0.34863,6.80273 -0.78516,0.95361 -4.22314,2.85645 -5.50488,2.89307 -0.78809,-0.75 -0.9873,-3.29736 -1.1748,-4.38867 -0.29443,-0.81738 -0.33252,-1.7124 -0.30762,-2.56934 0.0908,1.27148 0.37061,3.03223 0.92139,4.17188 l 0.19189,0.0102 c 2.35107,-1.42969 3.45557,-2.60742 4.53076,-5.16211 0.27686,-0.65625 0.50537,-1.38574 0.85107,-2.00684 0.0293,-0.0527 0.063,-0.10254 0.0937,-0.15381 z"
         fill="#2d2b31"
         id="path485"
         style="stroke-width:0.0811062" />
      <path
         d="m 243.87012,264.28271 c 1.02979,-0.2959 3.38086,0.55371 4.4707,0.82031 -0.28711,0.52441 -0.50391,1.08105 -0.81885,1.58936 -1.12646,-0.22998 -4.11475,-0.54492 -4.78271,-1.4165 -0.1377,-0.18164 -0.0776,-0.17725 -0.041,-0.43799 0.30029,-0.39258 0.71777,-0.43799 1.17188,-0.55518 z"
         fill="#e4e5ef"
         id="path486"
         style="stroke-width:0.0811062" />
      <path
         d="m 251.95898,273.05127 c 1.29785,-0.0337 2.83447,0.53906 4.11182,0.82764 l -2.32031,0.87012 c -0.96094,0.37939 -2.92236,-0.4585 -3.91113,-0.80713 z"
         fill="#5d647b"
         id="path487"
         style="stroke-width:0.0811062" />
      <path
         d="m 248.79346,274.52197 c 1.14258,0.29297 2.28809,0.57715 3.43652,0.85107 -0.79541,0.42627 -1.59961,0.77051 -2.43604,1.10596 -1.11621,-0.14795 -2.32471,-0.60498 -3.41455,-0.90674 z"
         fill="#5d647b"
         id="path488"
         style="stroke-width:0.0811062" />
      <path
         d="m 248.16357,272.17529 c 0.98291,-0.17578 2.19434,0.31201 3.13037,0.58594 l -2.37158,0.95654 c -0.89502,0.0615 -2.23242,-0.47021 -3.10986,-0.70459 0.77783,-0.29297 1.56738,-0.55957 2.35107,-0.83789 z"
         fill="#5d647b"
         id="path489"
         style="stroke-width:0.0811062" />
      <path
         d="m 248.43018,261.78076 c 0.30176,0.63281 0.32373,1.74609 0.42041,2.4624 l -2.1416,-0.42627 c -0.25781,-0.0645 -0.52881,-0.063 -0.68555,-0.28564 0.55078,-0.68408 1.68457,-1.1748 2.40674,-1.75049 z"
         fill="#e4e5ef"
         id="path490"
         style="stroke-width:0.0811062" />
      <path
         d="m 245.24707,276.04834 c 0.89795,0.12891 2.61182,0.32813 3.34277,0.83643 l -0.46289,0.25781 c -0.78955,0.30908 -1.56152,0.66797 -2.33789,1.00781 z"
         fill="#5d647b"
         id="path491"
         style="stroke-width:0.0811062" />
      <path
         d="m 244.70508,273.44824 c 0.68701,0.15527 2.45947,0.27686 2.89014,0.80273 l -0.36768,0.19336 c -0.646,0.26514 -1.3418,0.68994 -2.03613,0.56689 -0.37061,-0.41309 -0.39697,-1.03125 -0.48633,-1.56299 z"
         fill="#5d647b"
         id="path492"
         style="stroke-width:0.0811062" />
      <path
         d="m 244.11621,271.10449 c 0.84668,0.24463 2.00244,0.35742 2.72314,0.85254 l -0.19189,0.18311 c -0.60645,0.24609 -1.33594,0.68555 -1.99512,0.48193 -0.4043,-0.37061 -0.43799,-0.99756 -0.53613,-1.51758 z"
         fill="#5d647b"
         id="path493"
         style="stroke-width:0.0811062" />
      <path
         d="m 218.43457,175.51611 c 3.71338,-0.12744 8.04932,-0.019 11.80078,-0.019 h 22.41211 l 17.88867,-0.004 c 1.77246,-0.001 11.32617,-0.34424 12.30908,0.68848 1.65527,1.74316 0.86719,7.37549 0.95801,9.99463 0.14063,4.0415 -7.35645,2.98682 -9.95068,2.96484 l -7.62012,0.0249 c -1.10742,1.7124 -4.16602,6.08936 -6.13477,6.5625 -1.25537,-0.63281 1.04004,-3.83936 -0.0498,-6.34863 -0.5332,-0.47607 -9.96387,-0.25928 -11.41113,-0.25781 l -21.38525,-0.006 c -3.10547,-0.001 -6.76465,0.24609 -9.76172,-0.3252 -1.51172,-0.61084 -1.86914,-3.479 -1.73437,-4.6875 0.35742,-3.18457 -1.29346,-7.44287 2.6792,-8.58691 z"
         fill="#70728a"
         id="path555"
         style="stroke-width:0.0811062" />
      <path
         d="m 218.74512,176.25439 c 3.12891,-0.13916 7.08838,-0.0293 10.2627,-0.0293 l 19.2832,-0.001 20.90918,-10e-4 c 3.81152,0 9.4292,-0.33398 12.95361,0.47168 1.37402,0.31348 1.33301,9.87305 0.29004,10.88232 -1.34033,1.29785 -6.36914,0.83789 -8.07715,0.8291 -2.90039,-0.0161 -5.80078,0.0102 -8.70117,0.0791 -1.39746,2.4624 -2.89746,4.38428 -5.1123,6.14063 0.53906,-2.06104 0.72363,-4.13525 0.18457,-6.20947 -5.43457,0.13037 -40.14111,0.53174 -43.11328,-0.41162 -1.62158,-1.35645 -1.12207,-5.06396 -1.14258,-7.05908 -0.022,-2.25 -0.2124,-4.05762 2.26318,-4.69043 z"
         fill="#e4e5ef"
         id="path556"
         style="stroke-width:0.0811062" />
      <path
         d="m 279.31787,195.70898 3.72217,-0.0132 2.66309,0.0176 0.009,2.40381 c 0.8335,0.001 1.72705,-0.0146 2.55615,0.007 l 10e-4,3.83936 c -0.96387,0.022 -1.69189,0.0308 -2.65283,-0.0278 l 0.009,1.83105 -2.44775,-0.003 -0.0352,2.04053 c -0.97412,0.019 -3.16846,0.2666 -3.80127,-0.28564 l -0.0513,-0.54932 -0.0952,-1.20264 c -1.11182,0.041 -1.10889,0.17871 -1.74902,-0.646 -0.16992,-1.12207 0.26807,-1.27588 1.17188,-1.3916 0.18457,0.0469 0.063,0.0337 0.35742,-0.0659 0.17139,-0.60059 0.16553,-2.60303 0.23584,-3.47021 l -1.68018,-0.0645 -0.0396,-2.39795 z"
         fill="#2d2b31"
         id="path634"
         style="stroke-width:0.0811062" />
      <path
         d="m 279.31787,195.70898 3.72217,-0.0132 0.0366,2.50781 c -1.26709,-0.001 -2.60596,0.019 -3.86572,-0.0102 l -1.68018,-0.0645 -0.0395,-2.39795 z"
         fill="#d67c7b"
         id="path635"
         style="stroke-width:0.0811062" />
      <path
         d="m 277.49121,195.73096 1.82666,-0.022 c -0.0205,0.73975 -0.019,1.77246 -0.10693,2.48438 l -1.68018,-0.0644 z"
         fill="#2d2b31"
         id="path636"
         style="stroke-width:0.0811062" />
      <path
         d="m 282.98438,199.44287 c 0.89063,-0.0308 1.76221,-0.0762 2.65137,-0.0308 l 0.0103,2.45947 c 0.76025,0.0161 1.90576,0.009 2.62354,0.0923 -0.96387,0.022 -1.69189,0.0308 -2.65283,-0.0278 l 0.009,1.83105 -2.44775,-0.003 -0.063,-0.18311 -0.12744,-1.69922 c -0.0308,-0.88623 -0.041,-1.54687 -0.003,-2.43896 z"
         fill="#d67c7b"
         id="path637"
         style="stroke-width:0.0811062" />
      <path
         d="m 282.9873,201.88184 c 0.60645,0.004 2.10205,-0.019 2.62939,0.0542 l 0.009,1.83105 -2.44775,-0.003 -0.063,-0.18311 z"
         fill="#1e1a28"
         id="path638"
         style="stroke-width:0.0811062" />
      <path
         d="m 283.11475,203.58105 0.063,0.18311 -0.0352,2.04053 c -0.97412,0.019 -3.16846,0.2666 -3.80127,-0.28564 l -0.0513,-0.54932 c -0.001,-0.41602 -0.0322,-0.57129 0.10107,-0.9624 1.04883,-0.78369 2.44482,0.19629 3.72363,-0.42627 z"
         fill="#2d2b31"
         id="path639"
         style="stroke-width:0.0811062" />
      <path
         d="m 279.10693,203.16943 c 0.0103,-0.27979 0.003,-0.90527 0.20947,-1.05176 0.70313,-0.49805 2.76563,-0.26074 3.6709,-0.23584 l 0.12744,1.69922 c -1.27881,0.62256 -2.6748,-0.35742 -3.72363,0.42627 -0.1333,0.39111 -0.10254,0.54639 -0.10107,0.9624 l -0.0952,-1.20264 z"
         fill="#d67c7b"
         id="path640"
         style="stroke-width:0.0811062" />
      <path
         d="m 279.19482,203.76709 c -1.11182,0.041 -1.10889,0.17871 -1.74902,-0.646 -0.16992,-1.12207 0.26807,-1.27588 1.17188,-1.3916 l 0.33545,0.23584 c 0.0381,0.3208 0.0264,0.96387 0.15381,1.2041 z"
         fill="#1e1a28"
         id="path641"
         style="stroke-width:0.0811062" />
      <path
         d="m 206.02588,184.09131 c 0.41162,0.22559 0.68115,0.63281 0.99463,0.97852 1.03857,1.14551 2.00098,1.4502 3.43799,1.90137 -0.45557,0.81885 -0.87305,1.69775 -1.37842,2.48438 -0.25635,0.3999 -0.36182,0.46436 -0.82324,0.54199 -2.07275,-0.74121 -3.59766,-1.8457 -4.79004,-3.7251 0.77344,-0.80713 1.68604,-1.48389 2.55908,-2.18115 z"
         fill="#574b54"
         id="path646"
         style="stroke-width:0.0811062" />
      <path
         d="m 205.91309,184.97021 c 0.18457,0.11426 0.33252,0.30908 0.48047,0.47168 0.93164,1.02539 1.88672,1.48389 3.15674,1.9834 -0.41309,0.67236 -0.8291,1.29492 -1.33008,1.90723 -1.56152,-0.58887 -3.00439,-1.65088 -3.89355,-3.06885 0.52295,-0.43799 1.05176,-0.87012 1.58643,-1.29346 z"
         fill="#d67c7b"
         id="path647"
         style="stroke-width:0.0811062" />
      <path
         d="m 293.41699,188.23096 c 0.9082,-0.25195 1.51318,-0.104 1.76514,0.87598 -0.23145,0.93164 -0.45117,0.92725 -1.29053,1.3125 l -0.24609,0.11572 -0.14795,0.0659 c -1.72266,4.38574 -2.99707,2.21631 -5.95898,1.09863 1.03271,-1.10449 2.21924,-2.11963 3.65771,-2.66016 0.67236,-0.20361 1.66113,-0.44092 2.2207,-0.80859 z"
         fill="#475459"
         id="path648"
         style="stroke-width:0.0811062" />
      <path
         d="m 293.41699,188.23096 c 0.375,0.47461 0.62988,0.61377 0.66357,1.10303 l -0.23584,0.16846 -0.42773,0.31055 c -0.84229,0.60352 -1.35645,1.91602 -2.12256,2.81689 -0.87158,-0.36768 -1.46924,-0.6167 -2.29541,-1.08105 0.7207,-0.61816 1.83105,-1.5293 2.25586,-2.36865 l -0.0586,-0.14062 c 0.67236,-0.20361 1.66113,-0.44092 2.2207,-0.80859 z"
         fill="#9dd694"
         id="path649"
         style="stroke-width:0.0811062" />
      <path
         d="m 209.02881,230.47998 2.57666,1.70508 c -0.0439,0.16846 -0.0923,0.33545 -0.14648,0.50098 -0.65039,2.00537 -1.875,3.28418 -3.73242,4.20264 -0.12158,0 -0.18604,0.004 -0.31201,-0.0205 -0.8042,-0.1582 -1.76807,-1.80029 -2.21777,-2.43018 2.01123,-1.04004 2.80811,-1.98779 3.83203,-3.95801 z"
         fill="#574b54"
         id="path650"
         style="stroke-width:0.0811062" />
      <path
         d="m 209.24268,231.49512 c 0.5625,0.31348 1.10596,0.70605 1.64941,1.05469 l -0.11865,0.24902 c -0.74854,1.58936 -1.63623,2.4082 -3.07471,3.38086 -0.60059,-0.18896 -1.11328,-0.95508 -1.51758,-1.42236 1.45166,-0.89062 2.26318,-1.75781 3.06152,-3.26221 z"
         fill="#ce99a6"
         id="path651"
         style="stroke-width:0.0811062" />
      <path
         d="m 289.01514,175.34033 c 0.73096,0.16846 2.08301,0.54053 2.69238,0.88623 1.94678,1.10596 -0.86719,4.93652 -1.78564,5.92383 -0.80713,0.0352 -2.35254,-1.21729 -3.01611,-1.70947 0.33398,-0.29004 0.65625,-0.59326 0.9668,-0.9082 1.24805,-1.28027 1.17334,-2.56787 1.14258,-4.19238 z"
         fill="#574b54"
         id="path652"
         style="stroke-width:0.0811062" />
      <path
         d="m 289.67725,176.10059 c 0.79688,0.26807 1.48682,0.59912 2.24707,0.94922 -0.5127,1.94385 -0.75439,2.72021 -2.12988,4.21289 l -0.16699,0.0806 c -0.48633,-0.0644 -1.24951,-0.646 -1.69922,-0.94189 1.20117,-1.63623 1.45166,-2.32764 1.74902,-4.30078 z"
         fill="#d67c7b"
         id="path653"
         style="stroke-width:0.0811062" />
      <path
         d="m 281.06982,219.61816 c 0.20801,-0.0102 0.41309,-0.0205 0.62109,-0.0132 1.77246,0.0674 3.52002,1.26563 4.69922,2.52393 -0.56982,0.91846 -1.09863,1.85889 -1.63037,2.80078 -0.71777,-0.13184 -1.48682,-1.16895 -2.2207,-1.52637 -0.0688,-0.0337 -0.14062,-0.0659 -0.20947,-0.0996 -0.83936,-0.41602 -1.76221,-0.48193 -2.6792,-0.60937 0.43359,-1.04883 0.90381,-2.06396 1.41943,-3.07617 z"
         fill="#5d647b"
         id="path655"
         style="stroke-width:0.0811062" />
      <path
         d="m 281.5166,220.17334 c 1.58643,0.36914 2.7832,0.97705 4.13379,1.875 -0.42187,0.70459 -0.77637,1.44873 -1.14844,2.17969 -1.37402,-1.1543 -2.10059,-1.69336 -3.89502,-1.92187 0.24902,-0.76318 0.47461,-1.44727 0.90967,-2.13281 z"
         fill="#74b5ce"
         id="path656"
         style="stroke-width:0.0811062" />
      <path
         d="m 223.08691,228.90234 c 0.0498,0.019 0.10254,0.0337 0.15088,0.0586 1.40771,0.70459 2.44775,3.03516 2.96484,4.44434 -0.79248,0.75146 -1.64502,1.42236 -2.54004,2.04932 -0.0937,-0.0644 -0.20947,-0.10547 -0.28271,-0.19336 -0.40576,-0.48633 -0.76172,-1.53076 -1.0957,-2.11523 -0.48486,-0.84229 -1.06055,-1.62744 -1.55127,-2.46826 0.72803,-0.74268 1.44727,-1.28174 2.354,-1.77539 z"
         fill="#6c6a69"
         id="path657"
         style="stroke-width:0.0811062" />
      <path
         d="m 222.91699,229.64795 c 1.1792,0.77051 2.05664,2.42578 2.63232,3.67676 l -1.63623,1.31982 -0.14795,-0.0103 c -0.72803,-1.51758 -1.33594,-2.62646 -2.40381,-3.95215 z"
         fill="#f4dc88"
         id="path658"
         style="stroke-width:0.0811062" />
      <path
         d="m 215.77441,235.24072 3.59473,-0.0483 c -0.006,0.70898 0.0132,1.50879 -0.063,2.20459 -0.0703,0.9873 0.37793,1.93506 -0.47021,2.52246 -0.48486,0.0644 -0.53027,0.11719 -0.9624,-0.11572 -0.38818,-0.60059 -0.23145,-1.54834 -0.20654,-2.32324 -0.59619,-0.001 -1.3623,0.0469 -1.90576,-0.14062 z"
         fill="#1e1a28"
         id="path669"
         style="stroke-width:0.0811062" />
      <path
         d="m 215.76123,237.33984 c 1.30225,-0.0718 2.32178,0.085 3.54492,0.0571 -0.0703,0.9873 0.37793,1.93506 -0.47021,2.52246 -0.48486,0.0644 -0.53027,0.11719 -0.9624,-0.11572 -0.38818,-0.60059 -0.23145,-1.54834 -0.20654,-2.32324 -0.59619,-10e-4 -1.3623,0.0469 -1.90576,-0.14062 z"
         fill="#a18fa0"
         id="path670"
         style="stroke-width:0.0811062" />
      <path
         d="m 290.72314,214.54395 c 0.70752,0.19775 1.19385,0.83496 1.67871,1.35205 -0.67822,1.11768 -1.58936,2.07715 -2.67187,2.81104 -0.66943,-0.49365 -1.12793,-1.02832 -1.64209,-1.67285 z"
         fill="#f4dc88"
         id="path675"
         style="stroke-width:0.0811062" />
      <path
         d="m 210.33545,173.84033 0.34277,0.0659 c 0.42627,0.78369 0.91113,2.31592 1.22461,3.21533 -0.65625,0.56689 -0.87744,0.70459 -1.63477,1.13672 -0.95801,-0.53467 -1.71973,-2.08008 -1.36963,-3.12891 0.26367,-0.79541 0.77783,-0.93457 1.43701,-1.28906 z"
         fill="#f4dc88"
         id="path676"
         style="stroke-width:0.0811062" />
      <path
         d="m 206.15771,204.01904 c 0.6167,0.22412 0.95654,1.14844 1.24512,1.69629 -0.87891,0.73389 -1.82227,1.27441 -2.85937,1.74902 -0.67822,-0.38379 -0.98291,-1.09717 -1.32422,-1.76514 0.94629,-0.62402 1.93652,-1.1499 2.93848,-1.68018 z"
         fill="#f4dc88"
         id="path678"
         style="stroke-width:0.0811062" />
      <path
         d="m 284.44043,271.6582 c 1.61133,0.25049 7.64941,1.23193 8.6748,2.08594 l -0.006,0.15381 c -1.3125,0.31055 -7.229,-1.14258 -8.89893,-1.48975 l 0.0249,-0.14209 c 0.4541,-0.0688 0.86719,0.0981 1.33447,0.21826 l 0.15967,-0.10254 -0.0937,-0.24463 c -0.53613,-0.20361 -0.75293,-0.22119 -1.32715,-0.31201 z"
         fill="#0d0a11"
         id="path680"
         style="stroke-width:0.0811062" />
      <path
         d="m 213.17139,238.64063 2.24121,0.019 c -0.0483,0.85107 -0.24463,2.06689 0.2124,2.70264 l -0.12158,0.20361 -0.1875,-0.001 c -0.5625,-0.36914 -1.43408,-0.2417 -2.146,-0.22412 z"
         fill="#2d2b31"
         id="path682"
         style="stroke-width:0.0811062" />
      <path
         d="m 225.67822,241.62598 c 0.55078,0.36621 1.0415,0.96826 1.51172,1.43994 l -1.77393,2.12549 c -0.58887,-0.43945 -1.12061,-0.92871 -1.6626,-1.42236 0.68262,-0.68994 1.31689,-1.38574 1.9248,-2.14307 z"
         fill="#74b5ce"
         id="path683"
         style="stroke-width:0.0811062" />
      <path
         d="m 272.91357,193.11328 2.3335,-0.004 -0.0147,2.23975 -2.34961,-0.0205 z"
         fill="#2d2b31"
         id="path684"
         style="stroke-width:0.0811062" />
      <path
         d="m 288.09668,207.97266 c -0.0396,-0.74414 -0.21094,-1.66846 0.25635,-2.19287 l 0.50244,0.0147 c 0.61963,0.0571 0.9873,0.1084 1.60254,0.0644 l -0.0102,2.09473 z"
         fill="#2d2b31"
         id="path685"
         style="stroke-width:0.0811062" />
      <path
         d="m 279.36621,209.75537 2.17383,-0.0205 -0.0102,2.31592 -2.16797,-0.0308 z"
         fill="#d67c7b"
         id="path686"
         style="stroke-width:0.0811062" />
      <path
         d="m 215.625,241.3623 c 0.87305,-0.11572 1.16602,-0.11719 2.04199,-0.0937 l -0.0718,1.89844 c -0.7251,0.0205 -1.76514,0.16699 -2.31738,-0.20508 -0.2417,-0.4248 -0.0923,-0.94629 0.0381,-1.39746 l 0.1875,10e-4 z"
         fill="#2d2b31"
         id="path688"
         style="stroke-width:0.0811062" />
      <path
         d="m 290.43018,203.82129 2.02588,0.0381 -0.0278,1.979 c -0.60352,0.004 -1.38281,-0.0132 -1.97021,0.0205 -0.61523,0.0439 -0.98291,-0.007 -1.60254,-0.0644 0.69287,-0.0557 0.96094,0.0337 1.49121,-0.31641 0.18457,-0.49951 0.10547,-1.10889 0.0835,-1.65674 z"
         fill="#2d2b31"
         id="path689"
         style="stroke-width:0.0811062" />
      <path
         d="m 274.13086,236.44775 c 0.17871,0.0366 0.54785,0.12451 0.71191,0.13037 0.90234,0.38232 1.62012,0.50244 2.40381,1.03418 l 0.0601,0.19189 c -1.29639,0.004 -2.26611,-0.64014 -2.9209,-0.59912 l -0.16406,-0.14502 c 0.0937,-0.34131 0.0586,-0.18164 -0.0908,-0.6123 z"
         fill="#604978"
         id="path699"
         style="stroke-width:0.0811062" />
      <text
         xml:space="preserve"
         style="font-weight:600;font-size:10.6667px;line-height:1;font-family:Poppins;-inkscape-font-specification:'Poppins Semi-Bold';text-align:center;letter-spacing:3.88px;word-spacing:0px;writing-mode:lr-tb;direction:ltr;text-anchor:middle;fill:#343436;fill-opacity:1;stroke-width:0.0811062;stroke-linecap:round;stroke-linejoin:round"
         x="249.93359"
         y="185.7269"
         id="text717"><tspan
           sodipodi:role="line"
           id="tspan717"
           x="251.8736"
           y="185.7269"
           style="stroke-width:0.0811062">ERROR!</tspan></text>
    </g>
  </g>
</svg>
