<?xml version="1.0" encoding="UTF-8" standalone="no"?>
<!-- Created with Inkscape (http://www.inkscape.org/) -->

<svg
   width="300mm"
   height="528.68018mm"
   viewBox="0 0 300 528.68018"
   version="1.1"
   id="svg1"
   inkscape:version="1.4.3 (0d15f75, 2025-12-25)"
   sodipodi:docname="save.svg"
   xmlns:inkscape="http://www.inkscape.org/namespaces/inkscape"
   xmlns:sodipodi="http://sodipodi.sourceforge.net/DTD/sodipodi-0.dtd"
   xmlns="http://www.w3.org/2000/svg"
   xmlns:svg="http://www.w3.org/2000/svg">
  <sodipodi:namedview
     id="namedview1"
     pagecolor="#ffffff"
     bordercolor="#000000"
     borderopacity="0.25"
     inkscape:showpageshadow="2"
     inkscape:pageopacity="0.0"
     inkscape:pagecheckerboard="0"
     inkscape:deskcolor="#d1d1d1"
     inkscape:document-units="mm"
     inkscape:zoom="4.3158837"
     inkscape:cx="38.346724"
     inkscape:cy="67.541208"
     inkscape:window-width="1515"
     inkscape:window-height="802"
     inkscape:window-x="0"
     inkscape:window-y="34"
     inkscape:window-maximized="0"
     inkscape:current-layer="layer1" />
  <defs
     id="defs1">
    <linearGradient
       x1="167.61035"
       y1="144.12569"
       x2="149.66455"
       y2="31.718849"
       gradientUnits="userSpaceOnUse"
       id="color-4">
      <stop
         offset="0"
         stop-color="#28222b"
         id="stop7" />
      <stop
         offset="1"
         stop-color="#3d3f3b"
         id="stop8" />
    </linearGradient>
    <linearGradient
       x1="174.73535"
       y1="128.93539"
       x2="168.77051"
       y2="124.33608"
       gradientUnits="userSpaceOnUse"
       id="color-5">
      <stop
         offset="0"
         stop-color="#d5c7b3"
         id="stop9" />
      <stop
         offset="1"
         stop-color="#ede5e0"
         id="stop10" />
    </linearGradient>
    <linearGradient
       x1="138.83643"
       y1="137.17661"
       x2="138.89795"
       y2="134.99136"
       gradientUnits="userSpaceOnUse"
       id="color-6">
      <stop
         offset="0"
         stop-color="#1a1110"
         id="stop11" />
      <stop
         offset="1"
         stop-color="#372b27"
         id="stop12" />
    </linearGradient>
    <linearGradient
       x1="160.28027"
       y1="131.03423"
       x2="160.93506"
       y2="132.82632"
       gradientUnits="userSpaceOnUse"
       id="color-7">
      <stop
         offset="0"
         stop-color="#6b656d"
         id="stop13" />
      <stop
         offset="1"
         stop-color="#868382"
         id="stop14" />
    </linearGradient>
    <linearGradient
       x1="173.13721"
       y1="126.62168"
       x2="171.24609"
       y2="135.59297"
       gradientUnits="userSpaceOnUse"
       id="color-8">
      <stop
         offset="0"
         stop-color="#afa7a3"
         id="stop15" />
      <stop
         offset="1"
         stop-color="#b7b2bd"
         id="stop16" />
    </linearGradient>
    <linearGradient
       x1="158.58838"
       y1="137.14775"
       x2="159.73389"
       y2="132.77695"
       gradientUnits="userSpaceOnUse"
       id="color-9">
      <stop
         offset="0"
         stop-color="#737175"
         id="stop17" />
      <stop
         offset="1"
         stop-color="#a39ca4"
         id="stop18" />
    </linearGradient>
    <linearGradient
       x1="141.44633"
       y1="120.33896"
       x2="140.95415"
       y2="121.40654"
       gradientUnits="userSpaceOnUse"
       id="color-10">
      <stop
         offset="0"
         stop-color="#948378"
         id="stop19" />
      <stop
         offset="1"
         stop-color="#b0a298"
         id="stop20" />
    </linearGradient>
    <linearGradient
       x1="183.41455"
       y1="16.63843"
       x2="193.46777"
       y2="40.878078"
       gradientUnits="userSpaceOnUse"
       id="color-28">
      <stop
         offset="0"
         stop-color="#444867"
         id="stop55" />
      <stop
         offset="1"
         stop-color="#5c5f7e"
         id="stop56" />
    </linearGradient>
  </defs>
  <g
     inkscape:label="Layer 1"
     inkscape:groupmode="layer"
     id="layer1"
     transform="translate(-92.604091,-130.70416)">
    <g
       id="g713"
       style="mix-blend-mode:normal;stroke-width:0.0676034"
       transform="matrix(3.9137601,0,0,3.9137601,-389.44466,85.682246)">
      <path
         d="m 136.73789,36.53628 0.10957,0.10093 0.47476,-0.45776 c 2.11113,-2.03525 6.73052,-3.25195 9.54302,-3.95771 1.67725,-0.4207 6.37646,0.40034 7.45605,0.06401 4.93213,0.71279 10.82666,4.64282 13.71094,8.6666 2.98828,4.17231 3.88916,7.45854 4.16455,12.43066 1.80322,0.0687 2.85059,0.14766 4.61426,0.53745 1.08545,-0.95859 11.58984,-10.30005 12.52002,-8.24106 1.57764,3.49937 0.59912,11.6562 -0.18604,15.59004 -0.11133,0.55591 -0.23145,1.11035 -0.35889,1.66304 0.71338,1.75972 1.18066,2.88647 1.52783,4.76997 0.32959,1.17202 0.56689,3.24756 0.57568,4.47671 -0.0278,0.62563 0.0366,1.74639 -0.17432,2.23726 -0.12158,0.03516 -0.31494,0.1002 -0.43359,0.1125 l -0.26807,0.09038 0.59326,0.2269 0.35889,0.277 c -0.10986,0.66255 -0.19629,1.24233 -0.37207,1.89404 l -0.54932,0.0249 -0.0527,0.29429 0.35156,0.27144 c -0.2124,0.6646 -0.32666,1.02041 -0.6167,1.6481 2.18115,0.89722 3.84229,1.45854 5.31592,3.40342 -1.25244,-0.68423 -4.55273,-3.01055 -5.76562,-2.84209 l -0.22119,0.52734 c 0.40723,0.77974 1.91455,2.99033 2.47998,3.91729 l 5.36426,8.97788 c 1.19971,1.99834 4.98633,6.83701 1.44141,8.17397 -2.42871,0.91538 -5.0625,1.63843 -7.54834,2.43193 -3.31201,1.05322 -6.63428,2.07993 -9.9624,3.08013 -8.30859,2.54736 -6.59766,2.24897 -10.60107,-5.5623 -0.69434,2.81909 -1.33594,3.97046 -3.0542,6.30498 2.09033,0.59883 16.12646,4.35469 16.5498,5.10996 0.43945,0.78516 0.40869,1.85845 0.11865,2.68696 -0.22852,0.65449 -0.66943,1.16206 -1.16455,1.63345 0.75879,1.14199 0.68701,-0.70327 1.21289,2.13867 1.09424,0.22676 1.29492,0.26572 2.3291,0.71001 0.11426,1.14902 0.1333,2.1728 0.007,3.32637 -0.92139,0.55737 -1.47363,0.81973 -2.46094,1.2646 2.56934,0.59355 2.54004,0.97266 2.36426,3.79072 -0.0352,0.55386 -0.94336,0.77505 -1.28174,1.11299 1.67285,0.85444 3.43213,1.80454 4.51611,3.39976 0.65332,0.9627 0.92285,2.06938 0.67236,3.21592 -0.44678,2.04683 -2.06982,3.43081 -3.74854,4.51289 -11.46973,7.39307 -35.39795,6.94336 -48.35156,4.10112 -4.37124,-0.95918 -11.53887,-2.90303 -14.03394,-6.98555 -1.89756,-3.10488 0.18516,-5.41318 2.6918,-7.14741 0.329,-0.22778 1.15137,-0.64893 1.36567,-0.97544 0.0923,-0.14077 0.1377,-0.56221 0.18208,-0.74297 l 0.0744,-0.63223 c 0.30688,-0.3041 0.33047,-0.32842 0.56528,-0.6895 l -0.08,-0.15806 c -2.15977,-0.73125 -1.74697,-1.41372 -1.71152,-3.49219 -0.72598,-0.25708 -1.33857,-0.53848 -2.03877,-0.85107 -0.10474,-1.08237 -0.0543,-2.33599 -0.0382,-3.43726 0.96079,-0.51108 2.31987,-1.02114 3.34468,-1.42617 -0.18442,-1.26431 -0.17476,-2.40117 -0.10898,-3.66958 1.52227,-0.95947 7.80278,-3.33999 9.79131,-4.08208 3.14429,-1.17349 7.30049,-3.0271 10.40977,-4.04634 -2.20898,-5.58486 -3.70503,-13.69775 -4.25303,-19.63608 -1.75166,-2.0499 -2.87578,-3.58418 -4.43701,-5.77485 0.28726,4.78579 -4.10522,8.70996 -7.89023,4.81509 -2.31255,-2.37964 -0.76875,-9.66328 -0.3353,-13.09702 -7.24966,-8.20605 -5.09224,-24.29546 1.49077,-32.25425 1.0355,-1.25186 2.46841,-2.94316 3.81064,-3.85269 z"
         fill="url(#color-4)"
         id="path157"
         style="fill:url(#color-4);stroke-width:0.0676034" />
      <path
         d="m 184.8501,129.44224 c 1.67285,0.85444 3.43213,1.80454 4.51611,3.39976 0.65332,0.9627 0.92285,2.06938 0.67236,3.21592 -0.44678,2.04683 -2.06982,3.43081 -3.74854,4.51289 -11.46973,7.39307 -35.39795,6.94336 -48.35156,4.10112 -4.37124,-0.95918 -11.53887,-2.90303 -14.03394,-6.98555 -1.89756,-3.10488 0.18516,-5.41318 2.6918,-7.14741 0.329,-0.22778 1.15137,-0.64893 1.36567,-0.97544 0.0923,-0.14077 0.1377,-0.56221 0.18208,-0.74297 -0.006,0.80903 -0.0337,1.70259 0.0114,2.50356 0.9731,0.61655 1.73921,0.91553 2.8481,1.24409 -0.83101,0.4188 -1.68706,0.82998 -2.50034,1.28452 -1.70669,0.95405 -1.4814,2.08301 -1.35937,3.77197 1.37593,0.51914 3.72114,1.23574 5.18159,1.0749 0.29165,-0.31626 0.19497,-0.18647 0.35244,-0.6104 2.92134,-1.33462 4.44536,-1.20396 6.74224,1.11914 1.48389,0.35464 3.07764,0.57495 4.46514,1.09292 1.19824,1.43086 3.13813,2.16636 4.93989,2.46372 4.29639,0.70913 8.88135,2.14834 13.16455,2.68945 1.81934,-0.72949 8.77441,-5.31958 10.73877,-6.5729 l 7.53809,-4.79912 c 1.34619,-0.84624 3.17725,-1.91221 4.44141,-2.80298 0.0659,-0.61333 0.15381,-1.22183 0.14209,-1.83721 z"
         fill="#bebfd3"
         id="path158"
         style="stroke-width:0.0676034" />
      <path
         d="m 190.04443,77.04214 -0.0527,0.29429 0.35156,0.27144 c -0.2124,0.6646 -0.32666,1.02041 -0.6167,1.6481 2.18115,0.89722 3.84229,1.45854 5.31592,3.40342 -1.25244,-0.68423 -4.55273,-3.01055 -5.76562,-2.84209 -0.63574,-0.49717 -1.43555,-0.15542 -2.55176,-0.76333 -0.0249,-0.44414 -0.0762,-0.84785 -0.13037,-1.2876 l 0.0366,-0.43037 c 1.27295,-0.17388 2.12842,-0.24199 3.41309,-0.29385 z"
         fill="#353557"
         id="path159"
         style="stroke-width:0.0676034" />
      <path
         d="m 186.7251,79.05396 c 1.35938,-0.34453 2.35547,0.3334 3.00146,0.202 2.18115,0.89722 3.84229,1.45854 5.31592,3.40342 -1.25244,-0.68423 -4.55273,-3.01055 -5.76562,-2.84209 -0.63574,-0.49717 -1.43555,-0.15542 -2.55176,-0.76333 z"
         fill="#604978"
         id="path160"
         style="stroke-width:0.0676034" />
      <path
         d="m 190.04443,77.04214 -0.0527,0.29429 c -0.84229,0.0088 -2.57373,0.2272 -3.39697,0.42993 l 0.0366,-0.43037 c 1.27295,-0.17388 2.12842,-0.24199 3.41309,-0.29385 z"
         fill="#70728a"
         id="path161"
         style="stroke-width:0.0676034" />
      <path
         d="m 190.01367,74.61929 0.59326,0.2269 0.35889,0.277 c -0.10986,0.66255 -0.19629,1.24233 -0.37207,1.89404 l -0.54932,0.0249 c -1.28467,0.05186 -2.14014,0.11997 -3.41309,0.29385 1.05615,-0.94878 4.03271,0.24346 3.29883,-1.89404 -0.94189,0.01172 -2.0127,0.98892 -3.03955,0.91187 l -0.16406,-0.19146 c 0.39697,-0.73125 2.46094,-1.2958 3.28711,-1.54307 z"
         fill="#353557"
         id="path162"
         style="stroke-width:0.0676034" />
      <path
         d="m 190.01367,74.61929 0.59326,0.2269 c -1.25977,0.44985 -2.50049,0.95273 -3.71631,1.50762 l -0.16406,-0.19146 c 0.39697,-0.73125 2.46094,-1.2958 3.28711,-1.54307 z"
         fill="#574b54"
         id="path163"
         style="stroke-width:0.0676034" />
      <path
         d="m 190.28174,74.52891 c -0.10547,-0.3561 -0.47607,-6.95991 -0.39844,-7.37505 l 0.43066,0.54858 c 0.32959,1.17202 0.56689,3.24756 0.57568,4.47671 -0.0278,0.62563 0.0366,1.74639 -0.17432,2.23726 -0.12158,0.03516 -0.31494,0.1002 -0.43359,0.1125 z"
         fill="#1e1a28"
         id="path164"
         style="stroke-width:0.0676034" />
      <path
         d="m 183.57275,80.87739 2.46973,-0.68101 c 1.30957,0.34028 1.91748,0.53276 3.04395,1.31675 2.66748,5.14731 6.88037,11.37422 9.86279,16.56899 l 0.2124,0.07002 c 0.0835,0.30059 0.17432,0.5877 0.22266,0.89443 l 0.0879,0.11279 -0.15967,0.07793 c -0.39404,1.63491 -1.22754,1.62964 -2.68359,2.09385 l -0.085,-0.0149 c -0.2666,-0.41543 -0.082,-1.13071 10e-4,-1.68062 -0.44531,-1.32568 -4.32861,-7.39468 -5.1665,-9.05566 -0.10986,-0.2168 -0.6416,-0.72144 -0.85547,-0.91289 -3.20654,0.36606 -7.23193,2.00288 -10.42676,2.8062 -1.5835,0.39814 -5.95312,1.47817 -6.99463,2.57329 -0.36621,1.51787 3.77197,8.45156 4.64355,10.43291 -0.81299,0.24243 -1.77832,0.46055 -2.61475,0.66826 -3.22998,-6.86426 -7.25244,-13.71226 -10.50439,-20.74702 1.59082,-0.56689 3.65625,-0.97617 5.39355,-1.52798 0.66504,1.33213 3.10254,6.87773 4.10889,7.2605 1.60254,0.07236 12.13916,-2.81953 12.50391,-3.97324 -0.22998,-1.47964 -2.20898,-4.9043 -3.06006,-6.28257 z"
         fill="#6c6a69"
         id="path165"
         style="stroke-width:0.0676034" />
      <path
         d="m 198.94922,98.08213 0.2124,0.07002 c 0.0835,0.30059 0.17432,0.5877 0.22266,0.89443 l 0.0879,0.11279 -0.15967,0.07793 c -0.39404,1.63491 -1.22754,1.62964 -2.68359,2.09385 l -0.085,-0.0149 c -0.2666,-0.41543 -0.082,-1.13071 10e-4,-1.68062 0.99756,0.0356 2.66748,-0.24551 2.40381,-1.55347 z"
         fill="#3d4053"
         id="path166"
         style="stroke-width:0.0676034" />
      <path
         d="m 198.94922,98.08213 0.2124,0.07002 c 0.0835,0.30059 0.17432,0.5877 0.22266,0.89443 l 0.0879,0.11279 -0.15967,0.07793 c -1.06787,0.42363 -2.33057,0.57158 -2.72607,1.37974 l 0.0425,0.71411 -0.085,-0.0149 c -0.2666,-0.41543 -0.082,-1.13071 0.001,-1.68062 0.99756,0.0356 2.66748,-0.24551 2.40381,-1.55347 z"
         fill="#1e1a28"
         id="path167"
         style="stroke-width:0.0676034" />
      <path
         d="m 196.29492,96.64497 0.72363,0.03252 c 0.44971,0.2647 0.50244,0.24683 0.74414,0.71924 -0.004,0.58755 0.0835,0.33105 -0.26953,0.79761 -0.69141,-0.02153 -0.85254,-0.03018 -1.31836,-0.55386 -0.11865,-0.68247 -0.1582,-0.36255 0.12012,-0.99551 z"
         fill="#0d0a11"
         id="path168"
         style="stroke-width:0.0676034" />
      <path
         d="m 175.03711,103.3938 c 0.70752,0.0368 0.68555,-0.007 1.10889,0.35449 0.10547,0.45322 0.022,0.51211 -0.16992,0.94263 -0.48926,-0.0602 -0.49072,-0.11528 -0.86133,-0.43008 -0.22852,-0.59121 -0.22705,-0.31069 -0.0776,-0.86704 z"
         fill="#2d2b31"
         id="path169"
         style="stroke-width:0.0676034" />
      <path
         d="m 189.7793,90.25342 c 0.17578,-0.0086 0.35596,0.04043 0.53906,0.0728 0.89355,0.78267 5.05371,8.18423 5.66748,9.52983 -4.80469,1.70522 -11.64258,3.74766 -16.55566,5.14893 l -1.08838,0.34526 c -0.78955,-1.69526 -5.02441,-9.0457 -4.61719,-10.14272 1.42383,-0.90864 13.6875,-4.31396 16.05469,-4.9541 z"
         fill="#ece5c8"
         id="path170"
         style="stroke-width:0.0676034" />
      <path
         d="m 192.49219,97.71738 0.18311,0.05522 0.0132,0.19336 c -0.67822,0.38877 -3.56396,1.21831 -4.52637,1.5186 l -9.12744,2.85205 -0.23437,-0.15161 c 0.47461,-0.63398 11.99414,-3.93662 13.69189,-4.46763 z"
         fill="#6c6a69"
         id="path171"
         style="stroke-width:0.0676034" />
      <path
         d="m 190.94971,95.36001 c 0.31787,-0.03662 0.18311,-0.07925 0.41455,0.09243 -0.44824,0.44546 -11.73779,3.72144 -13.35352,4.19092 l -0.20947,0.03105 -0.0806,-0.16626 c 0.88623,-0.60073 11.34229,-3.57847 13.229,-4.14814 z"
         fill="#6c6a69"
         id="path172"
         style="stroke-width:0.0676034" />
      <path
         d="m 189.75293,92.88545 c 0.085,0.0123 0.15088,0.08203 0.22266,0.12788 -0.31494,0.45703 -11.78467,3.69302 -13.2832,4.13394 l -0.30176,-0.09243 c 0.17578,-0.31934 11.7583,-3.67632 13.3623,-4.16938 z"
         fill="#5e5b5e"
         id="path173"
         style="stroke-width:0.0676034" />
      <path
         d="m 146.02368,111.80581 c 0.75659,-0.30029 0.85913,-0.32783 1.67212,-0.34321 1.08398,0.31567 2.15771,0.66167 3.22266,1.0377 1.32568,2.51045 2.4917,3.37632 5.32324,3.65771 1.64502,10e-4 2.41406,0.0324 3.94482,-0.71982 l 2.65137,0.78325 c 0.74121,0.25752 1.90869,0.62886 2.58984,0.93135 -3.76904,1.76968 -8.0332,3.91538 -11.77002,5.58032 -2.96191,-0.82295 -5.90918,-1.94707 -8.80283,-2.75596 -1.32305,-0.47563 -3.01289,-0.90864 -4.38706,-1.29917 l -0.21694,0.21709 c 0.11704,0.36914 0.046,0.24976 0.32417,0.51694 l -0.17139,0.21855 c -0.32593,-0.0855 -0.46187,-0.14927 -0.77344,-0.2833 l -0.1708,-0.23408 -0.19746,0.017 -0.42627,-0.12495 0.0776,-0.15894 c -0.44561,-0.75205 -1.2167,-1.00972 -1.99922,-1.34971 0.54771,-0.67148 0.66284,-0.74282 1.40186,-1.20527 -0.53555,-0.19658 -0.87334,-0.20259 -1.25625,-0.66387 2.78994,-1.35981 6.06094,-2.51792 8.96396,-3.82163 z"
         fill="#ece5c8"
         id="path174"
         style="stroke-width:0.0676034" />
      <path
         d="m 146.02368,111.80581 c 0.75659,-0.30029 0.85913,-0.32783 1.67212,-0.34321 1.08398,0.31567 2.15771,0.66167 3.22266,1.0377 1.32568,2.51045 2.4917,3.37632 5.32324,3.65771 l -0.45996,0.59194 c -2.07568,0.10342 -7.41357,0.0659 -8.50342,-2.07715 0.14355,-1.63813 -0.90396,-1.29668 -1.18389,-2.38286 z"
         fill="#b3a590"
         id="path175"
         style="stroke-width:0.0676034" />
      <path
         d="m 146.02368,111.80581 c 0.75659,-0.30029 0.85913,-0.32783 1.67212,-0.34321 -0.4248,0.51108 -0.95068,0.60249 -1.60137,0.82734 z"
         fill="#c8bfb6"
         id="path176"
         style="stroke-width:0.0676034" />
      <path
         d="m 138.31597,116.29131 c 1.28086,-0.16699 1.52036,-0.0702 2.75522,0.33003 l 0.16831,0.21372 c -0.34248,0.49907 -0.9145,1.12075 -0.9835,1.64106 l 0.21182,0.20186 -0.21694,0.21709 c 0.11704,0.36914 0.046,0.24976 0.32417,0.51694 l -0.17139,0.21855 c -0.32593,-0.0855 -0.46187,-0.14927 -0.77344,-0.2833 l -0.1708,-0.23408 -0.19746,0.017 -0.42627,-0.12495 0.0776,-0.15894 c -0.44561,-0.75205 -1.2167,-1.00972 -1.99922,-1.34971 0.54771,-0.67148 0.66284,-0.74282 1.40186,-1.20527 z"
         fill="#6c6a69"
         id="path177"
         style="stroke-width:0.0676034" />
      <path
         d="m 141.07119,116.62134 c 1.45239,-0.0703 2.05137,0.52661 2.83696,1.72661 l -0.15015,0.10386 c -0.17007,0.11895 -0.29707,0.21592 -0.4582,0.34365 0.3438,0.3687 0.77036,0.33896 1.26841,0.55869 l 0.32197,0.35859 -0.0353,0.2644 c -1.32305,-0.47563 -3.01289,-0.90864 -4.38706,-1.29917 l -0.21182,-0.20186 c 0.069,-0.52031 0.64102,-1.14199 0.9835,-1.64106 z"
         fill="#86786b"
         id="path178"
         style="stroke-width:0.0676034" />
      <path
         d="m 144.56821,119.35415 c 0.79614,-0.36929 0.49204,-0.75557 0.69668,-0.87144 1.00576,-0.56968 3.42114,-0.15293 3.94556,0.87173 -0.62549,0.88521 -3.33955,0.53101 -4.32026,0.3583 z"
         fill="#86786b"
         id="path179"
         style="stroke-width:0.0676034" />
      <path
         d="m 160.18652,115.43818 2.65137,0.78325 c -0.88184,0.61802 -5.89307,0.7207 -7.05615,0.52852 l 0.45996,-0.59194 c 1.64502,10e-4 2.41406,0.0324 3.94482,-0.71982 z"
         fill="#c8bfb6"
         id="path180"
         style="stroke-width:0.0676034" />
      <path
         d="m 176.12256,111.17402 c 0.73389,0.0144 6.12598,1.67827 7.09277,1.9875 -1.91895,0.83145 -4.19238,2.02119 -6.09521,2.95151 l -11.04199,5.35972 c -2.05518,0.98979 -4.45166,2.19229 -6.54932,3.00015 l -3.29736,-0.93735 -1.75928,-0.57817 c 1.82813,-1.04048 11.07275,-4.7814 11.42432,-6.00425 -0.54785,-0.82119 -3.74121,-1.68779 -4.79004,-2.0187 0.40576,-0.60146 0.5625,-0.90894 0.87891,-1.56562 7.86621,2.45684 6.92139,1.54116 14.13721,-2.19478 z"
         fill="#6c6a69"
         id="path181"
         style="stroke-width:0.0676034" />
      <path
         d="m 158.72607,121.57324 c 0.85254,-0.10913 2.30566,-0.039 2.55615,0.94834 -0.16992,0.47725 -0.5083,0.61157 -0.94629,0.89795 -1.16162,0.1856 -1.66553,-0.21196 -2.7085,-0.75688 z"
         fill="#1e1a28"
         id="path182"
         style="stroke-width:0.0676034" />
      <path
         d="m 185.41992,126.4437 c -0.0205,0.57349 -0.0586,1.19517 -0.063,1.76411 -4.01367,2.41084 -10.91895,5.13691 -15.31787,7.14316 -2.85645,1.30327 -8.00391,3.81899 -10.81494,4.83252 -0.59912,-0.0105 -0.68994,-0.0368 -1.27881,-0.18633 -1.84131,-0.56001 -3.87305,-1.13423 -5.68359,-1.74565 l 0.0718,-2.00391 c 1.96582,0.62314 4.51172,1.50791 6.46729,1.99746 2.44922,-0.79687 4.39893,-1.90356 6.7251,-2.94331 l 12.71045,-5.68052 c 2.04932,-0.92183 5.14453,-2.42988 7.18359,-3.17754 z"
         fill="#5e5b5e"
         id="path183"
         style="stroke-width:0.0676034" />
      <path
         d="m 157.94531,139.99717 0.21094,-0.1998 c 0.0352,-0.5228 0.004,-1.00591 0.26367,-1.4436 0.41602,0.081 0.22119,0.0281 0.59912,0.46143 0.0425,0.48252 0.041,0.92197 0.20508,1.36831 -0.59912,-0.0106 -0.68994,-0.0368 -1.27881,-0.18633 z"
         fill="#3d4053"
         id="path184"
         style="stroke-width:0.0676034" />
      <path
         d="m 181.91309,82.39248 c 0.38672,-0.34922 0.81885,-0.82471 1.18652,-1.20718 1.04004,1.89521 2.20313,4.05542 3.09814,6.00747 -2.66016,1.07021 -9.0835,2.93672 -11.90625,3.48809 -1.12939,-1.56138 -2.64404,-4.99966 -3.81592,-6.9832 0.6123,-0.17095 1.30811,-0.32593 1.93213,-0.48018 0.57422,0.32227 0.78223,0.49453 1.4165,0.58491 l 0.44971,0.20508 c 2.20166,-0.277 1.93213,-0.90132 3.82178,-1.66392 0.42041,-0.16934 0.78516,-0.02959 1.1543,0.18223 l -0.24609,0.26836 c -0.18018,0.75425 1.94824,4.36963 2.43457,5.16489 1.22168,-0.24082 1.87793,-0.5001 3.00146,-0.99565 -0.77783,-1.55874 -1.62012,-3.08379 -2.52686,-4.5709 z"
         fill="#c8bfb6"
         id="path185"
         style="stroke-width:0.0676034" />
      <path
         d="m 173.82422,83.80239 0.44971,0.20508 c 0.44531,0.12539 0.46582,-0.08789 1.25098,0.24507 l -0.21094,0.27891 c -0.67676,0.33647 -1.03271,0.31011 -1.7417,0.07661 -0.36914,-0.35962 -0.26367,-0.15088 -0.35889,-0.63179 z"
         fill="#b3a590"
         id="path186"
         style="stroke-width:0.0676034" />
      <path
         d="m 180.63135,75.76699 c -1.47217,-1.37476 -0.29443,-6.15645 1.06494,-7.54468 0.8877,-0.8918 2.10059,-1.38311 3.35742,-1.36025 3.30762,0.05654 4.10596,2.37041 2.96191,4.9043 -1.17627,2.60903 -0.84521,2.59893 -3.39697,3.94966 -1.61133,0.41807 -2.42139,0.37529 -3.9873,0.05098 z"
         fill="#22182c"
         id="path187"
         style="stroke-width:0.0676034" />
      <path
         d="m 181.57617,71.01958 c 1.38867,-2.48145 4.02686,-1.03052 4.08838,1.34458 0.0249,0.93062 -0.25488,1.50674 -0.33398,2.3228 l -0.78223,0.56147 c 0.0659,0.25005 0.0908,0.22529 0.0703,0.46758 -1.61133,0.41807 -2.42139,0.37529 -3.9873,0.05098 l 0.375,-0.38291 c -0.52148,-0.61362 -0.26074,-2.025 -0.18604,-2.81631 0.0981,-0.56689 0.12598,-0.63574 0.33105,-1.17891 z"
         fill="#204d91"
         id="path188"
         style="stroke-width:0.0676034" />
      <path
         d="m 181.57617,71.01958 c 0.70605,0.01729 0.76025,-0.0057 1.35938,0.32329 0.43652,0.66357 0.19922,1.0834 -0.46875,1.42837 -0.62256,-0.07529 -0.71631,-0.11938 -1.31396,-0.34497 l -0.20215,0.25327 -0.13037,-0.11177 c 0.0981,-0.56689 0.12598,-0.63574 0.33105,-1.17891 z"
         fill="#e4e5ef"
         id="path189"
         style="stroke-width:0.0676034" />
      <path
         d="m 184.54834,75.24844 c 0.0659,0.25005 0.0908,0.22529 0.0703,0.46758 -1.61133,0.41807 -2.42139,0.37529 -3.9873,0.05098 l 0.375,-0.38291 0.82617,0.08071 c 0.5874,0.33296 2.05078,-0.05669 2.71582,-0.21636 z"
         fill="#1e1a28"
         id="path190"
         style="stroke-width:0.0676034" />
      <path
         d="m 180.82031,72.56777 0.13037,0.11177 c 0.17139,1.20322 0.22266,1.71987 0.88184,2.78525 l -0.82617,-0.08071 c -0.52148,-0.61362 -0.26074,-2.025 -0.18604,-2.81631 z"
         fill="#e4e5ef"
         id="path191"
         style="stroke-width:0.0676034" />
      <path
         d="m 182.0918,69.38687 c 0.88184,-0.05479 1.51318,-0.37134 2.36865,-0.4418 1.85596,-0.15278 2.72461,0.91553 2.65576,2.79419 -0.36182,1.33271 -0.64453,2.04478 -1.78564,2.94771 0.0791,-0.81606 0.35889,-1.39219 0.33398,-2.3228 -0.0615,-2.3751 -2.69971,-3.82603 -4.08838,-1.34458 l -0.4248,0.36929 c 0.30029,-0.96343 0.4248,-1.1521 0.94043,-2.002 z"
         fill="#c9cce5"
         id="path192"
         style="stroke-width:0.0676034" />
      <path
         d="m 182.0918,69.38687 c 2.521,-2.72988 5.72754,-1.18184 5.02441,2.35239 0.0688,-1.87866 -0.7998,-2.94697 -2.65576,-2.79419 -0.85547,0.07046 -1.48682,0.38701 -2.36865,0.4418 z"
         fill="#9c7cc0"
         id="path193"
         style="stroke-width:0.0676034" />
      <path
         d="m 148.53809,107.00127 c 0.17432,0.1894 1.73584,4.18667 1.94678,4.71035 -1.021,-0.33647 -2.21924,-0.83818 -3.30908,-0.77476 -1.56504,0.0913 -11.47236,4.45854 -13.75869,5.42153 l -1.39644,-0.40356 -3.24229,-0.98101 c 3.26675,-1.26167 6.35288,-2.51807 9.58682,-3.86572 3.07251,-1.28042 7.26724,-2.55352 10.1729,-4.10684 z"
         fill="#6c6a69"
         id="path194"
         style="stroke-width:0.0676034" />
      <path
         d="m 133.3812,113.68462 c 0.94263,0.0513 1.70273,0.51592 2.51865,0.9501 l -1.98398,0.52896 c -0.53101,0.1481 -1.01543,0.034 -1.50527,-0.1771 -0.32871,-0.38086 -0.254,-0.16582 -0.23555,-0.66519 0.31934,-0.43066 0.68232,-0.4708 1.20615,-0.63677 z"
         fill="#1e1a28"
         id="path195"
         style="stroke-width:0.0676034" />
      <path
         d="m 132.80947,114.27861 c 0.51313,-0.0195 1.47378,-0.0974 1.82827,0.3104 l -0.2981,0.19702 c -0.66094,0.0583 -1.12427,0.15732 -1.65073,-0.17358 z"
         fill="#6c6a69"
         id="path196"
         style="stroke-width:0.0676034" />
      <path
         d="m 162.44531,73.86943 c -1.54834,-4.81816 7.0752,-5.81045 8.77734,-0.18252 0.26514,0.89253 0.67236,1.99307 0.57568,2.8979 -0.54639,1.00225 -4.58789,2.09341 -5.50195,1.0749 l -0.0176,-0.3687 c -1.99658,-0.41895 -3.14209,-1.56211 -3.8335,-3.42158 z"
         fill="#204d91"
         id="path197"
         style="stroke-width:0.0676034" />
      <path
         d="m 162.44531,73.86943 c -1.54834,-4.81816 7.0752,-5.81045 8.77734,-0.18252 l -0.27539,0.10737 c -0.49512,-1.33652 -0.54932,-1.40815 -1.7666,-2.14336 -0.84521,-0.22764 -1.89111,-0.09229 -2.4624,0.62827 l 0.0264,0.20493 0.53906,0.16626 c -0.86279,0.0208 -0.60352,-0.09639 -1.28174,0.31055 -0.26514,0.4333 -0.3501,0.57905 -0.28125,1.10728 0.0278,1.29932 0.21973,2.08887 1.02246,3.17373 l -0.0615,0.15264 -0.40283,-0.10356 c -1.99658,-0.41895 -3.14209,-1.56211 -3.8335,-3.42158 z"
         fill="#c9cce5"
         id="path198"
         style="stroke-width:0.0676034" />
      <path
         d="m 162.44531,73.86943 c -1.54834,-4.81816 7.0752,-5.81045 8.77734,-0.18252 l -0.27539,0.10737 c -0.49512,-1.33652 -0.54932,-1.40815 -1.7666,-2.14336 -0.75586,-1.56563 -5.89746,-1.04707 -6.59033,1.58145 -0.0542,0.21108 -0.10254,0.42349 -0.14502,0.63706 z"
         fill="#9c7cc0"
         id="path199"
         style="stroke-width:0.0676034" />
      <path
         d="m 165.7207,74.06821 c -0.0688,-0.52822 0.0161,-0.67397 0.28125,-1.10728 0.67822,-0.40693 0.41895,-0.28975 1.28174,-0.31055 0.39404,0.33047 0.4292,0.3145 0.60645,0.81387 -0.13477,1.33096 -1.28027,1.29741 -2.16943,0.60396 z"
         fill="#e4e5ef"
         id="path200"
         style="stroke-width:0.0676034" />
      <path
         d="m 171.79834,76.58481 c -0.54639,1.00225 -4.58789,2.09341 -5.50195,1.0749 l -0.0176,-0.3687 0.40283,0.10356 c 1.16748,0.24609 2.74512,0.121 3.84375,-0.35757 z"
         fill="#1e1a28"
         id="path201"
         style="stroke-width:0.0676034" />
      <path
         d="m 170.94727,73.79429 0.27539,-0.10737 c 0.26514,0.89253 0.67236,1.99307 0.57568,2.8979 l -1.27295,0.4522 c 0.17285,-1.27749 0.82178,-1.35674 0.42188,-3.24272 z"
         fill="#e4e5ef"
         id="path202"
         style="stroke-width:0.0676034" />
      <path
         d="m 154.66553,49.54673 c 2.78174,1.68413 5.28369,5.35723 6.89355,8.14277 -1.14111,-0.43828 -2.04785,-0.6564 -3.2373,-0.89224 l 2.05225,2.16812 c -0.69287,-0.01289 -2.12988,-0.08262 -2.66455,0.29048 l 0.19043,0.18267 c 0.44238,0.24009 0.64453,0.30117 0.93018,0.72012 -1.35645,1.45986 -2.38916,2.56157 -3.55518,4.1896 -1.51611,-4.86914 -2.02295,-9.83291 -0.60937,-14.80151 z"
         fill="#574b54"
         id="path203"
         style="stroke-width:0.0676034" />
      <path
         d="m 127.68691,126.12554 c -0.0456,-0.49087 -0.24419,-1.60225 0.13433,-1.90591 0.1002,0.0715 0.20317,0.13901 0.30088,0.21387 0.91611,0.70063 27.08979,8.12886 30.82954,9.32754 -0.0117,0.48208 0.0205,1.26782 -0.12891,1.68267 -6.03223,-1.64927 -12.15674,-3.63545 -18.1875,-5.37085 -4.27734,-1.23105 -8.76606,-2.48262 -12.94834,-3.94731 z"
         fill="#5e5b5e"
         id="path204"
         style="stroke-width:0.0676034" />
      <path
         d="m 183.01904,118.75532 c 0.0132,0.59429 0.0498,1.29712 0.041,1.88101 -6.4585,3.07939 -13.24512,5.75669 -19.78418,8.69121 -1.77246,0.79556 -3.85986,1.7417 -5.6792,2.33496 -0.52148,0.0262 -0.6665,0.0713 -1.14697,-0.14941 -0.006,-0.59224 0.0161,-1.20791 0.0278,-1.8019 l 0.61816,0.16216 c 1.77393,-0.20332 23.98389,-10.02378 25.92334,-11.11802 z"
         fill="#5e5b5e"
         id="path205"
         style="stroke-width:0.0676034" />
      <path
         d="m 156.47754,129.71118 0.61816,0.16216 c 0.063,0.53379 0.085,1.23486 0.34277,1.67959 l 0.1582,0.10957 c -0.52148,0.0262 -0.6665,0.0713 -1.14697,-0.14941 -0.006,-0.59224 0.0161,-1.20791 0.0278,-1.8019 z"
         fill="#2d2b31"
         id="path206"
         style="stroke-width:0.0676034" />
      <path
         d="m 166.46191,108.36167 c 0.40869,0.0485 2.48291,0.67207 3.05859,0.83423 1.97607,0.5562 3.95654,1.09512 5.94287,1.61631 l -5.84766,3.00176 c -0.46289,0.23599 -1.04736,0.46187 -1.53516,0.6668 -2.03467,-0.40649 -4.14111,-1.15752 -6.11426,-1.82168 -0.11719,-1.35264 -0.646,-1.80132 -0.67969,-2.45947 2.32178,0.23071 3.44678,-0.49395 5.17529,-1.83794 z"
         fill="#c8bfb6"
         id="path207"
         style="stroke-width:0.0676034" />
      <path
         d="m 169.0459,109.69629 c 0.77344,0.12187 2.28809,0.36313 2.63818,1.08281 -0.28564,0.79028 -3.68408,2.36411 -4.73877,2.94272 -1.26855,-0.35771 -2.04785,-0.68306 -3.27539,-1.19854 1.41797,-1.01865 3.78369,-2.11743 5.37598,-2.827 z"
         fill="#0d0a11"
         id="path208"
         style="stroke-width:0.0676034" />
      <path
         d="m 168.9082,110.27739 c 0.8584,-0.0469 1.40625,0.26089 2.18262,0.60015 -1.39893,0.71572 -2.66455,1.36509 -4.02393,2.16123 -0.71777,0.0936 -1.51465,-0.27407 -2.21338,-0.52148 1.08838,-0.75864 2.83887,-1.6062 4.05469,-2.23989 z"
         fill="#5e5b5e"
         id="path209"
         style="stroke-width:0.0676034" />
      <path
         d="m 188.35547,47.41392 c 0.1875,0.11089 0.17871,0.15176 0.32373,0.3416 0.31641,2.83213 0.2373,5.47515 0.15234,8.30156 -0.0791,2.56934 -0.65771,2.74072 -1.52637,4.93608 -0.49072,-0.57056 -3.07178,-3.15425 -3.10547,-3.40679 0.37646,-0.13022 0.54199,-0.21548 0.89355,-0.38892 l 0.0469,-0.19922 c -0.45264,-0.28931 -1.11475,-0.34263 -1.66113,-0.43579 l 1.75928,-1.98281 c -0.8584,0.26016 -1.7373,0.55488 -2.59424,0.8291 0.88623,-2.23257 3.82178,-6.50596 5.71143,-7.99482 z"
         fill="#574b54"
         id="path210"
         style="stroke-width:0.0676034" />
      <path
         d="m 183.13037,113.95957 -0.0205,2.03657 c -4.8501,2.32295 -9.68408,4.67695 -14.50342,7.06172 -2.44922,1.20352 -6.10107,3.10532 -8.521,4.06055 -0.3457,-0.74619 0.28857,-1.03623 -0.30469,-2.0042 2.92969,-1.0541 7.80615,-3.56807 10.74902,-5.03643 4.02979,-2.01079 8.68066,-4.04883 12.60059,-6.11821 z"
         fill="#5e5b5e"
         id="path211"
         style="stroke-width:0.0676034" />
      <path
         d="m 179.97217,123.11909 0.2959,0.22251 c 0.0557,0.82397 0.0703,1.3251 0.0513,2.15859 -1.00635,0.51387 -2.28223,1.21245 -3.31348,1.60649 -3.62695,1.90532 -7.36816,3.72202 -10.95703,5.66689 0.0835,-0.68921 0.17285,-1.69292 0.30908,-2.34917 -0.99902,-0.42861 -1.42676,-0.47051 -2.4668,-0.59678 5.23828,-1.98545 10.22461,-4.48564 15.39551,-6.55752 l 0.32666,-0.11982 z"
         fill="url(#color-5)"
         id="path212"
         style="fill:url(#color-5);stroke-width:0.0676034" />
      <path
         d="m 166.49561,130.3771 c 0.93018,0.0475 5.86377,-2.52744 7.29199,-2.76812 0.0146,-0.002 1.65674,-0.94307 1.86621,-1.04429 l 0.21826,0.0586 c 0.28418,0.0735 0.49365,0.11426 0.78076,0.16626 l 0.35303,0.31714 c -3.62695,1.90532 -7.36816,3.72202 -10.95703,5.66689 0.0835,-0.68921 0.17285,-1.69292 0.30908,-2.34917 z"
         fill="#c8bfb6"
         id="path213"
         style="stroke-width:0.0676034" />
      <path
         d="m 179.97217,123.11909 0.2959,0.22251 c 0.0557,0.82397 0.0703,1.3251 0.0513,2.15859 -1.00635,0.51387 -2.28223,1.21245 -3.31348,1.60649 l -0.35303,-0.31714 c -0.28711,-0.052 -0.49658,-0.0927 -0.78076,-0.16626 l -0.21826,-0.0586 0.20947,-0.52559 c 0.0674,-0.0661 0.13623,-0.13213 0.20508,-0.19819 l 0.45117,-0.45469 c 0.52148,-0.52676 0.54639,-0.57729 1.29932,-0.71045 0.50684,-0.3791 1.00928,-0.7626 1.50879,-1.1502 l -0.041,-0.25547 0.32666,-0.11982 z"
         fill="#b3a590"
         id="path214"
         style="stroke-width:0.0676034" />
      <path
         d="m 179.28662,123.27012 0.32666,-0.11982 0.24023,0.29619 c -0.36328,0.64585 -1.30518,0.98481 -1.53223,1.25625 -0.56982,0.68188 -0.0571,1.17598 -0.95215,1.87163 l -0.41162,0.0456 c -0.49951,-0.54375 0.46729,-1.44258 0.86133,-1.94414 0.50684,-0.3791 1.00928,-0.7626 1.50879,-1.1502 z"
         fill="#5e5b5e"
         id="path215"
         style="stroke-width:0.0676034" />
      <path
         d="m 175.86328,126.03911 -0.20947,0.52559 c -0.20947,0.10122 -1.85156,1.0418 -1.86621,1.04429 -1.42822,0.24067 -6.36182,2.81558 -7.29199,2.76812 0.77344,-1.0563 4.04883,-2.01973 5.3291,-2.59761 1.2583,-0.56807 2.75684,-1.2542 4.03857,-1.74038 z"
         fill="#0d0a11"
         id="path216"
         style="stroke-width:0.0676034" />
      <path
         d="m 183.87598,129.76362 0.14941,0.0529 c 0.28418,0.41499 0.24609,0.20127 0.18311,0.64746 -0.28711,0.41777 -0.65625,0.64702 -1.0708,0.92739 -1.82373,1.23237 -20.03174,12.81914 -20.88428,13.01528 -0.30176,0.0694 -0.17578,0.0729 -0.46436,-0.091 -0.0176,-0.51445 0.0366,-0.37441 -0.13623,-0.82734 l -0.21387,0.0495 c 0.003,0.38247 0.003,0.55313 -0.041,0.9312 -0.77637,0.25957 -2.625,-0.33237 -3.51123,-0.55957 -0.48633,-0.0864 -0.57422,-0.0685 -1.00488,-0.32344 -0.3208,-0.50098 -0.17432,-1.16294 -0.12744,-1.78813 1.52783,0.39961 3.43066,0.7229 4.88232,1.23662 5.43018,-2.95972 10.90283,-6.96416 16.30957,-10.09087 1.96289,-1.13481 3.9375,-2.09854 5.92969,-3.18003 z"
         fill="#5e5b5e"
         id="path217"
         style="stroke-width:0.0676034" />
      <path
         d="m 135.32344,120.70488 c 1.48228,0.0549 17.04668,5.14746 18.97148,5.87505 -0.52734,0.32988 -1.83252,1.02744 -2.42432,1.13115 -2.34082,-0.57393 -4.99072,-1.4168 -7.33638,-2.10059 -4.03184,-1.16221 -8.05737,-2.34595 -12.07632,-3.55137 z"
         fill="#d67c7b"
         id="path218"
         style="stroke-width:0.0676034" />
      <path
         d="m 131.34038,122.51147 c 2.88999,0.65098 6.61787,1.80703 9.46333,2.64712 3.63618,1.08325 7.2832,2.13018 10.94092,3.14063 l -0.0146,1.89683 c -6.69141,-1.94092 -13.75957,-3.86089 -20.36616,-5.94712 z"
         fill="#975f5e"
         id="path219"
         style="stroke-width:0.0676034" />
      <path
         d="m 157.02686,94.8668 4.20264,0.18413 c 0.52295,3.48164 0.87158,5.33335 -1.15576,8.29102 -0.40869,0.63179 -0.75439,1.26753 -1.31836,1.75239 -1.65527,-0.0237 -1.68018,-8.79185 -1.72852,-10.22754 z"
         fill="#e4e5ef"
         id="path220"
         style="stroke-width:0.0676034" />
      <path
         d="m 135.55913,134.11626 c 2.61328,0.81826 19.98237,5.75493 20.89204,6.66621 -2.44482,0.7749 -12.08335,-3.29399 -15.26895,-2.15684 -1.24175,0.44326 -1.98003,-1.17788 -3.20127,-1.7231 l -1.74478,-0.4979 0.25503,-0.27275 -0.30732,-0.51372 c -0.28052,-0.21929 -0.45937,-0.38599 -0.71851,-0.62622 l 0.3728,-0.48384 z"
         fill="#c8bfb6"
         id="path221"
         style="stroke-width:0.0676034" />
      <path
         d="m 135.83818,134.50811 c 0.58491,0.44033 0.87056,0.65874 1.38003,1.17832 1.3771,0.17109 3.90425,0.34775 4.85303,1.31733 l 0.079,0.37588 c -0.18472,0.0879 -3.06797,-0.70342 -3.81899,-0.76582 l -0.35024,0.28872 -1.74478,-0.4979 0.25503,-0.27275 -0.30732,-0.51372 c -0.28052,-0.21929 -0.45937,-0.38599 -0.71851,-0.62622 z"
         fill="url(#color-6)"
         id="path222"
         style="fill:url(#color-6);stroke-width:0.0676034" />
      <path
         d="m 136.49121,136.13188 c 0.75615,0.31641 1.04634,0.34204 1.83999,0.48193 l -0.35024,0.28872 -1.74478,-0.4979 z"
         fill="#b3a590"
         id="path223"
         style="stroke-width:0.0676034" />
      <path
         d="m 134.03042,130.72178 c 1.08472,0.22192 4.42705,1.37021 5.67217,1.75562 3.96357,1.23735 7.93755,2.44277 11.92046,3.61611 l -0.0337,1.9853 c -5.58677,-1.52549 -11.96865,-3.6564 -17.55498,-5.41523 z"
         fill="#c8bfb6"
         id="path224"
         style="stroke-width:0.0676034" />
      <path
         d="m 169.69922,53.50986 c -1.74023,-2.11245 -2.95752,-4.10581 -3.72949,-6.73594 -0.14941,-0.50845 -0.5918,-1.82871 -0.35742,-2.27915 l -0.003,0.0086 c 0.94482,2.53652 2.83887,6.77783 4.85889,8.99121 0.14502,0.1582 0.24463,0.0728 0.49365,0.01099 0.48926,-0.68804 0.40723,-1.72075 0.41309,-2.5686 -0.0278,0.1541 0.21826,2.27534 0.25049,2.67422 -2.6792,-0.05288 -5.0874,0.70122 -7.66113,1.33037 -0.26807,0.06548 -0.69873,-0.29004 -0.86865,-0.4604 -2.28516,-2.28662 -4.66992,-4.68604 -7.35352,-6.48032 -2.20752,-1.47598 -2.70264,-0.44927 -2.98975,1.62187 -0.0586,0.4248 -0.5625,1.48608 -0.69141,2.01079 -0.73828,2.98037 -0.81738,6.11909 -0.71631,9.17549 0.16113,3.32549 1.15869,5.72417 -0.21094,8.95796 -0.43359,1.02466 0.17432,8.76943 1.50879,9.14971 l 0.11572,-0.12773 c -1.66406,-3.06372 -1.66553,-8.58633 -0.38379,-11.82217 0.35889,-0.90366 -0.54785,-5.10176 -0.60205,-6.48149 -0.0835,-2.12915 0.49805,-11.92075 2.54297,-12.83452 1.55566,0.57744 9.54492,7.45415 9.8042,8.8415 -0.16846,-2.9e-4 -1.48535,-1.52827 -1.68457,-1.74683 -2.55469,-2.80532 -5.15771,-4.88496 -8.28662,-6.99814 -2.27783,4.83296 -2.44482,11.35049 -1.79004,16.5813 0.11279,0.90557 0.6709,2.41948 0.47168,3.14238 l -0.37646,-0.14458 -0.1875,0.09141 c -0.74707,3.60132 -1.15869,8.31064 0.93164,11.58735 l -0.83203,0.32344 c -0.0557,-0.11426 -0.11133,-0.2291 -0.16406,-0.34438 -1.73437,-3.75103 -1.72559,-8.87988 -0.32373,-12.72788 -1.2085,-5.67803 -1.33008,-13.36348 1.50732,-18.76245 0.21826,-0.41367 0.37793,-0.45366 0.72803,-0.52544 2.65137,0.71543 7.66992,5.86641 9.6958,7.93213 1.83545,-0.70049 3.94043,-1.16938 5.89014,-1.39072 z"
         fill="#2d2b31"
         id="path225"
         style="stroke-width:0.0676034" />
      <path
         d="m 161.07861,131.17031 c 1.24658,-0.88521 2.51074,-1.24541 3.88623,-0.54624 l 0.0439,0.25532 0.43359,0.48618 c 0.0425,0.62915 -0.019,1.12148 -0.0747,1.74214 -1.68896,0.85386 -4.16748,2.3042 -5.98682,2.45464 l -0.55811,-0.11865 c 0.14941,-0.41484 0.11719,-1.20059 0.12891,-1.68267 0.50977,-0.12275 0.59766,-0.16465 1.06201,-0.36519 -1.02393,-0.39478 -2.3833,-0.7437 -3.50977,-1.14067 0.41455,-0.0857 0.78662,0.10034 1.24219,0.23379 1.18213,-0.36548 2.20166,-0.82852 3.33252,-1.31865 z"
         fill="#5e5b5e"
         id="path226"
         style="stroke-width:0.0676034" />
      <path
         d="m 161.07861,131.17031 c 1.24658,-0.88521 2.51074,-1.24541 3.88623,-0.54624 l 0.0439,0.25532 c -0.2168,0.0678 -3.26807,1.68398 -3.44238,1.90254 -0.65625,0.41777 -0.77783,0.41836 -1.55273,0.61392 -1.02393,-0.39478 -2.3833,-0.7437 -3.50977,-1.14067 0.41455,-0.0857 0.78662,0.10034 1.24219,0.23379 1.18213,-0.36548 2.20166,-0.82852 3.33252,-1.31865 z"
         fill="url(#color-7)"
         id="path227"
         style="fill:url(#color-7);stroke-width:0.0676034" />
      <path
         d="m 161.07861,131.17031 c 1.24658,-0.88521 2.51074,-1.24541 3.88623,-0.54624 -0.62988,0.20918 -3.09814,0.97002 -3.72803,0.97017 l -0.17725,-0.16978 0.0644,-0.14883 z"
         fill="#5e5b5e"
         id="path228"
         style="stroke-width:0.0676034" />
      <path
         d="m 165.00879,130.87939 0.43359,0.48618 c -0.85986,0.45146 -2.5957,1.08574 -3.05127,2.13413 -0.022,0.0513 -0.99023,-0.22866 -1.08984,-0.25562 l 0.26514,-0.46216 c 0.17432,-0.21855 3.22559,-1.83472 3.44238,-1.90254 z"
         fill="#1e1a28"
         id="path229"
         style="stroke-width:0.0676034" />
      <path
         d="m 161.56641,132.78193 -0.26514,0.46216 c -1.60254,1.23413 -1.94824,-0.60366 -1.92041,2.31826 l -0.55811,-0.11865 c 0.14941,-0.41484 0.11719,-1.20059 0.12891,-1.68267 0.50977,-0.12275 0.59766,-0.16465 1.06201,-0.36519 0.7749,-0.19556 0.89648,-0.19614 1.55273,-0.61392 z"
         fill="#383837"
         id="path230"
         style="stroke-width:0.0676034" />
      <path
         d="m 177.09375,60.11177 c 1.37988,0.64277 2.06104,2.16123 1.68604,3.63047 -0.24756,0.95977 -0.87451,1.77744 -1.7373,2.2645 -0.85254,0.48164 -1.86914,0.58301 -2.79932,0.2792 -1.14404,-0.38394 -1.82959,-1.23428 -2.33789,-2.27285 -0.375,-1.68721 -0.0161,-2.35122 0.82617,-3.70327 l -0.0132,1.79854 c 0.78223,1.31675 1.97021,2.35884 3.5874,1.57544 0.52734,-0.25283 0.92725,-0.7125 1.10449,-1.27002 0.29297,-0.92607 0.0747,-1.47876 -0.31641,-2.302 z"
         fill="#ce99a6"
         id="path231"
         style="stroke-width:0.0676034" />
      <path
         d="m 135.63062,129.48105 c 5.72593,1.50864 12.09741,3.52046 17.79272,5.22231 l -1.41357,0.6271 -0.0967,0.0785 c -0.69287,0.0334 -16.18374,-4.77949 -17.30229,-5.27461 0.19028,-0.32607 0.61099,-0.44341 1.01982,-0.65332 z"
         fill="#fcfdfd"
         id="path232"
         style="stroke-width:0.0676034" />
      <path
         d="m 174.03223,134.31899 0.12891,0.13682 c -0.28125,0.36445 -11.42432,7.27983 -12.42773,7.78535 -1.24951,-0.21094 -2.47852,-0.54287 -3.70898,-0.85371 -0.42334,-0.0713 -0.71484,-0.0785 -1.06641,-0.32183 0.18896,-0.17622 3.22119,-0.29429 4.15283,-0.73198 4.28027,-2.00977 8.68652,-3.91772 12.92139,-6.01465 z"
         fill="#6c6a69"
         id="path233"
         style="stroke-width:0.0676034" />
      <path
         d="m 164.21924,86.24927 c 0.33691,0.50918 2.07422,4.12031 2.43457,4.83076 l 5.70117,11.06074 c 0.67676,1.29434 1.44873,2.83755 2.19873,4.08472 0.82617,1.37534 2.2251,-0.0425 3.25781,0.12114 l 0.11865,0.23379 -0.14941,0.29004 c -0.93018,0.43198 -2.02881,0.92959 -3.06006,0.91538 -0.46729,-0.20889 -0.92285,-1.08472 -1.17773,-1.55801 -2.02588,-3.77637 -3.91553,-7.61733 -5.83594,-11.45479 -1.1792,-2.35854 -2.62793,-4.92891 -3.53027,-7.40464 -0.15234,-0.41719 -0.0732,-0.70796 0.0425,-1.11914 z"
         fill="#574b54"
         id="path234"
         style="stroke-width:0.0676034" />
      <path
         d="m 144.55313,120.59077 c 2.94932,0.95347 5.9083,1.87236 8.879,2.75684 l -0.0542,2.06616 c -3.54199,-1.11431 -7.67622,-2.57607 -11.16855,-3.55122 0.0272,-0.0841 0.11851,-0.21855 0.16875,-0.30161 0.76641,-0.0212 1.06465,0.0324 1.74609,-0.33428 z"
         fill="#c8bfb6"
         id="path235"
         style="stroke-width:0.0676034" />
      <path
         d="m 142.86592,139.06318 c 1.79692,-0.1229 10.49004,2.13413 12.92607,2.61284 l -0.0967,1.70068 c -2.67334,-0.56206 -6.58887,-1.25244 -9.06299,-2.14058 -1.13569,-0.40781 -1.56475,-1.4127 -3.76641,-2.17295 z"
         fill="#c8bfb6"
         id="path236"
         style="stroke-width:0.0676034" />
      <path
         d="m 177.89502,127.50659 -0.0337,-0.13081 c 0.50977,-0.21621 0.5874,-0.36753 0.98291,-0.23657 0.51123,0.1459 1.11035,0.27495 1.54395,0.55898 l -0.39844,0.29546 c -0.67676,0.47607 -1.52344,0.77798 -2.2793,1.1272 -3.97412,1.8353 -8.07715,3.49761 -12.02197,5.38813 l -0.60498,-0.27876 c 2.70557,-1.73892 6.62988,-3.34365 9.50391,-4.93154 0.9873,-0.54565 2.43896,-1.13423 3.30762,-1.79209 z"
         fill="url(#color-8)"
         id="path237"
         style="fill:url(#color-8);stroke-width:0.0676034" />
      <path
         d="m 177.89502,127.50659 -0.0337,-0.13081 c 0.50977,-0.21621 0.5874,-0.36753 0.98291,-0.23657 0.51123,0.1459 1.11035,0.27495 1.54395,0.55898 l -0.39844,0.29546 c -0.75293,-0.25034 -1.30518,-0.49644 -2.09473,-0.48706 z"
         fill="#1e1a28"
         id="path238"
         style="stroke-width:0.0676034" />
      <path
         d="m 181.34619,117.59795 c 0.4834,0.20889 1.02979,0.46113 1.51758,0.63999 -6.30322,2.68564 -13.00781,5.84487 -19.33594,8.35767 l -0.11865,-0.25503 c 5.45947,-2.47441 12.59619,-5.93511 17.93701,-8.74263 z"
         fill="#878aa0"
         id="path239"
         style="stroke-width:0.0676034" />
      <path
         d="m 129.14297,118.66919 c 1.7502,0.6126 3.61934,1.18359 5.39253,1.7748 -1.40903,0.479 -2.06851,1.50176 -3.0271,1.40757 -1.91807,-0.54521 -3.8332,-1.10098 -5.74512,-1.66729 0.99053,-0.58667 2.30566,-1.08311 3.37969,-1.51509 z"
         fill="#a38175"
         id="path240"
         style="stroke-width:0.0676034" />
      <path
         d="m 195.83057,100.6752 c 0.20801,0.42188 0.19629,0.2127 0.0601,0.64629 -0.6123,0.35698 -3.1377,1.07065 -3.93604,1.33594 -4.38135,1.4543 -8.84033,2.68257 -13.2334,4.09907 -0.16553,-0.16245 -0.10986,-0.17798 -0.18164,-0.48164 0.0527,-0.0857 0.104,-0.17139 0.15674,-0.25708 4.8999,-1.53911 12.52441,-3.82222 17.13428,-5.34258 z"
         fill="#a38175"
         id="path241"
         style="stroke-width:0.0676034" />
      <path
         d="m 158.37012,85.43745 0.64893,-0.33721 0.10107,0.3939 c 0.8833,0.64761 3.11133,1.5501 4.19238,2.00918 l 0.83936,2.06016 c 0.19043,0.40811 0.2959,0.427 0.1875,0.73447 -1.61279,-0.0034 -4.80469,-2.80737 -6.04834,-3.75396 l -0.22412,-0.16963 c -0.1333,-0.56953 -0.15527,-0.30688 -0.001,-0.81885 z"
         fill="#5d2e9c"
         id="path242"
         style="stroke-width:0.0676034" />
      <path
         d="m 158.37012,85.43745 0.64893,-0.33721 0.10107,0.3939 -0.44385,0.45674 c 0.55371,1.02905 4.31104,3.11997 5.47559,3.6126 0.19043,0.40811 0.2959,0.427 0.1875,0.73447 -1.61279,-0.0034 -4.80469,-2.80737 -6.04834,-3.75396 l -0.22412,-0.16963 c -0.1333,-0.56953 -0.15527,-0.30688 -0.001,-0.81885 z"
         fill="#7644b8"
         id="path243"
         style="stroke-width:0.0676034" />
      <path
         d="m 154.33447,123.66606 c 1.38281,0.46201 3.77051,1.33667 5.13428,1.38618 l 0.31201,0.062 c 0.59326,0.96797 -0.041,1.25801 0.30469,2.0042 -0.31348,0.085 -0.62256,0.009 -0.9668,-0.0262 -1.61865,-0.4188 -3.36035,-0.95874 -4.99951,-1.40728 0.0981,-0.63823 0.15234,-1.36875 0.21533,-2.01885 z"
         fill="#5e5b5e"
         id="path244"
         style="stroke-width:0.0676034" />
      <path
         d="m 159.46875,125.05225 0.31201,0.062 c 0.59326,0.96797 -0.041,1.25801 0.30469,2.0042 -0.31348,0.085 -0.62256,0.009 -0.9668,-0.0262 0.34424,-0.28096 0.30029,-1.53647 0.3501,-2.03994 z"
         fill="#3d4053"
         id="path245"
         style="stroke-width:0.0676034" />
      <path
         d="m 154.30078,135.03354 c 6.64014,2.01621 4.69336,1.73774 10.78271,-0.80332 l 0.60498,0.27876 c -2.06689,0.93882 -4.75781,2.29028 -6.84082,3.01963 -1.77393,-0.39316 -4.52051,-1.29668 -6.31201,-1.83105 0.66797,-0.21753 1.12061,-0.38613 1.76514,-0.66401 z"
         fill="url(#color-9)"
         id="path246"
         style="fill:url(#color-9);stroke-width:0.0676034" />
      <path
         d="m 132.10811,132.92681 c 1.07197,0.41411 2.35034,0.81475 3.45103,1.18945 l 0.27905,0.39185 -0.3728,0.48384 -0.43652,-0.28594 c -1.94355,-0.0915 -2.28604,-0.0432 -3.877,1.15356 -0.55664,0.41865 -2.26787,-0.32783 -2.98887,-0.57949 1.14229,-0.59443 2.93979,-1.59814 3.94512,-2.35327 z"
         fill="#5e5b5e"
         id="path247"
         style="stroke-width:0.0676034" />
      <path
         d="m 133.92188,117.26968 c 1.62876,0.4957 3.42422,0.95039 4.91382,1.73555 l 0.42627,0.12495 c -0.0867,0.74487 -0.11616,0.7938 0.15894,1.46396 -0.3104,0.19453 -0.20552,0.17183 -0.54375,0.24668 l -4.86489,-1.57295 c 0.004,-0.64731 -0.0523,-1.34736 -0.0904,-1.99819 z"
         fill="#c8bfb6"
         id="path248"
         style="stroke-width:0.0676034" />
      <path
         d="m 181.13379,82.7978 0.26953,-0.03926 c 0.52148,0.40181 1.94678,3.19526 2.18994,3.89019 -0.28418,0.33179 -0.86719,0.43784 -1.31543,0.57173 l -0.479,0.06079 C 181.2085,86.86421 180,83.95371 179.63526,83.14058 Z"
         fill="#5e5b5e"
         id="path249"
         style="stroke-width:0.0676034" />
      <path
         d="m 128.94229,115.69951 c 1.3957,0.49585 2.92588,0.94292 4.34722,1.38677 l 0.0671,2.09648 c -1.55303,-0.45747 -2.75815,-0.83965 -4.28247,-1.40376 -0.0737,-0.66768 -0.0965,-1.40361 -0.13184,-2.07949 z"
         fill="#5e5b5e"
         id="path250"
         style="stroke-width:0.0676034" />
      <path
         d="m 126.27393,122.70952 -0.52676,-0.21606 c -0.35347,-0.45688 -0.29971,-1.33916 -0.24243,-1.91147 0.40137,0.0788 0.21196,0.0258 0.56865,0.51021 l 0.28784,0.0637 c 1.18052,0.19204 3.196,0.88198 4.43643,1.22168 l -0.0672,1.67139 c -0.74487,-0.17915 -3.82559,-0.98687 -4.45649,-1.33945 z"
         fill="#5e5b5e"
         id="path251"
         style="stroke-width:0.0676034" />
      <path
         d="m 126.27393,122.70952 -0.52676,-0.21606 c -0.35347,-0.45688 -0.29971,-1.33916 -0.24243,-1.91147 0.40137,0.0788 0.21196,0.0258 0.56865,0.51021 l 0.28784,0.0637 z"
         fill="#3d4053"
         id="path252"
         style="stroke-width:0.0676034" />
      <path
         d="m 155.16211,126.77842 c 1.41211,0.47344 3.26514,1.20264 4.7168,1.12295 l 0.54785,0.018 c -0.81299,0.50229 -2.3833,1.0144 -3.30029,1.28833 -1.39307,-0.36519 -2.85791,-0.84185 -4.24072,-1.26533 0.95654,-0.40664 1.38281,-0.62988 2.27637,-1.16396 z"
         fill="#6c6a69"
         id="path253"
         style="stroke-width:0.0676034" />
      <path
         d="m 128.91768,129.12319 c 1.49517,0.49409 2.88413,0.89282 4.39688,1.31602 l 0.0573,1.93506 c -1.61543,-0.42979 -2.88223,-0.82661 -4.46133,-1.36172 z"
         fill="#5e5b5e"
         id="path254"
         style="stroke-width:0.0676034" />
      <path
         d="m 139.26196,119.13018 0.19746,-0.017 0.1708,0.23408 c 0.31157,0.13403 0.44751,0.19775 0.77344,0.2833 l 0.17139,-0.21855 c 1.3749,0.30981 2.63291,0.88711 3.97808,1.17876 l -0.42891,0.63589 c -0.68145,0.36665 -0.97969,0.31304 -1.74609,0.33428 -0.0502,0.0831 -0.1415,0.21753 -0.16875,0.30161 -1.11255,-0.33486 -2.22334,-0.67544 -3.33223,-1.02173 0.33823,-0.0748 0.23335,-0.0521 0.54375,-0.24668 -0.2751,-0.67017 -0.24565,-0.71909 -0.15894,-1.46396 z"
         fill="url(#color-10)"
         id="path255"
         style="fill:url(#color-10);stroke-width:0.0676034" />
      <path
         d="m 140.57505,119.41201 c 1.3749,0.30981 2.63291,0.88711 3.97808,1.17876 l -0.42891,0.63589 c -0.68262,-0.63384 -2.3877,-0.90557 -3.34966,-1.12192 l -0.3709,-0.47417 z"
         fill="#6c6a69"
         id="path256"
         style="stroke-width:0.0676034" />
      <path
         d="m 139.26196,119.13018 0.19746,-0.017 0.1708,0.23408 c 0.31157,0.13403 0.44751,0.19775 0.77344,0.2833 l 0.3709,0.47417 c -0.54639,0.42773 -0.52925,0.50757 -1.35366,0.4894 -0.2751,-0.67017 -0.24565,-0.71909 -0.15894,-1.46396 z"
         fill="#86786b"
         id="path257"
         style="stroke-width:0.0676034" />
      <path
         d="m 153.19775,79.00518 c 3.89941,-1.09966 8.84766,-1.52461 12.58887,0.32959 l -0.18018,-0.0145 c -2.88721,-0.25356 -4.62012,-0.90352 -7.7915,-0.61318 -0.99463,0.09111 -4.02539,0.82046 -4.40039,0.83071 l -0.78076,0.37148 c -0.25928,0.07148 -0.48486,0.10693 -0.75146,0.15718 l -0.21387,-0.18149 c 0.2373,-0.39653 0.22412,-0.29751 0.69727,-0.55635 z"
         fill="#604978"
         id="path258"
         style="stroke-width:0.0676034" />
      <path
         d="m 155.53271,82.40596 c 1.67725,-0.76538 7.63184,-3.01846 9.32227,-2.04214 l -0.0381,0.17314 c -3.58301,0.49922 -5.2998,0.69111 -8.66455,2.3105 l -0.78662,0.39595 c -1.06641,0.66826 -2.14453,1.37944 -3.271,1.93213 0.98291,-1.20249 1.42822,-1.52637 2.70703,-2.36865 z"
         fill="#604978"
         id="path259"
         style="stroke-width:0.0676034" />
      <path
         d="m 185.30566,121.27749 0.15381,0.17637 c 0.0381,0.23848 0.14063,0.83086 0.0425,1.00796 -0.55664,1.00972 -3.3457,2.07979 -4.40918,2.63716 -0.25488,-0.46699 -0.11426,-0.93135 -0.0718,-1.54453 1.44434,-0.72686 2.87402,-1.48608 4.28467,-2.27695 z"
         fill="#5e5b5e"
         id="path260"
         style="stroke-width:0.0676034" />
      <path
         d="m 152.45947,128.54268 c 1.31982,0.35317 2.73633,0.71777 4.01807,1.16851 -0.0117,0.59399 -0.0337,1.20967 -0.0278,1.8019 -1.32715,-0.37617 -2.65137,-0.76304 -3.97266,-1.1603 z"
         fill="#5e5b5e"
         id="path261"
         style="stroke-width:0.0676034" />
      <path
         d="m 182.87109,125.05942 c 0.73242,0.21401 1.60693,0.44531 2.31152,0.704 -1.00635,0.48911 -3.85547,2.00742 -4.79443,1.93477 -0.43359,-0.28403 -1.03271,-0.41309 -1.54395,-0.55898 1.32129,-0.66006 2.73633,-1.45269 4.02686,-2.07979 z"
         fill="#6c6a69"
         id="path262"
         style="stroke-width:0.0676034" />
      <path
         d="m 178.69482,77.40615 c 0.53027,-0.05962 0.50098,-0.06797 1.0166,0.05742 l 0.13623,0.23027 c -0.15088,0.61392 -0.80859,0.79409 -1.07812,1.45957 -0.19922,0.49497 -0.41016,0.77549 -0.91699,0.8335 -0.4043,-0.21328 -0.4292,-0.37573 -0.62402,-0.79131 -0.0161,-0.18428 0.0102,-0.06782 -0.16553,-0.31772 -0.60059,0.12451 -0.7207,0.20405 -1.19238,-0.1415 -0.20361,-0.49351 -0.21094,-0.26323 -0.0454,-0.71309 0.70898,-0.53789 1.92334,-0.51987 2.86963,-0.61714 z"
         fill="#d67c7b"
         id="path263"
         style="stroke-width:0.0676034" />
      <path
         d="m 134.23608,135.12715 c 0.64307,0.18721 1.29272,0.35098 1.9478,0.49102 l 0.30732,0.51372 -0.25503,0.27275 c -1.50469,-0.13154 -3.04907,0.946 -3.90029,0.26396 -0.0895,-0.58667 -0.14429,-0.32915 0.0977,-0.81079 0.56938,-0.44341 1.10288,-0.52969 1.80249,-0.73066 z"
         fill="#c8bfb6"
         id="path264"
         style="stroke-width:0.0676034" />
      <path
         d="m 127.95996,135.99653 c 1.06406,0.24858 2.22144,0.63926 3.27729,0.66313 0.24126,0.006 0.10415,-0.0395 0.34321,0.14736 l 0.0795,1.22197 c -0.9356,-0.19761 -2.5418,-0.41499 -3.33647,-0.88682 -0.39785,-0.23613 -0.31919,-0.6457 -0.36357,-1.14565 z"
         fill="#5e5b5e"
         id="path265"
         style="stroke-width:0.0676034" />
      <path
         d="m 129.30937,128.09238 c 1.09526,-0.15923 4.40537,0.49995 5.16738,1.1751 l -0.30806,0.29707 c -0.96665,0.42729 -4.05938,-0.7002 -4.9563,-1.22358 z"
         fill="#6c6a69"
         id="path266"
         style="stroke-width:0.0676034" />
      <path
         d="m 134.26348,116.75112 c 0.96885,-0.41909 1.80439,-0.7667 2.79624,-1.12368 0.38291,0.46128 0.7207,0.46729 1.25625,0.66387 -0.73901,0.46245 -0.85415,0.53379 -1.40186,1.20527 -0.88477,-0.24404 -1.76836,-0.49248 -2.65063,-0.74546 z"
         fill="#c8bfb6"
         id="path267"
         style="stroke-width:0.0676034" />
      <path
         d="m 159.20068,84.81313 c 1.43994,-1.0459 3.92725,-2.69048 5.73926,-2.86274 l 0.13037,0.16025 c -0.54492,0.57129 -1.63623,0.6999 -2.47705,1.15283 -1.26562,0.6813 -2.30127,1.40522 -3.47314,2.23066 l -0.10107,-0.3939 z"
         fill="#604978"
         id="path268"
         style="stroke-width:0.0676034" />
      <path
         d="m 156.15234,82.84746 c 0.90234,0.78311 2.0083,1.35835 3.04834,1.96567 l -0.18164,0.28711 -0.64893,0.33721 c -0.52002,-0.54067 -0.78955,-0.79482 -1.48242,-1.02993 l -0.18896,0.14868 c -0.43652,-0.44575 -0.88037,-0.88345 -1.33301,-1.31279 z"
         fill="#22182c"
         id="path269"
         style="stroke-width:0.0676034" />
      <path
         d="m 152.63379,79.90928 0.78076,-0.37148 c 0.65625,1.00986 1.26123,2.01445 2.11816,2.86816 l -0.73096,0.40093 c -0.79687,-0.8918 -1.47949,-1.91602 -2.16797,-2.89761 z"
         fill="#22182c"
         id="path270"
         style="stroke-width:0.0676034" />
      <path
         d="m 156.8877,84.40752 c 0.69287,0.23511 0.9624,0.48926 1.48242,1.02993 l -0.30469,0.11807 c -0.15381,0.51196 -0.13184,0.24932 0.001,0.81885 -0.31348,0.50771 -0.95947,1.36084 -1.5542,1.55068 l -0.063,-0.23584 c 0.30615,-0.7396 0.83496,-1.18638 1.39893,-1.77085 -0.49219,-0.60952 -0.67822,-0.7793 -0.96094,-1.51084 z"
         fill="#604978"
         id="path271"
         style="stroke-width:0.0676034" />
      <path
         d="m 183.57568,121.1584 0.19775,-0.96797 c 0.50977,-0.12876 1.15869,0.007 1.58936,0.30557 l -0.0439,0.18501 c -0.5127,0.28359 -1.03125,0.55444 -1.55713,0.81226 z"
         fill="#6c6a69"
         id="path272"
         style="stroke-width:0.0676034" />
      <path
         d="m 133.59976,82.7001 c 0.38701,0.89839 0.025,2.85864 -0.29692,3.779 -0.60103,-0.71426 0.0891,-2.89292 0.29692,-3.779 z"
         fill="#1e1a28"
         id="path273"
         style="stroke-width:0.0676034" />
      <path
         d="m 183.57568,121.1584 0.18604,0.33486 c -0.63721,0.31875 -3.03076,1.47524 -3.49365,1.84834 l -0.2959,-0.22251 c 1.05615,-0.69478 2.42871,-1.22183 3.60352,-1.96069 z"
         fill="#574b54"
         id="path274"
         style="stroke-width:0.0676034" />
      <path
         d="m 159.87891,127.90137 c 1.021,-0.37485 2.4624,-1.0979 3.53027,-1.56079 l 0.11865,0.25503 c -0.37646,0.1875 -3.15967,1.38091 -3.10107,1.32378 z"
         fill="#574b54"
         id="path275"
         style="stroke-width:0.0676034" />
      <path
         d="m 182.78906,79.65117 c 0.44531,0.30396 0.50977,0.24082 0.7002,0.66138 l -0.27832,0.45952 -0.65771,-0.0032 -0.18311,-0.22852 c 0.0249,-0.37705 0.20654,-0.57056 0.41895,-0.88916 z"
         fill="#22182c"
         id="path276"
         style="stroke-width:0.0676034" />
      <path
         d="m 136.43188,83.3042 0.15454,0.13916 c 0.17051,0.66724 0.0762,1.28291 0.0327,1.97798 -0.42246,-0.58989 -0.23921,-1.34575 -0.18721,-2.11714 z"
         fill="#1e1a28"
         id="path277"
         style="stroke-width:0.0676034" />
      <path
         d="m 180.35742,17.7479 c 2.30273,-0.04482 15.66211,-0.30029 17.19287,0.33413 0.77637,0.32168 1.42529,1.21904 1.72119,1.97856 0.43359,1.11357 0.5376,16.52036 -0.0923,17.88105 -0.479,1.03784 -1.41357,1.55332 -2.44775,1.91646 -2.67627,0.16084 -15.41455,0.27568 -17.15039,-0.3123 -0.87012,-0.29502 -1.43555,-0.9917 -1.79883,-1.81597 -0.49805,-1.12749 -0.47021,-16.74653 0.0513,-17.90522 0.49219,-1.0916 1.43994,-1.68325 2.52393,-2.07671 z"
         fill="url(#color-28)"
         id="path579"
         style="fill:url(#color-28);stroke-width:0.0676034" />
      <path
         d="m 181.49854,18.52192 c 2.95898,-0.05259 5.91797,-0.07427 8.87842,-0.06489 2.04492,-0.0032 4.80908,-0.10122 6.77783,0.2436 0.64893,0.58301 1.44434,1.21963 1.47363,2.17764 0.15527,5.11099 0.14795,10.29199 0.0322,15.40327 -0.041,1.82314 -1.05029,2.61768 -2.79785,2.78027 -2.55615,-0.04116 -15.17578,0.49395 -16.53369,-0.59092 -0.65918,-0.52705 -0.89941,-1.22783 -0.97705,-2.03496 -0.23877,-2.48774 -0.0776,-5.13604 -0.0806,-7.64062 -0.003,-2.46973 -0.20215,-5.14321 0.10693,-7.58438 0.082,-0.64058 0.18164,-1.24717 0.61963,-1.74785 0.65771,-0.75044 1.55859,-0.87671 2.50049,-0.94116 z"
         fill="#c9cce5"
         id="path580"
         style="stroke-width:0.0676034" />
      <path
         d="m 193.3125,31.08955 c 0.33398,-0.0498 0.6709,-0.08804 1.00781,-0.11426 2.19873,-0.15322 1.62305,2.10176 1.62891,3.72378 0.0117,0.75996 0.12012,1.0834 -0.49365,1.56431 -1.25684,0.14575 -13.5,0.21577 -14.06982,-0.21987 -0.5127,-0.87715 -0.48047,-3.67354 -0.31494,-4.63564 0.39111,-0.43887 0.2373,-0.30073 0.93164,-0.44136 0.75879,0.02095 0.94775,-0.03442 1.50293,0.3542 0.3208,0.59956 0.19629,1.4729 0.17432,2.19829 3.19482,-0.04556 6.38965,-0.04248 9.58447,0.0092 -0.0205,-0.82632 0.0161,-1.6147 0.0483,-2.43867 z"
         fill="#353557"
         id="path581"
         style="stroke-width:0.0676034" />
      <path
         d="m 181.65088,31.61279 c 0.4834,0.0048 0.79248,-0.05566 1.16748,0.23159 0.21387,0.36899 0.2168,0.3895 0.20361,0.81929 l -0.0366,1.45869 c 3.37354,0.13945 7.43408,0.03516 10.83105,0.0045 -0.0293,-0.9731 -0.22412,-2.15742 0.77051,-2.71963 0.80859,0.33252 0.67676,1.12983 0.66504,1.87441 l -0.0571,2.33818 c -4.3623,-0.0019 -9.06738,0.07837 -13.40186,-0.07646 -0.12891,-1.28789 -0.12305,-2.63276 -0.14209,-3.93062 z"
         fill="#9fa3be"
         id="path582"
         style="stroke-width:0.0676034" />
      <path
         d="m 187.97168,21.16128 c 2.1958,-0.05698 2.84619,0.11777 2.66602,2.64185 -0.063,0.86147 -0.0498,1.96772 -0.0483,2.84663 2.72168,-0.1229 3.56396,-0.22646 1.24072,2.36602 -1.01514,1.13262 -2.08594,2.22466 -3.17578,3.28667 -0.92871,-0.1793 -4.39307,-4.16338 -4.91016,-5.0209 -0.0469,-0.98906 1.99219,-0.68833 2.70264,-0.67061 0.0249,-1.49458 -0.33252,-4.04326 0.31055,-5.16182 0.37939,-0.33223 0.69727,-0.27217 1.21436,-0.28784 z"
         fill="#353557"
         id="path583"
         style="stroke-width:0.0676034" />
      <path
         d="m 187.14111,21.86719 c 0.87744,-0.03252 1.82959,-0.01772 2.71436,-0.02065 0.0732,1.72017 0.0483,3.64907 0.0586,5.38667 l 2.54297,-0.0034 -3.2915,3.55488 c -0.40576,0.37866 -0.39844,0.51328 -0.83203,0.55005 -0.90527,-0.7582 -2.88135,-3.10254 -3.76611,-4.09043 0.83789,0.03325 1.67871,0.01729 2.5166,0.01 0.0542,-1.74668 0.0322,-3.623 0.0571,-5.38711 z"
         fill="#9fa3be"
         id="path584"
         style="stroke-width:0.0676034" />
      <path
         d="m 136.73789,36.53628 c -0.16523,-0.43755 -1.05732,-1.47993 -1.40215,-1.88672 -2.04712,-2.41582 -2.81074,-5.5311 -2.80811,-8.65181 0.0106,-13.14029 16.20967,-19.40751 25.25508,-9.95127 2.34521,2.452 5.73047,7.06436 9.57568,4.88599 1.16455,-0.93149 4.46484,-2.01255 5.56055,-0.40415 3.54492,5.19961 -4.2085,8.29805 -8.04492,7.9043 -5.55615,-0.56997 -7.49561,-2.95342 -10.90137,-6.82764 -1.58057,-1.72705 -4.19092,-3.68804 -6.66943,-3.5042 -9.09375,0.67456 -9.93662,9.49893 -4.46382,14.9688 3.78999,-1.37109 7.52534,-1.69043 11.48188,-0.78384 -1.07959,0.33633 -5.77881,-0.48472 -7.45605,-0.06401 -2.8125,0.70576 -7.43188,1.92246 -9.54302,3.95771 l -0.47476,0.45776 z"
         fill="#383837"
         id="path609"
         style="stroke-width:0.0676034" />
      <path
         d="m 190.88965,72.17915 c 0.10254,0.92007 0.11133,1.3938 0.104,2.30845 1.60547,-0.21548 4.4458,-0.41191 6.01172,0.03647 l 0.2417,0.22119 -0.12598,0.18516 c -1.04004,0.02432 -5.64404,-0.49072 -6.15527,0.19277 l -0.35889,-0.277 -0.59326,-0.2269 0.26807,-0.09038 c 0.11865,-0.0123 0.31201,-0.07734 0.43359,-0.1125 0.21094,-0.49087 0.14648,-1.61162 0.17432,-2.23726 z"
         fill="#604978"
         id="path690"
         style="stroke-width:0.0676034" />
      <path
         d="m 190.04443,77.04214 0.54932,-0.0249 c 1.98779,0.48457 3.5874,0.29048 5.5415,1.46016 l 0.0439,0.17695 c -1.24805,0.25034 -4.0708,-1.38765 -5.83594,-1.04648 l -0.35156,-0.27144 z"
         fill="#604978"
         id="path692"
         style="stroke-width:0.0676034" />
    </g>
  </g>
</svg>
