<?xml version="1.0" encoding="UTF-8" standalone="no"?>
<!-- Created with Inkscape (http://www.inkscape.org/) -->

<svg
   width="300mm"
   height="380.4068mm"
   viewBox="0 0 300 380.4068"
   version="1.1"
   id="svg1"
   inkscape:version="1.4.3 (0d15f75, 2025-12-25)"
   sodipodi:docname="sleeping_box.svg"
   xmlns:inkscape="http://www.inkscape.org/namespaces/inkscape"
   xmlns:sodipodi="http://sodipodi.sourceforge.net/DTD/sodipodi-0.dtd"
   xmlns="http://www.w3.org/2000/svg"
   xmlns:svg="http://www.w3.org/2000/svg">
  <sodipodi:namedview
     id="namedview1"
     pagecolor="#ffffff"
     bordercolor="#000000"
     borderopacity="0.25"
     inkscape:showpageshadow="2"
     inkscape:pageopacity="0.0"
     inkscape:pagecheckerboard="0"
     inkscape:deskcolor="#d1d1d1"
     inkscape:document-units="mm"
     inkscape:zoom="4.9811417"
     inkscape:cx="52.397626"
     inkscape:cy="66.551008"
     inkscape:window-width="1608"
     inkscape:window-height="882"
     inkscape:window-x="0"
     inkscape:window-y="34"
     inkscape:window-maximized="0"
     inkscape:current-layer="g715" />
  <defs
     id="defs1">
    <linearGradient
       x1="50.921631"
       y1="140.17134"
       x2="67.201759"
       y2="47.65781"
       gradientUnits="userSpaceOnUse"
       id="color-1"
       gradientTransform="matrix(10.801925,0,0,10.801925,-71.836151,-137.74526)">
      <stop
         offset="0"
         stop-color="#1d1117"
         id="stop1" />
      <stop
         offset="1"
         stop-color="#3d3f3d"
         id="stop2" />
    </linearGradient>
    <linearGradient
       x1="26.596291"
       y1="78.857674"
       x2="28.50835"
       y2="77.178368"
       gradientUnits="userSpaceOnUse"
       id="color-2"
       gradientTransform="matrix(10.801925,0,0,10.801925,-71.836151,-137.74526)">
      <stop
         offset="0"
         stop-color="#1a0c0e"
         id="stop3" />
      <stop
         offset="1"
         stop-color="#231929"
         id="stop4" />
    </linearGradient>
    <linearGradient
       x1="60.031929"
       y1="115.94678"
       x2="59.206348"
       y2="115.93799"
       gradientUnits="userSpaceOnUse"
       id="color-3"
       gradientTransform="matrix(10.801925,0,0,10.801925,-71.836151,-137.74526)">
      <stop
         offset="0"
         stop-color="#302317"
         id="stop5" />
      <stop
         offset="1"
         stop-color="#48312c"
         id="stop6" />
    </linearGradient>
  </defs>
  <g
     inkscape:label="Layer 1"
     inkscape:groupmode="layer"
     id="layer1"
     transform="translate(-88.9,-130.96875)">
    <g
       id="g715"
       style="mix-blend-mode:normal"
       transform="matrix(0.26458333,0,0,0.26458333,86.960927,127.25059)">
      <path
         d="m 396.04912,361.81158 c 8.55718,-15.61429 83.71233,-140.46348 102.51967,-116.1814 28.95477,37.3806 47.65928,122.60401 51.8635,170.12081 0.50952,5.74382 6.70421,9.23122 11.22968,11.54456 10.00809,-6.12825 25.59386,-12.19958 37.31093,-16.36902 90.84689,-32.33146 199.25598,-27.38979 280.42704,27.71266 14.42284,9.79141 26.85975,24.01322 43.77783,29.66522 17.5811,5.7786 36.6923,11.02715 54.54551,16.13646 l 97.38342,27.91671 c 16.3358,4.6836 52.1499,13.49236 65.011,22.35015 l 1.0694,2.33711 c -7.0683,13.48447 -33.5782,42.26512 -45.0358,55.42057 l -77.1109,88.08743 c 30.4232,53.81919 65.4271,105.30926 96.0021,159.06202 2.0206,3.5507 1.4147,3.85931 0.8383,7.53974 -7.9796,6.33241 -83.8152,32.70164 -98.7332,38.40279 2.1646,34.3188 0.4926,79.61094 0.1912,114.68131 l -0.6298,181.0468 c 11.869,2.7469 24.2759,7.8751 35.8616,12.0193 9.9575,3.9036 20.1396,7.2343 30.037,11.2977 7.8546,3.5792 26.2221,7.277 29.7364,15.9213 6.5033,15.9987 -19.184,26.5053 -30.3029,30.7443 -16.6143,6.3356 -33.1811,13.225 -49.6546,19.9878 l -137.86689,56.9522 -192.34761,79.535 c -28.71583,11.5999 -69.53793,29.2839 -98.47683,38.2967 -6.5492,2.0411 -13.16322,3.8767 -19.82952,5.5065 -17.8248,4.3356 -132.08832,-45.8998 -157.40695,-56.2703 l -217.29908,-88.9038 -108.62427,-44.0437 c -6.552339,-2.6503 -13.726545,-5.9068 -20.328142,-8.1773 -98.39063,-33.841 15.165039,-56.7671 48.977552,-73.5618 L 128.74253,884.54968 C 114.30392,879.27423 37.292889,852.34482 29.539267,843.98553 33.534791,826.52627 113.5049,704.70238 128.53372,680.74781 L 55.835257,598.30925 C 44.531367,585.52258 24.248052,563.96194 15.168386,550.84462 10.953367,548.12146 7.7551329,544.2844 7.3287809,539.16396 12.931739,531.88692 110.38768,506.5604 126.82951,501.92108 118.30085,485.58371 83.565311,420.18032 100.9698,411.21343 c 24.43255,-12.58576 125.03283,7.05873 148.66787,12.38948 37.45492,-36.38369 95.24738,-56.44589 146.41145,-61.7909 z"
         fill="url(#color-1)"
         id="path59"
         style="fill:url(#color-1);stroke-width:1" />
      <path
         d="m 396.04912,361.81158 c 8.55718,-15.61429 83.71233,-140.46348 102.51967,-116.1814 28.95477,37.3806 47.65928,122.60401 51.8635,170.12081 0.50952,5.74382 6.70421,9.23122 11.22968,11.54456 5.59982,16.83577 57.94271,76.30394 35.68437,95.97835 18.6855,-4.96371 31.53071,-9.64267 51.10715,-8.29286 l 0.15512,1.35608 c -14.46238,5.57444 -29.46269,6.05555 -43.05162,10.75493 l -8.26282,4.01594 c 0.12498,6.74699 -0.53956,18.56365 1.92566,24.0021 l 1.39561,0.77849 6.2232,-0.39719 c 19.43709,-1.09974 33.05929,-1.6124 52.71005,0.26746 -13.39428,4.8007 -36.68431,3.61562 -53.18944,6.71696 l -9.45114,1.31492 c -1.4494,7.81984 -3.06656,15.52096 -3.7675,23.43726 l -0.24056,1.02381 c -19.61121,0.067 -28.31551,-0.82441 -47.35229,5.33874 l -1.114,1.56649 c 11.2218,2.17724 31.92315,-1.05696 43.95822,-1.54121 -10.06351,39.20018 -57.48223,81.17268 -90.87541,101.32022 -46.26205,27.91044 -155.13001,54.61356 -204.67541,26.15567 -3.04118,4.06498 -7.17259,9.24072 -9.8721,13.37527 l -1.38135,0.9699 -6.67732,-1.64405 0.11072,-1.16456 c 2.88617,-2.68989 5.86091,-7.28654 8.28184,-10.61732 -10.12367,-3.71057 -17.55421,-7.33872 -27.24267,-12.02719 -3.77225,2.90669 -9.46378,6.33404 -10.56515,10.51762 l 0.81965,1.73425 c -8.3689,2.69152 -24.68888,25.30589 -33.12259,33.51654 l -1.83546,-1.90352 c 0.3987,-9.9005 18.78044,-27.46735 25.83604,-34.65581 -12.84359,-4.50484 -25.76162,-8.80087 -38.74607,-12.88637 -9.38309,4.63931 -17.282,15.91015 -24.67613,16.83102 l -0.55857,-1.68197 c 4.58552,-7.51123 13.32785,-12.89264 15.9054,-18.38175 l 3.33077,0.79114 c 5.8957,-1.74214 3.19154,-0.21993 7.58717,-5.94949 l -4.48582,-1.35283 -0.3434,1.55386 -1.81969,2.17723 c -7.94795,-0.71206 -32.04812,-7.58878 -38.55942,-11.79926 -9.747,-6.29915 -17.0558,-3.68843 -23.18093,-6.14252 C 120.5794,661.33243 40.615021,578.98256 20.790788,553.6165 19.823476,552.37914 16.702907,551.37748 15.168386,550.8443 10.953367,548.12113 7.7551329,544.28407 7.3287809,539.16364 12.931739,531.88659 110.38768,506.56008 126.82951,501.92076 118.30085,485.58339 83.565311,420.18 100.9698,411.21311 c 24.43255,-12.58576 125.03283,7.05873 148.66787,12.38948 37.45492,-36.38369 95.24738,-56.44589 146.41145,-61.7909 z"
         fill="#383837"
         id="path60"
         style="stroke-width:1" />
      <path
         d="m 21.133317,542.5846 c 24.90211,-8.56506 82.401513,-23.96893 110.400533,-30.26494 1.35921,-0.30537 5.90682,5.88932 7.53812,7.81822 8.87994,18.15069 40.38376,50.30651 40.94395,57.0171 -0.31801,16.37852 -10.89742,26.7205 -18.59692,40.93919 -10.06189,18.57952 -16.23616,35.90905 -22.06067,56.1389 l -4.60615,-0.0443 C 128.84536,664.21709 107.92084,641.86369 99.215032,631.85398 73.285659,602.04164 46.186654,573.22448 21.133209,542.5846 Z"
         fill="#e4b887"
         id="path61"
         style="stroke-width:1" />
      <path
         d="m 180.01592,577.15498 c 2.97949,30.58295 5.51913,50.82079 17.8263,79.70265 -16.24717,4.43203 -43.42816,11.22493 -58.48389,17.37533 5.82451,-20.22985 11.99867,-37.55938 22.06067,-56.1389 7.6995,-14.21868 18.27891,-24.56066 18.59692,-40.93919 z"
         fill="#be8e6a"
         id="path62"
         style="stroke-width:1" />
      <path
         d="m 139.07197,520.13788 1.02219,-1.98583 c 16.25668,21.93083 22.51791,33.81716 42.92501,53.0502 -0.96201,30.29659 6.32766,56.88262 16.96875,84.91642 3.76911,9.92902 14.36267,22.00363 12.77878,26.72213 l 0.65979,2.88292 c -2.62347,6.15364 -8.71219,7.00807 -13.39115,12.1917 l -4.48582,-1.35283 -0.3434,1.55386 c -4.51596,-0.2532 -30.17788,-10.37525 -35.60206,-13.39904 -9.93691,-5.53965 -17.16491,-5.19313 -25.63826,-8.334 l 0.78638,-2.19463 4.60615,0.0443 c 15.05573,-6.1504 42.23672,-12.9433 58.48389,-17.37533 -12.30728,-28.88197 -14.84681,-49.1197 -17.8263,-79.70265 -0.56019,-6.71059 -32.06401,-38.86641 -40.94395,-57.0171 z"
         fill="#2c1b1d"
         id="path63"
         style="stroke-width:1" />
      <path
         d="m 152.24633,680.17304 49.13082,-15.63643 c 3.89248,7.03497 6.84194,11.66003 11.38945,18.30419 l 0.65978,2.88292 c -2.62347,6.15364 -8.71219,7.00807 -13.39115,12.1917 l -4.48582,-1.35283 c -14.21555,-6.05394 -28.77277,-11.13787 -43.30319,-16.38965 z"
         fill="#a38175"
         id="path64"
         style="stroke-width:1" />
      <path
         d="m 213.42649,685.72372 2.50161,1.72474 c 7.25803,-2.10918 14.00664,-6.54132 20.76627,-9.81506 14.6095,-7.07763 58.97441,-21.65083 73.74366,-17.74723 l 2.24367,2.84814 c -3.10771,4.0222 -9.88786,3.2975 -14.89272,3.70257 -23.40712,1.89715 -46.84914,11.19642 -68.23414,20.40236 6.49693,6.3134 14.97341,15.00193 21.73466,20.56211 -4.53173,3.90673 -9.32141,8.27708 -14.09684,11.79138 -12.84359,-4.50483 -25.76161,-8.80087 -38.74607,-12.88637 -9.38309,4.63932 -17.282,15.91015 -24.67613,16.83102 l -0.55857,-1.68197 c 4.58553,-7.51123 13.32785,-12.89264 15.9054,-18.38174 l 3.33078,0.79113 c 5.89569,-1.74214 3.19153,-0.21993 7.58716,-5.94949 4.67885,-5.18362 10.76768,-6.03806 13.39115,-12.1917 z"
         fill="#604978"
         id="path65"
         style="stroke-width:1" />
      <path
         d="m 229.55495,686.83934 c 6.49692,6.31341 14.97341,15.00193 21.73466,20.56212 -4.53173,3.90673 -9.32141,8.27708 -14.09684,11.79138 -12.84359,-4.50484 -25.76162,-8.80087 -38.74607,-12.88637 3.60136,-3.0523 8.44008,-5.62035 12.59677,-8.08719 8.77235,4.71374 18.4862,8.02075 27.83289,11.53505 -6.18842,-6.35142 -17.55097,-11.19965 -15.79619,-19.60009 z"
         fill="url(#color-2)"
         id="path66"
         style="fill:url(#color-2);stroke-width:1" />
      <path
         d="m 251.28961,707.40146 c 24.84227,-19.14912 43.84274,-29.05286 74.78648,-34.31243 -12.37209,8.70592 -25.47213,12.70123 -39.02304,19.22041 -10.94332,5.26432 -20.68557,11.27559 -30.99277,17.67443 -3.77225,2.90669 -9.46378,6.33404 -10.56515,10.51762 l 0.81965,1.73425 c -8.3689,2.69152 -24.68888,25.30589 -33.12259,33.51654 l -1.83546,-1.90352 c 0.3987,-9.9005 18.78044,-27.46735 25.83604,-34.65581 4.77543,-3.5143 9.56511,-7.88465 14.09684,-11.79139 z"
         fill="#604978"
         id="path67"
         style="stroke-width:1" />
      <path
         d="m 597.34624,523.274 c 18.68549,-4.9637 31.53071,-9.64266 51.10714,-8.29285 l 0.15512,1.35607 c -14.46237,5.57444 -29.46268,6.05556 -43.05161,10.75494 l -8.26283,4.01594 c -10.70438,4.35134 -19.89596,8.07617 -29.85663,13.93221 -10.56828,6.21219 -20.87547,14.71395 -31.88674,19.57957 l 0.027,-1.78167 c 19.01149,-20.81217 35.30295,-29.70162 61.76875,-39.56421 z"
         fill="#604978"
         id="path68"
         style="stroke-width:1" />
      <path
         d="m 606.83853,555.4915 c 19.4371,-1.09974 33.0593,-1.6124 52.71005,0.26746 -13.39428,4.8007 -36.68431,3.61562 -53.18943,6.71696 l -9.45115,1.31492 c -19.03051,2.80223 -52.69103,18.42765 -57.84625,18.48144 l -0.83067,-2.2105 c 10.84675,-11.67905 46.95359,-21.53213 62.38425,-24.17298 z"
         fill="#604978"
         id="path69"
         style="stroke-width:1" />
      <path
         d="m 283.30295,722.01095 c 16.77885,-19.18713 24.25367,-27.58606 47.07382,-38.50562 -9.29614,12.63955 -25.84555,26.15719 -37.53561,37.58627 -3.04118,4.06498 -7.17259,9.24072 -9.8721,13.37527 l -1.38135,0.9699 -6.67732,-1.64405 0.11072,-1.16456 c 2.88617,-2.68989 5.86091,-7.28654 8.28184,-10.61732 z"
         fill="#604978"
         id="path70"
         style="stroke-width:1" />
      <path
         d="m 117.50345,428.66912 c 33.66376,-0.9874 71.67876,17.6618 100.70634,32.7792 -12.59677,2.84815 -22.81226,6.33555 -35.09729,10.4069 l 26.21898,9.03181 c -10.29608,6.94791 -16.66176,11.85468 -26.23313,19.82953 l 23.01944,-2.81649 c -7.15206,18.85011 -9.69958,33.13522 -13.043,52.84766 -31.57824,-25.86608 -67.5521,-82.02075 -75.57123,-122.07861 z"
         fill="#574b54"
         id="path71"
         style="stroke-width:1" />
      <path
         d="m 488.35492,269.86333 c 9.06508,4.50008 17.01941,30.26019 20.29952,39.84581 10.92582,31.92952 18.17445,64.76413 18.858,98.55439 -5.99377,-3.77538 -44.39969,-24.55115 -45.67983,-26.37085 3.08082,-3.81815 3.98742,-4.34183 5.3435,-9.08722 l -1.69148,-2.23741 c -5.92258,-0.97627 -15.55574,1.9921 -21.80584,3.45889 3.64403,-7.94006 8.8135,-17.03518 13.02085,-24.87392 -12.72812,5.16149 -19.41657,9.99708 -30.3614,17.90074 10.36574,-38.13534 19.76623,-64.18342 42.01679,-97.19043 z"
         fill="#574b54"
         id="path72"
         style="stroke-width:1" />
      <path
         d="m 408.15063,479.37109 c -1.3497,6.72647 -2.826,13.85001 -6.32291,19.84692 -10.83725,18.59692 -36.38844,28.15565 -55.26708,15.19971 -9.01917,-6.13463 -15.17908,-15.65382 -17.07946,-26.39461 -1.43352,-7.94795 0.13286,-16.79786 4.84034,-23.39762 l 2.10767,-0.0486 c 1.35446,2.25793 2.03174,2.56017 1.8023,4.91466 -1.5855,16.35639 14.37369,25.08596 29.29807,22.29474 16.39753,-3.06807 26.05121,-19.7093 18.27415,-35.24128 -1.75002,-3.49528 -2.02536,-4.2216 -2.59019,-7.97009 l 0.69143,-0.77849 c 4.68998,1.23898 5.41155,2.37664 9.1758,5.45421 l 6.03493,5.69629 c 5.56818,8.92423 6.07295,10.47333 9.03505,20.4245 z"
         fill="#ce99a6"
         id="path73"
         style="stroke-width:1" />
      <path
         d="m 360.1243,592.53022 c 3.63139,1.82283 2.28806,0.92411 4.88301,4.50646 2.18836,17.7077 -20.26787,33.43109 -34.93905,38.66225 -19.26469,6.86883 -36.28085,4.79594 -54.41577,-4.05548 -4.53649,-4.07448 -8.15686,-6.46689 -5.80863,-12.7709 18.88328,-9.14577 37.42964,33.62413 90.28044,-26.34233 z"
         fill="#22182c"
         id="path74"
         style="stroke-width:1" />
      <path
         d="m 527.36056,510.44931 c 4.565,3.10923 4.34184,8.93211 3.23583,13.99238 -8.60147,39.34742 -40.83949,52.78123 -76.37037,46.9362 -5.83552,-3.01276 -5.04126,-1.55861 -8.08718,-6.40522 3.97316,-9.34193 33.41532,-5.30072 45.36495,-10.80084 20.55585,-9.46227 20.50043,-33.81089 35.85677,-43.72252 z"
         fill="#22182c"
         id="path75"
         style="stroke-width:1" />
      <path
         d="m 478.40537,631.61656 c 4.5555,1.76427 8.11257,7.07299 6.58086,11.41957 -8.25494,23.42452 -29.57189,21.16184 -46.43931,16.68865 -9.12838,23.08437 -26.86925,35.42481 -47.38869,16.0225 l 1.07911,-3.40984 2.65987,-1.02219 c 1.20884,0.43197 2.42406,0.84655 3.64402,1.24525 27.93259,9.05244 28.4674,-6.14252 34.30454,-28.56073 l 3.13937,0.19617 c 2.07278,3.1978 3.90511,5.72955 6.14413,8.78812 23.00205,8.12834 29.54499,-1.77854 36.2761,-21.3675 z"
         fill="#1e1a28"
         id="path76"
         style="stroke-width:1" />
      <path
         d="m 438.1466,608.96254 c 3.97003,0.55857 5.78648,1.27063 7.88314,4.30392 -2.42406,7.08876 -5.13308,5.40831 -9.17105,9.47966 -0.30375,0.30537 -2.35612,13.84526 -4.25801,15.88639 -2.32911,2.49849 0.94938,1.04909 -4.38461,2.29433 -5.53016,-1.74213 -7.41315,-4.18207 -11.64902,-8.11257 -4.93367,-4.44153 -4.38612,2.89719 -12.71073,-0.52692 -3.31176,-13.34999 23.95305,-19.94823 34.29028,-23.32492 z"
         fill="#d67c7b"
         id="path77"
         style="stroke-width:1" />
      <path
         d="m 393.08075,453.25031 c 4.15669,-4.19947 3.92413,-4.35134 9.72811,-6.51756 l 3.13936,1.10288 c -0.15976,5.56029 -2.58231,7.25965 -6.83243,11.11097 z"
         fill="#2d2b31"
         id="path78"
         style="stroke-width:1" />
      <path
         d="m 137.66686,685.58135 c 17.74886,7.1916 33.22856,12.14266 51.45054,17.49242 -2.57755,5.489 -11.31988,10.87052 -15.9054,18.38175 l 0.55857,1.68197 c 7.39413,-0.92087 15.29304,-12.19171 24.67613,-16.83102 12.98445,4.0855 25.90248,8.38153 38.74607,12.88637 -7.05549,7.18846 -25.43723,24.75531 -25.83604,34.65581 l 1.83546,1.90352 c 8.43371,-8.21065 24.75369,-30.82502 33.12259,-33.51654 l -0.81965,-1.73425 c 1.10126,-4.18358 6.7929,-7.61093 10.56515,-10.51762 9.68846,4.68836 17.119,8.31662 27.24267,12.02719 -2.42093,3.33078 -5.39567,7.92743 -8.28184,10.61732 l -0.11072,1.16456 6.67732,1.64405 1.38135,-0.9699 c 26.711,6.94952 81.30879,27.32185 108.95967,36.83467 58.24657,19.40868 116.29212,39.41547 174.12562,60.01873 -33.60986,46.87129 -73.44304,115.05476 -105.159,165.28372 -17.8612,-7.43843 -36.47864,-14.47815 -54.71327,-20.90713 C 284.2411,932.7039 163.29227,883.70281 41.142587,841.58805 48.530671,826.44526 65.879319,800.34349 75.130412,785.56462 Z"
         fill="#e4b887"
         id="path79"
         style="stroke-width:1" />
      <path
         d="m 256.06028,709.98376 c 9.68846,4.68836 17.119,8.31662 27.24267,12.02719 -2.42093,3.33078 -5.39567,7.92743 -8.28184,10.61732 -6.80553,-3.23744 -21.10804,-7.77231 -28.70633,-10.39264 l -0.81965,-1.73425 c 1.10126,-4.18358 6.7929,-7.61093 10.56515,-10.51762 z"
         fill="#22182c"
         id="path80"
         style="stroke-width:1" />
      <path
         d="m 274.91039,733.79283 6.67732,1.64405 c -11.19965,13.65536 -18.81846,37.64957 -22.39919,40.46131 l -2.21677,-2.15196 c -1.50158,-12.03669 11.2138,-30.22065 17.93864,-39.9534 z"
         fill="#5b3b4e"
         id="path81"
         style="stroke-width:1" />
      <path
         d="m 1016.7099,1181.2853 c 11.8689,2.7469 24.2758,7.8751 35.8615,12.0193 9.9576,3.9036 20.1397,7.2343 30.0371,11.2977 7.8546,3.5792 26.2221,7.277 29.7364,15.9213 6.5033,15.9987 -19.184,26.5053 -30.3029,30.7443 -16.6143,6.3355 -33.1811,13.225 -49.6546,19.9878 l -137.86692,56.9522 -192.34761,79.535 c -28.71584,11.5999 -69.53793,29.2839 -98.47683,38.2967 -6.54921,2.0411 -13.16323,3.8767 -19.82953,5.5065 -17.82479,4.3355 -132.08831,-45.8998 -157.40694,-56.2703 L 209.16048,1306.372 100.53622,1262.3283 c -6.552344,-2.6503 -13.726551,-5.9068 -20.328147,-8.1774 -98.39063,-33.8409 15.165038,-56.767 48.977547,-73.5617 -0.008,11.4575 -0.90509,30.6526 1.62191,41.2002 4.9273,7.5983 250.4691,100.6131 281.36541,113.1892 38.28245,15.5842 120.53274,48.558 160.7725,62.4476 20.47829,-5.9654 47.50741,-17.3263 67.80055,-25.1921 l 113.16864,-43.982 c 83.74073,-32.5244 180.06409,-66.8147 261.64027,-102.3725 1.3956,-12.7755 1.0315,-31.3267 1.155,-44.5943 z"
         fill="#bebfd3"
         id="path82"
         style="stroke-width:1" />
      <path
         d="m 588.39198,593.61571 c -12.03507,0.48414 -32.73653,3.71845 -43.95822,1.54122 l 1.114,-1.5665 c 19.03678,-6.16315 27.74108,-5.27231 47.35229,-5.33874 14.74236,0.40345 39.38534,5.35451 51.54549,12.96706 l 0.37656,1.75002 c -14.94652,0.44785 -37.30618,-8.66628 -56.43001,-9.35306 z"
         fill="#604978"
         id="path83"
         style="stroke-width:1" />
      <path
         d="m 597.29406,531.10799 8.26283,-4.01594 c 1.61391,11.25345 1.44778,17.05732 1.28164,28.39934 l -6.2232,0.39719 -1.39561,-0.77849 c -2.46521,-5.43845 -1.80068,-17.25511 -1.92566,-24.0021 z"
         fill="#22182c"
         id="path84"
         style="stroke-width:1" />
      <path
         d="m 596.908,563.79073 9.45115,-1.31492 c -1.71049,8.22966 -2.68839,16.61909 -7.02547,23.60653 -3.50803,1.46052 -2.20737,1.1867 -6.19317,1.14554 0.70093,-7.9163 2.31809,-15.61742 3.76749,-23.43726 z"
         fill="#22182c"
         id="path85"
         style="stroke-width:1" />
      <path
         d="m 568.07194,848.12613 0.49051,-0.38606 c 4.20422,-0.31963 4.32445,0.0637 8.62999,0.87819 10.25966,4.56176 82.63634,138.12487 102.74272,159.34684 109.17959,-39.03402 218.1156,-78.74698 326.80144,-119.13397 l 0.2294,173.61297 c -0.04,23.5116 1.1172,68.9667 -0.9826,91.2536 0.1551,21.9577 0.1424,43.9155 -0.035,65.8732 l -311.59382,121.3303 c -32.88679,12.9528 -86.87686,30.526 -117.02158,45.2826 -4.89889,1.8672 -2.2912,1.3561 -8.51764,-0.4958 l -292.20741,-114.4202 -85.75033,-33.3252 c -15.7519,-6.1141 -36.17802,-13.3468 -50.97579,-20.8675 -0.91773,-98.2791 -1.2864,-196.5629 -1.10601,-294.84669 l 0.0508,-34.05609 c 27.77747,11.68541 60.27344,22.46098 88.87856,32.75705 l 110.70018,40.34109 c 40.41065,14.4196 86.40697,33.55607 126.44895,46.25894 8.4685,-9.94481 22.4894,-34.41852 30.41995,-46.57069 24.23153,-37.13215 46.84277,-76.87989 72.79752,-112.83312 z"
         fill="#e4b887"
         id="path86"
         style="stroke-width:1" />
      <path
         d="m 568.07194,848.12613 c 0.73107,18.92292 1.75952,46.83801 0.70418,65.49347 l 0.35765,303.2108 c 0.0162,51.3018 2.10767,119.7605 -0.31801,168.8582 l -292.20741,-114.4203 -85.75033,-33.3251 c -15.7519,-6.1141 -36.17802,-13.3469 -50.97579,-20.8676 -0.91773,-98.279 -1.2864,-196.5628 -1.10601,-294.84665 l 0.0508,-34.05609 c 27.77747,11.68541 60.27344,22.46098 88.87856,32.75705 L 338.40573,961.271 c 40.41065,14.4196 86.40697,33.55607 126.44895,46.2589 8.4685,-9.94477 22.4894,-34.41848 30.41995,-46.57064 24.23153,-37.13216 46.84277,-76.8799 72.79752,-112.83313 z"
         fill="#e4b887"
         id="path87"
         style="stroke-width:1" />
      <path
         d="m 568.07194,848.12613 c 0.73107,18.92292 1.75952,46.83801 0.70418,65.49347 -1.23736,-12.68697 -1.24212,-24.07014 -2.05064,-36.51666 -20.06685,58.82404 -41.72557,117.09438 -64.95392,174.74436 C 380.74042,1012.4667 259.358,964.52573 138.77622,922.22895 l 0.0508,-34.05609 c 27.77747,11.68541 60.27344,22.46098 88.87856,32.75705 L 338.40573,961.271 c 40.41065,14.4196 86.40697,33.55607 126.44895,46.2589 8.4685,-9.94477 22.4894,-34.41848 30.41995,-46.57064 24.23153,-37.13216 46.84277,-76.8799 72.79752,-112.83313 z"
         fill="#be8e6a"
         id="path88"
         style="stroke-width:1" />
      <path
         d="m 185.11723,953.69647 c 13.19963,-0.49257 109.98023,36.23182 130.08035,43.61807 61.37157,22.55116 126.30021,42.08326 186.08638,68.34796 6.40209,2.8118 3.56658,47.721 4.18996,54.9285 -3.37668,30.4437 5.97638,179.0624 -4.76279,194.5453 -9.64579,0.4796 -51.88564,-17.6949 -63.88744,-22.3137 l -112.62908,-43.1038 -83.13,-31.6922 c -17.05418,-6.5271 -41.28409,-14.8611 -56.29077,-24.1951 -9.31029,-12.5858 -3.2517,-197.93471 -4.51434,-227.67911 -0.16927,-3.98742 2.61244,-9.08248 4.85773,-12.45592 z"
         fill="#1e1a28"
         id="path89"
         style="stroke-width:1" />
      <path
         d="m 209.20639,1125.3267 c 65.85426,22.4515 134.29407,51.3145 200.61832,73.9558 26.70949,9.1172 60.60107,24.2679 86.67281,31.0354 l -0.34491,74.9605 c -24.72517,-10.9006 -64.85583,-24.7094 -91.22668,-34.7603 L 209.4786,1195.6225 c -0.39557,-22.1318 -1.76903,-48.6735 -0.27221,-70.2958 z"
         fill="#5d647b"
         id="path90"
         style="stroke-width:1" />
      <path
         d="m 221.70195,1144.1563 c 20.30103,6.9369 41.58006,15.2155 61.88898,22.5908 9.71536,2.8545 28.57023,10.1299 38.1053,14.5066 0.26746,13.8184 0.39244,27.6399 0.37504,41.4597 -9.88948,-3.4858 -20.3169,-6.8798 -29.81234,-11.2534 -23.54484,-7.2391 -48.39035,-17.2503 -71.519,-26.1778 -0.22468,-13.7155 0.0951,-27.4357 0.96202,-41.126 z"
         fill="#2d2b31"
         id="path91"
         style="stroke-width:1" />
      <path
         d="m 283.59093,1166.7469 c 9.71536,2.8546 28.57023,10.13 38.1053,14.5067 0.26746,13.8184 0.39244,27.6399 0.37504,41.4597 -9.88948,-3.4859 -20.3169,-6.8798 -29.81234,-11.2534 l 1.31492,-2.5823 0.51579,-17.8896 c -2.04437,-3.3608 -2.25954,-5.1631 -2.9621,-9.0366 l -0.74371,1.0478 c 0.97628,4.1963 -0.0961,13.9702 -0.88608,18.3485 l -6.85933,-3.0333 c -4.31181,-6.4021 -2.89719,-13.9355 -2.81175,-22.1745 l -3.99379,-0.4958 -2.15823,-6.0856 c 3.15039,-1.22 6.34354,-1.3798 9.91639,-2.8118 z"
         fill="#3d4053"
         id="path92"
         style="stroke-width:1" />
      <path
         d="m 294.08964,1190.9881 c 0.99843,-2.9083 0.005,-7.016 2.57918,-13.0652 1.75791,3.9574 2.93521,7.1014 5.47636,10.649 l 2.61558,-2.1788 c -0.0789,6.5602 -0.8149,15.0145 1.40349,20.9133 -10.66798,-1.0283 0.20416,3.3641 -12.59051,1.5713 z"
         fill="#475459"
         id="path93"
         style="stroke-width:1" />
      <path
         d="m 279.82667,1176.1397 c 6.18681,0.122 3.70895,-0.9603 7.98749,2.5443 2.92883,9.0382 0.86707,13.6333 1.68359,22.6636 l -6.85933,-3.0333 c -4.31181,-6.4021 -2.89719,-13.9355 -2.81175,-22.1745 z"
         fill="#9fc09e"
         id="path94"
         style="stroke-width:1" />
      <path
         d="m 304.76076,1186.3929 c 5.30072,-0.065 3.0887,-0.9214 6.94477,2.4289 1.7659,6.0649 3.15827,13.6569 -0.99529,19.1428 -2.24691,-0.1404 -2.46683,0.054 -4.54599,-0.6578 -2.21839,-5.8989 -1.48267,-14.3532 -1.40349,-20.9134 z"
         fill="#9fc09e"
         id="path95"
         style="stroke-width:1" />
      <path
         d="m 275.83288,1175.6444 c 0.11547,6.989 1.0332,19.7662 -2.01748,25.499 l -2.07278,0.097 c -4.92103,-6.8055 -2.51274,-25.4736 -0.72945,-33.5513 l 1.64405,-0.8177 1.01743,2.6915 z"
         fill="#4c505e"
         id="path96"
         style="stroke-width:1" />
      <path
         d="m 231.66888,1156.6201 c 3.10297,1.3086 2.73419,1.2976 5.52065,3.3103 2.56805,7.1694 1.48581,15.1569 1.1772,22.9815 -3.56972,-1.7184 -3.73747,-1.8481 -6.83557,-4.3323 -3.15351,-8.0081 -1.83071,-13.5652 0.13762,-21.9594 z"
         fill="#9fc09e"
         id="path97"
         style="stroke-width:1" />
      <path
         d="m 256.55868,1165.5081 c 3.68367,1.5728 3.44625,1.4272 6.14413,4.3956 2.3545,7.44 0.87507,14.5336 0.0951,22.4689 -3.76911,-1.7548 -3.54757,-1.5634 -6.19955,-4.7581 -2.3276,-8.114 -0.9779,-13.6806 -0.04,-22.1064 z"
         fill="#9fc09e"
         id="path98"
         style="stroke-width:1" />
      <path
         d="m 246.5063,1157.6328 c 4.75166,8.918 3.41308,26.8772 2.25479,36.6543 -6.34191,-7.8625 -5.40679,-27.3171 -2.25479,-36.6543 z"
         fill="#475459"
         id="path99"
         style="stroke-width:1" />
      <path
         d="m 459.60279,1243.5256 c 18.91341,0.8318 26.48632,10.3182 16.0953,27.2412 -20.40873,-0.2647 -24.18886,-9.6616 -16.0953,-27.2412 z"
         fill="#22182c"
         id="path100"
         style="stroke-width:1" />
      <path
         d="m 462.367,1246.5178 c 6.77864,1.6503 9.95754,2.4842 13.2693,8.8166 0.54906,6.3372 0.0551,6.4384 -2.36875,12.1348 -7.32457,-1.4542 -9.96229,-1.5222 -13.61108,-8.6363 -0.36867,-6.1774 0.0216,-6.5112 2.71053,-12.3151 z"
         fill="#b57480"
         id="path101"
         style="stroke-width:1" />
      <path
         d="m 375.63413,1215.5962 c 7.05398,1.432 7.57766,2.0285 10.5335,8.0397 -0.56483,6.2454 -0.67091,5.9574 -3.9858,10.8801 -4.78493,-2.709 -6.14576,-3.1045 -9.51283,-7.5888 -0.625,-6.5872 -0.45886,-4.4986 2.96524,-11.3309 z"
         fill="#74b5ce"
         id="path102"
         style="stroke-width:1" />
      <path
         d="m 402.34038,1226.5442 c 5.4432,0.9668 5.15522,0.6914 9.17742,4.4242 2.06015,5.1836 0.79114,8.0365 -0.39556,13.5461 -4.48907,-1.4572 -4.58402,-1.9367 -8.39105,-4.8972 -2.47947,-5.084 -1.40662,-7.4527 -0.39081,-13.0731 z"
         fill="#9dd694"
         id="path103"
         style="stroke-width:1" />
      <path
         d="m 431.57676,1236.8798 c 4.40838,2.0728 4.33708,2.41 7.86089,5.9195 1.6757,6.5033 1.39399,4.0618 -0.81015,11.168 -5.34501,-1.4715 -6.03493,-1.1361 -9.63629,-5.3925 -0.71357,-6.8831 -0.58708,-4.6125 2.58555,-11.695 z"
         fill="#9dd694"
         id="path104"
         style="stroke-width:1" />
      <path
         d="m 208.75703,1048.1273 c 15.68072,3.0571 58.69593,19.6508 74.89407,25.5338 l 128.48544,45.8824 c 22.3818,8.1964 62.14531,24.3471 83.97341,30.1257 0.3085,23.6303 0.41619,47.2637 0.31963,70.8955 l -184.35063,-67.5916 c -31.98493,-11.7566 -72.36393,-25.2189 -103.16518,-38.5183 -0.75322,-21.415 -0.25158,-44.7462 -0.15663,-66.3274 z"
         fill="#5d647b"
         id="path105"
         style="stroke-width:1" />
      <path
         d="m 221.40608,1066.4189 c 9.1838,3.008 18.4498,6.6363 27.52277,10.0302 24.60343,8.2976 49.05327,17.0447 73.33859,26.2364 -0.003,13.6253 0.19616,27.749 -0.12498,41.3285 -12.40374,-3.6488 -17.10798,-5.3704 -28.78065,-10.8801 l -20.63016,-7.3609 -1.27215,0.043 c -7.41152,-3.0112 -16.85165,-6.1853 -24.49898,-8.9797 l -24.97048,-9.3847 c -0.69619,-14.4512 -0.81652,-26.556 -0.58385,-41.031 z"
         fill="#383837"
         id="path106"
         style="stroke-width:1" />
      <path
         d="m 221.40608,1066.4189 c 9.1838,3.008 18.4498,6.6363 27.52277,10.0302 1.01106,13.0097 4.03495,29.4627 -1.96844,40.3854 l -24.97048,-9.3847 c -0.69619,-14.4513 -0.81652,-26.556 -0.58385,-41.031 z"
         fill="#2d2b31"
         id="path107"
         style="stroke-width:1" />
      <path
         d="m 248.92885,1076.4491 c 1.01106,13.0097 4.03495,29.4627 -1.96844,40.3854 -2.15034,-11.149 -5.93998,-32.1985 1.96844,-40.3854 z"
         fill="#475459"
         id="path108"
         style="stroke-width:1" />
      <path
         d="m 230.64994,1077.9159 c 4.23111,1.6393 4.12191,1.4937 7.6173,4.3371 2.90194,7.1204 1.43828,14.5952 0.83866,22.5258 -4.00168,-1.527 -3.93201,-1.731 -7.30556,-4.4875 -2.77858,-7.084 -1.56174,-14.5525 -1.15029,-22.3755 z"
         fill="#9fc09e"
         id="path109"
         style="stroke-width:1" />
      <path
         d="m 276.90724,1094.6426 2.92732,6.2137 1.19469,-3.0935 c 4.51272,-1.3481 3.25959,-0.7734 8.87832,2.2089 2.59019,11.4718 0.64239,24.9357 3.45424,33.1621 l -20.63016,-7.3609 c 4.90515,-9.8689 3.71683,-20.0432 4.1757,-31.1304 z"
         fill="#2d2b31"
         id="path110"
         style="stroke-width:1" />
      <path
         d="m 279.83456,1100.8563 1.19469,-3.0935 c 4.51272,-1.3481 3.25959,-0.7734 8.87832,2.2089 -0.9241,8.122 -0.22306,13.5842 -4.4653,19.953 l -2.09179,-0.4483 c -3.72796,-6.6536 -3.19467,-11.0002 -3.51592,-18.6207 z"
         fill="#9fc09e"
         id="path111"
         style="stroke-width:1" />
      <path
         d="m 271.4594,1125.8141 c -1.67571,-7.4653 -2.85603,-28.4737 -0.0173,-35.5545 h 2.43357 l 3.03167,4.3815 c -0.45887,11.0873 0.72945,21.2615 -4.1757,31.1304 z"
         fill="#4c505e"
         id="path112"
         style="stroke-width:1" />
      <path
         d="m 304.75914,1105.4008 c 3.90835,1.6819 3.76749,1.731 7.01282,4.5523 2.64874,6.3688 1.35132,13.9212 0.90985,21.0986 -3.94314,-1.1472 -3.68681,-1.1836 -6.87046,-3.8625 -2.72954,-7.046 -1.51108,-14.0493 -1.05221,-21.7884 z"
         fill="#9fc09e"
         id="path113"
         style="stroke-width:1" />
      <path
         d="m 256.50651,1087.4525 c 3.61086,1.75 2.8719,1.413 6.05394,3.9541 2.66623,7.5541 1.28953,14.5036 0.62662,22.6541 -3.81816,-2.2881 -2.88293,-1.6551 -6.0951,-4.7343 -2.54277,-7.4464 -1.22634,-13.8896 -0.58546,-21.8739 z"
         fill="#9fc09e"
         id="path114"
         style="stroke-width:1" />
      <path
         d="m 459.01884,1162.1994 c 18.68873,1.0381 24.89141,10.6285 16.84527,27.6462 -19.24568,-0.5002 -23.16505,-10.899 -16.84527,-27.6462 z"
         fill="#22182c"
         id="path115"
         style="stroke-width:1" />
      <path
         d="m 462.12806,1166.6663 c 7.15044,0.6978 8.05554,1.3575 12.30253,5.6536 1.97632,6.2312 1.1598,7.6252 -0.22781,14.3279 -6.59188,-1.3592 -9.68533,-2.0206 -13.36738,-7.4575 -1.28803,-5.7407 -0.45412,-6.9828 1.29277,-12.5239 z"
         fill="#b57480"
         id="path116"
         style="stroke-width:1" />
      <path
         d="m 377.58356,1137.4615 c 3.77224,-1.1883 7.81346,0.7929 9.18692,4.5017 1.37185,3.7106 -0.4082,7.8435 -4.04596,9.3974 -2.5175,1.0748 -5.42257,0.6762 -7.55714,-1.0392 -2.13457,-1.7136 -3.15038,-4.4637 -2.64561,-7.1537 0.50478,-2.6898 2.45096,-4.883 5.06179,-5.7057 z"
         fill="#74b5ce"
         id="path117"
         style="stroke-width:1" />
      <path
         d="m 400.89886,1145.9506 c 5.57444,0.848 5.5967,0.5952 10.62845,3.6821 2.91306,4.8814 1.9747,7.1394 1.24211,12.8436 -5.25956,-0.7669 -5.6251,-0.4623 -10.1173,-3.5523 -2.99062,-4.6014 -2.13295,-7.4179 -1.75315,-12.9735 z"
         fill="#9dd694"
         id="path118"
         style="stroke-width:1" />
      <path
         d="m 431.7335,1157.9082 c 3.23582,-1.3925 7.00019,-0.087 8.67578,3.0142 1.6757,3.0982 0.71044,6.9638 -2.22628,8.91 -2.14882,1.4225 -4.91628,1.5111 -7.15044,0.2279 -2.23265,-1.2849 -3.5507,-3.7199 -3.40196,-6.2929 0.14712,-2.5728 1.73576,-4.8403 4.1029,-5.8592 z"
         fill="#9dd694"
         id="path119"
         style="stroke-width:1" />
      <path
         d="m 208.82821,970.66511 c 12.07148,2.19625 67.37172,23.26313 83.30877,28.80754 l 124.40458,44.28425 c 22.50841,7.9701 59.30505,19.8802 79.6885,29.3187 0.54593,21.8201 0.14086,45.2905 0.163,67.2372 -25.92937,-11.0557 -57.50448,-20.6223 -84.3262,-30.6177 -66.72295,-24.8661 -136.9239,-47.3697 -203.01872,-73.394 -0.39557,-22.211 -0.72945,-43.43771 -0.21993,-65.63599 z"
         fill="#5d647b"
         id="path120"
         style="stroke-width:1" />
      <path
         d="m 221.70983,989.05798 c 11.70756,2.87979 36.54832,11.96542 48.26689,16.21402 -0.0486,1.3544 -0.30537,3.2406 0.0843,4.3466 5.14096,5.2042 3.49691,2.2184 5.22165,9.2376 0.003,8.0714 0.27221,21.7204 -0.99054,29.3534 l -5.88143,-2.6044 c -6.44475,-1.7485 -14.53194,-4.9985 -20.94353,-7.3625 l -2.16773,-0.647 c -6.56973,-3.1899 -17.25359,-6.41 -24.45945,-8.8278 -0.27372,-14.2282 0.0724,-25.4815 0.87032,-39.70971 z"
         fill="#2d2b31"
         id="path121"
         style="stroke-width:1" />
      <path
         d="m 270.06055,1009.6186 c 5.14096,5.2042 3.4969,2.2184 5.22165,9.2376 0.003,8.0714 0.27221,21.7204 -0.99054,29.3534 l -5.88143,-2.6044 c 2.25166,-7.6995 1.62342,-26.9706 1.65032,-35.9865 z"
         fill="#4c505e"
         id="path122"
         style="stroke-width:1" />
      <path
         d="m 245.29897,1037.5955 c -0.53642,-9.7914 -1.80068,-20.0669 0.27059,-29.4832 l 1.70573,-1.622 c 3.62664,6.7344 1.92879,24.249 0.19141,31.7523 z"
         fill="#475459"
         id="path123"
         style="stroke-width:1" />
      <path
         d="m 230.31443,1000.0139 5.76434,2.3039 c 4.3751,6.0744 2.73267,16.5225 2.34499,24.3107 -2.30545,-0.8782 -4.13303,-1.8703 -6.34354,-2.9653 -3.77387,-6.9795 -2.18199,-15.3563 -1.7659,-23.6493 z"
         fill="#9fc09e"
         id="path124"
         style="stroke-width:1" />
      <path
         d="m 256.94323,1009.8528 c 2.8893,1.2911 2.83388,1.4763 5.4352,3.364 2.94472,7.5588 1.38611,14.0399 0.26271,22.0781 -3.2422,-2.0856 -2.61871,-1.7801 -5.34825,-4.641 -2.32911,-7.0999 -1.02694,-13.2265 -0.34966,-20.801 z"
         fill="#9dd694"
         id="path125"
         style="stroke-width:1" />
      <path
         d="m 269.97672,1005.2719 c 17.77576,5.7786 34.63368,12.4591 52.01062,18.1649 l 0.0907,40.9456 c -14.13637,-4.3861 -26.25689,-8.7976 -40.03096,-13.9861 l -7.75492,-2.1868 c 1.26264,-7.633 0.99367,-21.282 0.99054,-29.3534 -1.72475,-7.0191 -0.081,-4.0334 -5.22165,-9.2376 -0.38931,-1.106 -0.13287,-2.9922 -0.0843,-4.3466 z"
         fill="#3d4053"
         id="path126"
         style="stroke-width:1" />
      <path
         d="m 280.89941,1019.739 c 6.53182,0.5509 3.68044,-0.606 8.77235,3.8118 l 2.83238,1.6219 c 5.92259,-2.0554 7.30394,0.8112 12.52245,1.2216 l -0.63137,23.4293 c -6.59349,3.2263 -14.30412,0.5951 -22.34864,0.5725 l -7.75492,-2.1868 c 1.26264,-7.6331 0.99367,-21.282 0.99054,-29.3535 1.46204,0.2528 4.24537,0.8264 5.61721,0.8826 z"
         fill="#383837"
         id="path127"
         style="stroke-width:1" />
      <path
         d="m 280.89941,1019.739 c 6.53182,0.5509 3.68044,-0.606 8.77235,3.8118 -0.318,8.0762 0.71682,12.2709 -3.94788,17.9798 l -2.42255,-0.9084 c -3.73898,-7.1221 -2.65511,-12.6839 -2.40192,-20.8834 z"
         fill="#9fc09e"
         id="path128"
         style="stroke-width:1" />
      <path
         d="m 305.02659,1026.3942 c 5.65676,2.5601 5.96688,1.2864 7.853,7.4289 1.78643,5.815 2.18674,12.2376 -2.58868,16.695 l -5.89569,-0.6945 z"
         fill="#9fc09e"
         id="path129"
         style="stroke-width:1" />
      <path
         d="m 461.05684,1081.6629 c 18.11277,1.2911 23.62391,11.3879 15.38323,27.8123 -20.49417,0.7648 -25.65241,-12.1252 -15.38323,-27.8123 z"
         fill="#0d0a11"
         id="path130"
         style="stroke-width:1" />
      <path
         d="m 462.96672,1088.383 c 4.00482,-2.3719 9.1663,-1.1915 11.74234,2.6851 2.57443,3.8767 1.66307,9.092 -2.07602,11.8642 -2.59656,1.9257 -6.04281,2.2627 -8.96225,0.875 -2.92095,-1.3878 -4.8371,-4.2723 -4.98433,-7.5002 -0.14712,-3.2295 1.49844,-6.277 4.28016,-7.9242 z"
         fill="#9fc09e"
         id="path131"
         style="stroke-width:1" />
      <path
         d="m 375.53918,1058.3617 c 3.51743,-2.0348 8.01287,-0.9884 10.2708,2.3909 2.25641,3.3815 1.50157,7.9337 -1.72788,10.4037 -2.28007,1.7452 -5.34349,2.0775 -7.94481,0.8609 -2.60294,-1.2152 -4.31343,-3.777 -4.43841,-6.6457 -0.1266,-2.8703 1.35446,-5.5713 3.8403,-7.0097 z"
         fill="#74b5ce"
         id="path132"
         style="stroke-width:1" />
      <path
         d="m 430.73659,1075.4302 c 4.89251,1.8877 4.6552,1.7785 8.69479,5.1409 2.28807,6.7613 1.55699,4.7312 0.0778,12.6332 -5.16624,-1.8988 -8.85305,-2.4383 -11.63001,-6.9828 -0.42084,-5.4668 0.37343,-5.9194 2.85765,-10.7913 z"
         fill="#9dd694"
         id="path133"
         style="stroke-width:1" />
      <path
         d="m 401.95907,1066.7971 c 5.36564,0.8317 5.31023,0.4428 9.48755,3.7342 2.42881,4.9589 1.26264,7.2075 0.0432,12.6727 -4.10614,-1.1345 -5.02862,-2.095 -8.56345,-4.4432 -2.64722,-6.285 -1.82444,-4.3513 -0.96677,-11.9639 z"
         fill="#9dd694"
         id="path134"
         style="stroke-width:1" />
      <path
         d="m 190.05879,961.64118 7.73753,2.39403 c 1.02531,1.10601 2.05063,2.21051 3.07606,3.3149 0.85919,62.62009 -0.15036,166.80739 0.23257,225.58409 -3.12824,-1.4937 -6.35618,-3.3292 -9.42738,-4.9844 -3.57598,-5.6915 -5.02387,-207.99504 -1.61867,-226.30873 z"
         fill="#a38175"
         id="path135"
         style="stroke-width:1" />
      <path
         d="m 577.19233,848.61815 c 10.25967,4.56177 82.63634,138.12487 102.74272,159.34685 109.1796,-39.03403 218.11561,-78.74699 326.80145,-119.13398 l 0.2294,173.61298 c -0.04,23.5116 1.1172,68.9667 -0.9826,91.2536 -1.7991,-18.8185 -0.2642,-42.8934 -0.709,-62.3606 -1.1962,-52.3841 2.2881,-109.94547 -0.2594,-161.70765 -32.71116,16.82 -99.46576,39.3189 -135.53145,52.50114 l -218.48427,80.19161 c -16.4576,-32.363 -31.68896,-78.13147 -45.44564,-112.46604 -6.70108,-16.72505 -14.57623,-44.08319 -23.23948,-59.56138 -2.72954,0.7516 -1.44465,0.66929 -3.83393,0.47475 0.11872,-6.48278 1.21997,-4.34184 -1.38448,-9.02706 -0.53956,-12.44803 -1.00004,-20.79155 0.0961,-33.12411 z"
         fill="#be8e6a"
         id="path136"
         style="stroke-width:1" />
      <path
         d="m 568.07194,848.12613 0.49051,-0.38606 c 4.20422,-0.31963 4.32445,0.0637 8.62999,0.87819 -1.09651,12.33256 -0.63613,20.67608 -0.0961,33.12411 -2.5728,96.88819 -0.30537,202.78763 -0.30224,300.52553 l 0.01,129.9918 c 0.003,21.7694 -0.83229,52.7938 0.53005,73.924 -4.89889,1.8671 -2.2912,1.3561 -8.51765,-0.4958 2.42569,-49.0975 0.33389,-117.5564 0.31801,-168.8582 L 568.7759,913.61949 c 1.05546,-18.65546 0.027,-46.57066 -0.70418,-65.49347 z"
         fill="url(#color-3)"
         id="path137"
         style="fill:url(#color-3);stroke-width:1" />
      <path
         d="m 722.38068,1191.5988 c 3.51743,-0.3435 3.26747,-0.3878 6.40208,1.2469 4.74691,10.5667 2.4542,85.4196 2.14408,101.0607 -15.16331,8.9512 -91.5083,35.7033 -110.70818,42.52 -0.99215,0.01 -1.9842,0.011 -2.97636,0.022 -9.32454,-3.5824 -6.2501,-34.3409 -5.82926,-44.2414 0.63137,-14.8738 -3.47476,-47.2464 2.12506,-58.919 13.38165,-11.8357 88.76936,-35.5942 108.84258,-41.6908 z"
         fill="#73523b"
         id="path138"
         style="stroke-width:1" />
      <path
         d="m 720.90751,1199.319 2.39241,1.8687 c 1.72161,8.9195 0.77374,74.2358 0.73583,88.3516 l -102.42159,37.7936 -1.36871,-1.2279 c -2.10292,-9.4416 -2.16935,-76.0871 -2.31809,-88.9892 22.23155,-10.149 77.49539,-28.3884 102.98015,-37.7967 z"
         fill="#e4b887"
         id="path139"
         style="stroke-width:1" />
      <path
         d="m 703.80277,1223.1043 c 3.7406,-0.646 1.87975,-0.687 5.56342,0.8857 l 0.44461,2.8767 c -6.95428,7.3957 -61.18167,24.7837 -74.35602,29.3598 -0.93836,-0.043 -3.27536,-0.7118 -4.29917,-0.9667 l -0.81803,-3.2628 c 7.01445,-7.7264 60.48711,-24.6366 73.46519,-28.893 z"
         fill="#73523b"
         id="path140"
         style="stroke-width:1" />
      <path
         d="m 704.51321,1268.9455 c 2.78009,-0.215 2.00009,-0.065 4.872,0.8922 l -0.30224,3.2232 c -7.62519,6.3831 -59.01556,23.4815 -71.64399,27.9516 -2.59656,0.6503 -1.1409,0.5952 -4.35296,-0.3705 l -0.61074,-3.489 c 6.37357,-8.4559 59.58202,-24.1651 72.03793,-28.208 z"
         fill="#73523b"
         id="path141"
         style="stroke-width:1" />
      <path
         d="m 704.53687,1246.7346 4.6552,0.6286 0.73582,2.4842 c -5.32761,6.7138 -62.58365,25.7443 -73.90191,29.8662 -3.614,0.2419 -1.78642,0.4731 -5.37352,-1.8972 l -0.0648,-2.5063 c 6.48428,-7.0302 61.32101,-24.2363 73.94944,-28.575 z"
         fill="#73523b"
         id="path142"
         style="stroke-width:1" />
      <path
         d="m 973.00014,1116.833 c 5.29445,0.5995 3.08233,-0.4051 7.00494,2.7912 4.54437,11.2012 1.40662,66.628 0.27372,81.315 -16.05577,8.0129 -59.43327,22.6429 -78.39573,29.4833 -4.02696,0.4029 -2.62822,0.5746 -6.33241,-0.7832 -4.38612,-9.2376 -2.02223,-68.0283 -1.80706,-82.2882 16.73932,-8.948 59.56776,-23.3897 79.25654,-30.518 z"
         fill="#73523b"
         id="path143"
         style="stroke-width:1" />
      <path
         d="m 970.31489,1125.4407 2.6456,1.4335 c 2.80224,9.0509 0.10154,57.8099 -0.39556,69.2041 -23.69673,8.6742 -47.47252,17.1253 -71.32749,25.3534 l 0.17251,-63.658 0.70569,-3.5776 c 5.34976,-5.2043 26.20622,-11.5208 34.20483,-14.3484 -0.91146,10.478 -4.45893,43.4883 0.30699,51.0122 11.98128,-11.7945 -6.277,-60.7181 19.56369,-57.824 0.77212,4.7263 0.73421,7.6235 0.80853,12.3357 l 1.77853,1.4082 c 7.37361,-11.1047 -1.59652,-11.7392 11.53668,-21.3391 z"
         fill="#e4b887"
         id="path144"
         style="stroke-width:1" />
      <path
         d="m 926.12724,1144.6753 c 2.67887,1.7485 1.76903,1.155 3.66941,4.076 0.47626,8.7707 1.7754,29.1604 -3.69307,35.7523 -6.81191,-9.8943 -5.04763,-29.2665 0.0238,-39.8284 z"
         fill="#73523b"
         id="path145"
         style="stroke-width:1" />
      <path
         d="m 949.9996,1136.7353 c 8.29285,7.016 4.4384,25.7664 1.73738,34.7872 -2.28169,-1.6234 -1.94467,-1.633 -3.73747,-3.9099 -1.59501,-10.4575 -1.70886,-20.8469 2.00009,-30.8773 z"
         fill="#73523b"
         id="path146"
         style="stroke-width:1" />
      <path
         d="m 912.06993,1150.9903 2.30222,1.7643 c 2.72478,6.2422 0.77061,16.9623 -0.31175,23.5986 l -2.4637,-2.106 c -2.08229,-7.372 -0.80539,-15.7995 0.47313,-23.2569 z"
         fill="#73523b"
         id="path147"
         style="stroke-width:1" />
      <path
         d="m 976.85934,696.89648 32.61306,-10.45594 59.6596,96.36127 c 10.8151,17.38332 26.7521,41.40918 35.8805,59.15793 C 965.43987,893.02098 823.02686,947.34019 683.19475,996.69256 649.51834,946.09181 612.35303,883.85619 580.96782,831.04018 c 11.17275,-3.87195 23.42613,-7.853 34.31091,-12.20434 20.4435,-5.68678 45.14502,-14.74711 65.21662,-21.84862 l 22.50527,-7.01282 c 10.19961,-4.40362 63.49825,4.41625 79.82612,4.59503 56.8003,1.83395 111.99932,-16.46711 152.99706,-56.53134 15.22661,-14.8817 21.18398,-34.2286 41.03576,-41.14172 z"
         fill="#e4b887"
         id="path148"
         style="stroke-width:1" />
      <path
         d="m 703.00051,789.9745 c 10.19961,-4.40362 63.49825,4.41626 79.82612,4.59503 56.8003,1.83396 111.99933,-16.4671 152.99706,-56.53133 15.22661,-14.8817 21.18398,-34.2286 41.03576,-41.14172 -13.41016,40.08788 -44.51517,74.79749 -82.1252,93.6919 -49.91721,25.07807 -106.25865,27.34874 -160.57785,18.98146 -12.46391,-1.9209 -43.97885,-4.95743 -53.66094,-12.58251 z"
         fill="#be8e6a"
         id="path149"
         style="stroke-width:1" />
      <path
         d="m 926.10196,479.69396 129.48864,37.51509 c 22.6445,6.59986 49.5295,15.27727 72.1266,20.81693 -13.831,17.26936 -113.2003,135.17388 -120.9441,136.15016 -6.1584,-3.31814 -22.06065,-8.54605 -29.39775,-11.15061 5.27706,-27.1003 3.26747,-47.71146 1.12502,-74.96839 -13.33573,-46.61657 -22.9151,-69.65502 -52.3983,-108.36318 z"
         fill="#e4b887"
         id="path150"
         style="stroke-width:1" />
      <path
         d="m 978.50026,588.05704 c 22.62074,23.36283 24.40554,55.22905 28.27274,86.11899 -6.1584,-3.31813 -22.06066,-8.54605 -29.39776,-11.15061 5.27706,-27.1003 3.26747,-47.71145 1.12502,-74.96838 z"
         fill="#be8e6a"
         id="path151"
         style="stroke-width:1" />
      <path
         d="m 615.27862,818.83584 c -8.22016,-2.03011 -37.53561,6.87986 -50.81128,2.65036 l -0.75473,-2.09654 c 1.17881,-1.09499 1.80856,-1.739 3.31964,-2.80224 37.88063,-26.61454 76.1741,-40.51834 122.9204,-35.52288 8.44484,0.90196 9.33405,3.48113 13.04775,8.90996 l -22.50527,7.01283 c -20.07159,7.1014 -44.77311,16.16173 -65.21662,21.84862 z"
         fill="#2d2b31"
         id="path152"
         style="stroke-width:1" />
      <path
         d="m 549.41172,731.33712 c -0.74846,4.93842 -13.53351,12.10312 -19.39604,19.00512 -10.20437,12.01131 -12.10939,16.54628 -18.81058,30.39154 -18.23301,9.2929 -52.48688,15.21073 -65.27204,-4.95419 l -12.07148,-0.58385 -0.96363,-1.13139 1.50157,-0.14399 c 27.24742,-3.06181 54.05024,-20.75525 81.84835,-20.06685 10.53825,0.26109 22.43246,-15.57 33.16374,-22.51628 z"
         fill="#2d2b31"
         id="path153"
         style="stroke-width:1" />
      <path
         d="m 444.67518,726.52216 c 0.99367,0.18677 0.4082,-0.0443 1.38297,1.28327 -20.00204,16.90382 -21.53051,17.96079 -27.04327,42.48516 -21.60169,-7.17583 -52.16098,-23.00529 -70.69147,-25.49903 l -0.7152,-0.21679 c 2.43519,-2.80699 19.98302,-2.07127 25.2696,-2.72954 13.57153,-1.69147 26.89452,-4.06649 40.35534,-6.40997 -2.76745,5.87193 -6.37044,11.52879 -5.77071,17.7804 l 1.7754,1.21997 c 7.53661,-4.52385 9.35782,-11.95125 12.67595,-20.09698 7.6442,-2.43681 15.23298,-5.04288 22.7616,-7.8166 z"
         fill="#2d2b31"
         id="path154"
         style="stroke-width:1" />
      <path
         d="m 559.10018,658.22472 c -0.57282,4.96532 -5.45421,14.64428 -7.71063,19.75834 -10.58567,5.49537 -13.75344,7.13305 -25.16189,10.44482 0.21042,-3.00478 28.48003,-26.36923 32.87252,-30.20316 z"
         fill="#604978"
         id="path155"
         style="stroke-width:1" />
      <path
         d="m 975.45585,671.71244 c 5.54279,2.57129 12.85159,4.53486 14.98929,8.86881 l -4.28016,2.52376 c -4.54437,1.16618 -9.32778,3.09972 -13.55728,1.82283 -1.36871,-4.28491 1.13928,-8.65051 2.84815,-13.21551 z"
         fill="#a38175"
         id="path156"
         style="stroke-width:1" />
      <path
         d="m 909.21704,14.523752 c 37.55624,-2.681686 55.12622,5.747164 78.9369,34.163896 38.89956,-13.609453 79.53026,-0.259462 94.42456,40.799951 3.6362,10.027103 3.372,18.877011 3.6393,29.374111 14.0716,9.95429 23.9452,18.10478 30.6384,35.1258 6.6504,17.3358 6.1504,36.60362 -1.3893,53.57075 -7.8134,17.13963 -19.8723,26.93892 -36.996,33.55294 -12.8088,53.63091 -46.7732,75.97155 -100.57339,56.56773 -15.36746,17.66018 -24.84226,22.63187 -46.86339,27.93097 -6.20106,0.4984 -12.42751,0.56019 -18.63646,0.18677 -24.40241,-1.58551 -39.07834,-11.74234 -54.43154,-29.28229 -48.25901,17.73298 -103.17157,-8.84192 -98.18885,-64.26886 -15.39437,-8.90997 -27.33924,-17.85796 -36.02615,-34.07511 -8.21541,-15.17595 -9.93216,-33.03239 -4.75641,-49.49474 6.94952,-22.16977 22.44672,-32.55614 41.35689,-42.8332 0.80064,-7.164701 2.02223,-15.62855 4.48907,-22.372299 6.11562,-17.060453 19.12859,-30.761722 35.85202,-37.746031 19.54003,-8.131473 38.7208,-6.460631 57.89681,1.197825 16.18549,-19.74095 26.09388,-26.34395 50.62765,-32.397997 z"
         fill="#878aa0"
         id="path574"
         style="stroke-width:1" />
      <path
         d="m 909.09206,23.937089 c 36.13373,-3.522399 55.79075,6.478023 75.0871,36.901104 13.0889,-5.818132 23.67624,-9.114124 38.19704,-8.090317 16.4513,1.12664 31.6699,9.122009 41.9313,22.032146 12.3895,15.622176 13.725,30.130458 11.4022,48.792188 29.1162,18.4862 46.6497,43.85063 31.0703,80.6758 -7.315,17.28837 -21.9198,24.66198 -38.8948,30.66526 -0.5012,36.11472 -26.0401,63.81464 -63.552,60.23077 -11.30403,-1.07911 -18.11907,-4.71849 -28.16043,-9.42424 -15.63481,17.40384 -22.81853,25.04329 -46.02949,30.4516 -34.26813,3.42885 -48.58814,-6.75488 -70.01105,-31.35356 -12.24874,5.55229 -20.82007,8.83251 -34.90426,8.62836 -15.38486,-0.0961 -30.06716,-6.44637 -40.67498,-17.58899 -14.62213,-15.51297 -16.36589,-31.18419 -15.48931,-51.0486 -17.11425,-7.68687 -30.49589,-16.46559 -38.68126,-34.26187 -6.3672,-13.76608 -6.69633,-29.56714 -0.90509,-43.58642 7.77069,-18.51461 22.14135,-27.37402 39.89799,-34.10513 1.02845,-12.7534 1.85922,-22.210921 7.93531,-33.63212 7.20423,-13.706023 19.7188,-23.856484 34.6179,-28.07658 19.15548,-5.498504 33.15262,-1.185187 49.68777,7.666342 14.15539,-20.41499 23.2869,-28.315518 47.47576,-34.875743 z"
         fill="#fcfdfd"
         id="path575"
         style="stroke-width:1" />
      <path
         d="m 692.54619,235.96073 c 19.22667,-3.48427 37.67334,9.16003 41.36014,28.34868 3.68681,19.18876 -8.76284,37.76828 -27.91044,41.65752 -12.56837,2.55227 -25.53856,-1.84335 -33.9659,-11.51129 -8.42583,-9.66794 -11.00976,-23.11601 -6.766,-35.21752 4.24537,-12.10312 14.66329,-20.99095 27.2822,-23.27739 z"
         fill="#878aa0"
         id="path643"
         style="stroke-width:1" />
      <path
         d="m 692.98443,245.58125 c 13.47497,-3.16302 27.07016,4.77542 30.93898,18.06525 3.87033,13.28982 -3.33866,27.28382 -16.40543,31.85034 -9.08884,3.17727 -19.19026,1.07598 -26.26001,-5.46059 -7.06976,-6.53657 -9.95279,-16.44183 -7.49697,-25.75212 2.45419,-9.30877 9.84833,-16.5035 19.22353,-18.70299 z"
         fill="#fcfdfd"
         id="path644"
         style="stroke-width:1" />
      <path
         d="m 624.01144,295.02371 c 13.44332,-2.5997 26.43565,6.23584 28.95628,19.69504 2.52063,13.45758 -6.39258,26.39775 -19.86592,28.8392 -13.36101,2.42093 -26.16994,-6.40209 -28.66993,-19.74884 -2.50011,-13.34686 6.24859,-26.20784 19.57957,-28.7854 z"
         fill="#878aa0"
         id="path662"
         style="stroke-width:1" />
      <path
         d="m 625.27256,304.40054 c 8.03976,-1.91464 16.14121,2.9257 18.26303,10.91318 2.12193,7.98749 -2.50637,16.21078 -10.43531,18.54 -5.3166,1.56012 -11.06041,0.11547 -15.00344,-3.77701 -3.94313,-3.89096 -5.46372,-9.61576 -3.97316,-14.95126 1.49207,-5.33562 5.75958,-9.44164 11.14899,-10.72491 z"
         fill="#fcfdfd"
         id="path663"
         style="stroke-width:1" />
    </g>
  </g>
</svg>
