<?xml version="1.0" encoding="UTF-8" standalone="no"?>
<!-- Created with Inkscape (http://www.inkscape.org/) -->

<svg
   width="300mm"
   height="396.82535mm"
   viewBox="0 0 300 396.82534"
   version="1.1"
   id="svg1"
   inkscape:version="1.4.3 (0d15f75, 2025-12-25)"
   sodipodi:docname="box_task.svg"
   xmlns:inkscape="http://www.inkscape.org/namespaces/inkscape"
   xmlns:sodipodi="http://sodipodi.sourceforge.net/DTD/sodipodi-0.dtd"
   xmlns="http://www.w3.org/2000/svg"
   xmlns:svg="http://www.w3.org/2000/svg">
  <sodipodi:namedview
     id="namedview1"
     pagecolor="#ffffff"
     bordercolor="#000000"
     borderopacity="0.25"
     inkscape:showpageshadow="2"
     inkscape:pageopacity="0.0"
     inkscape:pagecheckerboard="0"
     inkscape:deskcolor="#d1d1d1"
     inkscape:document-units="mm"
     inkscape:zoom="3.5345561"
     inkscape:cx="30.555464"
     inkscape:cy="31.970068"
     inkscape:window-width="1508"
     inkscape:window-height="921"
     inkscape:window-x="0"
     inkscape:window-y="34"
     inkscape:window-maximized="0"
     inkscape:current-layer="g716" />
  <defs
     id="defs1">
    <linearGradient
       x1="50.067921"
       y1="282.79248"
       x2="56.954151"
       y2="222.92871"
       gradientUnits="userSpaceOnUse"
       id="color-14"
       gradientTransform="matrix(13.486231,0,0,13.486231,-197.03548,-2176.1927)">
      <stop
         offset="0"
         stop-color="#211317"
         id="stop27" />
      <stop
         offset="1"
         stop-color="#3e423f"
         id="stop28" />
    </linearGradient>
    <linearGradient
       x1="76.685303"
       y1="239.05664"
       x2="76.928909"
       y2="243.25781"
       gradientUnits="userSpaceOnUse"
       id="color-15"
       gradientTransform="matrix(13.486231,0,0,13.486231,-197.03548,-2176.1927)">
      <stop
         offset="0"
         stop-color="#415c48"
         id="stop29" />
      <stop
         offset="1"
         stop-color="#506663"
         id="stop30" />
    </linearGradient>
    <linearGradient
       x1="42.92593"
       y1="252.09229"
       x2="37.308842"
       y2="278.68506"
       gradientUnits="userSpaceOnUse"
       id="color-16"
       gradientTransform="matrix(13.486231,0,0,13.486231,-197.03548,-2176.1927)">
      <stop
         offset="0"
         stop-color="#bc8a64"
         id="stop31" />
      <stop
         offset="1"
         stop-color="#daab78"
         id="stop32" />
    </linearGradient>
    <linearGradient
       x1="60.151321"
       y1="226.55566"
       x2="59.84692"
       y2="233.46973"
       gradientUnits="userSpaceOnUse"
       id="color-20"
       gradientTransform="matrix(13.486231,0,0,13.486231,-197.03548,-2176.1927)">
      <stop
         offset="0"
         stop-color="#252322"
         id="stop39" />
      <stop
         offset="1"
         stop-color="#25113c"
         id="stop40" />
    </linearGradient>
    <linearGradient
       x1="51.497169"
       y1="213.12158"
       x2="54.393162"
       y2="223.02393"
       gradientUnits="userSpaceOnUse"
       id="color-21"
       gradientTransform="matrix(13.486231,0,0,13.486231,-197.03548,-2176.1927)">
      <stop
         offset="0"
         stop-color="#21192f"
         id="stop41" />
      <stop
         offset="1"
         stop-color="#2a2a35"
         id="stop42" />
    </linearGradient>
    <linearGradient
       x1="57.052731"
       y1="182.93994"
       x2="57.2001"
       y2="174.19043"
       gradientUnits="userSpaceOnUse"
       id="color-29"
       gradientTransform="matrix(13.486231,0,0,13.486231,-197.03548,-2176.1927)">
      <stop
         offset="0"
         stop-color="#2b2a3c"
         id="stop57" />
      <stop
         offset="1"
         stop-color="#444452"
         id="stop58" />
    </linearGradient>
  </defs>
  <g
     inkscape:label="Layer 1"
     inkscape:groupmode="layer"
     id="layer1"
     transform="translate(-149.18275,-42.333144)">
    <g
       id="g716"
       style="mix-blend-mode:normal"
       transform="matrix(0.26458333,0,0,0.26458333,145.00757,-3.7803617)">
      <path
         d="m 159.96704,1088.0613 c 2.20864,-33.7617 12.44388,-65.5676 18.9789,-99.28966 9.39761,-48.49905 -4.81431,-115.46925 -66.66797,-113.65185 -17.894339,1.323 -34.253542,5.57103 -52.220978,2.82497 -26.82762,-3.79301 -37.534878,-20.38741 -32.256367,-46.74085 8.554046,-43.20463 59.887901,-57.92229 98.122175,-54.42558 96.81644,8.85034 150.20492,100.94916 140.27986,192.08008 -3.85814,35.42109 -10.41298,62.36719 -18.5027,96.58329 17.67303,-4.0893 32.25637,-7.6651 49.56986,-12.9397 19.46481,-31.5491 40.51007,-64.32295 57.37514,-97.15612 l 14.71766,-32.89238 4.00244,2.50898 9.49633,9.83807 5.23509,4.74122 c 1.62185,1.36305 8.63496,7.38843 9.94084,8.17872 l 0.20741,-1.54093 c 3.06205,-4.10912 1.02725,-2.50898 7.31143,-3.5164 4.66623,1.95577 7.69268,3.29913 12.57416,4.6425 l 3.29913,0.88874 c 90.30111,46.78036 167.17856,63.9081 265.69588,34.25556 4.85383,-1.4619 7.01904,0.27647 10.59667,2.70642 4.56145,-3.55591 9.57334,-9.85789 13.50862,-14.44105 6.16955,13.74961 -0.31801,14.71765 9.27704,30.08727 3.8839,12.2285 5.7744,25.3262 8.00678,37.9892 l 40.83806,11.1222 c -0.68348,-33.4259 21.05309,-43.422 50.95853,-42.3157 30.56129,1.1058 65.69602,-7.64523 85.6725,19.044 3.54405,20.9405 2.75982,34.058 2.93568,55.2159 18.6489,5.4525 41.07502,10.4703 58.8883,16.3178 18.01478,24.042 97.90879,125.9987 105.48299,145.0231 -32.685,12.2877 -70.7217,23.4296 -104.43403,33.8604 0.19758,62.9995 -0.23897,127.1644 0.76656,190.065 0.53136,0.1213 1.07067,0.1982 1.59421,0.356 20.04566,5.8673 46.13046,27.44 55.30476,45.516 5.6382,11.1223 6.4185,22.8371 2.2955,34.6112 -10.172,29.0402 -45.92901,47.452 -72.3515,59.2065 -199.34605,88.6811 -602.86609,87.4761 -805.60406,9.5022 -31.63397,-12.1691 -82.564996,-32.853 -96.395665,-66.8516 -4.292802,-10.5493 -4.648434,-23.2322 0.486044,-33.5641 10.468282,-21.0394 39.935157,-42.1182 62.130121,-49.0128 l -0.031,-188.8204 C 99.14926,1271.489 20.750697,1251.635 15.780212,1239.3473 22.402221,1220.7774 101.70558,1121.942 119.07436,1098.868 c 14.00046,-6.2032 26.02748,-8.2972 40.89335,-10.8061 z"
         fill="url(#color-14)"
         id="path331"
         style="fill:url(#color-14);stroke-width:1" />
      <path
         d="m 969.6229,1467.1245 c 0.53135,0.1213 1.07067,0.1982 1.5942,0.356 20.04567,5.8673 46.1305,27.44 55.3047,45.516 5.6382,11.1223 6.4185,22.8371 2.2955,34.6112 -10.172,29.0402 -45.92894,47.452 -72.35144,59.2065 -199.34605,88.6811 -602.86608,87.4761 -805.60405,9.5022 -31.63398,-12.1691 -82.565001,-32.853 -96.39567,-66.8516 -4.292802,-10.5493 -4.648434,-23.2322 0.486044,-33.5641 10.468282,-21.0394 39.935157,-42.1182 62.130126,-49.0128 l -0.12812,44.8049 287.93629,93.8175 c 37.49941,12.2087 101.1942,35.2828 137.58518,44.7259 81.62258,-23.4691 172.15093,-56.1839 253.85456,-82.3793 43.95729,-14.0854 134.39474,-41.2687 173.01432,-58.1989 z"
         fill="#bebfd3"
         id="path332"
         style="stroke-width:1" />
      <path
         d="m 769.35236,1049.9139 c -0.68348,-33.4259 21.05309,-43.422 50.95854,-42.3158 30.56128,1.1059 65.69601,-7.64517 85.67249,19.0441 3.54405,20.9405 2.75983,34.058 2.93569,55.2159 -2.24222,6.2229 -1.72462,6.0055 0.10654,12.5247 0.22913,5.8279 -0.0243,12.7026 1.76615,17.9575 -4.4785,-1.3432 -5.38532,-1.7582 -9.9941,-2.1138 l -3.40784,5.2746 c -16.41665,7.9218 -55.74722,16.95 -75.01446,22.7383 -14.07167,3.1214 -19.04606,7.4083 -33.66487,8.3366 -28.6016,-21.3356 -21.08869,-53.8329 -19.54775,-85.8166 1.89846,-7.4478 2.08807,-3.9708 0.18961,-10.8456 z"
         fill="#9dd694"
         id="path333"
         style="stroke-width:1" />
      <path
         d="m 769.35236,1049.9139 c -0.68348,-33.4259 21.05309,-43.422 50.95854,-42.3158 30.56128,1.1059 65.69601,-7.64517 85.67249,19.0441 3.54405,20.9405 2.75983,34.058 2.93569,55.2159 -2.24222,6.2229 -1.72462,6.0055 0.10654,12.5247 0.22913,5.8279 -0.0243,12.7026 1.76615,17.9575 -4.4785,-1.3432 -5.38532,-1.7582 -9.9941,-2.1138 l -3.40784,5.2746 c 0.45826,-20.6837 4.80447,-74.2796 -6.08849,-90.0444 -15.77849,-9.4627 -93.0411,-10.2529 -106.26139,2.43 -9.76497,21.474 -7.11587,71.6719 -2.02495,95.2597 2.92772,13.5719 28.31124,14.2633 39.36024,15.093 -14.07167,3.1214 -19.04607,7.4083 -33.66487,8.3366 -28.6016,-21.3356 -21.08869,-53.8329 -19.54776,-85.8166 1.89846,-7.4478 2.08808,-3.9708 0.18962,-10.8456 z"
         fill="#475459"
         id="path334"
         style="stroke-width:1" />
      <path
         d="m 871.13133,1041.1624 c 4.64048,4.1486 5.77251,4.603 7.19086,10.5493 -6.13003,20.3479 -34.31882,45.8124 -49.15893,61.4981 -7.62943,-7.349 -14.9685,-15.093 -22.42221,-22.6395 -2.61363,-2.4496 -6.68121,-7.1909 -7.79342,-10.6679 -1.08065,-3.3782 -0.16993,-3.9115 1.09643,-6.8155 1.32556,-0.4747 1.55078,-0.6716 3.24182,-0.6325 10.60652,0.1389 17.99899,10.49 24.51621,17.6414 14.09339,-16.614 28.53835,-32.9318 43.32911,-48.9337 z"
         fill="url(#color-15)"
         id="path335"
         style="fill:url(#color-15);stroke-width:1" />
      <path
         d="m 398.03718,947.72022 0.20742,-1.54093 c 3.06205,-4.10912 1.02724,-2.50898 7.31142,-3.5164 4.66624,1.95577 7.69268,3.29913 12.57416,4.6425 l 3.29914,0.88874 c 90.3011,46.78036 167.17855,63.90817 265.69588,34.25556 4.85383,-1.4619 7.01904,0.27647 10.59667,2.70642 -87.49786,58.45569 -223.18661,25.58299 -299.68469,-37.43616 z"
         fill="#7644b8"
         id="path336"
         style="stroke-width:1" />
      <path
         d="m 730.79617,1051.0795 38.36658,9.68 c -1.54094,31.9837 -9.05385,64.4811 19.54775,85.8167 -12.81516,4.8202 -29.15076,9.4232 -42.47178,13.552 -4.91708,-37.0015 -12.09607,-71.1188 -15.44268,-109.0488 z"
         fill="#be8e6a"
         id="path337"
         style="stroke-width:1" />
      <path
         d="m 354.64483,955.34574 14.71766,-32.89238 4.00244,2.50898 9.49633,9.83807 c -6.26827,7.19086 -8.69821,9.81838 -13.58171,17.81923 -6.66544,1.89656 -7.51291,2.33109 -14.63472,2.72624 z"
         fill="#22182c"
         id="path338"
         style="stroke-width:1" />
      <path
         d="m 909.02575,1094.383 c 11.77416,3.2596 21.81573,5.8278 33.76764,8.4157 l -32.00148,9.5417 c -1.78976,-5.2549 -1.53689,-12.1296 -1.76616,-17.9574 z"
         fill="#a38175"
         id="path339"
         style="stroke-width:1" />
      <path
         d="m 382.86126,934.80028 5.23508,4.74122 c -5.08498,5.25491 -10.38143,12.09013 -17.0764,14.10525 l -1.74039,-1.02765 c 4.8835,-8.00085 7.31344,-10.62837 13.58171,-17.81923 z"
         fill="#604978"
         id="path340"
         style="stroke-width:1" />
      <path
         d="m 547.50521,1244.9375 c 30.36965,41.6638 65.21793,93.9755 96.7749,133.1107 32.78773,-8.1589 66.40526,-20.6442 98.91247,-30.3243 70.99827,-21.1579 142.21582,-46.247 213.25953,-66.832 l 0.14228,32.043 -0.27849,189.7884 c -55.17244,16.219 -114.44403,37.1793 -169.25881,55.2158 l -239.64466,78.5073 c -0.72111,-120.7438 -0.56305,-241.4878 0.47606,-362.2317 -0.38516,-9.759 -0.51167,-19.5182 -0.38328,-29.2772 z"
         fill="#e4b887"
         id="path341"
         style="stroke-width:1" />
      <path
         d="m 547.50521,1244.9375 c 30.36965,41.6638 65.21793,93.9755 96.7749,133.1107 32.78773,-8.1589 66.40526,-20.6442 98.91247,-30.3243 70.99827,-21.1579 142.21582,-46.247 213.25953,-66.832 l 0.14228,32.043 c -111.98049,36.488 -224.47265,71.3756 -337.44492,104.6631 -22.04487,-34.6704 -51.51376,-92.1383 -65.53405,-131.7475 -2.39232,-6.7563 0.41295,-4.4449 -5.72706,-11.6358 -0.38517,-9.759 -0.51167,-19.5182 -0.38328,-29.2772 z"
         fill="#be8e6a"
         id="path342"
         style="stroke-width:1" />
      <path
         d="m 534.85796,1247.071 c 4.42713,7.3687 1.33945,352.1368 1.23278,389.2372 -124.25836,-43.185 -250.06952,-82.4584 -375.18924,-123.0948 l -31.60633,-10.49 c -0.26676,-73.8252 -0.0877,-147.6308 0.5354,-221.456 103.21714,31.7268 205.66179,66.0614 308.98749,97.3734 33.47714,-42.5726 64.3625,-87.6342 96.04004,-131.5698 z"
         fill="url(#color-16)"
         id="path349"
         style="fill:url(#color-16);stroke-width:1" />
      <path
         d="m 960.25698,1111.728 c 12.34111,10.7271 23.09787,28.013 33.06824,41.1303 21.00578,27.5388 41.79608,55.2356 62.36918,83.0905 -44.0541,16.219 -89.53855,28.9414 -134.38485,42.8293 -90.9827,28.1314 -183.05185,55.5516 -273.13367,86.429 -31.79999,-45.6937 -64.14119,-90.9925 -97.01981,-135.9158 136.94512,-36.9423 272.13407,-80.7198 409.10104,-117.5634 z"
         fill="#e4b887"
         id="path350"
         style="stroke-width:1" />
      <path
         d="m 126.07101,1110.8984 c 135.89415,38.0485 270.67217,80.0877 406.42619,118.6301 -30.57518,45.2988 -65.18826,88.8985 -97.39123,133.1304 -0.0931,0.054 -0.17586,0.1376 -0.27849,0.1578 -6.70886,1.8571 -370.81147,-114.9754 -404.114773,-126.4926 30.600797,-42.5527 63.679015,-83.6238 95.358443,-125.4259 z"
         fill="#e4b887"
         id="path351"
         style="stroke-width:1" />
      <path
         d="m 286.78764,1068.4049 c -0.48995,8.5935 -25.35978,57.0926 -31.4128,67.1479 l -4.4015,1.0074 c -8.57185,-17.7007 -5.68364,-38.5227 -5.1245,-57.705 13.59749,-4.0498 27.02115,-7.6847 40.9388,-10.4505 z"
         fill="#a38175"
         id="path352"
         style="stroke-width:1" />
      <path
         d="m 529.20399,1119.8474 c 1.71869,1.9953 2.73016,3.4769 3.38801,6.1044 2.0545,8.1787 13.45535,79.9099 13.10363,85.876 -0.14417,2.43 -1.15172,4.2277 -2.28565,6.3414 -2.4615,-2.1138 -4.20392,-3.4572 -5.69941,-6.4599 -8.04238,-16.1401 -14.47464,-75.0896 -8.50658,-91.8617 z"
         fill="#2d2b31"
         id="path353"
         style="stroke-width:1" />
      <path
         d="m 725.14221,1120.3808 c 5.79422,12.0704 6.16361,30.423 8.12734,43.8369 -7.59585,2.3311 -19.94883,7.7835 -27.16734,4.1486 l 1.00351,-6.4204 c 1.57061,-9.4232 3.93528,-18.6884 5.46826,-28.1512 0.45233,5.2154 0.26474,8.317 3.2398,12.8211 3.07392,-3.3583 6.05694,-6.8353 9.59316,-9.7393 0.53338,-0.4343 1.10237,-0.8294 1.65153,-1.2448 -0.68942,-5.077 -1.32948,-10.1739 -1.91626,-15.251 z"
         fill="#383837"
         id="path354"
         style="stroke-width:1" />
      <path
         d="m 393.64566,1134.1502 c 3.69819,13.2558 4.63063,28.7439 6.69901,42.4342 -22.04095,-4.8993 -43.92964,-10.4703 -65.64072,-16.6931 -1.92812,-0.2374 -3.76144,-1.2637 -5.54918,-2.015 13.51658,-2.6472 34.88376,8.6132 48.90013,9.9369 5.4425,0.5138 8.73773,-0.6325 12.49715,-4.7412 2.9988,-3.2596 4.06367,-8.7516 3.8661,-12.9595 z"
         fill="#383837"
         id="path355"
         style="stroke-width:1" />
      <path
         d="m 175.13109,1086.7575 c 0.72111,3.5954 1.46973,7.3094 3.89968,10.2134 8.08189,9.6603 29.93309,23.805 42.03119,25.8003 l -0.17978,0.2765 c -7.16725,2.6669 -36.6696,-10.0356 -47.44024,-11.9914 z"
         fill="#383837"
         id="path356"
         style="stroke-width:1" />
      <path
         d="m 306.96561,620.13913 c -12.79156,-81.2335 1.86878,-181.49122 41.28054,-254.50649 4.02618,-7.44777 8.61325,-15.8041 16.782,-19.00452 33.5207,5.90683 103.91046,91.26914 127.11298,120.03271 61.5277,-13.67058 112.54354,-20.32806 174.38533,0 l 8.30118,-7.36874 c 16.1677,-16.83149 137.98033,-121.77122 166.85462,-99.25016 18.25779,14.24348 15.82393,108.57468 14.22379,131.80687 -1.34539,37.21889 -12.91401,79.11967 -19.20992,114.89635 33.89009,71.15834 36.47203,119.06467 24.61102,195.89276 l 4.35214,2.84479 -1.59029,2.01497 c 5.58276,1.06677 10.78237,1.89657 16.26048,3.41769 -7.91399,-0.0539 -14.69595,-1.30412 -21.07493,2.05449 -3.61917,10.45048 -6.85708,20.82206 -11.69702,30.75885 l -3.09765,6.45991 c -5.64803,9.68001 -10.4347,18.43163 -17.24039,27.40051 l -4.12288,-1.18544 c -6.6951,1.65948 -9.32249,2.6077 -16.36527,2.58788 9.87165,1.323 10.21933,-0.35604 16.00762,5.09685 l -1.49158,1.10587 c -31.23303,36.01377 -58.74413,50.77094 -100.90775,69.69644 -2.87837,21.07884 -4.36981,24.97056 0.1679,45.91118 -9.59505,-15.36959 -3.1075,-16.33763 -9.27704,-30.08725 -3.93529,4.58316 -8.94718,10.88514 -13.50862,14.44106 -3.57763,-2.42995 -5.74284,-4.16833 -10.59667,-2.70642 -98.51733,29.65261 -175.39478,12.5248 -265.69588,-34.25557 l -3.29914,-0.88874 c -4.88148,-1.34323 -7.90806,-2.68673 -12.57416,-4.6425 -6.28418,1.00742 -4.24937,-0.59204 -7.31142,3.5164 l -0.20742,1.54094 c -1.30587,-0.7903 -8.31898,-6.81554 -9.94084,-8.17873 l -5.23508,-4.74122 -9.49633,-9.83807 -4.00244,-2.50898 3.34067,-9.18614 c -1.33541,-7.82309 -1.5903,-5.74878 -9.5082,-12.44577 l -1.97155,-1.1261 2.26393,-4.4251 -4.69577,-3.1806 -5.85545,-0.27646 c -15.6857,-14.59912 -22.31351,-23.0148 -34.376,-40.41918 l -2.80716,-0.27647 1.04505,-4.34621 -1.62981,-2.37061 C 277.29549,766.24855 271.67902,702.04411 306.96588,620.13886 Z"
         fill="#383837"
         id="path494"
         style="stroke-width:1" />
      <path
         d="m 404.80147,930.27632 c 19.47277,4.82025 39.81068,17.38456 59.34265,23.8446 79.45548,26.41279 165.1122,27.69681 245.32425,3.69429 l 3.98074,1.40256 c 1.20108,5.43266 0.0499,6.14393 -2.21849,11.49756 -3.93528,4.58316 -8.94717,10.88514 -13.50862,14.44105 -3.57763,-2.42995 -5.74284,-4.16832 -10.59667,-2.70642 -98.51732,29.65254 -175.39477,12.5248 -265.69588,-34.25556 -7.44183,-6.24264 -13.2459,-8.53422 -16.62798,-17.91794 z"
         fill="#5d2e9c"
         id="path495"
         style="stroke-width:1" />
      <path
         d="m 417.69957,920.29988 c 103.94998,52.72672 226.71487,60.86579 332.10113,7.42795 19.08153,-9.66032 52.77998,-50.81046 71.44668,-42.53301 -31.23303,36.01376 -58.74413,50.77094 -100.90775,69.69644 -2.87837,21.07884 -4.36981,24.97056 0.1679,45.91114 -9.59505,-15.36955 -3.1075,-16.33759 -9.27704,-30.08721 2.26784,-5.35363 3.41956,-6.06489 2.21848,-11.49755 l -3.98073,-1.40257 c -80.21219,24.00266 -165.86877,22.7185 -245.32425,-3.69428 -19.53198,-6.45991 -39.87002,-19.02422 -59.34266,-23.8446 l 1.05301,-3.04236 c 2.33703,-1.02765 9.27313,-5.41297 11.84523,-6.93408 z"
         fill="url(#color-20)"
         id="path496"
         style="fill:url(#color-20);stroke-width:1" />
      <path
         d="m 316.79788,846.77106 c 36.15011,-14.71766 71.16819,-20.84175 110.33099,-18.13534 16.80775,1.16521 50.47465,3.41768 64.06418,13.61139 l -0.0513,1.77802 c -38.23818,-3.49671 -62.24084,-10.23322 -101.51612,-7.11183 -20.33804,1.61997 -44.93517,8.79114 -60.3641,9.9171 l -10.70146,4.56347 -2.80716,-0.27646 z"
         fill="#604978"
         id="path497"
         style="stroke-width:1" />
      <path
         d="m 363.35302,889.18553 c 19.91323,-12.28771 112.23538,-42.33544 126.83045,-25.08911 -3.18855,3.55591 -7.10589,4.03009 -12.62365,3.89172 -40.24332,-0.98719 -76.25708,12.68286 -114.07261,27.28197 l -4.69577,-3.18059 z"
         fill="#604978"
         id="path498"
         style="stroke-width:1" />
      <path
         d="m 859.25441,812.96985 c -9.10711,-4.40541 -52.60426,14.10525 -70.9133,14.22379 l 0.5176,-2.33109 c 18.72011,-12.18899 40.40529,-19.04405 62.73067,-19.8342 4.54176,-0.17802 5.74284,0.29669 9.71764,-2.39044 l 4.35214,2.84479 -1.5903,2.01497 c 5.58276,1.06677 10.78238,1.89657 16.26049,3.41769 -7.91399,-0.0539 -14.69595,-1.30412 -21.07494,2.05449 z"
         fill="#604978"
         id="path499"
         style="stroke-width:1" />
      <path
         d="m 407.8793,918.02813 c 28.70625,-18.11552 60.97839,-29.83033 94.61764,-34.37411 -22.29382,15.25104 -55.92511,18.05631 -84.79737,36.646 -2.5721,1.52111 -9.5082,5.90683 -11.84523,6.93408 l -4.19004,-3.20028 z"
         fill="#604978"
         id="path500"
         style="stroke-width:1" />
      <path
         d="m 373.36493,924.96221 c 3.98855,-6.22295 3.71195,-8.57374 10.3438,-9.66032 7.4912,6.02537 9.25142,8.87002 17.95557,8.73179 l 4.19004,3.20028 -1.05301,3.04236 c 3.38208,9.38372 9.18615,11.6753 16.62799,17.91794 l -3.29914,-0.88874 c -4.88148,-1.34323 -7.90806,-2.68673 -12.57416,-4.6425 -6.28418,1.00742 -4.24937,-0.59205 -7.31142,3.5164 l -0.20742,1.54094 c -1.30587,-0.7903 -8.31898,-6.81554 -9.94084,-8.17873 l -5.23508,-4.74122 z"
         fill="#5d2e9c"
         id="path501"
         style="stroke-width:1" />
      <path
         d="m 318.55999,851.39374 10.70146,-4.56347 c 13.76539,24.83233 22.27008,25.93861 34.09157,42.35526 l -4.56145,2.90399 -5.85545,-0.27647 c -15.6857,-14.59911 -22.31351,-23.01479 -34.376,-40.41918 z"
         fill="#1e1a28"
         id="path502"
         style="stroke-width:1" />
      <path
         d="m 363.19496,900.82131 c 16.27438,-3.65476 22.20684,2.96333 37.24061,12.4656 l 7.44373,4.74122 -6.215,6.00555 c -8.70415,0.13756 -10.46437,-2.70642 -17.95557,-8.73179 -6.63185,1.08699 -6.35525,3.43737 -10.3438,9.66032 l -4.00244,-2.50898 3.34067,-9.18615 c -1.33541,-7.82309 -1.5903,-5.74877 -9.5082,-12.44577 z"
         fill="#22182c"
         id="path503"
         style="stroke-width:1" />
      <path
         d="m 666.52646,466.66083 8.30118,-7.36874 c 8.40381,15.70539 22.76193,22.10609 38.15525,31.76641 -11.58252,-2.41012 -47.37309,-10.72708 -46.45643,-24.39767 z"
         fill="#2d2b31"
         id="path504"
         style="stroke-width:1" />
      <path
         d="m 806.73121,878.99183 c -7.12963,-1.83723 -15.82596,-2.62739 -19.16852,-9.38372 9.67812,-5.98587 26.97772,0.98719 35.53365,6.79584 -6.6951,1.65948 -9.32249,2.6077 -16.36527,2.58788 z"
         fill="#604978"
         id="path505"
         style="stroke-width:1" />
      <path
         d="m 430.3568,739.36186 c 54.47102,-88.36515 191.11203,-23.72605 167.43344,73.46962 -4.72935,19.41936 -70.0224,13.15703 -84.02488,9.24548 1.36305,-1.97546 0.59852,-1.50142 1.7226,-2.05449 -4.62268,-2.78544 -15.97606,-5.15605 -22.44595,-8.90954 -7.66894,-4.46462 -11.69108,-7.21068 -18.53439,-12.88043 -22.79551,-3.5164 -34.35429,-38.70049 -44.15096,-58.8705 z"
         fill="url(#color-21)"
         id="path506"
         style="fill:url(#color-21);stroke-width:1" />
      <path
         d="m 521.79574,749.85186 -0.49589,-1.16521 c 19.90932,-17.70068 28.90382,-10.49 48.8625,-2.96333 l 2.67486,0.98719 c 4.92895,4.99813 10.72506,17.42408 11.93221,24.27913 -1.17343,26.63004 -7.96726,25.52377 -11.27435,42.63173 -10.24697,8.77131 -35.75497,9.14663 -47.97363,6.00555 -16.62205,-13.01866 -22.5862,-31.05515 -17.17121,-51.48207 l -0.52151,-3.8522 c 3.35443,-7.19086 7.48918,-9.36403 13.96688,-14.44106 z"
         fill="#204d91"
         id="path507"
         style="stroke-width:1" />
      <path
         d="m 521.79574,749.85186 c 12.33707,4.24735 18.65091,7.09214 15.35771,21.21708 -11.05304,10.94434 -19.16447,8.33665 -28.80308,-2.92382 l -0.52151,-3.8522 c 3.35443,-7.19086 7.48917,-9.36403 13.96688,-14.44106 z"
         fill="#fcfdfd"
         id="path508"
         style="stroke-width:1" />
      <path
         d="m 457.05401,765.16224 c 13.03646,-29.7513 35.65813,-40.4587 68.09629,-38.14729 12.53276,0.88874 21.83933,5.23509 34.89171,5.82781 6.89255,5.80798 7.50698,6.49941 12.79547,13.86816 l -2.67486,-0.9872 c -19.95868,-7.5268 -28.95318,-14.73734 -48.8625,2.96333 l 0.49589,1.16521 c -6.47771,5.07703 -10.61245,7.2502 -13.96688,14.44106 l 0.52151,3.85221 c -5.41486,20.42692 0.54916,38.4634 17.17121,51.48207 l -10.03362,0.39514 c -4.62268,-2.78544 -15.97606,-5.15605 -22.44595,-8.90954 -7.66894,-4.46462 -11.69108,-7.21068 -18.53439,-12.88043 -9.43902,-12.5248 -12.23242,-18.9847 -17.45375,-33.07026 z"
         fill="#c9cce5"
         id="path509"
         style="stroke-width:1" />
      <path
         d="m 457.05401,765.16224 c -2.59974,-31.58867 18.33291,-50.23756 49.03243,-51.64013 19.85402,-1.08699 39.30899,5.86732 53.95544,19.32065 -13.05225,-0.59205 -22.35896,-4.9388 -34.89171,-5.82781 -32.43803,-2.31141 -55.05983,8.39599 -68.0963,38.14729 z"
         fill="#9fa3be"
         id="path510"
         style="stroke-width:1" />
      <path
         d="m 584.76956,770.98991 c 5.91668,15.01395 6.30589,20.34789 8.40192,36.60648 l -19.67614,6.02538 c 3.30696,-17.10796 10.10078,-16.00168 11.27435,-42.63173 z"
         fill="#fcfdfd"
         id="path511"
         style="stroke-width:1" />
      <path
         d="m 371.95643,390.01049 c 17.03297,-2.58787 76.04575,91.03206 86.39347,108.65371 -10.43268,-3.18059 -23.88601,-8.77131 -33.63925,-4.50413 2.12961,10.80611 13.74369,16.55489 22.17717,24.71379 -22.28978,-1.61997 -26.52729,-1.50143 -47.45603,6.4007 l 21.25268,11.3198 c -25.79835,21.49368 -37.89644,31.64787 -58.82909,57.15181 l 0.0297,5.66975 -2.499,1.14633 c -20.2314,-19.57742 -12.25025,-200.17963 12.57021,-210.55109 z"
         fill="#574b54"
         id="path512"
         style="stroke-width:1" />
      <path
         d="m 361.85551,593.74617 0.0297,5.66975 -2.499,1.14633 c -20.23137,-19.57742 -12.25022,-200.17963 12.57025,-210.55109 -16.7267,68.33325 -27.07455,133.32799 -10.10078,203.73555 z"
         fill="#0d0a11"
         id="path513"
         style="stroke-width:1" />
      <path
         d="m 819.94947,388.39066 7.32922,-2.86448 c 14.95664,16.51538 1.68902,162.92136 -12.20477,185.28423 l -3.67445,1.60014 -3.72382,-4.3659 c -12.17712,-18.25388 -20.88721,-28.96114 -36.69334,-43.93557 7.78547,-2.07432 15.27478,-2.90399 20.38538,-8.13921 -6.49551,-6.9736 -26.52134,-6.77603 -36.85935,-7.5465 l 31.39109,-27.55857 -35.47647,7.21068 c -3.41566,5.23509 -3.6251,5.96604 -8.35054,10.35177 l -3.11546,-0.43426 c -3.85032,-16.00168 60.30881,-105.94729 80.99251,-109.60193 z"
         fill="#574b54"
         id="path514"
         style="stroke-width:1" />
      <path
         d="m 750.42296,488.07548 c -3.41566,5.23509 -3.6251,5.96604 -8.35054,10.35177 l -3.11546,-0.43426 c -3.85032,-16.00168 60.30881,-105.94729 80.99251,-109.60193 -22.36287,27.77584 -53.36677,68.47162 -69.52651,99.68483 z"
         fill="#2d2b31"
         id="path515"
         style="stroke-width:1" />
      <path
         d="m 740.10289,730.86716 c 28.40605,-41.44643 83.78982,-38.32517 79.50686,17.52293 -7.44966,24.79281 -11.62985,31.29223 -32.06271,47.57052 -14.6919,11.8927 -32.90829,13.27557 -50.70971,8.27744 -19.71768,-6.18343 -14.06573,-17.66116 -11.47381,-35.40135 l 0.58476,-8.92937 8.6765,-16.81167 c 1.38679,-6.4007 1.00553,-7.42794 5.47811,-12.2285 z"
         fill="#204d91"
         id="path516"
         style="stroke-width:1" />
      <path
         d="m 740.10289,730.86716 c 28.40605,-41.44643 83.78982,-38.32517 79.50686,17.52293 -7.44966,24.79281 -11.62985,31.29223 -32.06271,47.57052 1.2228,-11.59627 11.0254,-29.3958 3.89375,-47.74841 -5.13637,-13.21623 -14.30876,-17.97728 -26.3614,-23.50866 -10.97011,1.54094 -14.42326,2.58788 -24.9765,6.16362 z"
         fill="#c9cce5"
         id="path517"
         style="stroke-width:1" />
      <path
         d="m 740.10289,730.86716 c 28.40605,-41.44643 83.78982,-38.32517 79.50686,17.52293 -1.48564,-12.90012 -7.50495,-22.87656 -19.02826,-29.27726 -16.63986,-9.24549 -30.92083,0.0809 -47.17943,1.97546 l -1.23277,1.60014 12.9101,2.01498 c -10.97011,1.54094 -14.42326,2.58787 -24.9765,6.16361 z"
         fill="#9fa3be"
         id="path518"
         style="stroke-width:1" />
      <path
         d="m 734.62465,743.09566 c 7.53664,0.82941 11.47381,0.53271 17.74612,4.78074 4.53974,7.0328 3.53029,3.33865 3.59934,11.33949 -9.45088,14.46088 -18.87222,8.87003 -30.02197,0.69184 z"
         fill="#e4e5ef"
         id="path519"
         style="stroke-width:1" />
      <path
         d="m 725.36352,768.8367 c 3.54215,13.078 5.61647,21.37513 12.43794,33.52461 l -0.96399,1.87674 c -19.71768,-6.18343 -14.06574,-17.66116 -11.47382,-35.40135 z"
         fill="#e4e5ef"
         id="path520"
         style="stroke-width:1" />
      <path
         d="m 615.99059,577.15177 1.72259,1.81754 c -0.089,11.6161 -0.25084,26.25472 7.77765,35.5791 6.92221,8.04036 22.04284,14.16446 32.48752,14.36203 6.31776,0.12138 11.74839,-2.52867 15.91483,-7.19086 9.94286,-11.1024 10.81002,-26.09666 10.02189,-40.2216 l -0.16993,-2.68673 2.94553,0.41538 c 13.48299,13.01866 15.14234,24.77299 15.76473,42.75027 -1.96373,7.58601 -4.19597,14.44106 -8.70617,20.94048 -6.93799,10.23321 -17.74815,17.18698 -29.92919,19.24161 -14.02028,2.46946 -28.9552,-1.26366 -40.53381,-9.40354 -11.4699,-7.98115 -19.17243,-20.30838 -21.30999,-34.11734 -2.46151,-16.96972 3.90358,-28.58582 14.01435,-41.48593 z"
         fill="#ce99a6"
         id="path521"
         style="stroke-width:1" />
      <path
         d="m 674.99352,863.95805 c 0.964,2.96333 1.95578,5.82781 3.33272,8.63308 3.55403,7.23037 9.40745,15.01395 17.67694,16.98955 11.32965,2.68672 22.62572,-6.53894 31.39298,-12.4656 l 1.58045,0.90897 c -1.05691,3.63495 -2.11976,7.52681 -4.29482,10.68757 -4.19409,6.10441 -11.2486,9.87759 -18.51458,10.7666 -12.20085,1.4816 -19.96258,-4.10912 -29.1548,-11.26046 l -2.22442,-1.7582 c -5.97993,0.15779 -11.34745,6.42039 -15.99979,10.29242 -2.20069,1.14633 -4.40933,2.3114 -6.69106,3.29914 -10.64414,4.68201 -24.81655,5.33394 -35.56724,0.65138 -9.25533,-4.03009 -15.29258,-9.36403 -18.90378,-18.76744 l 1.50142,-2.56818 c 16.65954,2.52867 25.1997,20.30837 44.64482,15.50782 11.91441,-2.94351 23.96894,-18.76744 29.98839,-28.80309 0.41874,-0.69184 0.82185,-1.40257 1.23277,-2.11383 z"
         fill="#1e1a28"
         id="path522"
         style="stroke-width:1" />
      <path
         d="m 654.86896,823.16355 c 13.70417,-0.69184 36.81782,-4.08929 49.49474,1.56063 l 0.32003,3.10156 c -2.32718,3.7338 -4.18222,6.91439 -7.60772,9.75904 -5.64803,4.68202 -8.02458,7.07232 -10.56309,14.14477 -0.23115,0.65138 -0.43264,1.30411 -0.6499,1.93594 -4.44695,3.55592 -6.7918,5.41297 -12.54651,6.53894 -5.96213,-3.63495 -7.07434,-11.69513 -10.40503,-17.97728 -2.89024,-0.4936 -5.83968,-0.90897 -8.70213,-1.56063 -5.33785,-1.22455 -7.19086,-1.42239 -10.23915,-6.08458 2.20864,-5.82781 6.0154,-8.00084 10.8989,-11.41852 z"
         fill="#d67c7b"
         id="path523"
         style="stroke-width:1" />
      <path
         d="m 795.71768,840.96295 c 13.76742,-1.1261 31.69722,-3.39786 44.4966,2.78544 l -0.8673,2.25207 c -3.08969,1.1261 -5.36752,0.92785 -8.61918,0.90897 -13.46911,0.25624 -30.61267,3.97075 -43.50294,1.18544 l 0.3675,-2.84478 z"
         fill="#604978"
         id="path524"
         style="stroke-width:1" />
      <path
         d="m 811.39947,572.41055 c 6.39274,8.04036 13.00881,13.6509 11.41852,24.4175 l -3.68633,-0.92786 c -7.46948,-7.84278 -10.47219,-17.18698 -11.45601,-27.85486 z"
         fill="#2d2b31"
         id="path525"
         style="stroke-width:1" />
      <path
         d="m 487.71805,475.98521 c 2.31734,-0.0944 4.63657,-0.0944 6.9558,-0.0809 6.92423,6.79584 9.70577,15.42878 13.34665,24.21992 l -1.85301,0.0135 c -7.27785,-4.04978 -13.73586,-17.14747 -18.44944,-24.16058 z"
         fill="#2d2b31"
         id="path526"
         style="stroke-width:1" />
      <path
         d="m 685.47772,290.42452 -305.55201,0.13756 c -46.41097,0.0944 -96.8341,2.05449 -142.84413,-1.34323 -27.06269,-2.01498 -46.75663,-36.25085 -44.13518,-60.80658 1.32947,-29.00066 24.63476,-52.134 53.76785,-53.10204 35.00028,-1.18544 70.69401,-0.59204 105.88606,-0.61227 l 219.96057,-0.0405 214.22567,0.0135 c 39.45316,-0.0405 80.50647,-1.52112 119.65942,1.61996 65.62292,5.29443 65.37397,108.17953 -1.63574,113.80977 -29.27915,2.46946 -58.20482,0.45448 -87.54722,0.5327 -24.53793,-0.5327 -53.70851,0.96831 -77.34165,-0.13891 z"
         fill="url(#color-29)"
         id="path585"
         style="fill:url(#color-29);stroke-width:1" />
      <path
         d="m 438.43073,281.21855 -2.10196,-0.15779 c -44.59735,-3.04236 -93.07468,1.52111 -138.04358,-0.35604 -18.38025,-0.77006 -37.13986,1.323 -55.28896,-2.21255 -39.92329,-5.74877 -53.45766,-56.83583 -22.14358,-81.90512 7.08229,-5.76846 15.72521,-9.30469 24.82046,-10.13436 29.95292,-2.58787 92.83571,-0.81052 124.73847,-0.79029 l 239.50238,0.17802 194.54549,0.27646 c 35.25517,0.0539 71.07136,-1.00742 106.14487,1.89657 8.75553,0.73096 20.39334,10.58885 25.27481,17.30553 13.29136,18.27358 10.74286,52.80575 -9.47664,65.42926 -22.96152,14.34234 -51.5058,7.0328 -75.90941,10.50982 -24.31675,-1.18544 -51.6145,-0.49359 -76.16039,-0.45448 -111.84819,0.23735 -224.09139,-1.06676 -335.90196,0.41537 z"
         fill="#fcfdfd"
         id="path586"
         style="stroke-width:1" />
      <path
         d="m 246.53839,201.07163 c 41.97198,-1.58045 436.59043,-3.63494 450.30053,1.61997 7.16726,2.72624 12.74206,10.90483 15.08705,17.87842 3.25167,9.6405 2.69064,20.50595 -2.30345,29.49453 -4.61081,8.29713 -11.92223,12.32722 -20.63231,15.1917 -47.19911,1.30411 -436.0847,2.98302 -449.15663,-2.82497 -6.75634,-3.00284 -12.45171,-7.94163 -15.40708,-14.79668 -3.77331,-8.77131 -4.28484,-20.80224 -0.50182,-29.61307 3.96886,-9.24548 13.62918,-14.06573 22.61385,-16.95003 z"
         fill="#74b5ce"
         id="path587"
         style="stroke-width:1" />
      <path
         d="m 438.43073,281.21855 c 111.81057,-1.4816 224.05391,-0.17802 335.90196,-0.41538 24.54589,-0.0405 51.84364,-0.73095 76.16039,0.45449 -12.20086,3.14108 -23.19456,1.02765 -30.82008,4.30669 l 0.44653,1.60014 c 7.47137,-0.0405 13.319,0.0944 20.76664,0.65139 -15.16406,1.50142 -94.90612,-1.77803 -100.96494,2.68672 l -54.44338,-0.0809 c -4.68795,-4.18815 -198.76128,-0.41538 -225.43476,-3.43737 9.49836,-0.1969 18.99657,-0.31558 28.49695,-0.39515 -15.21746,-2.11383 -38.31721,-1.73851 -50.10917,-5.37345 z"
         fill="#1e1a28"
         id="path588"
         style="stroke-width:1" />
      <path
         d="m 936.70287,512.74976 c 28.3962,-0.69185 65.91923,-6.04507 92.93643,1.38288 12.748,3.49671 17.1337,10.1937 23.6253,21.21707 0.5453,27.51906 5.1088,62.50558 -1.5112,88.99726 -3.1096,12.42608 -9.1407,17.77971 -19.7908,24.31864 -24.455,1.699 -69.83468,3.71398 -92.97597,-0.86851 -8.12734,-1.61997 -13.71806,-6.49942 -17.91605,-13.49284 -11.19331,-18.66872 -9.30078,-76.78858 -4.01229,-97.8476 3.12921,-12.44576 8.85236,-17.30553 19.64458,-23.70623 z"
         fill="#475459"
         id="path625"
         style="stroke-width:1" />
      <path
         d="m 943.59744,523.00266 c 23.15909,-1.06676 60.95666,-5.05733 82.92256,0.7903 5.5788,1.4816 8.8562,4.72153 11.5409,9.71952 9.6841,18.03649 8.9413,71.39544 2.1849,91.01237 -2.7025,7.84279 -7.7756,11.00369 -14.8776,14.26331 -23.0899,0.2967 -63.89827,5.03765 -84.91184,-2.0348 -5.36752,-1.81754 -8.82472,-6.38088 -11.1163,-11.3198 -7.7183,-16.65361 -8.36429,-72.5214 -1.02131,-89.66901 3.05814,-7.15134 8.35445,-10.07516 15.27869,-12.76189 z"
         fill="#9dd694"
         id="path626"
         style="stroke-width:1" />
      <path
         d="m 1016.2689,545.16809 c 0.5176,0.1969 1.0688,0.31558 1.5547,0.59205 4.6346,2.56818 5.1364,3.43737 6.8274,8.19842 -5.0692,19.85402 -35.61076,46.74084 -49.91345,62.0906 l -16.92819,-16.73263 c -6.01351,-6.0649 -10.36956,-9.99613 -11.64576,-18.76744 l 2.38638,-3.1806 c 2.27972,-0.29669 3.68242,-0.61227 6.08459,-0.31557 7.72828,0.94808 14.68016,10.31224 19.75719,15.66587 13.6509,-16.17956 27.32544,-32.18125 41.87714,-47.55083 z"
         fill="#455d52"
         id="path627"
         style="stroke-width:1" />
      <path
         d="m 958.56985,866.36818 c 25.16814,-2.2719 55.39175,-3.75349 80.53615,-0.96832 10.6697,1.18544 21.2961,5.15606 28.007,13.90768 14.3857,18.76744 8.4709,79.53451 5.5848,103.43831 -5.2609,8.67259 -10.253,13.55205 -18.8999,18.88595 -24.214,2.6669 -70.64265,4.2869 -93.5687,-1.1261 -7.02296,-1.63962 -12.80343,-4.16829 -16.57067,-10.64802 -11.19128,-19.24161 -9.99815,-77.51953 -4.71748,-99.23047 3.19448,-13.13721 8.25761,-17.42408 19.6288,-24.25944 z"
         fill="#475459"
         id="path628"
         style="stroke-width:1" />
      <path
         d="m 962.23649,876.18656 c 21.10446,-0.35604 42.35921,-1.18544 63.45571,-0.61228 10.6322,0.2967 24.137,0.43426 31.5155,9.18615 12.1475,14.42136 8.8583,70.42739 5.2707,88.87871 -1.7504,9.0084 -5.7309,12.8014 -13.2399,17.64147 -1.8729,0.31558 -3.7556,0.57317 -5.6461,0.73096 -16.6517,1.323 -78.86878,4.03009 -88.35716,-6.4007 -12.3964,-13.61139 -9.14865,-72.06705 -5.98775,-90.30111 1.67324,-9.6405 5.22915,-13.4335 12.989,-19.12307 z"
         fill="#9dd694"
         id="path629"
         style="stroke-width:1" />
      <path
         d="m 1037.3793,898.76669 c 4.2158,1.40257 2.8686,0.53405 6.1241,3.10156 2.9929,2.39044 2.2699,2.90399 2.74,6.44022 -8.1451,21.63191 -34.8106,45.00233 -51.43659,60.96464 -6.40461,-5.2154 -12.10402,-11.3395 -17.93385,-17.1673 -5.65397,-6.30198 -10.31818,-10.94435 -10.6165,-19.93305 2.34499,-2.29158 1.32759,-2.21256 4.4982,-2.07432 10.79033,0.51382 17.4261,9.3442 24.54777,16.43634 15.21947,-14.52008 27.58627,-32.39851 42.07667,-47.76809 z"
         fill="#455d52"
         id="path630"
         style="stroke-width:1" />
      <path
         d="m 1140.0709,715.18146 c 1.7306,1.04653 2.5762,1.48159 4.2435,2.86447 3.6073,3.00285 5.0553,4.95862 5.3241,9.56147 -14.3068,21.27642 -33.738,41.0119 -51.3222,59.64097 l -16.7089,-16.73264 c -4.7076,-4.60298 -10.725,-9.54178 -11.4343,-16.43634 -0.3675,-3.57574 -0.1777,-2.46947 2.4812,-5.59072 2.2897,-0.27647 3.9253,-0.59204 6.3059,-0.25624 7.2779,1.02765 14.0973,10.27273 18.8584,15.36959 13.7397,-16.43635 27.8272,-32.5764 42.2525,-48.42002 z"
         fill="#455d52"
         id="path633"
         style="stroke-width:1" />
      <path
         d="m 823.09648,876.40382 4.12287,1.18544 c 15.38146,8.04035 58.68291,28.01292 63.27592,44.29121 l -2.09994,2.6669 c -16.97957,-11.87287 -47.23081,-33.62333 -65.65651,-40.45869 -5.78829,-5.45249 -6.13596,-3.77331 -16.00761,-5.09685 7.04278,0.0135 9.67016,-0.92786 16.36527,-2.58788 z"
         fill="#604978"
         id="path691"
         style="stroke-width:1" />
      <path
         d="m 847.5574,843.7287 c 16.61018,3.31883 55.31459,12.88043 67.22509,24.55573 l -0.80999,1.08699 c -14.67612,-0.84963 -49.0443,-14.79668 -69.51275,-19.18227 z"
         fill="#604978"
         id="path693"
         style="stroke-width:1" />
      <path
         d="m 865.65916,805.48256 c 24.36611,-5.31411 61.04165,5.94635 83.39265,15.21153 -12.15339,0.12137 -56.17798,-6.49942 -68.72246,-9.77887 -5.47811,-1.52111 -10.67773,-2.35092 -16.26049,-3.41768 z"
         fill="#604978"
         id="path694"
         style="stroke-width:1" />
      <path
         d="m 1064.1062,635.74567 c 1.8946,0.0944 3.2912,0.0944 5.1798,0.61227 4.1368,1.1261 7.2936,5.66975 9.4173,9.16646 4.1051,6.73651 7.187,15.1917 5.2451,23.01479 -2.0387,-0.0809 -3.9274,-0.0809 -5.9464,-0.51382 -3.1015,-0.65139 -5.0139,-3.29914 -6.6812,-5.78829 -4.8579,-7.23038 -8.7199,-17.77971 -7.2146,-26.49182 z"
         fill="#4c505e"
         id="path695"
         style="stroke-width:1" />
      <path
         d="m 352.93599,891.81292 5.85545,0.27646 4.69577,3.1806 -2.26393,4.42523 c -8.17671,-3.06204 -32.36305,16.81167 -51.49394,21.88883 14.38779,-13.078 26.61224,-19.67614 43.20665,-29.77112 z"
         fill="#604978"
         id="path703"
         style="stroke-width:1" />
      <path
         d="m 1065.5385,831.26311 c 4.9743,0.84963 6.3137,0.59205 9.8775,4.04978 0.6579,7.82309 -5.8239,16.41666 -9.5674,23.11365 -4.6543,-1.22455 -5.6855,-1.44208 -9.0657,-4.80056 -0.563,-7.90212 5.083,-15.60667 8.7556,-22.36287 z"
         fill="#4c505e"
         id="path704"
         style="stroke-width:1" />
      <path
         d="m 926.50121,989.8976 c 3.66664,3.31883 4.24533,3.793 5.54918,8.51453 -2.82105,7.82307 -10.1403,12.97917 -16.16959,18.43167 -4.15848,-2.7855 -4.92503,-2.6868 -6.29995,-7.4083 3.12921,-8.1392 10.66383,-13.6904 16.92036,-19.5379 z"
         fill="#4c505e"
         id="path705"
         style="stroke-width:1" />
      <path
         d="m 315.16807,844.40032 1.62981,2.37061 -1.04505,4.34621 c -11.11036,2.86447 -9.82431,6.1044 -25.34589,7.586 l 2.73015,-1.18544 0.12273,-1.323 c 5.85545,-4.26718 15.21544,-8.47502 21.90852,-11.79384 z"
         fill="#604978"
         id="path712"
         style="stroke-width:1" />
    </g>
  </g>
</svg>
