<?xml version="1.0" encoding="UTF-8" standalone="no"?>
<!-- Created with Inkscape (http://www.inkscape.org/) -->

<svg
   width="300mm"
   height="382.7124mm"
   viewBox="0 0 300 382.7124"
   version="1.1"
   id="svg1"
   inkscape:version="1.4.3 (0d15f75, 2025-12-25)"
   sodipodi:docname="cloud.svg"
   xmlns:inkscape="http://www.inkscape.org/namespaces/inkscape"
   xmlns:sodipodi="http://sodipodi.sourceforge.net/DTD/sodipodi-0.dtd"
   xmlns="http://www.w3.org/2000/svg"
   xmlns:svg="http://www.w3.org/2000/svg">
  <sodipodi:namedview
     id="namedview1"
     pagecolor="#ffffff"
     bordercolor="#000000"
     borderopacity="0.25"
     inkscape:showpageshadow="2"
     inkscape:pageopacity="0.0"
     inkscape:pagecheckerboard="0"
     inkscape:deskcolor="#d1d1d1"
     inkscape:document-units="mm"
     inkscape:zoom="0.12474163"
     inkscape:cx="364.75393"
     inkscape:cy="332.68765"
     inkscape:window-width="1471"
     inkscape:window-height="700"
     inkscape:window-x="0"
     inkscape:window-y="34"
     inkscape:window-maximized="0"
     inkscape:current-layer="g714" />
  <defs
     id="defs1">
    <linearGradient
       x1="248.63965"
       y1="112.78623"
       x2="296.99707"
       y2="99.987007"
       gradientUnits="userSpaceOnUse"
       id="color-17"
       gradientTransform="matrix(12.956477,0,0,12.956477,-2490.0902,-344.53562)">
      <stop
         offset="0"
         stop-color="#201c29"
         id="stop33" />
      <stop
         offset="1"
         stop-color="#3f3f3b"
         id="stop34" />
    </linearGradient>
    <linearGradient
       x1="230.37891"
       y1="45.624458"
       x2="237.41162"
       y2="45.06094"
       gradientUnits="userSpaceOnUse"
       id="color-22"
       gradientTransform="matrix(12.956477,0,0,12.956477,-2490.0902,-344.53562)">
      <stop
         offset="0"
         stop-color="#423e43"
         id="stop43" />
      <stop
         offset="1"
         stop-color="#62545d"
         id="stop44" />
    </linearGradient>
    <linearGradient
       x1="254.15332"
       y1="45.886959"
       x2="258.24902"
       y2="43.46851"
       gradientUnits="userSpaceOnUse"
       id="color-23"
       gradientTransform="matrix(12.956477,0,0,12.956477,-2490.0902,-344.53562)">
      <stop
         offset="0"
         stop-color="#1b1822"
         id="stop45" />
      <stop
         offset="1"
         stop-color="#313032"
         id="stop46" />
    </linearGradient>
    <linearGradient
       x1="260.63086"
       y1="72.287987"
       x2="260.76416"
       y2="70.748138"
       gradientUnits="userSpaceOnUse"
       id="color-24"
       gradientTransform="matrix(12.956477,0,0,12.956477,-2490.0902,-344.53562)">
      <stop
         offset="0"
         stop-color="#55475f"
         id="stop47" />
      <stop
         offset="1"
         stop-color="#624983"
         id="stop48" />
    </linearGradient>
  </defs>
  <g
     inkscape:label="Layer 1"
     inkscape:groupmode="layer"
     id="layer1"
     transform="translate(-91.545827,-134.46675)">
    <g
       id="g714"
       style="mix-blend-mode:normal"
       transform="matrix(0.26458333,0,0,0.26458333,36.442957,126.84257)">
      <path
         d="m 1138.3749,1208.9321 c 0.2851,3.31 -0.513,6.6598 2.2016,8.8975 3.7768,3.1296 7.4019,3.9857 12.1656,3.1715 21.2188,-3.6155 41.7923,-22.8036 53.3316,-40.0708 21.2757,-31.8566 25.546,-68.327 18.0113,-105.4333 -5.9215,-29.1824 -19.3208,-55.8843 -33.8968,-81.60121 -42.3237,-74.68515 -77.0937,-128.56336 -70.1472,-218.67851 2.733,-35.38297 11.9949,-71.68637 31.8281,-101.53693 15.7907,-23.77526 43.5194,-49.7692 72.178,-55.20677 13.9117,-2.63626 28.7914,-2.40848 40.7672,5.85697 9.148,6.30294 17.5938,16.69598 19.0362,28.00958 1.7271,13.64226 -5.5989,25.95026 -14.0066,36.01304 -11.1218,13.312 -25.3373,23.80377 -36.8956,36.67733 -20.8392,23.21723 -28.26,59.02919 -26.3622,89.45657 7.1742,114.21316 123.8774,169.06492 103.2849,327.24533 -5.0105,38.526 -18.9032,73.981 -44.734,103.3305 -24.1036,27.3927 -55.818,45.776 -91.2142,54.3318 -24.578,2.8071 -35.8517,3.9155 -60.1451,1.3703 -13.8169,23.2591 -21.6553,32.6006 -42.3427,50.6176 -4.2134,42.4831 -41.2987,47.488 -77.09359,61.5306 -42.2477,16.5803 -166.21993,60.8417 -198.59843,12.103 -19.87122,-22.5586 7.17413,-55.4174 25.90661,-69.0217 l -30.29082,-8.1004 c -29.93024,14.2287 -59.97437,20.8543 -92.33382,28.8826 -37.63584,8.3546 -85.99486,20.3513 -121.50493,-0.6362 -20.07995,-11.8696 -24.23652,-34.4681 -9.96405,-52.7888 16.91053,-21.7065 39.0972,-27.3624 64.814,-31.8889 -6.03539,-5.4394 -11.95689,-11.6343 -17.70762,-17.4267 -38.41388,-45.7798 -54.43236,-106.722 -29.45577,-163.1434 10.57145,-26.9638 26.30514,-38.6379 49.61164,-52.8495 -0.66466,-4.6537 -0.79682,-11.0137 -1.06243,-15.8476 -4.04255,-2.6495 -47.7327,-9.8749 -57.08947,-11.9417 -90.26519,-19.9112 -180.92891,-38.01537 -271.28894,-57.3533 -9.77424,-2.08962 -23.6102,-9.88631 -27.14032,-20.26225 -7.78153,-27.35669 -13.72195,-55.66037 -20.13696,-83.44787 L 214.37199,680.31122 c -3.81477,-16.56512 -10.40055,-33.95193 -2.12564,-47.18231 8.73047,-4.7733 28.29799,-0.59976 38.20516,1.47276 120.29026,25.19115 248.11524,38.74984 367.19083,66.8733 l 3.68197,-4.02739 0.89141,0.42135 c 1.68913,4.87383 3.2075,9.15556 5.20034,13.95736 11.2926,-1.56773 12.71613,0.40619 22.88891,6.58772 92.4477,41.12036 172.23641,21.44271 256.65589,-24.85143 5.08645,2.98543 10.21087,6.15692 15.54402,8.65648 12.98174,-10.23548 13.98768,-15.83437 13.70302,-31.65539 l 3.66293,0.67568 c 8.8253,44.01665 39.07816,116.41278 65.51627,151.2473 69.0084,90.94268 129.0396,181.77535 134.5816,300.01575 0.9679,20.4729 4.517,66.1977 -1.5943,86.4294 z"
         fill="#383837"
         id="path357"
         style="stroke-width:1" />
      <path
         d="m 633.75566,1042.1959 c -4.04255,-2.6495 -47.73269,-9.875 -57.08947,-11.9418 -90.26519,-19.9111 -180.92891,-38.01531 -271.28894,-57.35324 -9.77424,-2.08962 -23.6102,-9.88631 -27.14032,-20.26225 -7.78153,-27.35669 -13.72195,-55.66038 -20.13696,-83.44787 L 214.37186,680.31148 c -3.81477,-16.56512 -10.40055,-33.95193 -2.12564,-47.18231 8.73047,-4.7733 28.29799,-0.59976 38.20516,1.47276 120.29026,25.19115 248.11524,38.74984 367.19083,66.8733 l 3.68197,-4.02739 0.89141,0.42135 c 1.68913,4.87383 3.2075,9.15556 5.20034,13.95736 11.29261,-1.56773 12.71613,0.40619 22.88891,6.58772 -4.4981,3.51872 -8.02822,6.15303 -12.77301,9.33022 0.87326,4.20956 -0.15159,2.32685 3.41623,5.43369 4.95352,5.06935 4.76384,5.30658 11.50147,8.40396 -8.6925,16.06784 6.41501,60.89285 18.92228,75.2507 0.32262,11.62662 0.22804,27.59198 2.52418,38.4784 -8.55956,2.18835 -8.92027,2.26803 -15.98051,7.36589 l 1.91691,6.6503 4.61198,26.15718 c 9.05308,-0.30175 8.42677,-1.82194 14.13954,2.36106 l 5.08645,12.25113 c -4.15644,5.23066 -8.55957,12.04615 -14.10157,14.912 6.37705,29.60373 24.12263,91.0546 14.99362,120.3624 -3.58713,11.5224 -30.25285,0.4522 -39.30593,0.2501 z"
         fill="#74b5ce"
         id="path358"
         style="stroke-width:1" />
      <path
         d="m 634.60975,736.83929 c 2.67603,-3.39732 1.30951,-1.88089 6.33909,-3.66111 4.95352,5.06935 4.76384,5.30658 11.50146,8.40396 -8.6925,16.06784 6.41502,60.89285 18.92229,75.2507 0.32262,11.62662 0.22804,27.59198 2.52418,38.4784 -8.55956,2.18835 -8.92027,2.26803 -15.98052,7.36589 -2.12564,-25.55173 -17.84042,-97.3919 -23.3065,-125.83784 z"
         fill="#475459"
         id="path359"
         style="stroke-width:1" />
      <path
         d="m 664.44502,895.48461 c 9.05308,-0.30175 8.42677,-1.82194 14.13953,2.36106 l 5.08646,12.25113 c -4.15644,5.23066 -8.55957,12.04615 -14.10157,14.912 z"
         fill="#475459"
         id="path360"
         style="stroke-width:1" />
      <path
         d="m 627.41658,711.82655 c 11.2926,-1.56773 12.71613,0.40619 22.88891,6.58772 -4.4981,3.51872 -8.02822,6.15303 -12.77301,9.33022 0.87326,4.20956 -0.15159,2.32685 3.41623,5.43369 -5.02945,1.78022 -3.66293,0.26379 -6.33909,3.66111 -2.35341,-8.35084 -4.74479,-16.68846 -7.19317,-25.01274 z"
         fill="#7d5ea5"
         id="path361"
         style="stroke-width:1" />
      <path
         d="m 633.75566,1035.7468 c -8.33192,-2.9513 -60.33494,-13.1165 -73.24076,-15.9349 -61.32184,-13.553 -122.73852,-26.63545 -184.26922,-39.24716 -24.93862,-5.11301 -54.56529,-10.01341 -78.7448,-17.89354 -7.32598,-2.49192 -11.61522,-6.65794 -13.60806,-14.3046 -16.51186,-63.33929 -31.8281,-129.22375 -45.7019,-193.03 -4.38421,-20.14071 -28.6206,-102.80278 -22.24368,-115.90799 16.85353,-2.79562 99.39419,14.01618 120.8597,17.8329 l 223.38534,40.48835 c 10.79923,1.96057 52.98992,7.70742 59.48086,9.4498 3.54917,5.40532 2.20156,4.73534 1.44244,13.02541 10.53349,20.65884 21.80718,113.09139 30.6514,143.51889 l 1.02486,8.03574 c 1.02485,6.9312 3.26438,19.37965 3.66292,25.92747 l 0.6258,3.56614 c 3.07457,11.13505 4.83976,23.26283 6.77559,34.70729 l 3.8907,15.81157 c 3.90975,19.40051 15.92351,71.68263 11.82408,87.91173 -8.31287,7.0394 -35.05465,-1.4519 -45.81579,-3.9571 z"
         fill="#d2e5ed"
         id="path362"
         style="stroke-width:1" />
      <path
         d="m 621.11545,720.22494 c 10.53349,20.65884 21.80718,113.09139 30.6514,143.51889 l 1.02486,8.03574 c 1.02485,6.9312 3.26438,19.37965 3.66292,25.92747 l 0.6258,3.56614 c 3.07457,11.13505 4.83976,23.26283 6.77559,34.70729 l 3.8907,15.81157 c 3.90975,19.40051 15.92351,71.68266 11.82408,87.91176 -8.31287,7.0394 -35.05465,-1.4519 -45.81578,-3.9572 l 0.58822,-27.3034 c 0.58822,-0.3421 7.55375,-1.8144 9.88812,-2.7425 -3.16954,-4.6936 -5.18129,-4.7353 -10.7233,-7.61064 l 5.94055,-5.48305 c -4.0616,-16.49489 -3.90975,-18.89002 -3.96663,-35.74161 -55.85589,24.6957 -95.29463,1.20366 -134.8663,-36.25222 l -0.57008,-1.30575 c -4.70683,-4.33109 -10.51444,-10.90353 -15.05051,-15.70338 l -2.65711,-4.09386 c -6.28208,-5.97656 -9.98309,-7.42847 -8.04714,-16.12097 l -0.4742,-1.18616 -3.66293,-2.20351 -9.54659,-4.54176 c -3.71994,-5.64255 -8.23695,-11.14646 -12.41244,-16.51576 -19.77637,-3.37075 -39.30593,-4.46389 -54.62217,-19.59602 -15.20235,-15.02018 -12.64021,-42.73927 3.60605,-55.97159 3.45419,-2.81842 2.71399,-2.00229 5.0674,-6.17778 13.66507,-22.34228 33.15666,-21.39529 58.68377,-25.52322 18.0682,-2.92285 41.18489,12.76925 53.33158,26.27107 5.0485,3.83188 5.08646,3.64971 11.08388,5.90258 l 5.08646,4.41842 10.05902,13.09757 6.60482,8.95254 c 2.37246,0.94893 6.54781,2.39513 8.46472,3.74455 8.67346,3.75025 14.0066,6.87432 23.34447,2.99683 l 3.37827,-8.34513 c 1.89786,-4.03115 5.67481,-10.05902 8.04714,-14.10157 l 1.7841,-0.0324 0.32262,-2.79937 c 3.30235,-7.20834 3.49216,-8.61852 9.11009,-13.85294 5.50391,2.57173 5.9215,3.22642 12.10873,3.39913 l 1.84099,-2.07821 c -4.17549,-7.04509 -4.0616,-5.24777 -12.92487,-9.59583 3.13159,-6.48329 6.60483,-12.65913 10.03998,-18.96776 l 4.27032,-3.42388 c 0.0389,-9.52755 2.25858,-17.71138 4.23237,-27.03395 z"
         fill="#647781"
         id="path363"
         style="stroke-width:1" />
      <path
         d="m 667.74737,951.79217 -2.86584,3.1847 c -31.29676,2.93982 -61.64446,-55.78943 -13.11468,-91.23304 l 1.02486,8.03574 c 1.02485,6.9312 3.26438,19.37965 3.66292,25.92747 l 0.6258,3.56614 c 3.07457,11.13505 4.83976,23.26283 6.77559,34.70729 z"
         fill="#4c505e"
         id="path364"
         style="stroke-width:1" />
      <path
         d="m 637.4756,921.19959 c 0.013,-21.92858 1.53728,-31.29857 15.31624,-49.42002 1.02485,6.9312 3.26438,19.37965 3.66292,25.92747 l 0.6258,3.56614 c 3.07457,11.13505 4.83976,23.26283 6.77559,34.70729 -9.28085,-2.94747 -10.53349,-2.1408 -14.46215,-10.48218 -0.51178,2.22061 -0.0389,0.78011 -2.27749,3.94577 -3.64401,-3.57379 -3.49216,-6.21186 -5.08645,-11.70074 z"
         fill="#647781"
         id="path365"
         style="stroke-width:1" />
      <path
         d="m 657.08108,901.27331 c 3.07457,11.13505 4.83976,23.26283 6.77559,34.70729 -9.28086,-2.94747 -10.53349,-2.1408 -14.46215,-10.48218 1.99283,-10.14816 6.05443,-14.32934 7.68656,-24.22511 z"
         fill="#647781"
         id="path366"
         style="stroke-width:1" />
      <path
         d="m 642.03058,917.74345 c 2.96081,-7.15703 6.37704,-18.48954 14.42418,-20.03641 l 0.6258,3.56614 c -1.63226,9.89577 -5.69372,14.07682 -7.68656,24.22511 -0.51178,2.22061 -0.0389,0.78011 -2.27749,3.94577 -3.64401,-3.57379 -3.49216,-6.21186 -5.08645,-11.70074 z"
         fill="#4c505e"
         id="path367"
         style="stroke-width:1" />
      <path
         d="m 642.03058,917.74345 c 1.59429,5.48875 1.44244,8.12695 5.08645,11.70074 2.23953,-3.16579 1.76506,-1.72516 2.27749,-3.94577 3.92866,8.34138 5.18129,7.53471 14.46215,10.48218 l 3.8907,15.81157 c -12.84894,-9.23149 -25.37526,-15.51176 -30.2719,-30.59258 z"
         fill="#475459"
         id="path368"
         style="stroke-width:1" />
      <path
         d="m 402.24713,777.19664 c 13.66507,-22.34228 33.15666,-21.39529 58.68377,-25.52322 18.0682,-2.92285 41.18488,12.76925 53.33158,26.27107 -27.89944,1.70248 -49.23202,-35.75301 -74.83506,0.0777 -1.67022,-8.58237 -0.0389,-6.99767 -5.25722,-12.14294 -10.09698,-1.58289 -18.52374,4.01793 -22.56629,13.12413 l -4.00459,-1.80302 -2.56214,4.03503 z"
         fill="#475459"
         id="path369"
         style="stroke-width:1" />
      <path
         d="m 411.60391,779.00355 c 4.04255,-9.1062 12.46931,-14.70702 22.56629,-13.12413 5.21926,5.14527 3.58713,3.56044 5.25722,12.14294 -2.78991,8.75326 -2.08767,11.88484 -1.80302,21.32131 -8.8253,-6.98057 -11.29261,-6.44909 -21.67424,-2.7197 -3.8907,-4.76565 -3.64401,-11.1541 -4.34625,-17.62029 z"
         fill="#5f747f"
         id="path370"
         style="stroke-width:1" />
      <path
         d="m 473.8178,882.20293 c 14.72789,-1.89411 46.59395,3.13922 59.40493,11.91141 l 0.47421,2.70453 c -12.39339,4.34055 -47.50493,-7.19318 -59.40493,-13.42965 z"
         fill="#d2e5ed"
         id="path371"
         style="stroke-width:1" />
      <path
         d="m 555.56125,814.06002 c 8.67346,3.75025 14.0066,6.87432 23.34446,2.99683 l 2.23953,0.22584 c -2.18265,9.65659 -3.66293,6.04108 -9.66048,15.17954 4.72588,2.24329 9.3757,3.74274 12.43135,7.77959 l -2.22061,2.11243 c -13.51322,1.67397 -32.11289,-13.26264 -26.13438,-28.29423 z"
         fill="#475459"
         id="path372"
         style="stroke-width:1" />
      <path
         d="m 582.28398,808.71172 c 9.39475,0.96979 21.46552,2.60205 30.63249,1.8941 5.65576,1.66634 6.68074,1.19187 9.73627,5.77535 -4.97257,12.88496 -31.20179,4.61381 -41.5075,0.90152 l -2.23953,-0.22584 z"
         fill="#d2e5ed"
         id="path373"
         style="stroke-width:1" />
      <path
         d="m 592.11523,794.57788 2.50526,-0.7402 c 9.73628,4.97827 13.66507,5.87602 24.06562,8.73422 -1.72709,2.20727 -4.70682,5.67287 -5.76964,8.03392 -9.16697,0.70795 -21.23774,-0.92431 -30.63249,-1.8941 1.89787,-4.03115 5.67481,-10.05902 8.04714,-14.10157 z"
         fill="#5f747f"
         id="path374"
         style="stroke-width:1" />
      <path
         d="m 415.95016,796.62384 c 10.38163,-3.72939 12.84894,-4.26086 21.67424,2.7197 2.23953,8.8253 2.50527,8.62979 -0.43663,15.07136 -12.77302,3.38967 -17.51781,-7.88013 -21.23774,-17.79106 z"
         fill="#878aa0"
         id="path375"
         style="stroke-width:1" />
      <path
         d="m 547.09653,810.31547 c -11.02687,-1.97003 -34.52319,-3.90405 -41.05208,-12.33651 10.13494,-4.41272 23.45835,0.56555 34.44725,3.38397 z"
         fill="#d2e5ed"
         id="path376"
         style="stroke-width:1" />
      <path
         d="m 594.62049,793.83768 c 7.66765,-2.4331 15.79071,-3.73885 23.2495,0.0168 2.22061,5.50586 1.87894,2.7083 0.81625,8.71712 -10.40055,-2.85833 -14.32934,-3.75595 -24.06562,-8.73422 z"
         fill="#d2e5ed"
         id="path377"
         style="stroke-width:1" />
      <path
         d="m 462.86673,815.22908 c 13.43729,-0.95087 20.6683,-1.22607 29.87323,9.58067 3.92866,14.79241 -2.92285,17.5064 -14.70884,24.43579 -29.28488,2.01369 -46.66988,-18.31308 -15.16439,-34.01646 z"
         fill="#878aa0"
         id="path378"
         style="stroke-width:1" />
      <path
         d="m 539.22015,892.94709 c 20.32677,3.37451 45.81579,6.85721 65.49733,13.33104 4.68791,1.54494 4.15643,3.37258 5.88353,8.07759 -11.93797,-0.54663 -62.65039,-9.95265 -71.22901,-15.97482 z"
         fill="#d2e5ed"
         id="path379"
         style="stroke-width:1" />
      <path
         d="m 516.99552,919.18965 c 13.72195,2.31545 30.84121,4.60629 43.72811,10.03052 5.31423,2.24147 4.17548,2.8981 6.05443,8.60517 -13.38028,-2.02134 -38.58478,-4.65565 -48.79552,-11.93602 z"
         fill="#d2e5ed"
         id="path380"
         style="stroke-width:1" />
      <path
         d="m 458.44468,786.2365 c 5.46608,-3.24171 12.50728,-1.50696 15.82867,3.89641 3.32139,5.40337 1.70818,12.47695 -3.64401,15.88554 -3.53012,2.25288 -8.00917,2.42559 -11.71019,0.45167 -3.70089,-1.97379 -6.05443,-5.7887 -6.14928,-9.98115 -0.0907,-4.19246 2.06877,-8.11167 5.67481,-10.25259 z"
         fill="#878aa0"
         id="path381"
         style="stroke-width:1" />
      <path
         d="m 404.35385,822.45647 c 15.50605,-0.64342 25.39418,0.41188 26.47604,17.49124 -15.27827,-0.1192 -23.79988,-0.38144 -26.47604,-17.49124 z"
         fill="#878aa0"
         id="path382"
         style="stroke-width:1" />
      <path
         d="m 256.98028,682.12784 c 117.19664,14.35397 234.7159,41.23231 351.36216,60.53798 3.26438,0.53899 6.03539,2.5887 8.54065,4.59294 l -4.27032,3.42388 C 559.05341,738.29871 286.91051,699.13128 256.98028,682.12784 Z"
         fill="#fcfdfd"
         id="path383"
         style="stroke-width:1" />
      <path
         d="m 634.34402,1008.4432 c -4.63091,-2.0061 -2.52418,-0.7502 -6.35801,-3.7066 l 1.84099,-0.1036 c -9.16697,-17.55387 -28.44983,-9.12141 -38.69866,-16.98651 9.37569,-4.052 33.59316,-2.25857 41.944,3.4599 l 0.43663,6.97862 c 5.54188,2.87529 7.55376,2.91719 10.7233,7.61059 -2.3345,0.9277 -9.29977,2.4009 -9.88812,2.7425 z"
         fill="#fcfdfd"
         id="path384"
         style="stroke-width:1" />
      <path
         d="m 601.54793,777.92544 c -6.68061,-5.54757 -30.57547,-3.97608 -44.60111,-12.11249 l -0.28505,-2.53377 c 10.09699,-1.23928 35.05466,4.31969 45.91076,6.37135 8.86327,4.34819 8.74938,2.55074 12.92487,9.59583 l -1.84099,2.07821 c -6.18685,-0.1727 -6.60443,-0.82753 -12.10835,-3.39913 z"
         fill="#fcfdfd"
         id="path385"
         style="stroke-width:1" />
      <path
         d="m 500.61646,920.61305 2.12564,6.43393 c -12.20358,2.8696 -36.76271,-3.13728 -47.69474,-9.55411 2.42934,-2.00994 37.46495,1.41964 44.99966,1.81443 z"
         fill="#fcfdfd"
         id="path386"
         style="stroke-width:1" />
      <path
         d="m 470.15475,879.99955 c 0.55065,5.05419 0.98728,2.66087 -1.30952,7.17789 -8.84435,2.02134 -23.59115,-2.20921 -29.00022,-9.88061 4.8018,-2.38568 14.95566,-1.76701 20.76327,-1.83904 z"
         fill="#fcfdfd"
         id="path387"
         style="stroke-width:1" />
      <path
         d="m 484.99652,903.60392 c -10.17291,6.01828 -29.30392,0.68138 -38.62274,-6.3352 l 0.6258,-1.89787 c 13.0197,2.05361 22.20572,3.25869 35.33931,4.13934 z"
         fill="#fcfdfd"
         id="path388"
         style="stroke-width:1" />
      <path
         d="m 590.33112,794.61015 c -8.78734,-1.01346 -22.18667,-1.47095 -28.0702,-7.76819 7.49674,-6.00507 23.78096,-0.79902 30.17693,4.93655 l -0.32262,2.79937 z"
         fill="#fcfdfd"
         id="path389"
         style="stroke-width:1" />
      <path
         d="m 525.34636,783.84694 c 7.28802,-7.10015 16.28422,-7.50633 23.28745,0.18036 -4.53606,3.18094 -12.12778,3.38967 -18.20113,4.23806 z"
         fill="#fcfdfd"
         id="path390"
         style="stroke-width:1" />
      <path
         d="m 251.62808,708.28127 c 15.63886,-0.34736 56.19743,3.70853 67.8317,14.34256 13.7599,12.5718 19.16897,56.80482 20.70626,75.57526 -18.6756,0.2923 -61.09406,-3.08416 -71.55163,-18.18584 -10.13494,-14.66142 -14.89865,-53.71872 -16.98646,-71.73198 z"
         fill="#e4b887"
         id="path391"
         style="stroke-width:1" />
      <path
         d="m 339.63469,723.2482 c 4.09956,3.1448 5.95947,3.79586 7.23114,9.45357 17.10022,76.714 34.80784,154.43576 50.31389,231.42302 l -4.15644,-2.03456 c -4.9346,-6.6503 -52.55341,-221.81385 -53.38859,-238.84203 z"
         fill="#fcfdfd"
         id="path392"
         style="stroke-width:1" />
      <path
         d="m 280.70423,820.99886 c 10.03998,-0.73256 53.74917,5.85892 61.72038,12.52632 l 0.36019,5.70332 c -17.0813,-2.04596 -39.59059,-5.26487 -55.79888,-10.74792 -5.18129,-1.75366 -4.36517,-2.70648 -6.28208,-7.48159 z"
         fill="#bebfd3"
         id="path393"
         style="stroke-width:1" />
      <path
         d="m 290.7823,874.06095 c 12.64021,-0.46877 41.22284,4.9517 53.99586,8.81209 6.7945,2.0536 6.77559,3.79015 8.90123,8.76842 -13.5701,1.2906 -54.2616,-5.49834 -62.89709,-17.58038 z"
         fill="#bebfd3"
         id="path394"
         style="stroke-width:1" />
      <path
         d="m 286.17031,847.48618 c 16.75869,1.63407 40.44468,4.22472 56.63393,9.59025 4.68791,1.55815 4.6309,4.32151 6.58578,9.0019 -13.60806,-1.40824 -32.64424,-4.88148 -45.94873,-7.95799 -11.00795,-2.55269 -12.52632,-2.7482 -17.27111,-10.63403 z"
         fill="#bebfd3"
         id="path395"
         style="stroke-width:1" />
      <path
         d="m 252.67199,654.80548 c 7.74357,0.2638 9.73627,0.81238 14.40527,6.5061 0.96785,6.44338 0.2086,6.6674 -2.67603,12.43524 -6.11131,-1.86561 -6.37705,-2.59441 -11.27369,-6.53072 -2.90381,-7.88401 -2.60011,-3.90028 -0.45607,-12.41049 z"
         fill="#f4dc88"
         id="path396"
         style="stroke-width:1" />
      <path
         d="m 281.42552,660.87313 c 3.43528,-1.99283 7.81949,-1.09508 10.21087,2.08962 2.37246,3.18665 1.99284,7.6486 -0.89141,10.38164 -2.20156,2.07446 -5.39015,2.70648 -8.19898,1.62461 -2.82789,-1.08186 -4.76384,-3.68573 -5.01053,-6.69396 -0.22804,-3.01005 1.27103,-5.8873 3.8907,-7.40191 z"
         fill="#64b3ac"
         id="path397"
         style="stroke-width:1" />
      <path
         d="m 457.64747,952.38816 c 9.56551,0.57527 24.50212,0.16844 31.31568,6.15498 l -1.70819,3.34031 c -8.19898,-1.50503 -26.0775,-3.57003 -32.28365,-7.44557 z"
         fill="#fcfdfd"
         id="path398"
         style="stroke-width:1" />
      <path
         d="m 231.90871,653.50154 c 3.3214,-2.25092 7.8195,-1.50321 10.22979,1.69678 2.41042,3.20181 1.87895,7.73023 -1.19588,10.29237 -2.12564,1.77271 -5.06741,2.23007 -7.62968,1.18811 -2.56215,-1.0439 -4.36517,-3.41623 -4.64995,-6.17208 -0.28504,-2.75584 0.96785,-5.44897 3.24547,-7.00518 z"
         fill="#b57480"
         id="path399"
         style="stroke-width:1" />
      <path
         d="m 460.81701,935.09425 c 11.17872,-0.24294 24.19856,0.59029 32.34054,8.62979 -11.23573,0.18787 -23.2495,-1.7499 -32.34054,-8.62979 z"
         fill="#fcfdfd"
         id="path400"
         style="stroke-width:1" />
      <path
         d="m 433.24019,928.93357 2.06876,-0.92431 c 7.74357,1.78967 9.18588,2.56784 16.4739,6.05054 -6.77559,0.7231 -12.62116,1.68162 -18.46674,-1.7613 z"
         fill="#fcfdfd"
         id="path401"
         style="stroke-width:1" />
      <path
         d="m 1138.3749,1208.9321 c 0.2851,3.31 -0.513,6.6598 2.2016,8.8975 3.7768,3.1296 7.4019,3.9857 12.1656,3.1715 21.2188,-3.6155 41.7923,-22.8036 53.3316,-40.0708 21.2757,-31.8566 25.546,-68.327 18.0113,-105.4333 -5.9215,-29.1824 -19.3208,-55.8843 -33.8968,-81.60121 -42.3237,-74.68515 -77.0937,-128.56336 -70.1472,-218.67851 2.733,-35.38297 11.9949,-71.68637 31.8281,-101.53693 15.7907,-23.77526 43.5194,-49.7692 72.178,-55.20677 13.9117,-2.63626 28.7914,-2.40848 40.7672,5.85697 9.148,6.30294 17.5938,16.69598 19.0362,28.00958 1.7271,13.64226 -5.5989,25.95026 -14.0066,36.01304 -11.1218,13.312 -25.3373,23.80377 -36.8956,36.67733 -20.8392,23.21723 -28.26,59.02919 -26.3622,89.45657 7.1742,114.21316 123.8774,169.06492 103.2849,327.24533 -5.0105,38.526 -18.9032,73.981 -44.734,103.3305 -24.1036,27.3927 -55.818,45.776 -91.2142,54.3318 -24.578,2.8071 -35.8517,3.9155 -60.1451,1.3703 -13.8169,23.2591 -21.6553,32.6006 -42.3427,50.6176 -4.2134,42.4831 -41.2987,47.488 -77.09359,61.5306 -42.2477,16.5803 -166.21993,60.8417 -198.59843,12.103 6.92744,2.7728 10.98891,6.1247 17.13818,10.4328 l 1.00542,-2.2377 -5.94054,-6.024 c 5.6178,-12.8944 3.05565,-33.1452 15.44904,-43.5497 3.71994,-3.1201 9.56551,-3.8261 13.09563,-0.052 -12.5832,13.7847 -32.03696,50.1886 0.37963,52.3333 17.44188,-8.6146 6.33908,-45.8405 31.60033,-43.6882 -0.87327,13.0179 -23.47727,30.2528 -12.50728,42.8399 20.82015,6.8439 68.81859,-9.2979 89.10739,-16.4664 10.70426,-3.7825 53.67325,-16.6334 59.44292,-22.6422 l -1.3855,-3.9989 c 6.396,-3.9591 24.8438,-4.1127 35.1686,-8.6868 24.7489,-10.9566 18.6186,-30.995 28.7345,-53.5574 4.5929,0.7515 3.7768,0.6699 8.2939,0.5999 24.9577,-22.3253 38.8126,-54.9544 45.7019,-86.9609 1.6702,-7.7967 5.0295,-24.6217 8.4268,-30.8526 2.733,3.7579 0.9873,2.6021 5.0294,3.8016 1.0443,-4.3557 0.7023,-3.8414 3.8907,-7.3697 z"
         fill="url(#color-17)"
         id="path402"
         style="fill:url(#color-17);stroke-width:1" />
      <path
         d="m 906.96138,693.56284 c 5.08645,2.98543 10.21087,6.15692 15.54401,8.65648 -78.66887,61.20796 -176.82935,75.36265 -270.05522,39.36295 -6.73762,-3.09738 -6.54781,-3.33461 -11.50146,-8.40396 -3.56808,-3.10684 -2.54323,-1.22413 -3.41623,-5.43369 4.74479,-3.17706 8.27491,-5.8115 12.77301,-9.33022 92.4477,41.12036 172.23641,21.44271 256.65589,-24.85143 z"
         fill="#7644b8"
         id="path403"
         style="stroke-width:1" />
      <path
         d="m 690.31366,955.6392 c 16.96742,-1.54674 37.52196,-11.37993 50.78836,-12.26434 l 1.19588,2.05542 c -3.37827,3.22266 -6.18723,5.49445 -8.65454,9.49722 21.12385,23.83785 86.92475,66.6587 120.99251,68.6535 18.54266,1.1959 36.76271,-5.1376 50.57962,-17.5652 31.77123,-28.63019 31.06899,-72.33744 50.67447,-107.23636 -4.66887,44.51198 -9.10996,87.09189 -46.63192,116.98796 -73.12687,58.2832 -133.55679,-25.80416 -186.86932,-54.36218 -10.91311,0.51567 -24.80582,0.77998 -35.2823,2.36288 -6.26316,-5.0656 -4.04255,-1.83723 -5.82666,-10.68715 z"
         fill="#1e1a28"
         id="path404"
         style="stroke-width:1" />
      <path
         d="m 818.87884,889.21394 c 10.24884,-22.59662 13.17156,-46.25994 23.85689,-66.61132 -4.17548,28.44218 -5.80761,43.62186 -16.92945,70.42804 5.50391,3.10307 11.7102,5.3654 13.93081,10.75556 l -1.99284,2.2035 c -6.60482,-0.8616 -24.61601,-9.1404 -31.61937,-12.52813 C 766.19262,874.15398 703.63707,844.5939 659.83303,869.32756 l -1.91691,-6.6503 c 7.06025,-5.09786 7.42083,-5.17754 15.98052,-7.36589 60.69553,-15.24407 95.29463,16.70168 144.9822,33.90257 z"
         fill="#1e1a28"
         id="path405"
         style="stroke-width:1" />
      <path
         d="m 634.81848,1058.0436 c 4.44109,40.2587 0.56879,80.3314 14.87974,118.6808 2.67603,7.1533 8.78734,18.1972 8.42676,24.9008 l -2.23952,-0.065 c -2.61916,-4.5532 -5.0485,-13.3974 -7.53471,-19.8238 -11.29261,-29.2906 -14.34827,-72.4665 -14.89866,-103.2906 -10.24883,3.0272 -22.49037,4.8587 -26.58993,15.4016 -4.83976,12.3954 -1.53728,23.9632 -21.65532,17.0396 10.57145,-26.9637 26.30514,-38.6379 49.61164,-52.8495 z"
         fill="#2d2b31"
         id="path406"
         style="stroke-width:1" />
      <path
         d="m 683.67101,910.0968 c 7.13617,-3.51872 4.08051,-3.72564 10.03997,-2.47301 -1.11944,5.89689 -4.89664,9.35108 -8.80639,14.12243 -7.04132,12.96464 -5.6748,16.34305 -3.62509,31.33473 1.78411,8.85005 -0.43663,5.62168 5.82666,10.68715 6.9654,4.75619 16.98646,28.37585 15.69586,36.9449 l -2.27749,0.7605 c 1.61322,-7.27284 -8.97715,-31.25489 -15.71478,-34.68266 l -2.1636,1.64547 c -1.87895,22.36509 18.23896,68.23219 1.99284,82.49699 -10.74222,2.6628 -27.86148,-0.091 -38.37592,-3.6839 l -1.00542,-1.6284 c 9.05307,0.2009 35.71893,11.2718 39.30593,-0.25 9.129,-29.3077 -8.61658,-90.7586 -14.99362,-120.36246 5.54187,-2.86585 9.94513,-9.68134 14.10157,-14.912 z"
         fill="#2d2b31"
         id="path407"
         style="stroke-width:1" />
      <path
         d="m 684.90459,921.74622 c 6.54782,7.33933 6.14928,24.18146 5.40907,33.89311 l -9.03416,-2.55838 c -2.04971,-14.99168 -3.41623,-18.36996 3.62509,-31.33473 z"
         fill="#475459"
         id="path408"
         style="stroke-width:1" />
      <path
         d="m 849.32151,195.27695 c 17.21411,-26.55003 56.93763,-78.04632 83.77425,-92.23703 41.26081,55.28075 64.79508,148.63385 70.37494,217.5132 3.3023,40.72934 -6.47191,53.60872 13.2665,96.53962 10.6474,23.15659 10.9131,74.58448 6.8515,99.49097 -7.9902,51.22486 -29.56964,91.02236 -66.65497,126.57805 5.20034,3.31375 10.47648,5.91398 14.13954,10.58285 -8.65454,-2.19405 -9.9831,-2.62097 -17.55577,-7.28608 l -3.03661,1.97949 c -8.93919,9.2828 -12.33651,9.74587 -10.60941,22.80159 l -3.66293,-0.67568 c 0.28504,15.82102 -0.72167,21.41991 -13.70303,31.65539 -5.33314,-2.49956 -10.45756,-5.67105 -15.54401,-8.65648 -84.41948,46.29414 -164.20819,65.97179 -256.65589,24.85143 -10.17291,-6.18153 -11.59631,-8.15532 -22.88891,-6.58772 -1.99284,-4.8018 -3.51121,-9.0834 -5.20034,-13.95736 l -0.89141,-0.42135 c -3.96663,-2.84693 -28.6206,-15.65026 -33.97279,-18.56171 -38.14827,-20.71961 -55.51423,-37.32826 -81.95231,-70.23071 -8.76842,5.59318 -24.7869,12.49782 -34.82688,18.55212 -12.73505,7.6885 -26.13438,15.83631 -39.17313,22.87375 19.81434,-26.38677 42.01993,-34.98054 71.87424,-46.33391 -4.53606,-6.92369 -9.48958,-18.10046 -13.20951,-25.84209 -6.9084,2.19587 -27.5009,3.45615 -39.13517,6.67311 -11.72911,3.24547 -30.17693,10.53919 -40.52061,9.68509 l 0.34205,-2.25287 c 22.66114,-13.48665 51.24391,-17.86517 76.94178,-21.93622 -2.71399,-8.13071 -4.72587,-16.13043 -6.90839,-24.40728 -11.69115,-11.65319 -70.50772,0.66052 -82.67347,-7.30318 7.74357,-10.70425 67.92667,0.27714 79.50393,-4.59488 l 1.4234,-7.71312 c -7.00337,-54.81199 9.96404,-117.67306 32.5683,-167.03983 -15.6579,-53.27846 -27.34905,-153.81709 -17.25206,-207.60033 1.8599,-11.28121 2.88488,-23.95368 10.70425,-32.33108 26.09642,-6.78323 145.43775,93.38148 165.72655,116.28943 57.12744,-11.80892 94.91501,-12.60224 151.90964,0.14421 7.02229,-12.07453 18.35285,-29.57342 26.6279,-40.24165 z"
         fill="#383837"
         id="path527"
         style="stroke-width:1" />
      <path
         d="m 494.3533,151.4159 2.44825,3.64596 c 0.68281,-4.02364 1.55634,-7.9295 2.65712,-11.86205 7.43987,-1.7727 4.27032,-2.32685 10.24883,-0.3265 3.24547,5.05031 2.58119,9.7136 2.71399,15.87039 l 1.29047,0.56555 1.23346,-6.22714 2.71399,-0.89581 c 23.81893,19.81239 63.56137,72.176 73.92409,100.99599 -8.52161,-2.43128 -17.23315,-5.76783 -25.83068,-5.10731 l -1.63226,2.23577 c 5.01053,9.56745 11.69115,12.94378 18.63763,21.85265 -11.10279,1.92832 -21.90202,3.60799 -32.79608,6.55352 6.03539,1.76312 16.58779,4.47154 22.11075,6.51931 -9.03417,10.51638 -56.48208,64.516 -60.46775,73.77975 C 495.9472,305.73752 484.25606,205.19889 494.35304,151.41565 Z"
         fill="url(#color-22)"
         id="path528"
         style="fill:url(#color-22);stroke-width:1" />
      <path
         d="m 898.212,680.67218 c 4.85868,3.32515 9.18588,6.26122 14.21546,9.30547 l -0.36019,2.22062 -5.10537,1.36457 c -84.41948,46.29414 -164.20819,65.97179 -256.65589,24.85143 -10.17291,-6.18153 -11.59631,-8.15532 -22.88891,-6.58772 -1.99284,-4.8018 -3.51121,-9.0834 -5.20035,-13.95736 7.49675,1.05711 22.79407,4.40701 30.53751,6.74332 64.41546,19.4044 187.43876,12.18842 245.45813,-23.94033 z"
         fill="#5d2e9c"
         id="path529"
         style="stroke-width:1" />
      <path
         d="m 947.31122,644.76732 c -23.23058,-11.42735 -58.81658,-29.54685 -83.7933,-33.62167 -16.7776,-2.73485 -35.83269,-2.96651 -54.10974,-6.13217 l -0.013,-2.56214 c 23.4393,-9.65659 95.37055,12.01959 118.37335,23.72396 9.2429,4.71058 19.43472,13.36331 29.17099,16.98646 5.20034,3.31375 10.47648,5.91398 14.13954,10.58285 -8.65454,-2.19405 -9.9831,-2.62097 -17.55577,-7.28608 l -3.03661,1.97949 z"
         fill="#604978"
         id="path530"
         style="stroke-width:1" />
      <path
         d="m 479.03706,526.05607 c 1.87895,11.15034 -0.58823,9.96599 10.76126,12.8983 22.77502,5.88923 39.76148,12.29854 56.99464,28.45177 -17.19519,-4.49615 -55.76092,-24.98229 -66.00976,-21.73876 -11.69114,-11.65319 -70.50772,0.66052 -82.67346,-7.30318 7.74357,-10.70425 67.92666,0.27714 79.50392,-4.59488 z"
         fill="#604978"
         id="path531"
         style="stroke-width:1" />
      <path
         d="m 487.6916,570.07466 c 10.64737,-2.38373 41.01411,2.82982 49.42183,9.4042 l 0.19046,2.39332 c -16.18925,1.69484 -36.53493,-10.7233 -47.23931,-3.96663 -6.9084,2.19587 -27.5009,3.45614 -39.13517,6.67311 -11.72911,3.24547 -30.17693,10.53918 -40.52061,9.68509 l 0.34205,-2.25287 c 22.66114,-13.48665 51.24391,-17.86517 76.94178,-21.93622 z"
         fill="#604978"
         id="path532"
         style="stroke-width:1" />
      <path
         d="m 904.93058,677.40586 c 8.92028,3.08027 15.08847,-13.03681 27.95632,-12.61922 l 3.32139,5.77729 c 0.28505,15.82102 -0.72167,21.41991 -13.70303,31.65539 -5.33314,-2.49956 -10.45756,-5.67105 -15.54401,-8.65648 l 5.10537,-1.36457 0.36019,-2.22062 c -5.02945,-3.04425 -9.35678,-5.98032 -14.21546,-9.30547 l -0.77868,-2.70453 z"
         fill="#5d2e9c"
         id="path533"
         style="stroke-width:1" />
      <path
         d="m 503.27357,603.74751 c 14.78477,-6.68062 17.68858,-7.57838 33.80203,-6.56868 l 0.55065,1.55245 c -13.98769,6.86097 -21.80718,5.16238 -32.22665,9.92427 -8.76842,5.59318 -24.7869,12.49782 -34.82688,18.55212 -12.73505,7.6885 -26.13438,15.83631 -39.17313,22.87375 19.81434,-26.38677 42.01993,-34.98054 71.87424,-46.33391 z"
         fill="#604978"
         id="path534"
         style="stroke-width:1" />
      <path
         d="m 849.32151,195.27695 c 7.23114,19.46322 -12.03281,37.55227 -22.35757,52.09229 -3.54916,4.99913 -11.76707,18.37941 -15.94255,21.20742 l -1.5943,-2.32309 c 3.11254,-12.62311 9.92609,-18.797 13.26653,-30.73497 7.02228,-12.07453 18.35285,-29.57342 26.62789,-40.24165 z"
         fill="url(#color-23)"
         id="path535"
         style="fill:url(#color-23);stroke-width:1" />
      <path
         d="m 897.43383,677.96765 c -13.87379,-9.24859 -28.84837,-23.09959 -43.76607,-31.48087 -14.70884,-8.26351 -30.78433,-12.48447 -45.3224,-21.51099 l 0.39906,-2.3231 c 19.43471,-3.2018 72.36775,34.35617 88.32922,46.2979 l 7.85746,8.45527 z"
         fill="#604978"
         id="path536"
         style="stroke-width:1" />
      <path
         d="m 947.31122,644.76732 3.16954,3.67057 c -8.93919,9.2828 -12.33651,9.74587 -10.60941,22.80159 l -3.66293,-0.67568 -3.32139,-5.77729 c -12.86785,-0.41759 -19.03617,15.69962 -27.95632,12.61922 l -7.85746,-8.45527 c 15.96148,-6.24412 31.42957,-18.49149 50.23797,-24.18327 z"
         fill="#22182c"
         id="path537"
         style="stroke-width:1" />
      <path
         d="m 925.29531,142.88471 3.53012,-2.31169 c 8.36989,17.01678 14.72789,34.95398 18.94121,53.44547 6.47189,29.09519 16.03739,136.08097 3.56808,162.55882 l -3.2075,-0.18605 c -1.0443,-3.71229 -1.30952,-3.98373 -1.63226,-7.77959 -14.1775,-18.13648 -30.76529,-31.63648 -49.93426,-44.05267 4.53606,-4.28924 9.05308,-7.20833 9.90717,-13.02735 l -2.92286,-2.85833 c -9.81219,-1.74795 -18.39081,-0.21261 -28.35499,0.79333 6.75655,-9.4156 13.41825,-18.91659 19.94715,-28.50114 -15.61994,3.64025 -28.46888,8.12876 -43.57626,13.26264 11.97593,-40.72376 43.76607,-100.52529 70.81142,-132.90949 z"
         fill="#574b54"
         id="path538"
         style="stroke-width:1" />
      <path
         d="m 925.29531,142.88471 3.53012,-2.31169 c 8.36989,17.01678 14.72789,34.95398 18.94121,53.44547 6.47189,29.09519 16.03739,136.08097 3.56808,162.55882 l -3.2075,-0.18605 c -1.0443,-3.71229 -1.30952,-3.98373 -1.63226,-7.77959 6.45297,-82.09081 1.21402,-127.01455 -21.19978,-205.72709 z"
         fill="#1e1a28"
         id="path539"
         style="stroke-width:1" />
      <path
         d="m 758.52498,478.49996 c 35.2823,-32.27419 102.81042,-25.23286 97.07874,31.0879 -15.18331,32.22289 -25.69788,43.64455 -61.79631,52.06574 -15.16439,4.87578 -31.75218,-0.65482 -46.10057,-5.5021 -25.7738,-9.29601 -17.91634,-20.46527 -10.95094,-41.84346 2.61915,-8.44957 2.99877,-11.35337 7.91433,-18.44964 3.68197,-6.68061 8.74938,-11.65707 13.85488,-17.35844 z"
         fill="#204d91"
         id="path540"
         style="stroke-width:1" />
      <path
         d="m 758.52498,478.49996 c 35.2823,-32.27419 102.81042,-25.23286 97.07874,31.0879 -15.18331,32.22289 -25.69788,43.64455 -61.79631,52.06574 3.71994,-13.89284 15.94256,-13.3063 14.97458,-42.2306 1.76506,-5.38446 1.74614,-4.97827 0.77868,-10.56005 -4.21344,-7.02422 -7.0982,-7.96176 -14.32934,-12.4732 l 0.64523,-1.42534 c -7.83841,-8.33374 -13.43729,-9.91663 -24.57805,-11.94743 l 0.47421,-3.82812 z"
         fill="#c9cce5"
         id="path541"
         style="stroke-width:1" />
      <path
         d="m 758.52498,478.49996 c 35.2823,-32.27419 102.81042,-25.23286 97.07874,31.0879 -8.84435,-43.26504 -50.76944,-38.40247 -83.83113,-30.399 z"
         fill="#9c7cc0"
         id="path542"
         style="stroke-width:1" />
      <path
         d="m 808.78199,519.42287 -2.97973,0.79332 c -10.40055,2.83928 -13.62711,3.29665 -22.50929,-3.64776 -3.07457,-6.41502 -2.6001,-3.10308 -1.11944,-10.32087 4.63091,-6.23466 5.80761,-6.32004 13.05767,-9.85781 7.23114,4.51132 10.1159,5.44898 14.32934,12.4732 0.96785,5.58178 0.98729,5.17559 -0.77868,10.56005 z"
         fill="#fcfdfd"
         id="path543"
         style="stroke-width:1" />
      <path
         d="m 736.75577,514.30804 c 0.87326,11.41219 1.32856,18.31877 5.6178,29.07809 1.44244,3.64207 4.76383,9.8236 5.33314,12.76537 -25.7738,-9.29601 -17.91634,-20.46527 -10.95094,-41.84346 z"
         fill="#fcfdfd"
         id="path544"
         style="stroke-width:1" />
      <path
         d="m 758.52498,478.49996 13.24748,0.6889 -0.47421,3.82812 c -13.17155,4.03685 -15.44904,5.06171 -26.62789,12.84129 3.68197,-6.68061 8.74938,-11.65707 13.85488,-17.35844 z"
         fill="#9fa3be"
         id="path545"
         style="stroke-width:1" />
      <path
         d="m 528.9524,492.95641 c -11.74815,-51.13766 41.10896,-74.25046 70.48881,-25.54408 l 4.46014,6.94454 -1.11944,3.10308 -1.51837,5.57802 c 8.92027,7.20069 7.99026,8.45902 12.8869,18.09294 2.86584,15.44529 2.10672,24.07702 1.53729,39.91139 -22.35757,5.14334 -33.02386,8.28826 -54.52734,-1.51266 -18.04928,-9.0834 -26.79866,-28.25057 -32.20773,-46.5731 z"
         fill="#204d91"
         id="path546"
         style="stroke-width:1" />
      <path
         d="m 528.9524,492.95641 c -11.74815,-51.13766 41.10896,-74.25046 70.48881,-25.54408 l 4.46014,6.94454 -1.11944,3.10308 c -34.48522,-20.09524 -56.7289,8.125 -49.34591,42.77529 1.34747,6.37316 6.87043,11.69685 7.72452,19.29427 -18.04928,-9.0834 -26.79866,-28.25057 -32.20773,-46.5731 z"
         fill="#c9cce5"
         id="path547"
         style="stroke-width:1" />
      <path
         d="m 528.9524,492.95641 c -11.74815,-51.13766 41.10896,-74.25046 70.48881,-25.54408 -18.65655,-7.69796 -32.51143,-17.93151 -53.82509,-9.25429 -14.32935,5.82471 -17.27111,21.68564 -16.66372,34.79837 z"
         fill="#9c7cc0"
         id="path548"
         style="stroke-width:1" />
      <path
         d="m 601.26315,483.03784 c 8.92028,7.20069 7.99026,8.45903 12.8869,18.09294 -9.71736,7.57838 -15.06955,11.66459 -25.71679,2.7254 -3.94771,-12.74645 2.04971,-15.98052 12.82989,-20.81834 z"
         fill="#fcfdfd"
         id="path549"
         style="stroke-width:1" />
      <path
         d="m 653.13337,330.88151 c 1.55633,6.47953 -3.85274,17.74182 -2.82788,22.95914 8.73046,44.87825 70.07122,35.2823 65.72497,-15.24796 l -0.24618,-2.56603 1.95488,-0.17841 c 12.37447,13.23426 11.74815,26.20266 10.5524,42.72216 -8.10415,20.60003 -21.76921,35.46266 -45.2654,36.08327 -13.38028,0.46126 -26.36215,-4.6195 -35.87065,-14.03886 -22.18667,-22.0102 -15.43013,-50.20375 5.97851,-69.73344 z"
         fill="#ce99a6"
         id="path550"
         style="stroke-width:1" />
      <path
         d="m 652.14647,604.81421 4.53607,2.25288 c 0.77868,13.20951 12.79193,28.10441 24.1795,34.41875 19.52956,10.84094 32.32162,-11.03646 45.79688,-15.68447 -1.5943,23.85119 -23.42039,28.73838 -43.48142,25.72068 -12.46932,-4.98578 -23.19262,-15.47949 -30.87918,-17.98281 -17.06225,14.30849 -28.03224,14.6311 -42.5514,-3.33279 -1.00542,-6.27638 -1.8599,-3.83758 0.68281,-8.19523 11.21668,6.55921 16.0374,13.58149 29.15207,9.67563 9.43271,-8.46472 10.62833,-14.52861 12.56429,-26.87264 z"
         fill="#1e1a28"
         id="path551"
         style="stroke-width:1" />
      <path
         d="m 853.13642,572.81146 c 45.1515,-5.33509 92.39082,2.03261 132.77862,23.18121 -16.24626,-2.4217 -37.6168,-8.19148 -54.48937,-11.79558 -25.05252,-6.44909 -56.19742,-5.40907 -81.7625,-2.175 -14.38622,1.82012 -27.38701,5.49639 -42.15286,4.55886 l 0.30318,-1.8599 c 19.26395,-8.61282 24.27448,-9.07213 45.32241,-11.90946 z"
         fill="url(#color-24)"
         id="path552"
         style="fill:url(#color-24);stroke-width:1" />
      <path
         d="m 627.30269,568.02106 c 14.89865,0.0894 45.05667,-1.21662 56.36832,8.04532 1.04429,6.18348 1.49932,3.12212 -2.80897,9.21258 -5.76964,3.71423 -10.19182,2.71399 -17.17614,2.5072 -1.46136,6.13023 -1.91691,7.2577 -4.25128,12.82419 -9.41366,6.26692 -15.03158,-0.93947 -20.25084,-9.07393 -8.55957,-13.33675 -11.78612,-7.56322 -11.88096,-23.51523 z"
         fill="#d67c7b"
         id="path553"
         style="stroke-width:1" />
      <path
         d="m 794.4336,445.32801 c 49.57368,-3.39161 112.66058,24.08078 66.56014,78.63468 2.01175,-8.03574 9.01512,-15.63692 10.2868,-22.50929 4.55498,-24.62547 -17.42297,-48.46914 -40.42577,-51.11291 -42.4186,-8.49893 -73.16483,2.10283 -94.59238,42.64054 -5.86462,11.10279 -6.88948,20.66454 -11.34962,30.98541 l -2.04971,-4.83976 c 0.6828,-11.69115 10.60941,-29.01927 17.66965,-38.51831 15.48701,-20.79748 28.90538,-31.03866 53.90102,-35.28049 z"
         fill="#22182c"
         id="path554"
         style="stroke-width:1" />
      <path
         d="m 614.66248,1274.0365 c 5.75073,5.7924 11.67223,11.9873 17.70762,17.4267 -25.7168,4.5266 -47.9036,10.1823 -64.814,31.8889 -14.27234,18.3205 -10.1159,40.9191 9.96405,52.7888 35.51007,20.9871 83.86909,8.9905 121.50493,0.6361 32.35958,-8.0282 62.40371,-14.6539 92.33382,-28.8825 l 30.29081,8.1004 c -18.73247,13.6043 -45.77782,46.4629 -25.9066,69.0217 32.37849,48.7386 156.35073,4.4772 198.59856,-12.103 35.79483,-14.0428 72.88023,-19.0476 77.09363,-61.5306 20.6874,-18.017 28.5258,-27.3585 42.3427,-50.6176 24.2934,2.5452 35.5671,1.4368 60.1451,-1.3703 18.2201,18.4099 56.8617,18.8653 76.5242,46.4801 5.8267,8.2047 8.8444,19.0057 6.7945,28.9945 -3.0746,14.9309 -16.3031,25.7036 -28.5068,33.4889 -138.5863,88.3672 -503.6135,74.9698 -660.83724,40.7332 -36.57289,-7.9674 -113.41983,-27.5977 -134.29686,-62.2404 -5.12442,-8.4819 -6.54782,-18.0625 -3.64401,-27.5806 12.64021,-41.3462 102.16506,-64.2845 140.16148,-73.0795 11.82408,-2.7405 32.13181,-4.479 42.17178,-10.6226 0.81626,-0.4898 1.59429,-1.021 2.37246,-1.5316 z"
         fill="#bebfd3"
         id="path608"
         style="stroke-width:1" />
      <path
         d="m 1210.8763,28.961662 c 52.2119,-2.512908 76.4862,27.641348 86.0897,75.288668 66.5981,20.6854 56.5959,103.10077 -10.7422,106.26461 -31.8661,1.49751 -65.9339,0.27714 -98.0087,0.057 -35.3582,0.0246 -115.6214,11.36659 -131.488,-30.34588 -14.0825,-37.0208 2.8469,-61.66726 36.8766,-76.24705 2.8469,-8.848111 4.1944,-12.77496 7.9523,-19.933932 16.0185,-30.528051 41.7353,-15.162447 49.8204,-20.199537 29.3039,-18.294027 19.6055,-25.832623 59.4999,-34.883759 z"
         fill="#9fa3be"
         id="path623"
         style="stroke-width:1" />
      <path
         d="m 1214.1217,40.478286 c 49.5548,-2.708292 66.0857,32.828344 71.5328,75.134874 62.2518,3.01393 53.1987,78.43915 8.3698,82.52355 -34.9217,3.18276 -82.2938,1.26598 -118.62,1.09133 -21.9209,-0.26185 -77.4922,4.54176 -91.1951,-5.91956 -38.5657,-29.41962 -20.6683,-67.91901 19.6625,-79.32745 17.8215,-63.189388 44.1077,-29.825812 53.882,-34.483277 18.3528,-8.743678 10.932,-30.623022 56.3683,-39.019337 z"
         fill="#bebfd3"
         id="path624"
         style="stroke-width:1" />
      <path
         d="m 1139.4378,340.98031 c 9.2238,-0.32651 10.4005,-1.47277 17.0813,2.52612 1.7081,10.83719 1.1013,22.75041 0.9108,33.77352 -1.1013,62.28787 -0.1166,124.63846 -1.0249,186.91674 -5.2762,2.16361 -9.5655,2.7026 -14.614,0.0233 -4.574,-6.36371 -3.7008,-195.0323 -2.3534,-223.2392 z"
         fill="#9fa3be"
         id="path645"
         style="stroke-width:1" />
      <path
         d="m 1103.7379,372.59968 c 6.4719,-0.24099 11.6342,-1.29254 17.0622,1.82583 1.9359,17.22175 2.0688,185.2048 -1.5752,191.47937 -6.5478,0.12956 -6.5858,0.29981 -12.849,-1.33802 -4.536,-6.61804 -2.5052,-174.40195 -2.638,-191.96718 z"
         fill="#bebfd3"
         id="path654"
         style="stroke-width:1" />
      <path
         d="m 1247.1259,385.63273 c 3.0936,0.0285 16.0944,-0.22583 15.9235,3.7978 -1.1764,26.49496 6.2252,159.36467 -1.5563,176.71922 -6.6238,-0.12179 -6.6048,0.0168 -12.8679,-1.88089 -4.4031,-6.6845 -2.7899,-160.31554 -1.4993,-178.63613 z"
         fill="#bebfd3"
         id="path659"
         style="stroke-width:1" />
      <path
         d="m 270.55037,312.96322 104.97403,0.008 c 14.29138,0.004 41.83024,-0.88065 54.66013,1.33051 3.4542,5.03138 2.18265,10.1615 1.82207,16.57833 -24.12263,0.12567 -146.97503,2.03649 -162.68982,-1.35512 l -1.93582,-4.09762 c 0.53121,-7.71506 -0.77869,-7.7056 3.16954,-12.46361 z"
         fill="#9fa3be"
         id="path660"
         style="stroke-width:1" />
      <path
         d="m 267.62765,350.34654 108.18153,-0.14809 c 12.10873,-0.002 46.4421,-0.94712 56.40628,1.03626 3.37827,5.08451 2.39138,9.72682 2.20157,16.0431 -43.13976,1.22983 -86.96271,-0.62632 -130.17839,0.39102 -10.96999,0.2581 -23.09764,0.61686 -33.89687,-1.07797 -4.25128,-6.46814 -2.67603,-6.84012 -2.71399,-16.24432 z"
         fill="#9fa3be"
         id="path661"
         style="stroke-width:1" />
      <path
         d="m 267.79842,420.91698 c 18.40985,-0.44221 110.49698,-2.01564 123.26999,1.88659 2.31545,4.72769 1.08187,10.21463 0.6258,15.74328 -16.56887,0.74215 -110.47807,1.96239 -122.20718,-1.13498 -3.16954,-5.31423 -2.0308,-10.10839 -1.68913,-16.49489 z"
         fill="#9fa3be"
         id="path664"
         style="stroke-width:1" />
      <path
         d="m 315.98666,458.67992 5.76965,1.08563 c 8.93919,11.47477 0.32262,55.57875 6.9654,66.96062 12.54524,21.49014 34.39038,50.48466 48.58679,71.67692 16.51187,6.40361 15.75275,15.54777 6.09227,29.03067 -30.12005,0.32456 -14.34826,-22.94203 -17.21411,-27.61854 -15.43013,-25.34106 -35.41523,-46.29596 -50.9402,-72.37152 -0.43663,-17.80816 -1.53729,-51.6405 0.73981,-68.76365 z"
         fill="#9fa3be"
         id="path665"
         style="stroke-width:1" />
      <path
         d="m 1174.8341,454.34313 c 7.6486,-0.37574 8.1041,-0.54093 15.4681,0.86161 5.0485,7.80809 2.9228,95.2016 2.3913,110.40589 -7.0413,0.49352 -9.6414,1.30006 -16.0374,-1.78216 -3.9856,-8.20663 -1.9169,-94.39312 -1.8219,-109.48534 z"
         fill="#bebfd3"
         id="path668"
         style="stroke-width:1" />
      <path
         d="m 267.26694,385.6821 c 25.09048,-0.1367 77.71995,-1.85809 100.66574,0.70599 3.45419,5.56857 2.0308,7.76819 1.97379,15.68252 -18.63764,0.12698 -83.39463,1.68538 -100.13439,-1.14444 -3.18846,-5.41672 -2.25858,-8.30342 -2.50527,-15.24407 z"
         fill="#9fa3be"
         id="path673"
         style="stroke-width:1" />
      <path
         d="m 1068.1519,477.21883 c 6.9084,-0.22013 12.1656,-0.99065 16.6448,3.06135 1.5752,14.23827 1.4424,70.79057 0,85.23756 -6.5669,0.4365 -7.0223,0.74771 -13.6271,-0.75342 -6.6807,-8.02822 -3.2835,-73.33003 -3.0177,-87.54536 z"
         fill="#bebfd3"
         id="path674"
         style="stroke-width:1" />
      <path
         d="m 1211.5019,484.43092 c 6.6238,-0.1385 8.2181,0.057 14.8418,0.96034 5.3522,7.0811 3.0746,67.85643 2.3725,80.04679 -7.4208,0.90527 -11.2167,1.83905 -16.9106,-1.84474 -2.2585,-15.26882 -0.9678,-62.10195 -0.3031,-79.16226 z"
         fill="#bebfd3"
         id="path677"
         style="stroke-width:1" />
      <path
         d="m 1105.9774,324.97517 c 5.1813,0.14809 5.6368,0.21262 10.6663,1.4234 5.2952,7.89917 3.3023,15.70908 2.9418,26.05651 -5.9975,0.0298 -6.0165,0.36822 -11.4825,-1.7214 -3.7388,-6.00688 -2.0687,-18.20113 -2.1256,-25.75864 z"
         fill="#bebfd3"
         id="path696"
         style="stroke-width:1" />
      <path
         d="m 233.23727,351.28977 c 2.88489,-2.55074 6.94636,-3.27202 10.53349,-1.86378 3.58713,1.40823 6.09226,4.70877 6.45297,8.54065 0.37963,3.83382 -1.4234,7.55375 -4.66886,9.63003 -4.49811,2.88864 -10.47648,1.82012 -13.70303,-2.4502 -3.22643,-4.27227 -2.61916,-10.30766 1.38543,-13.8567 z"
         fill="#9fa3be"
         id="path697"
         style="stroke-width:1" />
      <path
         d="m 234.09136,421.55664 c 4.4981,-3.19235 10.70426,-2.24523 14.04456,2.13898 3.3214,4.38421 2.58119,10.62081 -1.68913,14.09211 -2.90381,2.34396 -6.83247,2.93037 -10.2868,1.52783 -3.43528,-1.40448 -5.84557,-4.57208 -6.28207,-8.26921 -0.43664,-3.69532 1.19588,-7.33363 4.21344,-9.48958 z"
         fill="#9fa3be"
         id="path698"
         style="stroke-width:1" />
      <path
         d="m 235.09717,313.27068 c 3.49216,-1.97574 7.83841,-1.70054 11.04592,0.70418 3.22642,2.40654 4.72587,6.48524 3.81477,10.4025 -0.8914,3.91726 -4.02363,6.93119 -7.97121,7.68474 -4.87759,0.93002 -9.71736,-1.80872 -11.42554,-6.47007 -1.70818,-4.66317 0.2086,-9.87672 4.53606,-12.32135 z"
         fill="#9fa3be"
         id="path700"
         style="stroke-width:1" />
      <path
         d="m 235.9133,385.11266 c 4.83977,-2.4331 10.76126,-0.5789 13.36137,4.19245 2.58119,4.77136 0.93027,10.74222 -3.73885,13.49612 -3.18846,1.86755 -7.11725,1.85614 -10.2868,-0.0285 -3.15049,-1.88464 -5.02944,-5.34454 -4.89664,-9.02276 0.13216,-3.67821 2.25858,-6.9882 5.56092,-8.63743 z"
         fill="#9fa3be"
         id="path701"
         style="stroke-width:1" />
      <path
         d="m 1179.2752,421.65524 c 14.0066,1.83528 15.1075,13.89284 9.6034,24.57999 l -8.6165,-1.22802 c -7.9144,-7.07929 -6.3012,-14.94996 -0.9873,-23.35197 z"
         fill="#bebfd3"
         id="path702"
         style="stroke-width:1" />
      <path
         d="m 1104.611,302.37091 c 6.1682,-0.55039 7.0034,-1.0496 13.0197,0.77052 3.5681,6.32393 2.1827,8.28062 2.2206,16.7662 -5.8835,0.0972 -6.3959,-0.0168 -12.2036,-1.15014 -4.1184,-5.61029 -2.6571,-7.83077 -3.0366,-16.38671 z"
         fill="#bebfd3"
         id="path706"
         style="stroke-width:1" />
      <path
         d="m 1140.1211,318.99291 12.1656,1.10272 c 4.7259,4.889 3.1695,3.88889 3.7199,12.79763 -4.2512,-0.24293 -8.218,-0.63966 -12.4504,-1.04766 -4.1564,-5.10356 -2.7899,-4.78651 -3.4352,-12.85269 z"
         fill="#9fa3be"
         id="path707"
         style="stroke-width:1" />
      <path
         d="m 1071.1127,452.01058 c 2.9038,-2.96458 7.6676,-3.0462 10.6663,-0.18217 3.0177,2.86208 3.1884,7.61063 0.3602,10.67018 -1.8599,2.02704 -4.6689,2.89059 -7.3449,2.26233 -2.6761,-0.63008 -4.8018,-2.65336 -5.561,-5.29713 -0.7786,-2.64196 -0.052,-5.4907 1.879,-7.45308 z"
         fill="#bebfd3"
         id="path708"
         style="stroke-width:1" />
      <path
         d="m 1068.949,434.47386 c 5.8076,-0.41941 6.6996,-0.65483 12.6211,0.20121 3.4353,4.90429 2.3155,3.4542 1.4614,11.27369 -3.8718,-0.07 -7.7245,-0.16895 -11.5773,-0.29606 -3.9286,-4.71628 -2.676,-3.1904 -2.5052,-11.17872 z"
         fill="#bebfd3"
         id="path709"
         style="stroke-width:1" />
      <path
         d="m 1249.3464,361.04898 c 2.5621,-2.94747 7.0034,-3.35547 10.059,-0.92807 3.0746,2.4274 3.682,6.83441 1.4045,10.0116 -1.5753,2.19586 -4.2324,3.34601 -6.9084,2.99489 -2.676,-0.35112 -4.9346,-2.1465 -5.9026,-4.67263 -0.9484,-2.52612 -0.4366,-5.3711 1.3475,-7.40566 z"
         fill="#bebfd3"
         id="path710"
         style="stroke-width:1" />
      <path
         d="m 1249.764,343.8709 c 2.4104,-2.8696 6.6617,-3.31375 9.6225,-1.00206 2.9608,2.30975 3.5681,6.54782 1.3665,9.59026 -1.4993,2.07251 -4.0046,3.16008 -6.5478,2.83552 -2.5242,-0.32261 -4.6879,-2.00605 -5.6178,-4.38797 -0.9303,-2.38192 -0.4742,-5.08075 1.1764,-7.03562 z"
         fill="#9fa3be"
         id="path711"
         style="stroke-width:1" />
    </g>
  </g>
</svg>
