<?xml version="1.0" encoding="UTF-8" standalone="no"?>
<!-- Created with Inkscape (http://www.inkscape.org/) -->

<svg
   width="116.68732mm"
   height="111.9526mm"
   viewBox="0 0 116.68732 111.9526"
   version="1.1"
   id="svg1"
   inkscape:version="1.4.3 (0d15f75, 2025-12-25)"
   sodipodi:docname="hiding.svg"
   xmlns:inkscape="http://www.inkscape.org/namespaces/inkscape"
   xmlns:sodipodi="http://sodipodi.sourceforge.net/DTD/sodipodi-0.dtd"
   xmlns="http://www.w3.org/2000/svg"
   xmlns:svg="http://www.w3.org/2000/svg">
  <sodipodi:namedview
     id="namedview1"
     pagecolor="#ffffff"
     bordercolor="#000000"
     borderopacity="0.25"
     inkscape:showpageshadow="2"
     inkscape:pageopacity="0.0"
     inkscape:pagecheckerboard="0"
     inkscape:deskcolor="#d1d1d1"
     inkscape:document-units="mm"
     inkscape:zoom="0.023162177"
     inkscape:cx="237.45609"
     inkscape:cy="172.69534"
     inkscape:window-width="944"
     inkscape:window-height="245"
     inkscape:window-x="0"
     inkscape:window-y="34"
     inkscape:window-maximized="0"
     inkscape:current-layer="layer1" />
  <defs
     id="defs1">
    <linearGradient
       x1="250.21875"
       y1="281.7627"
       x2="244.57031"
       y2="205.87061"
       gradientUnits="userSpaceOnUse"
       id="color-2"
       gradientTransform="matrix(1.3229562,0,0,1.3229562,-218.9756,-167.08519)">
      <stop
         offset="0"
         stop-color="#1d1116"
         id="stop3" />
      <stop
         offset="1"
         stop-color="#3a3c3c"
         id="stop4" />
    </linearGradient>
    <linearGradient
       x1="227.97217"
       y1="236.3833"
       x2="231.09668"
       y2="233.80664"
       gradientUnits="userSpaceOnUse"
       id="color-3"
       gradientTransform="matrix(1.3229562,0,0,1.3229562,-218.9756,-167.08519)">
      <stop
         offset="0"
         stop-color="#d2d1e4"
         id="stop5" />
      <stop
         offset="1"
         stop-color="#eeeff7"
         id="stop6" />
    </linearGradient>
  </defs>
  <g
     inkscape:label="Layer 1"
     inkscape:groupmode="layer"
     id="layer1"
     transform="translate(-50.270796,-98.160424)">
    <path
       d="m 142.36198,135.82398 c 2.22474,-7.44356 -3.13556,-12.47442 -2.05419,-20.39472 0.63757,-4.56769 3.0968,-8.68383 6.81569,-11.4105 2.44178,-1.81971 5.21107,-3.00959 8.38152,-2.63363 2.47667,0.29262 4.55606,2.74023 4.01926,5.25371 -0.67053,3.1375 -4.8138,3.83903 -7.16451,5.43588 -6.13547,4.1646 -2.04839,10.98997 -1.18795,16.55181 0.43216,2.87588 0.12595,4.90682 -0.36045,7.70519 1.71119,0.0408 3.21502,0.13759 4.92232,0.27131 l 6.81762,9.01716 c 1.21508,1.61623 3.70531,4.67622 4.40683,6.44361 -0.55811,0.92051 -9.55396,5.43781 -11.1043,6.25755 -0.0368,6.10059 -0.19185,12.61008 -0.0679,18.67966 0.21704,2.54642 0.0446,6.63932 0.0426,9.3563 9.90279,3.62198 12.87169,10.47836 1.88755,15.60804 -0.62402,-1.28097 -1.01936,-2.45923 -1.49608,-3.80027 -0.88757,2.33132 -1.23834,3.34292 -2.53869,5.43393 l -0.90501,0.50192 c -1.30422,0.24612 -4.75372,1.37786 -6.26918,1.78677 -3.39525,0.88175 -6.83118,1.59492 -10.29619,2.13365 -22.01868,3.59679 -49.097309,2.65302 -70.546253,-3.59485 -12.334886,-3.59291 -20.417963,-10.86207 -4.290558,-18.05757 -0.0013,-0.99029 0.03876,-1.80614 0.100809,-2.7848 0.112451,-1.33136 0.0013,-4.31576 -0.01746,-5.75952 l -0.193787,-11.3039 c -2.083272,-0.14147 -9.486138,-0.36046 -10.887255,-1.09299 -0.129782,-0.42828 -0.178294,-0.70928 0.08136,-1.13756 3.393303,-5.62191 6.864132,-11.4725 10.276817,-17.04404 1.461191,-2.38753 10.873694,-5.713 13.788325,-6.95133 0.385642,-2.52318 1.290663,-4.81574 2.348764,-7.11606 -1.887541,-5.98431 -4.509548,-19.41024 -1.385612,-25.29573 1.439879,-2.71697 16.14291,10.02294 17.633167,11.56166 6.393213,-2.54255 14.034443,-2.07745 20.507113,-0.0466 2.21311,-2.32163 14.07709,-13.66237 16.55181,-13.17207 1.3643,0.92439 1.86041,4.46111 2.14141,6.01533 1.39336,7.70324 1.1298,15.34642 -0.88951,22.91401 3.53091,0.30813 7.37187,0.45929 10.93183,0.66858 z"
       fill="url(#color-2)"
       id="path50"
       style="mix-blend-mode:normal;fill:url(#color-2);stroke-width:0.264583" />
    <path
       d="m 155.6387,188.39211 c -0.0136,-3.51152 -0.11431,-7.91643 0.14728,-11.39112 0.21705,2.54643 0.0446,6.63932 0.0426,9.35631 9.90279,3.62197 12.87169,10.47835 1.88754,15.60804 -0.62401,-1.28097 -1.01935,-2.45923 -1.49608,-3.80028 -0.88757,2.33133 -1.23834,3.34293 -2.53868,5.43394 l -0.90501,0.50192 c -1.30422,0.24612 -4.75373,1.37786 -6.26919,1.78677 -3.39524,0.88175 -6.83117,1.59492 -10.29618,2.13365 -22.01869,3.59679 -49.097313,2.65302 -70.546256,-3.59486 -12.334887,-3.59291 -20.417964,-10.86206 -4.290559,-18.05757 -0.0013,-0.99028 0.03876,-1.80614 0.100809,-2.78479 0.420528,4.20723 0.170543,11.24383 0.356577,15.85803 5.499833,0.74223 13.524766,1.18795 19.26297,1.70925 l 45.343539,4.03475 c 4.5677,-2.52706 9.21871,-5.3041 13.76702,-7.9106 5.05217,-2.89332 10.48416,-5.85447 15.43363,-8.88344 z"
       fill="#bfc1d3"
       id="path51"
       style="mix-blend-mode:normal;stroke-width:0.264583" />
    <path
       d="m 124.90128,153.43971 0.30813,-0.44378 c 0.2558,0.38176 0.58912,46.68847 0.51936,50.93251 -5.70718,-0.36045 -11.80776,-1.04841 -17.5479,-1.54647 l -45.202078,-4.02894 c -0.172474,-8.67609 -0.166666,-17.9975 -0.447662,-26.59026 -0.123961,-1.62591 -0.09499,-3.48051 -0.10663,-5.12775 l 31.392427,2.23056 c 6.773043,0.51549 14.024753,1.17632 20.790043,1.46507 3.22083,-4.35839 6.93196,-11.99575 10.29426,-16.89095 z"
       fill="#d3a373"
       id="path52"
       style="mix-blend-mode:normal;stroke-width:0.264583" />
    <path
       d="m 124.90128,153.43971 c -0.18023,4.61226 -5.59478,17.63317 -7.52884,22.35783 -4.23824,-0.005 -11.09268,-0.72478 -15.52471,-1.06005 l -26.14841,-1.96892 c -4.27893,-0.32364 -8.924147,-0.80231 -13.16819,-1.00578 -0.123961,-1.62592 -0.09499,-3.48051 -0.10663,-5.12775 l 31.392427,2.23055 c 6.773043,0.51549 14.024753,1.17632 20.790043,1.46507 3.22083,-4.35839 6.93196,-11.99575 10.29426,-16.89095 z"
       fill="#a87f58"
       id="path53"
       style="mix-blend-mode:normal;stroke-width:0.264583" />
    <path
       d="m 62.366409,146.97673 4.848687,0.30813 c 0.242247,8.53849 13.224389,7.75944 14.487918,0.90695 7.143183,0.12793 14.945278,0.85463 22.144656,1.26353 6.96103,0.39534 14.22436,0.7054 21.15438,1.28291 -3.01929,4.93007 -5.97462,9.96481 -8.93576,14.93558 l -2.06002,3.5057 c -5.41455,-0.53293 -11.23608,-0.83525 -16.704901,-1.24995 L 51.7776,164.62736 c 2.765415,-5.25371 7.410618,-12.37171 10.588822,-17.65062 z"
       fill="#d3a373"
       id="path54"
       style="mix-blend-mode:normal;stroke-width:0.264583" />
    <path
       d="m 126.74232,152.20719 c 2.72859,3.22083 5.16262,6.71491 7.77689,10.0462 1.02323,1.30229 2.29837,3.7867 3.81578,4.49599 0.38371,0.17829 1.36429,-0.001 1.75381,-0.19379 4.91457,-2.39528 9.63536,-5.23433 14.55187,-7.63348 0.0814,9.53071 -0.15697,19.22227 -0.1686,28.7898 -1.57359,0.9457 -3.15687,1.87784 -4.74791,2.79643 -7.66062,4.30994 -15.29023,8.67802 -22.88495,13.10618 0.21124,-17.07311 -0.49611,-34.33226 -0.0968,-51.40731 z"
       fill="#a87f58"
       id="path55"
       style="mix-blend-mode:normal;stroke-width:0.264583" />
    <path
       d="m 155.04763,137.94213 c 0.89725,0.71703 9.24971,12.10621 10.51905,13.81352 -2.51543,1.47283 -25.89649,13.75151 -26.79955,13.86391 l -0.32364,-0.28875 c -3.77313,-4.61807 -7.76914,-10.05395 -11.36398,-14.86387 8.8602,-4.4553 18.95097,-8.2478 27.96813,-12.52481 z"
       fill="#d3a373"
       id="path56"
       style="mix-blend-mode:normal;stroke-width:0.264583" />
    <path
       d="m 128.75194,110.16199 c 2.52124,2.64139 0.7151,18.40641 -0.88175,21.5846 -1.68599,-2.22086 -3.00766,-3.54834 -4.96884,-5.49014 0.87207,-0.55037 1.62592,-0.92051 2.54062,-1.3798 -1.3081,-0.64145 -2.82937,-0.62207 -4.27507,-0.68409 0.67053,-0.60463 2.03483,-1.68211 2.29257,-2.45341 l -0.27907,-0.23642 c -1.13368,0.13177 -3.50764,1.07943 -4.60063,1.50576 2.65689,-4.33902 6.39709,-9.43187 10.17216,-12.8465 z"
       fill="#584a58"
       id="path57"
       style="mix-blend-mode:normal;stroke-width:0.264583" />
    <path
       d="m 76.93766,111.15808 c 3.997934,2.1104 8.240059,7.34474 10.885323,11.0423 -2.315821,-0.89145 -3.478568,-1.35849 -5.924237,-1.66468 1.403061,1.00578 2.129774,1.59492 3.393303,2.76542 l -2.685958,0.67828 c -0.174419,0.0679 -0.329443,0.19378 -0.490301,0.30425 0.296501,0.53099 0.934073,0.7616 1.538717,1.11044 -2.242173,2.08327 -2.819683,2.96502 -4.525053,5.56571 -1.790647,-5.10642 -3.87003,-14.48016 -2.191794,-19.8017 z"
       fill="#584a58"
       id="path58"
       style="mix-blend-mode:normal;stroke-width:0.264583" />
    <path
       d="m 82.007268,142.7598 c 0.0504,-0.12594 0.100809,-0.25193 0.155037,-0.37595 1.255777,-2.88557 4.835127,-3.34874 7.457134,-2.06583 1.191824,0.59107 2.216983,1.42438 2.674329,2.72472 0.490301,1.31391 1.387556,3.04642 0.8992,4.27507 -0.629819,0.3934 -0.511613,0.26356 -1.372051,0.29263 -1.966998,-0.20154 -4.366139,-0.12979 -6.296319,-0.48643 -3.211145,-0.0659 -3.544464,-1.20151 -3.51733,-4.36421 z"
       fill="url(#color-3)"
       id="path59"
       style="mix-blend-mode:normal;fill:url(#color-3);stroke-width:0.264583" />
    <path
       d="m 92.196875,143.54661 0.09684,-0.50387 c 0.490301,1.31391 1.387556,3.04642 0.8992,4.27507 -0.629819,0.3934 -0.511613,0.26356 -1.372051,0.29263 -1.966997,-0.20154 -4.366139,-0.12979 -6.296319,-0.48643 -0.17635,-0.74997 -0.455414,-1.59297 -0.331387,-2.32938 l 0.38371,-0.21704 c 0.959276,0.0755 1.104616,0.0968 1.984435,-0.27325 0.790678,0.33139 3.426244,0.4089 4.255685,0.0426 0.317814,-0.13953 0.242247,-0.31394 0.379834,-0.80036 z"
       fill="#1f4290"
       id="path60"
       style="mix-blend-mode:normal;stroke-width:0.264583" />
    <path
       d="m 92.196875,143.54661 0.09684,-0.50387 c 0.490301,1.31391 1.387556,3.04642 0.8992,4.27507 -0.629819,0.3934 -0.511613,0.26356 -1.372051,0.29263 0.16279,-1.82747 0.598823,-1.47089 0.375958,-4.06383 z"
       fill="#e2e1e9"
       id="path61"
       style="mix-blend-mode:normal;stroke-width:0.264583" />
    <path
       d="m 89.619439,140.31802 c 1.191824,0.59107 2.216983,1.42438 2.674329,2.72472 l -0.09684,0.50387 c -0.137588,0.48642 -0.06205,0.66083 -0.379834,0.80036 -0.829428,0.36627 -3.465008,0.28875 -4.255686,-0.0426 0.604631,-1.71312 -0.166666,-1.99219 -1.474765,-2.78867 1.482518,-0.9399 1.815837,-1.04842 3.532835,-1.19764 z"
       fill="#1b2e76"
       id="path62"
       style="mix-blend-mode:normal;stroke-width:0.264583" />
    <path
       d="m 82.007268,142.7598 c 0.0504,-0.12594 0.100809,-0.25193 0.155037,-0.37595 1.255777,-2.88557 4.835127,-3.34874 7.457134,-2.06583 -1.716999,0.14922 -2.050318,0.25774 -3.532836,1.19764 l -0.22092,-0.0988 -0.156969,0.0659 c -1.153062,0.47092 -2.5038,0.88563 -3.701433,1.27709 z"
       fill="#bfc1d3"
       id="path63"
       style="mix-blend-mode:normal;stroke-width:0.264583" />
    <path
       d="m 73.123829,143.79272 c 2.808053,-0.095 6.028883,0.18604 7.189698,3.17431 1.091055,2.80418 -1.51546,4.17816 -3.610348,4.91457 -0.151161,-1.14725 0.01746,-3.10261 -0.494177,-3.64718 -1.284842,0.0562 -0.88175,2.37008 -0.848809,3.38362 l 0.10081,0.13177 -0.253862,0.25968 c -1.618161,-0.0659 -1.86816,0.57944 -3.077421,-0.0271 -1.067798,-1.43406 0.03876,-3.53477 -0.643394,-4.18591 l -0.362397,0.13953 c -0.707345,0.68021 -0.72285,1.89917 -1.007722,3.05223 -1.637542,0.0581 -1.430182,-2.72472 -1.406938,-3.83903 1.327481,-2.13947 1.901102,-2.74604 4.414586,-3.35649 z"
       fill="#343435"
       id="path64"
       style="mix-blend-mode:normal;stroke-width:0.264583" />
    <path
       d="m 110.30678,140.82576 c 2.27706,-0.28099 2.53481,-0.12396 4.26344,1.26353 1.03873,1.98831 1.35849,2.62395 0.70152,4.8138 -0.37595,0.95733 -0.47091,1.09299 -1.11043,1.90305 -1.48252,0.091 -3.74213,-0.0368 -5.20914,-0.22092 -0.86044,-0.093 -1.79646,-0.15116 -2.66465,-0.22287 0.36821,-2.32357 0.85656,-3.83516 2.04646,-5.82734 0.51354,-0.75579 1.15306,-1.31779 1.9728,-1.70925 z"
       fill="#1f4290"
       id="path65"
       style="mix-blend-mode:normal;stroke-width:0.264583" />
    <path
       d="m 110.30678,140.82576 c 2.27706,-0.28099 2.53481,-0.12396 4.26344,1.26353 1.03873,1.98831 1.35849,2.62395 0.70152,4.8138 -1.37785,-1.53484 -0.56781,-2.39333 -3.5774,-2.06582 -0.29457,0.22286 -0.5872,0.42635 -0.91083,0.6027 -1.27516,0.18022 -1.60267,0.24224 -2.66852,-0.44184 0.19961,-0.72285 0.25193,-1.10269 0.35657,-1.85073 l -0.13758,-0.61238 c 0.51354,-0.75579 1.15306,-1.31778 1.9728,-1.70925 z"
       fill="#1b2e76"
       id="path66"
       style="mix-blend-mode:normal;stroke-width:0.264583" />
    <path
       d="m 108.47156,143.14739 c 1.86234,-0.39921 3.13362,0.0911 2.31195,2.29256 -1.27516,0.18023 -1.60267,0.24225 -2.66852,-0.44184 0.19961,-0.72285 0.25193,-1.10268 0.35657,-1.85072 z"
       fill="#f6f6f2"
       id="path67"
       style="mix-blend-mode:normal;stroke-width:0.264583" />
    <path
       d="m 108.33396,142.53501 0.13759,0.61238 c -0.10464,0.74804 -0.15697,1.12787 -0.35658,1.85072 -0.45346,0.99803 0.31394,2.70729 0.83718,3.58711 -0.86043,-0.093 -1.79645,-0.15116 -2.66464,-0.22287 0.3682,-2.32357 0.85656,-3.83516 2.04645,-5.82734 z"
       fill="#e2e1e9"
       id="path68"
       style="mix-blend-mode:normal;stroke-width:0.264583" />
    <path
       d="m 132.21888,136.43249 c 3.14719,0.10266 6.64902,0.39727 9.83884,0.5775 -0.92827,2.5096 -1.71119,3.75957 -3.33905,5.8409 -1.48833,1.90498 -2.65302,2.21505 -4.80024,3.23246 -0.18798,-4.03088 -0.63757,-5.82735 -1.69956,-9.65086 z"
       fill="#7f634d"
       id="path69"
       style="mix-blend-mode:normal;stroke-width:0.264583" />
    <path
       d="m 97.047494,128.20988 c 0.379834,0.4341 -0.197663,2.72084 0.501916,3.39525 4.3894,4.23048 6.00175,0.80424 6.51724,-3.10068 l 0.32169,0.12978 c 1.28097,1.49608 1.28679,2.2073 1.20151,4.22661 -0.2248,0.54068 -0.51937,1.24027 -0.85269,1.71119 -0.843,1.19375 -2.13947,1.98636 -3.58515,2.18985 -1.484454,0.20929 -2.98634,-0.22674 -4.127787,-1.19763 -2.525113,-2.13753 -2.172413,-5.13551 0.02328,-7.35442 z"
       fill="#e0a3b5"
       id="path70"
       style="mix-blend-mode:normal;stroke-width:0.264583" />
    <path
       d="m 149.54781,135.46158 c 0.15891,0.82556 -0.78874,3.06386 -1.14338,3.9146 -1.2519,0.76743 -6.17035,2.91658 -7.82146,3.69175 -0.0892,-0.61626 2.66271,-5.80989 3.07936,-6.45909 0.72091,-1.12593 4.45142,0.12211 5.88548,-1.14726 z"
       fill="#2d282e"
       id="path71"
       style="mix-blend-mode:normal;stroke-width:0.264583" />
    <path
       d="m 114.57021,142.08929 c 2.77511,0.49418 3.01929,1.47477 4.7111,2.01932 -0.19186,2.24605 -0.66471,3.12394 -2.06195,4.90489 -1.00772,-0.0542 -2.06195,-0.0892 -3.05804,-0.20736 0.63952,-0.81005 0.73448,-0.9457 1.11044,-1.90305 0.65695,-2.18985 0.33719,-2.82549 -0.70153,-4.8138 z"
       fill="#dbddf0"
       id="path72"
       style="mix-blend-mode:normal;stroke-width:0.264583" />
    <path
       d="m 110.30678,140.82576 c 3.70919,-1.967 7.72457,-0.97478 8.97453,3.28285 -1.69181,-0.54455 -1.93599,-1.52514 -4.7111,-2.01932 -1.72863,-1.38756 -1.98637,-1.54452 -4.26344,-1.26353 z"
       fill="#a69ed0"
       id="path73"
       style="mix-blend-mode:normal;stroke-width:0.264583" />
    <path
       d="m 69.465021,143.76753 0.164721,0.062 c -1.447631,1.7829 -1.819713,2.3042 -3.9708,2.03288 l -0.310061,-0.0407 0.04842,-0.17055 c 1.036788,-0.65114 2.877814,-1.37592 4.067707,-1.88366 z"
       fill="#8d766f"
       id="path74"
       style="mix-blend-mode:normal;stroke-width:0.264583" />
    <path
       d="m 150.42568,137.34137 c 0.86238,0.0484 1.22089,0.062 2.05419,0.24225 l 0.0426,0.21317 -0.60075,0.33138 c -0.58913,0.22868 -1.06005,0.46898 -1.68599,0.48836 -0.22092,-0.47673 -0.031,-0.59882 0.18991,-1.27516 z"
       fill="#8d766f"
       id="path75"
       style="mix-blend-mode:normal;stroke-width:0.264583" />
    <path
       d="m 146.37542,99.751464 c 0.33527,0.01548 0.50386,0.07369 0.83331,0.147285 l 0.13953,0.298441 c -0.37789,0.52518 -1.51934,0.86432 -2.19955,1.20539 -3.39137,1.70149 -4.05413,3.69562 -5.14906,7.00947 -0.34302,0.10848 -0.2345,0.0504 -0.67246,-0.0388 l -0.18603,-0.37208 c 0.21123,-4.12584 3.57935,-6.99397 7.23426,-8.249746 z"
       fill="#584a58"
       id="path408"
       style="mix-blend-mode:normal;stroke-width:0.264583" />
    <path
       d="m 162.17725,104.46837 c 0.49998,0.13759 0.33139,0.0639 0.75385,0.36045 1.79645,3.24215 -1.59104,7.51527 -4.15104,9.36599 -0.23837,-0.0795 -0.47092,-0.22867 -0.6996,-0.3527 l -0.062,-0.30038 c 0.75967,-1.12012 1.2674,-1.15113 2.20342,-2.04257 1.31778,-1.25578 1.90885,-3.50377 1.92824,-5.28666 z"
       fill="#584a58"
       id="path409"
       style="mix-blend-mode:normal;stroke-width:0.264583" />
    <path
       d="m 142.08873,98.160424 c 0.43796,0.12793 0.28682,0.08136 0.66665,0.405023 -0.19379,0.738355 -2.54062,1.885593 -3.27897,2.916573 -0.71316,0.99222 -0.87982,1.38949 -1.40112,2.47474 l -0.51937,0.008 -0.24805,-0.24225 c 0.16279,-2.22861 2.83519,-4.687843 4.78086,-5.561841 z"
       fill="#584a58"
       id="path412"
       style="mix-blend-mode:normal;stroke-width:0.264583" />
    <path
       d="m 165.44654,107.37137 0.5213,0.36433 c 1.03485,2.10459 -0.98447,4.88358 -2.43791,6.3002 l -0.57556,-0.22287 c -0.13759,-0.52517 0.21511,-0.91276 0.68989,-1.43406 1.35267,-1.49413 1.43213,-3.01541 1.80227,-5.0076 z"
       fill="#584a58"
       id="path415"
       style="mix-blend-mode:normal;stroke-width:0.264583" />
  </g>
</svg>
