<?xml version="1.0" encoding="UTF-8" standalone="no"?>
<!-- Created with Inkscape (http://www.inkscape.org/) -->

<svg
   width="95.202194mm"
   height="165.18712mm"
   viewBox="0 0 95.202194 165.18712"
   version="1.1"
   id="svg1"
   inkscape:version="1.4.3 (0d15f75, 2025-12-25)"
   sodipodi:docname="sitting.svg"
   xmlns:inkscape="http://www.inkscape.org/namespaces/inkscape"
   xmlns:sodipodi="http://sodipodi.sourceforge.net/DTD/sodipodi-0.dtd"
   xmlns="http://www.w3.org/2000/svg"
   xmlns:svg="http://www.w3.org/2000/svg">
  <sodipodi:namedview
     id="namedview1"
     pagecolor="#ffffff"
     bordercolor="#000000"
     borderopacity="0.25"
     inkscape:showpageshadow="2"
     inkscape:pageopacity="0.0"
     inkscape:pagecheckerboard="0"
     inkscape:deskcolor="#d1d1d1"
     inkscape:document-units="mm"
     inkscape:zoom="0.023162177"
     inkscape:cx="194.28225"
     inkscape:cy="302.21684"
     inkscape:window-width="944"
     inkscape:window-height="245"
     inkscape:window-x="0"
     inkscape:window-y="34"
     inkscape:window-maximized="0"
     inkscape:current-layer="layer1" />
  <defs
     id="defs1" />
  <g
     inkscape:label="Layer 1"
     inkscape:groupmode="layer"
     id="layer1"
     transform="translate(-60.854168,-71.702083)">
    <path
       d="m 131.65062,200.01739 c 3.53633,-2.02126 5.86067,-4.96342 6.93369,-8.91698 2.14858,-7.91506 -2.25032,-14.92066 -3.77856,-22.43399 -1.82901,-8.99119 0.88273,-19.1994 9.16174,-24.02174 2.61794,-1.52495 5.92908,-2.49663 8.9412,-1.71758 0.99784,0.25814 1.99626,1.02787 2.4941,1.93133 0.59746,1.08466 0.87362,2.50109 0.44728,3.69136 -0.53313,1.48812 -1.9232,2.40205 -3.31055,2.99912 -3.59253,1.54628 -6.46976,2.73228 -8.09433,6.6653 -5.11379,12.37887 10.75451,24.30195 0.12481,41.26944 -2.53558,4.02933 -6.24418,7.18582 -10.6268,9.04527 -0.78486,0.32886 -2.01041,0.76431 -2.82879,0.96353 -1.4732,3.67683 -2.32337,5.0481 -5.30758,7.7358 2.15303,0.85831 2.45245,1.05191 4.01519,2.70321 2.59177,0.77401 6.57983,2.29722 7.88232,4.86982 0.41568,0.82071 0.46355,1.7482 0.1748,2.62084 -0.70134,2.11854 -3.14216,3.44854 -5.05236,4.33746 -14.73792,6.85947 -47.737656,6.52848 -62.94591,0.85636 -2.448951,-0.91334 -5.987211,-2.49527 -7.202108,-4.97077 -0.340489,-0.69417 -0.353666,-1.44802 -0.0996,-2.17241 0.778467,-2.21893 3.451831,-3.73749 5.503127,-4.63726 0.724597,-0.31781 1.424374,-0.63118 2.223387,-0.67904 1.627858,-1.72728 1.95943,-1.96642 4.095224,-2.92355 -5.257388,-5.54014 -6.746693,-10.015 -5.680642,-17.81747 0.683122,-5.75176 4.596757,-11.10004 5.545171,-16.69385 0.823818,-4.85974 -0.119767,-9.72528 0.590872,-14.81893 0.498622,-3.67817 1.547237,-7.26062 3.110561,-10.62718 1.315469,-2.8038 2.601475,-4.97155 3.608416,-7.967 -0.25619,-1.75364 -0.221701,-2.56601 0.125575,-4.31111 l 0.03935,-0.26589 0.146121,-0.0252 0.158715,-0.38351 0.655604,-0.0696 c 9.104174,3.9615 14.850897,6.06841 24.712217,3.8495 1.84315,-0.49243 3.78225,-1.14242 5.60369,-1.73968 l -0.0225,0.28604 0.44513,0.31337 c 1.37922,-0.55735 2.96018,-1.31372 4.35722,-1.92165 l 0.79765,-0.48584 c 0.23294,1.47476 0.5779,3.17626 0.16589,4.62524 0.75521,2.78014 2.59061,5.87617 3.77876,8.52415 1.29318,2.88209 2.05749,5.45332 2.64333,8.57279 0.45929,2.39392 0.69436,4.82524 0.70211,7.26257 -0.013,3.47238 -0.51549,7.0525 0.44049,10.39038 1.7699,6.1781 4.22487,9.4873 5.326,16.08729 z"
       fill="#333334"
       id="path132"
       style="mix-blend-mode:normal;stroke-width:0.264583" />
    <path
       d="m 129.82199,219.93149 c 2.59178,0.77401 6.57983,2.29722 7.88232,4.86981 0.41569,0.82071 0.46355,1.74821 0.1748,2.62085 -0.70134,2.11854 -3.14215,3.44853 -5.05235,4.33745 -14.73792,6.85948 -47.737662,6.52849 -62.945917,0.85637 -2.44895,-0.91335 -5.98721,-2.49527 -7.202107,-4.97077 -0.340489,-0.69417 -0.353666,-1.44802 -0.09961,-2.17242 0.778468,-2.21892 3.451831,-3.73748 5.503128,-4.63725 0.724596,-0.31781 1.424374,-0.63118 2.223386,-0.67905 l 0.0093,0.17577 c -3.147776,6.90831 3.935147,6.82654 8.493339,6.918 -0.0016,1.54143 0.06375,2.7941 1.327865,3.88845 3.436325,2.97452 12.104268,2.37725 15.24449,-0.77652 1.620105,-1.62708 1.616229,-4.93821 1.685803,-7.09765 1.781731,0.008 4.252203,0.0922 5.978493,-0.0322 1.13563,2.45265 -0.65618,6.28333 3.35087,8.36873 1.07806,0.5684 2.24799,0.94145 3.45609,1.10211 2.5036,0.71567 8.20091,0.50464 10.19019,-1.38368 1.44568,-1.37264 1.54704,-2.3009 1.63579,-4.13185 4.82523,-0.0241 11.73781,-0.22674 8.14413,-7.25616 z"
       fill="#c4c4d7"
       id="path133"
       style="mix-blend-mode:normal;stroke-width:0.264583" />
    <path
       d="m 81.886274,144.70632 0.158715,-0.38351 0.655604,-0.0696 c 9.104174,3.9615 14.850898,6.06842 24.712217,3.8495 1.84315,-0.49243 3.78225,-1.14241 5.60369,-1.73967 l -0.0225,0.28603 0.44513,0.31337 c 1.37922,-0.55734 2.96018,-1.31372 4.35723,-1.92164 l 0.79765,-0.48585 c 0.23293,1.47477 0.57789,3.17626 0.16588,4.62524 -8.09549,7.4302 -22.252215,7.72012 -31.864127,3.31192 -1.869125,-0.85714 -3.626435,-2.02668 -5.320573,-3.18363 -0.25619,-1.75363 -0.221701,-2.566 0.125575,-4.3111 l 0.03934,-0.26589 z"
       fill="#7c29de"
       id="path134"
       style="mix-blend-mode:normal;stroke-width:0.264583" />
    <path
       d="m 81.886274,144.70632 0.158715,-0.38351 0.655604,-0.0696 c 9.104174,3.9615 14.850898,6.06842 24.712217,3.8495 1.84315,-0.49243 3.78225,-1.14241 5.60369,-1.73967 l -0.0225,0.28603 0.44513,0.31337 c 1.37922,-0.55734 2.96018,-1.31372 4.35723,-1.92164 -0.0583,0.13003 -0.23992,0.54281 -0.34457,0.64494 -3.8493,3.75472 -9.18188,6.17209 -14.27437,6.78118 -5.789926,0.65308 -11.630447,-0.66916 -16.574679,-3.75201 -1.352471,-0.85443 -3.598149,-2.68809 -4.901976,-3.71752 l 0.03934,-0.26589 z"
       fill="#6c31a8"
       id="path135"
       style="mix-blend-mode:normal;stroke-width:0.264583" />
    <path
       d="m 81.886274,144.70632 0.158715,-0.38351 0.655604,-0.0696 c 9.104174,3.9615 14.850898,6.06842 24.712217,3.8495 l 0.0521,0.48894 0.37945,0.2217 c -10.010928,2.76465 -16.923109,-0.0946 -25.958106,-4.10704 z"
       fill="#342246"
       id="path136"
       style="mix-blend-mode:normal;stroke-width:0.264583" />
    <path
       d="m 107.41281,148.10272 c 1.84315,-0.49243 3.78225,-1.14241 5.60369,-1.73967 l -0.0225,0.28603 0.44513,0.31337 c -1.96931,0.7525 -3.53341,1.31333 -5.59478,1.85091 l -0.37945,-0.2217 z"
       fill="#110721"
       id="path137"
       style="mix-blend-mode:normal;stroke-width:0.264583" />
    <path
       d="m 96.829421,222.48026 c -0.0056,-3.4813 -0.21162,-25.85114 0.495527,-27.55825 1.962923,0.0405 3.926432,0.0614 5.889932,0.063 0.024,9.61153 0.31763,19.28565 0.33565,28.90569 0.0101,5.29635 1.36004,7.3395 6.59786,8.61311 l -0.2965,0.19941 c -1.2081,-0.16066 -2.37803,-0.53371 -3.45609,-1.1021 -4.00705,-2.08541 -2.21524,-5.91609 -3.35087,-8.36873 l -0.20503,-0.54765 c -1.06159,-0.43138 -4.633572,-0.1438 -6.010465,-0.20445 z"
       fill="#302d36"
       id="path138"
       style="mix-blend-mode:normal;stroke-width:0.264583" />
    <path
       d="m 70.314932,220.33225 c 1.204803,1.76487 -0.989506,5.20352 1.621454,5.90835 2.288304,0.61762 4.920577,0.68487 7.28388,0.74688 -0.05232,1.49471 -0.130814,2.58286 0.995127,3.70337 3.138661,3.11464 11.710875,2.4042 14.808259,-0.45057 1.410417,-1.29976 1.717197,-3.99076 1.733086,-5.85834 0.01667,-1.9478 0.746875,-1.62708 2.66368,-1.5141 -0.63486,0.28081 -1.558284,0.2064 -2.354002,0.39669 -0.06958,2.15944 -0.0657,5.47057 -1.685804,7.09765 -3.140208,3.15378 -11.808164,3.75104 -15.24449,0.77652 -1.264111,-1.09435 -1.329412,-2.34702 -1.327865,-3.88845 -4.558192,-0.0914 -11.641114,-0.009 -8.493339,-6.918 z"
       fill="#1d1a26"
       id="path139"
       style="mix-blend-mode:normal;stroke-width:0.264583" />
    <path
       d="m 88.526773,90.637656 c 5.571141,-0.959659 9.206492,-2.024162 15.176847,-1.436386 1.43852,-0.02985 7.04378,1.702856 8.03288,1.197249 2.02533,-1.147255 3.63361,-3.008045 5.44886,-4.462847 3.7464,-3.002423 7.6455,-5.746724 11.37407,-8.777048 2.11951,-1.722422 3.96674,-3.827788 6.1655,-5.367855 0.3244,-0.227323 0.74204,0.03778 0.96916,0.177898 1.44239,3.136531 0.31317,15.475095 -0.20252,19.214709 -0.63873,4.632807 -2.25691,10.225644 -3.48439,14.782874 4.02973,8.5507 4.85392,15.15533 1.11896,24.16378 l -0.19651,0.13469 c -0.44766,0.51123 -0.32848,0.21646 -0.32964,0.92923 l -0.0674,0.12927 c -0.75288,1.47456 -1.35654,2.53151 -2.22939,3.94155 2.87046,1.54143 4.83706,2.53829 6.48972,5.46844 -2.97587,-2.11777 -3.58535,-2.96871 -6.98738,-4.86245 -0.99067,1.3081 -1.78444,2.06409 -2.96405,3.22683 2.97413,2.06699 5.54615,4.55683 6.81761,8.05111 -3.00282,-2.52279 -3.15765,-4.54812 -7.45189,-7.56508 l -1.75828,1.48077 c 1.39453,1.19977 5.74149,5.83665 5.55371,7.64783 l -0.25659,0.16162 c -0.91973,-0.58603 -3.25397,-6.23972 -6.27073,-7.34395 -1.30481,1.19202 -3.3123,2.21156 -4.88125,3.0251 l -0.79765,0.48584 c -1.39705,0.60792 -2.97801,1.3643 -4.35722,1.92165 l -0.44514,-0.31337 0.0225,-0.28604 c -1.82146,0.59726 -3.76054,1.24725 -5.6037,1.73968 -9.861312,2.21892 -15.608036,0.11201 -24.71221,-3.8495 l -0.655604,0.0696 -0.158715,0.38351 -0.146121,0.0252 c -1.334651,-0.905 -2.6815,-1.45131 -4.198124,-2.56426 l -1.00927,-0.61122 c 1.113533,-1.41778 6.841642,-2.9466 7.327683,-3.76518 -0.287399,-0.73234 -0.123829,-1.17245 0.0071,-1.96001 l -0.181973,0.11549 c -0.789514,0.71799 -7.166057,1.33813 -9.492925,3.67411 -1.600923,1.10016 -2.87743,2.19567 -4.151423,3.66617 -0.526153,0.60734 -2.119892,2.7815 -2.8005,2.70612 0.279249,-1.99354 4.614193,-5.68569 6.168601,-6.95695 l -0.147841,-0.20096 c -0.986012,-0.75618 -1.891999,-1.8108 -2.745068,-2.72821 -0.05407,0.0266 -0.108138,0.0529 -0.162207,0.0793 l -0.267052,0.13837 c -1.698782,0.86199 -4.573301,3.38905 -5.61591,3.52276 l 0.325765,-0.0924 -0.134293,-0.34708 c 1.637158,-1.97493 3.112109,-2.7536 5.313018,-4.05007 -0.937566,-1.21372 -1.609442,-2.52047 -2.321629,-3.87158 l -0.137005,-0.14863 -0.157935,-0.85927 -0.140498,-0.0715 c -0.149997,-0.33352 -0.290296,-0.67129 -0.42033,-1.01295 -2.340428,-6.02926 -2.898742,-11.79401 -0.891831,-18.08335 0.52905,-1.65731 1.616811,-3.75977 2.350708,-5.43201 -0.663542,-2.72452 -1.656156,-5.48917 -2.306521,-8.299154 -1.821843,-7.873402 -2.652249,-15.823151 -1.803427,-23.892285 0.08022,-0.763729 0.249602,-1.532314 0.851137,-1.974353 1.92416,0.668781 7.12613,6.081405 9.317157,7.63445 3.68225,2.609808 7.700729,5.681805 11.028149,8.726086 1.067798,0.976911 1.876495,1.862154 3.183046,2.564842 z"
       fill="#333334"
       id="path212"
       style="mix-blend-mode:normal;stroke-width:0.264583" />
    <path
       d="m 68.366931,130.91198 c 4.030691,-0.4746 7.272066,-1.29802 11.488407,-0.25716 1.325932,0.32713 3.96306,1.42534 5.144024,1.55635 -0.537385,0.58177 -0.693388,1.08001 -1.114882,1.56953 l 0.176152,0.39998 c -0.299597,0.64746 -0.505211,0.9457 -0.19302,1.65014 l -0.181972,0.11549 c -0.789514,0.718 -7.166057,1.33813 -9.492925,3.67412 -1.600923,1.10015 -2.87743,2.19567 -4.151424,3.66616 -0.526153,0.60734 -2.119891,2.7815 -2.8005,2.70612 0.27925,-1.99354 4.614194,-5.68568 6.168601,-6.95695 l -0.147867,-0.20096 c -0.986012,-0.75617 -1.891999,-1.81079 -2.745068,-2.72821 -0.05407,0.0265 -0.108138,0.0529 -0.162207,0.0793 l -0.267052,0.13837 c -1.698782,0.86198 -4.573301,3.38904 -5.615909,3.52275 l 0.325764,-0.0924 -0.134293,-0.34708 c 1.637158,-1.97494 3.112109,-2.7536 5.313019,-4.05007 -0.937566,-1.21372 -1.609443,-2.52047 -2.32163,-3.87158 0.139731,-0.14225 0.536618,-0.43545 0.712769,-0.57382 z"
       fill="#302d36"
       id="path213"
       style="mix-blend-mode:normal;stroke-width:0.264583" />
    <path
       d="m 71.48719,135.41204 c 0.32886,0.0136 0.261614,0.0413 0.540679,-0.0471 4.501213,-1.42592 7.379225,-1.68852 12.032763,-1.18427 -0.299597,0.64745 -0.505211,0.9457 -0.19302,1.65014 l -0.181972,0.11549 c -0.789514,0.71799 -7.166057,1.33813 -9.492925,3.67411 -1.600923,1.10016 -2.87743,2.19567 -4.151424,3.66617 -0.526153,0.60734 -2.119891,2.7815 -2.8005,2.70612 0.27925,-1.99354 4.614194,-5.68569 6.168601,-6.95695 l -0.147867,-0.20096 c -0.986012,-0.75618 -1.891999,-1.8108 -2.745068,-2.72821 z"
       fill="#302d36"
       id="path214"
       style="mix-blend-mode:normal;stroke-width:0.264583" />
    <path
       d="m 73.409406,139.03576 c 0.445915,-0.14224 1.564289,-0.81916 2.05807,-1.07071 2.9313,-1.49298 4.883176,-2.34314 8.218151,-2.01874 -0.789514,0.718 -7.166057,1.33813 -9.492926,3.67412 -1.600922,1.10015 -2.877429,2.19567 -4.151423,3.66616 -0.526153,0.60734 -2.119892,2.7815 -2.8005,2.70612 0.27925,-1.99354 4.614194,-5.68568 6.168601,-6.95695 z"
       fill="#6c31a8"
       id="path215"
       style="mix-blend-mode:normal;stroke-width:0.264583" />
    <path
       d="m 70.516484,136.10659 0.970706,-0.69455 c 0.716645,0.78776 1.719327,1.91351 2.160983,2.85708 -0.108906,0.48293 0.02171,0.29554 -0.386621,0.56568 -0.986013,-0.75617 -1.891999,-1.81079 -2.745068,-2.72821 z"
       fill="#1d1a26"
       id="path216"
       style="mix-blend-mode:normal;stroke-width:0.264583" />
    <path
       d="m 70.673453,135.22637 c 1.223602,-0.54785 2.486932,-1.00268 3.779143,-1.36022 2.306707,-0.61568 7.321478,-1.29492 9.431871,-0.0855 l 0.176151,0.39998 c -4.653538,-0.50425 -7.531549,-0.24167 -12.032762,1.18427 -0.279065,0.0884 -0.211819,0.0607 -0.540679,0.0471 l -0.970706,0.69455 c -0.05407,0.0265 -0.108139,0.0529 -0.162208,0.0793 l -0.267052,0.13837 c -1.698781,0.86198 -4.573301,3.38904 -5.615909,3.52275 l 0.325764,-0.0924 -0.134293,-0.34708 c 1.637158,-1.97494 3.112109,-2.7536 5.313019,-4.05007 z"
       fill="#6c31a8"
       id="path217"
       style="mix-blend-mode:normal;stroke-width:0.264583" />
    <path
       d="m 67.654162,131.48579 c 0.139731,-0.14224 0.536618,-0.43545 0.712769,-0.57381 0.650564,1.06914 2.052461,3.17722 2.306522,4.31439 l -0.697648,0.131 c -0.937566,-1.21372 -1.609442,-2.52047 -2.321629,-3.87158 z"
       fill="#1d1a26"
       id="path218"
       style="mix-blend-mode:normal;stroke-width:0.264583" />
    <path
       d="m 116.24354,135.69924 c -0.44592,-0.6808 -0.33778,-1.01839 -0.28953,-1.83677 1.31527,0.11202 2.86347,-0.0432 4.21885,-0.0672 3.50048,-0.0622 6.38798,0.82904 9.63265,2.07552 -0.99067,1.3081 -1.78445,2.06409 -2.96406,3.22683 2.97414,2.06699 5.54615,4.55683 6.81762,8.0511 -3.00282,-2.52278 -3.15766,-4.54811 -7.4519,-7.56507 l -1.75827,1.48077 c 1.39453,1.19976 5.74148,5.83665 5.5537,7.64783 l -0.25659,0.16162 c -0.91973,-0.58603 -3.25397,-6.23972 -6.27073,-7.34395 l -0.14146,-0.30813 c -0.30813,-0.12306 -2.55864,-1.30577 -3.03324,-1.54957 -1.17593,-0.60366 -3.35648,-1.19821 -4.16751,-1.76002 l 0.0736,-1.70808 z"
       fill="#302d36"
       id="path219"
       style="mix-blend-mode:normal;stroke-width:0.264583" />
    <path
       d="m 116.20672,136.20406 c 3.19195,0.18935 7.53523,1.3955 10.00047,3.37955 l -1.75828,1.48077 c 1.39453,1.19976 5.74148,5.83665 5.5537,7.64783 l -0.25658,0.16162 c -0.91974,-0.58603 -3.25397,-6.23972 -6.27074,-7.34395 l -0.14146,-0.30813 c -0.30813,-0.12306 -2.55864,-1.30577 -3.03323,-1.54957 -1.17594,-0.60366 -3.35649,-1.19821 -4.16751,-1.76002 z"
       fill="#342246"
       id="path220"
       style="mix-blend-mode:normal;stroke-width:0.264583" />
    <path
       d="m 116.13309,137.91215 c 2.72917,-0.34244 6.06007,1.79025 8.31582,3.15222 1.39453,1.19976 5.74148,5.83664 5.5537,7.64782 l -0.25658,0.16163 c -0.91974,-0.58603 -3.25397,-6.23973 -6.27074,-7.34396 l -0.14146,-0.30813 c -0.30813,-0.12306 -2.55864,-1.30577 -3.03323,-1.54956 -1.17594,-0.60367 -3.35649,-1.19822 -4.16751,-1.76002 z"
       fill="#6c31a8"
       id="path221"
       style="mix-blend-mode:normal;stroke-width:0.264583" />
    <path
       d="m 116.24354,135.69924 c 3.22762,-0.0684 8.27784,1.25849 10.59792,3.39834 2.97414,2.06699 5.54615,4.55683 6.81762,8.0511 -3.00282,-2.52278 -3.15766,-4.54811 -7.45189,-7.56507 -2.46524,-1.98405 -6.80852,-3.19022 -10.00047,-3.37955 z"
       fill="#6c31a8"
       id="path222"
       style="mix-blend-mode:normal;stroke-width:0.264583" />
    <path
       d="m 115.95402,133.86247 c 4.28475,-1.87049 9.77101,-0.3682 13.89026,1.22031 0.15349,0.0593 0.30639,0.11995 0.45891,0.18197 2.87046,1.54143 4.83706,2.53829 6.48972,5.46844 -2.97587,-2.11776 -3.58536,-2.9687 -6.98738,-4.86244 -3.24467,-1.24648 -6.13218,-2.13773 -9.63264,-2.07552 -1.35538,0.024 -2.9036,0.17926 -4.21885,0.0672 z"
       fill="#6c31a8"
       id="path223"
       style="mix-blend-mode:normal;stroke-width:0.264583" />
    <path
       d="m 67.359209,130.47789 c 3.678374,-0.92478 7.021868,-1.31236 10.842301,-0.88234 1.540067,0.17344 6.38972,0.90017 6.797852,2.61562 -1.180977,-0.131 -3.818105,-1.22922 -5.144024,-1.55635 -4.216341,-1.04086 -7.457716,-0.21744 -11.488407,0.25716 -0.176151,0.13836 -0.573038,0.43157 -0.712769,0.57381 l -0.137005,-0.14863 z"
       fill="#6c31a8"
       id="path224"
       style="mix-blend-mode:normal;stroke-width:0.264583" />
    <path
       d="m 132.53257,131.3232 c -2.40942,-1.74936 -10.09445,-1.70691 -12.95095,-0.61858 -0.64803,0.24689 -3.84155,1.28058 -4.22739,1.30944 l -0.0399,-0.22596 c 3.84891,-3.67082 12.89979,-2.63363 17.61534,-1.52339 -0.44766,0.51123 -0.32847,0.21646 -0.32964,0.92923 z"
       fill="#6c31a8"
       id="path225"
       style="mix-blend-mode:normal;stroke-width:0.264583" />
    <path
       d="m 113.01652,146.36305 c 1.86215,-0.74863 3.15668,-1.34976 4.90973,-2.28791 1.47378,-0.78854 3.92934,-2.39315 5.40758,-2.85341 l 0.14146,0.30813 c -1.3048,1.19203 -3.31229,2.21156 -4.88124,3.0251 l -0.79765,0.48584 c -1.39706,0.60793 -2.97802,1.3643 -4.35722,1.92165 l -0.44514,-0.31337 z"
       fill="#110721"
       id="path226"
       style="mix-blend-mode:normal;stroke-width:0.264583" />
    <path
       d="m 77.54203,142.16725 c 1.076317,-0.37692 4.137849,1.48716 5.158563,2.08598 l -0.655604,0.0696 -0.158715,0.38351 -0.146121,0.0252 c -1.334651,-0.90501 -2.6815,-1.45131 -4.198123,-2.56426 z"
       fill="#302d36"
       id="path227"
       style="mix-blend-mode:normal;stroke-width:0.264583" />
    <path
       d="m 132.89923,78.099868 c 1.10519,0.444368 0.98814,4.535134 0.99241,5.587029 0.0277,7.10327 -1.57901,13.778642 -4.09348,20.369133 -1.82533,-2.62511 -3.40764,-4.20917 -5.3477,-6.627891 0.77885,-0.395723 1.88812,-0.643578 2.41155,-1.213336 l -0.11647,-0.331387 -0.94707,-0.448244 c -1.53987,-0.368404 -2.23598,-0.180809 -3.78942,0.04341 1.33581,-1.276904 2.76561,-2.451663 4.27738,-3.514036 -3.08943,0.05523 -4.22681,0.575181 -7.05036,1.809433 2.37453,-4.201417 9.76713,-12.993388 13.66313,-15.67412 z"
       fill="#5e4a55"
       id="path228"
       style="mix-blend-mode:normal;stroke-width:0.264583" />
    <path
       d="m 67.1598,78.16808 c 3.621791,1.99683 11.827149,11.785674 13.738133,15.575097 -1.431928,-0.612965 -4.534737,-2.090443 -6.068995,-1.748789 l -0.06763,0.264908 c 0.674205,1.028453 2.202841,1.906724 3.176458,3.125868 -1.599759,-0.102516 -1.513515,-0.206394 -3.126847,0.0467 -0.609473,0.160263 -0.93582,0.193985 -1.437551,0.58312 0.282544,0.76451 1.525527,0.401729 2.28636,1.480957 -0.04031,0.349022 -4.433968,5.458359 -5.169412,6.448049 C 67.368907,97.391678 65.287566,85.177327 67.1598,78.168053 Z"
       fill="#5e4a55"
       id="path229"
       style="mix-blend-mode:normal;stroke-width:0.264583" />
    <path
       d="m 110.23637,117.30329 c 1.436,-2.47473 4.00181,-4.26633 6.95365,-3.60512 3.31424,0.66006 6.05602,1.21625 5.63975,5.18124 -1.04046,6.79145 -9.41094,9.6371 -14.06138,5.42715 0.39669,-1.14414 0.7209,-2.32241 1.58154,-3.16909 l 0.0451,-0.12887 c -0.2717,-1.09222 -0.18061,-2.55457 -0.15871,-3.70531 z"
       fill="#183b8c"
       id="path230"
       style="mix-blend-mode:normal;stroke-width:0.264583" />
    <path
       d="m 117.19002,113.69817 c 3.31424,0.66006 6.05602,1.21625 5.63975,5.18124 -1.04046,6.79145 -9.41094,9.6371 -14.06138,5.42715 0.39669,-1.14414 0.7209,-2.32241 1.58154,-3.16909 0.96877,2.93401 3.44757,5.83606 6.70018,3.53826 1.9916,-1.40712 2.29023,-3.74698 2.61561,-5.97772 -1.7608,0.60947 -2.04858,0.75888 -3.49776,-0.54048 -0.0293,-1.98173 0.3591,-2.00207 2.179,-2.56717 -0.17615,-0.57073 -0.77847,-1.13563 -1.20171,-1.60519 z"
       fill="#e8e7ec"
       id="path231"
       style="mix-blend-mode:normal;stroke-width:0.264583" />
    <path
       d="m 117.19002,113.69817 c 3.31424,0.66006 6.05602,1.21625 5.63975,5.18124 -1.67165,-2.37686 -2.00245,-2.33752 -4.48281,-3.28904 -0.17615,-0.57072 -0.77847,-1.13563 -1.20171,-1.60518 z"
       fill="#a2a4c2"
       id="path232"
       style="mix-blend-mode:normal;stroke-width:0.264583" />
    <path
       d="m 110.23637,117.30329 c 1.436,-2.47473 4.00181,-4.26633 6.95365,-3.60512 l -0.0448,0.287 c 0.42324,0.46956 1.02556,1.03446 1.20171,1.60519 -1.8199,0.5651 -2.20827,0.58544 -2.179,2.56717 l -1.31101,0.35406 c -2.50438,0.687 -2.74817,1.52844 -4.46188,2.49701 -0.2717,-1.09222 -0.18061,-2.55457 -0.15872,-3.70531 z"
       fill="#152673"
       id="path233"
       style="mix-blend-mode:normal;stroke-width:0.264583" />
    <path
       d="m 83.428484,113.71175 c 2.003815,-0.58894 6.057763,1.72862 6.472086,3.57663 0.09341,1.24823 0.166468,2.05401 0.08508,3.30533 l -0.04652,0.37789 c 0.654625,1.23214 0.854815,2.37377 1.39376,3.40881 -3.947939,3.19893 -10.530876,2.154 -12.936421,-2.41426 -0.62769,-1.19183 -0.809279,-2.00401 -1.086782,-3.28963 -0.384676,-4.00821 2.900489,-4.34075 6.118805,-4.96476 z"
       fill="#e8e7ec"
       id="path234"
       style="mix-blend-mode:normal;stroke-width:0.264583" />
    <path
       d="m 80.591364,118.84374 c 1.501701,0.28604 1.83502,0.29224 3.254936,-0.25619 l 0.967795,-0.0461 c 2.206519,-0.095 4.180872,2.11039 5.171542,2.05226 l -0.04652,0.37789 c -0.876141,2.76367 -1.742386,3.87236 -4.543269,4.49773 -3.856669,-0.87594 -4.330486,-3.11289 -4.804501,-6.62556 z"
       fill="#183b8c"
       id="path235"
       style="mix-blend-mode:normal;stroke-width:0.264583" />
    <path
       d="m 83.428484,113.71175 c 2.003815,-0.58894 6.057763,1.72862 6.472086,3.57663 0.09341,1.24823 0.166468,2.05401 0.08508,3.30533 -0.990669,0.0581 -2.965023,-2.14722 -5.171542,-2.05226 l -0.967795,0.0461 c 0.243397,-0.97129 0.218592,-1.23698 -0.205032,-2.06466 -0.537186,-0.44572 -0.488158,-0.46588 -1.172827,-0.51471 -0.436033,-0.11764 -0.300377,-0.0665 -0.721104,-0.31976 0.155805,-0.73621 1.07342,-1.41236 1.681147,-1.97668 z"
       fill="#152673"
       id="path236"
       style="mix-blend-mode:normal;stroke-width:0.264583" />
    <path
       d="m 83.428484,113.71175 c -0.607727,0.56432 -1.525342,1.24047 -1.681147,1.97668 0.420726,0.25329 0.285071,0.20212 0.721104,0.31976 -2.411551,-0.42421 -3.619661,1.04434 -5.158749,2.66832 -0.384676,-4.00821 2.900489,-4.34075 6.118805,-4.96476 z"
       fill="#a2a4c2"
       id="path237"
       style="mix-blend-mode:normal;stroke-width:0.264583" />
    <path
       d="m 95.044595,141.37793 c -1.537156,-0.17964 -6.879822,-1.68405 -5.507004,-4.01285 0.378471,0.008 2.178036,1.82029 2.958434,2.34701 1.663128,1.12264 5.496725,0.3748 6.382748,-1.42011 -0.115309,-0.94861 -0.273243,-1.47864 0.242432,-2.24508 0.915085,0.45017 0.929625,0.42983 1.969515,0.1653 -0.12927,0.94648 -0.28798,1.50112 0.38332,2.32532 1.53328,1.8827 5.05314,2.11234 7.04087,0.91993 0.67943,-0.40755 1.20092,-1.80033 2.14586,-2.13443 0.28971,0.48119 0.23739,0.3279 0.082,0.91063 -0.5777,2.1635 -3.02781,2.93576 -4.95295,3.12858 -2.49992,3.71558 -8.775882,4.2398 -10.895007,0.32518 z"
       fill="#1d1a26"
       id="path238"
       style="mix-blend-mode:normal;stroke-width:0.264583" />
    <path
       d="m 100.18958,139.17897 c 1.74781,1.60053 3.20708,2.12202 5.60022,2.18326 -2.49992,3.71558 -8.775879,4.2398 -10.895004,0.32518 l 0.149799,-0.30949 c 2.283263,-0.28991 3.306676,-0.88078 5.144985,-2.19896 z"
       fill="#302d36"
       id="path239"
       style="mix-blend-mode:normal;stroke-width:0.264583" />
    <path
       d="m 96.41179,101.5565 0.169961,0.3062 c -0.650948,2.21098 -0.831174,4.36576 1.458096,5.65893 1.004428,0.57286 2.202643,0.6994 3.304543,0.34921 1.10715,-0.35425 2.02262,-1.14318 2.53655,-2.18579 0.96528,-1.98656 0.0141,-2.43694 -0.0998,-3.99038 l 0.27364,-0.0492 c 1.7358,0.98446 2.18637,3.32256 2.30962,5.126 -0.74687,3.33634 -2.84584,5.62716 -6.483716,5.42502 -1.724751,-0.0923 -3.339049,-0.87691 -4.477188,-2.17609 -2.447403,-2.81018 -1.602087,-6.1409 1.008304,-8.46389 z"
       fill="#ebabbf"
       id="path240"
       style="mix-blend-mode:normal;stroke-width:0.264583" />
    <path
       d="m 99.121205,136.0469 c -0.564717,-1.44105 0.125773,-1.53077 -0.256588,-2.90961 -0.828461,-1.00229 -2.291201,0.0434 -3.657444,-0.36045 -0.496493,-0.62226 0.469755,-1.9106 0.978657,-2.13327 1.807118,-0.79126 5.09558,-0.362 7.06858,-0.34243 1.03602,0.0103 2.14954,1.27709 1.98018,2.28811 -1.45557,1.05888 -2.83771,-0.64611 -3.85919,0.83757 -0.13158,0.90579 -0.0469,1.09164 0.13546,2.01583 l -0.13662,0.2217 c -0.19593,0.3244 -0.12345,0.19282 -0.28352,0.54785 -1.0399,0.26453 -1.05443,0.28487 -1.969515,-0.1653 z"
       fill="#f86e90"
       id="path241"
       style="mix-blend-mode:normal;stroke-width:0.264583" />
    <path
       d="m 89.90057,117.28837 c 1.212556,1.82805 2.5133,5.00411 1.432325,7.09203 -0.538932,-1.03505 -0.739122,-2.17668 -1.39376,-3.40881 l 0.04652,-0.37789 c 0.08139,-1.25132 0.0083,-2.05711 -0.08508,-3.30533 z"
       fill="#a2a4c2"
       id="path242"
       style="mix-blend-mode:normal;stroke-width:0.264583" />
    <path
       d="m 110.23637,117.30329 c -0.0219,1.15074 -0.11299,2.61311 0.15871,3.70531 l -0.0451,0.12887 c -0.86064,0.84668 -1.18485,2.02495 -1.58154,3.16909 -0.93951,-1.87979 0.41316,-5.30235 1.46798,-7.00327 z"
       fill="#a2a4c2"
       id="path243"
       style="mix-blend-mode:normal;stroke-width:0.264583" />
    <path
       d="m 83.68564,135.94631 0.181972,-0.11549 c -0.130999,0.78757 -0.294569,1.22768 -0.0071,1.96001 -0.486027,0.81858 -6.21415,2.34742 -7.327682,3.76519 -2.090826,0.42653 -5.468625,6.96683 -6.128304,7.36082 L 70.11132,148.7153 c -0.18876,-1.81506 4.239982,-6.40735 5.730054,-7.61139 l -1.648615,-1.48348 c 2.326868,-2.33597 8.703411,-2.95611 9.492925,-3.67412 z"
       fill="#342246"
       id="path381"
       style="mix-blend-mode:normal;stroke-width:0.264583" />
    <path
       d="m 75.841317,141.10391 c 1.897225,-1.31915 5.660678,-3.57915 8.019125,-3.31308 -0.486028,0.81858 -6.21415,2.34742 -7.327682,3.76519 -2.090827,0.42653 -5.468625,6.96683 -6.128304,7.36082 l -0.293207,-0.20154 c -0.188759,-1.81506 4.239982,-6.40735 5.730054,-7.61139 z"
       fill="#6c31a8"
       id="path382"
       style="mix-blend-mode:normal;stroke-width:0.264583" />
    <path
       d="m 132.92965,130.26471 0.19652,-0.13469 c 2.28306,1.7854 4.31285,1.42457 6.6403,4.94054 -2.54082,-1.1147 -4.38552,-3.40572 -7.16644,-3.87662 0.001,-0.71277 -0.11802,-0.41802 0.32964,-0.92923 z"
       fill="#6c31a8"
       id="path402"
       style="mix-blend-mode:normal;stroke-width:0.264583" />
    <path
       d="m 67.218711,130.40637 0.140498,0.0715 0.157935,0.85928 c -2.055755,0.34068 -4.70819,2.66581 -6.662976,3.80298 0.04322,-0.064 0.08624,-0.1281 0.129451,-0.19205 l 0.212982,-0.30329 c 1.513714,-2.19218 3.70396,-3.09293 6.022097,-4.23844 z"
       fill="#6c31a8"
       id="path403"
       style="mix-blend-mode:normal;stroke-width:0.264583" />
  </g>
</svg>
