<?xml version="1.0" encoding="UTF-8" standalone="no"?>
<!-- Created with Inkscape (http://www.inkscape.org/) -->

<svg
   width="92.522743mm"
   height="171.83311mm"
   viewBox="0 0 92.522743 171.83311"
   version="1.1"
   id="svg1"
   inkscape:version="1.4.3 (0d15f75, 2025-12-25)"
   sodipodi:docname="stretching.svg"
   xmlns:inkscape="http://www.inkscape.org/namespaces/inkscape"
   xmlns:sodipodi="http://sodipodi.sourceforge.net/DTD/sodipodi-0.dtd"
   xmlns="http://www.w3.org/2000/svg"
   xmlns:svg="http://www.w3.org/2000/svg">
  <sodipodi:namedview
     id="namedview1"
     pagecolor="#ffffff"
     bordercolor="#000000"
     borderopacity="0.25"
     inkscape:showpageshadow="2"
     inkscape:pageopacity="0.0"
     inkscape:pagecheckerboard="0"
     inkscape:deskcolor="#d1d1d1"
     inkscape:document-units="mm"
     inkscape:zoom="0.023162177"
     inkscape:cx="194.28225"
     inkscape:cy="345.39067"
     inkscape:window-width="944"
     inkscape:window-height="245"
     inkscape:window-x="0"
     inkscape:window-y="34"
     inkscape:window-maximized="0"
     inkscape:current-layer="layer1" />
  <defs
     id="defs1">
    <linearGradient
       x1="261.19775"
       y1="115.89902"
       x2="251.98389"
       y2="116.35635"
       gradientUnits="userSpaceOnUse"
       id="color-1"
       gradientTransform="matrix(1.3229562,0,0,1.3229562,-225.52816,38.878109)">
      <stop
         offset="0"
         stop-color="#343630"
         id="stop1" />
      <stop
         offset="1"
         stop-color="#3f3350"
         id="stop2" />
    </linearGradient>
  </defs>
  <g
     inkscape:label="Layer 1"
     inkscape:groupmode="layer"
     id="layer1"
     transform="translate(-62.177099,-62.706251)">
    <path
       d="m 128.36585,103.6164 c 0.62982,-1.948 1.05036,-3.95782 1.2519,-5.994961 1.27128,-13.229046 -6.73235,-27.688666 -21.77063,-24.544978 -2.62783,0.549397 -5.26341,1.758275 -7.982309,1.503248 -2.302248,0.06434 -4.432036,-2.88964 -3.616169,-5.062053 2.769292,-7.364117 15.235958,-7.445122 20.726098,-6.221506 6.94745,1.494914 12.98408,5.756023 16.72235,11.800597 5.64324,8.989646 6.04051,19.60637 3.76733,29.709733 5.91454,2.7439 9.03847,4.7423 12.43178,10.20899 7.94161,12.78817 3.78089,26.65517 2.09295,40.33847 -0.32169,2.60011 1.31779,5.46378 1.61623,7.96292 0.61239,5.14636 -0.97671,11.2547 -2.16854,16.28361 7.84278,6.41898 -0.28487,20.21701 -5.25371,25.94299 -13.71662,15.80202 -33.97763,26.23038 -54.734728,28.64251 -7.676123,0.83525 -18.491674,0.52325 -24.481794,-4.66225 -1.80614,-1.56333 -3.187888,-3.509 -3.451448,-5.95835 -2.606501,-2.44605 -0.949578,-5.28162 1.106561,-7.41624 0.26549,-3.72023 11.160511,-16.02043 14.61389,-16.9547 l 0.22092,-0.63564 c -0.184102,-0.97071 -2.589065,-2.53481 -3.482444,-3.65957 1.172444,-1.05055 4.451417,-0.70773 5.065732,-1.78483 -2.259623,-0.0216 -3.685928,0.23333 -5.744011,1.29685 -0.511614,-0.71644 -1.050362,-1.73154 -1.496079,-2.51388 -1.631734,0.38662 -6.854434,2.78131 -7.348611,2.72414 l 0.03096,-0.26918 c 1.788703,-1.52747 4.658764,-2.51116 6.877692,-3.16172 -0.439909,-0.78293 -0.965083,-2.02184 -1.35267,-2.86619 l -0.236425,-0.16239 c -0.422473,-0.25038 -0.403092,-0.16008 -0.976712,-0.1967 0.372081,-0.28332 0.360452,-0.2463 0.81199,-0.362 l -0.275188,-0.34631 0.174419,-0.0863 c -0.07752,-1.10598 -0.449594,-2.7565 -0.556184,-4.08069 -0.443786,-5.50215 0.765475,-9.37006 3.230513,-14.1699 -1.515459,-7.83755 -2.420467,-14.70808 -0.571689,-22.73146 0.195732,-0.84997 0.492233,-2.1976 1.236395,-2.65767 1.810016,0.29398 13.247647,11.0607 15.055731,13.17439 2.490227,-0.7147 3.612293,-0.88446 6.203289,-1.01682 3.596787,-4.91128 6.234291,-12.77267 6.769171,-18.72461 0.84493,-9.38226 0.68989,-17.33221 7.41837,-24.75039 4.9417,-5.44867 10.72641,-8.13755 18.07502,-8.59722 z"
       fill="#343435"
       id="path15"
       style="mix-blend-mode:normal;stroke-width:0.264583" />
    <path
       d="m 137.71246,175.2787 c 1.436,-0.0824 2.13365,-0.17227 3.5057,0.38584 -0.31394,1.21838 -0.55038,2.03812 -1.23834,3.08498 -1.34879,2.05246 -2.85262,4.63028 -1.37398,7.06316 1.67437,2.75844 6.71878,2.82161 9.14312,1.04608 2.44372,-1.82591 3.10843,-4.50024 3.68787,-7.2583 7.84278,6.41898 -0.28487,20.217 -5.25371,25.94298 -13.71662,15.80203 -33.97763,26.23039 -54.734732,28.64252 -7.676122,0.83525 -18.491673,0.52324 -24.481794,-4.66226 -1.806139,-1.56332 -3.187888,-3.50899 -3.451447,-5.95834 3.13362,1.60906 5.585098,1.99606 9.117933,1.58562 3.414616,-0.39689 5.203333,-3.39835 7.408687,-5.6603 4.920392,-5.04693 9.72644,-10.18534 13.852278,-15.91713 4.499863,0.34882 6.369955,0.19127 10.831055,-0.70928 -2.07164,4.42292 -8.251674,13.65791 -11.592668,17.27213 -2.470859,0.77944 -4.118085,1.15578 -5.327359,3.70957 -2.034826,4.30161 1.792579,7.05017 5.612231,7.46392 0.980589,0.10624 5.757572,-0.31897 6.565686,-0.58002 2.56968,-0.82963 3.78089,-4.50316 5.45139,-6.28933 8.90089,-8.92705 18.3812,-17.96785 23.80546,-29.54637 1.68986,-2.62104 2.06194,-7.38038 3.41656,-9.8402 1.91467,-3.48031 3.52315,-6.01918 5.05604,-9.77527 z"
       fill="#bfc1d3"
       id="path16"
       style="mix-blend-mode:normal;stroke-width:0.264583" />
    <path
       d="m 79.235598,199.19443 c -1.418567,2.99119 -7.966803,13.05346 -10.265188,15.54274 -1.800332,0.35308 -2.755731,0.46238 -4.348703,1.41198 0.265491,-3.72024 11.160512,-16.02043 14.613891,-16.95471 z"
       fill="#bfc1d3"
       id="path17"
       style="mix-blend-mode:normal;stroke-width:0.264583" />
    <path
       d="m 71.770711,188.16202 c 1.701494,-0.16162 2.373953,-0.065 4.025068,0.19806 1.2519,0.19961 4.83899,1.75014 5.650981,1.61816 -0.03876,0.68835 -0.292625,1.42574 -0.488356,2.09955 l -6.726531,-0.009 c 0.59107,1.02923 0.711221,1.56971 2.042578,1.46371 1.606545,-0.12806 3.319668,-1.67979 4.765355,-0.41839 -2.259623,-0.0216 -3.685928,0.23333 -5.744012,1.29685 -0.511613,-0.71645 -1.050361,-1.73154 -1.496078,-2.51388 -1.631734,0.38662 -6.854434,2.7813 -7.348612,2.72414 l 0.03096,-0.26918 c 1.788703,-1.52748 4.658763,-2.51116 6.877692,-3.16172 -0.43991,-0.78293 -0.965084,-2.02184 -1.35267,-2.86619 z"
       fill="#2d282e"
       id="path18"
       style="mix-blend-mode:normal;stroke-width:0.264583" />
    <path
       d="m 74.181495,191.15379 c 1.418566,-0.35754 5.509517,-0.65811 6.670332,0.28158 -1.04454,0.56627 -4.817678,-0.0458 -7.052111,0.462 -1.631734,0.38663 -6.854434,2.78131 -7.348612,2.72414 l 0.03096,-0.26918 c 1.788703,-1.52747 4.658763,-2.51115 6.877692,-3.16172 z"
       fill="#68389a"
       id="path19"
       style="mix-blend-mode:normal;stroke-width:0.264583" />
    <path
       d="m 72.00715,188.32443 c 1.48445,0.19011 2.377829,1.34724 2.174345,2.82936 l -0.821675,0.0368 c -0.43991,-0.78292 -0.965083,-2.02183 -1.35267,-2.86618 z"
       fill="#1f1f2e"
       id="path20"
       style="mix-blend-mode:normal;stroke-width:0.264583" />
    <path
       d="m 137.71246,175.2787 c 1.25577,-3.04273 2.23055,-6.02772 3.24214,-9.15688 0.66083,3.83671 0.71122,5.66998 0.26356,9.54272 -1.37205,-0.55811 -2.0697,-0.4682 -3.5057,-0.38584 z"
       fill="#e2e1e9"
       id="path21"
       style="mix-blend-mode:normal;stroke-width:0.264583" />
    <path
       d="m 71.50522,187.17077 c 3.052232,-0.0329 7.712941,0.46956 9.941553,2.80747 -0.811991,0.13203 -4.399094,-1.41856 -5.650981,-1.61816 -1.651115,-0.26298 -2.323574,-0.35968 -4.025067,-0.19806 -0.422473,-0.25038 -0.403092,-0.16008 -0.976713,-0.1967 0.372082,-0.28332 0.360453,-0.2463 0.811991,-0.362 l -0.275188,-0.34631 z"
       fill="#68389a"
       id="path22"
       style="mix-blend-mode:normal;stroke-width:0.264583" />
    <path
       d="m 107.28706,176.29825 c 3.16656,0.0187 5.54053,1.40423 8.1916,2.95882 -1.81002,4.61226 -2.14528,8.36214 -8.03463,9.53091 -2.87201,0.0395 -5.42619,-0.65211 -8.08308,-1.6546 -0.226742,-5.80001 2.01544,-9.61113 7.92611,-10.83513 z"
       fill="#1f192b"
       id="path23"
       style="mix-blend-mode:normal;stroke-width:0.264583" />
    <path
       d="m 104.6321,178.46213 c 3.30416,-0.74028 7.18776,-1.03329 8.0792,3.09759 -0.50386,3.62527 -2.61232,5.84052 -6.26337,6.41259 -1.33523,-0.004 -2.85843,-0.16046 -4.15297,-0.48894 -2.695653,-0.68409 -1.68405,-3.45803 -1.20151,-5.25797 0.25581,-0.51626 0.63952,-1.12535 0.9399,-1.6327 0.39921,-0.9649 1.74219,-1.67417 2.59876,-2.13055 z"
       fill="#1f4290"
       id="path24"
       style="mix-blend-mode:normal;stroke-width:0.264583" />
    <path
       d="m 104.6321,178.46213 c 3.30416,-0.74028 7.18776,-1.03329 8.0792,3.09759 -0.50386,3.62527 -2.61232,5.84052 -6.26337,6.41259 l -0.0233,-0.63719 c 2.13172,-1.25965 2.47279,-2.40341 2.65496,-4.71845 -0.30038,-1.30093 -0.45541,-1.60228 -1.02516,-2.79004 -1.29454,-1.07439 -1.81196,-1.11431 -3.42237,-1.3645 z"
       fill="#dbddf0"
       id="path25"
       style="mix-blend-mode:normal;stroke-width:0.264583" />
    <path
       d="m 104.6321,178.46213 c 3.30416,-0.74028 7.18776,-1.03329 8.0792,3.09759 -2.1918,-1.25694 -2.15498,-1.42825 -4.65683,-1.73309 -1.29454,-1.07439 -1.81197,-1.11431 -3.42237,-1.3645 z"
       fill="#a69ed0"
       id="path26"
       style="mix-blend-mode:normal;stroke-width:0.264583" />
    <path
       d="m 102.03333,180.59269 c 0.39922,-0.9649 1.74219,-1.67418 2.59877,-2.13056 1.61042,0.25019 2.12784,0.29011 3.42237,1.3645 0.56974,1.18775 0.72478,1.48911 1.02515,2.79004 -1.56778,-0.22267 -2.81386,-0.15465 -4.39715,-0.11285 -0.38176,0.66607 -0.46704,0.9614 -1.14143,1.32961 -0.76354,0.0837 -0.80231,0.0347 -1.52902,-0.13934 -0.6589,-0.53738 -0.69377,-0.66141 -0.91858,-1.46876 0.25581,-0.51625 0.63952,-1.12534 0.93989,-1.6327 z"
       fill="#1b2e76"
       id="path27"
       style="mix-blend-mode:normal;stroke-width:0.264583" />
    <path
       d="m 102.03333,180.59269 0.0737,0.6773 c 1.43988,0.59533 1.57359,-0.35135 2.57551,1.23388 -0.38177,0.66607 -0.46705,0.96141 -1.14144,1.32961 -0.76354,0.0837 -0.8023,0.0347 -1.52902,-0.13933 -0.65889,-0.53739 -0.69377,-0.66142 -0.91858,-1.46876 0.25581,-0.51626 0.63952,-1.12535 0.9399,-1.6327 z"
       fill="#f6f6f2"
       id="path28"
       style="mix-blend-mode:normal;stroke-width:0.264583" />
    <path
       d="m 101.09345,182.22539 c 0.2248,0.80733 0.25969,0.93136 0.91858,1.46876 0.27519,2.31678 1.96313,4.12933 4.41266,3.64097 l 0.0233,0.63719 c -1.33523,-0.004 -2.85843,-0.16046 -4.15297,-0.48894 -2.695654,-0.68409 -1.68406,-3.45803 -1.20151,-5.25797 z"
       fill="#dbddf0"
       id="path29"
       style="mix-blend-mode:normal;stroke-width:0.264583" />
    <path
       d="m 81.346004,175.57695 c 4.94558,0.0988 7.431944,4.67505 7.350543,9.22258 -0.05226,2.93072 -2.622007,3.03421 -4.924268,2.7625 -2.802233,-0.21065 -3.387496,-0.95656 -5.788582,-2.19024 -1.612353,-2.29722 -2.189849,-4.94036 -2.434027,-7.69007 2.129774,-1.48406 3.265399,-1.81467 5.796334,-2.10478 z"
       fill="#1f192b"
       id="path30"
       style="mix-blend-mode:normal;stroke-width:0.264583" />
    <path
       d="m 77.627121,180.60683 c 0.41472,-3.66946 3.339049,-3.9708 6.306003,-3.04836 1.841026,0.81722 2.831311,2.64043 3.325475,4.52544 0.129782,0.82265 0.255807,2.44101 0.424405,3.07278 -1.123997,3.18188 -9.346607,2.4819 -10.055883,-4.54986 z"
       fill="#dbddf0"
       id="path31"
       style="mix-blend-mode:normal;stroke-width:0.264583" />
    <path
       d="m 86.409791,184.82453 c -3.715007,3.83961 -6.875761,-0.70521 -5.904857,-2.95242 1.025159,-0.0233 1.387556,0.0524 2.290633,-0.48022 1.984434,-0.30484 1.199577,1.15693 4.230483,0.71528 l 0.232549,-0.0233 c 0.129782,0.82266 0.255807,2.44102 0.424405,3.07278 z"
       fill="#1f4290"
       id="path32"
       style="mix-blend-mode:normal;stroke-width:0.264583" />
    <path
       d="m 87.02605,182.10717 0.232549,-0.0233 c 0.129782,0.82266 0.255807,2.44102 0.424405,3.07278 l -1.273213,-0.33215 c 0.403091,-0.98873 0.455414,-1.6701 0.616259,-2.71736 z"
       fill="#dbddf0"
       id="path33"
       style="mix-blend-mode:normal;stroke-width:0.264583" />
    <path
       d="m 83.933124,177.55847 c 1.841026,0.81722 2.831311,2.64043 3.325475,4.52544 l -0.232549,0.0233 c -3.030919,0.44166 -2.246049,-1.02011 -4.230483,-0.71528 0.125945,-0.65502 0.168597,-0.65966 -0.03493,-1.32031 -0.420528,-0.56219 -0.974781,-0.66374 -1.654992,-0.9147 0.864314,-0.80366 1.761569,-1.17381 2.827435,-1.5984 z"
       fill="#1b2e76"
       id="path34"
       style="mix-blend-mode:normal;stroke-width:0.264583" />
    <path
       d="m 77.627121,180.60683 c 0.41472,-3.66946 3.339049,-3.9708 6.306003,-3.04836 -1.065853,0.42461 -1.963122,0.79474 -2.827435,1.5984 -1.540649,0.18547 -2.172413,0.65812 -3.478568,1.44996 z"
       fill="#a69ed0"
       id="path35"
       style="mix-blend-mode:normal;stroke-width:0.264583" />
    <path
       d="m 122.76912,148.89484 0.27325,0.0564 c 2.73247,2.18191 -0.62401,17.50042 -2.10266,20.77687 -1.38561,-2.03405 -2.88168,-3.99096 -4.48241,-5.86203 l 2.24024,-1.04532 c -0.99609,-0.77731 -2.80223,-0.83292 -4.06576,-0.95288 0.74997,-0.56355 2.23056,-1.53657 2.52511,-2.34643 l -0.33914,-0.21337 c -1.35073,0.12345 -3.37199,0.86568 -4.61807,1.43 2.4224,-3.54175 7.24202,-9.18111 10.56944,-11.84324 z"
       fill="#584a58"
       id="path36"
       style="mix-blend-mode:normal;stroke-width:0.264583" />
    <path
       d="m 106.96535,191.50999 c 2.86038,-3.36424 14.62165,-1.54085 18.10409,1.16334 l 0.0213,0.23779 c -1.10461,0.061 -1.8856,-0.42945 -2.91077,-0.9087 -0.94764,1.0081 -2.02707,2.2131 -3.00184,3.16909 1.98831,1.14744 2.88751,1.57533 4.31576,3.37199 -1.48057,-0.48894 -3.31384,-1.76274 -4.75372,-2.59702 -1.09687,0.762 -2.18598,1.53581 -3.2654,2.32105 2.24992,1.61565 3.83903,3.55318 4.92814,6.08721 -2.09683,-1.48445 -3.26152,-3.78535 -5.85059,-5.68548 -2.17241,-1.59279 -6.0812,-2.72957 -7.35442,-3.77159 0.0679,-0.67576 0.20736,-1.03544 0.40697,-1.67321 l 0.0251,-0.3248 z"
       fill="url(#color-1)"
       id="path37"
       style="mix-blend-mode:normal;fill:url(#color-1);stroke-width:0.264583" />
    <path
       d="m 107.60487,193.22446 c 4.34288,0.26085 6.13548,0.44901 10.18379,2.25187 l 0.95152,0.47014 c -1.09686,0.76199 -2.18597,1.5358 -3.2654,2.32104 2.24993,1.61565 3.83903,3.55319 4.92815,6.08722 -2.09684,-1.48445 -3.26153,-3.78535 -5.85059,-5.68549 -2.17242,-1.59278 -6.08121,-2.72956 -7.35442,-3.77159 0.0679,-0.67575 0.20736,-1.03543 0.40697,-1.6732 z"
       fill="#2d282e"
       id="path38"
       style="mix-blend-mode:normal;stroke-width:0.264583" />
    <path
       d="m 107.1979,194.89767 c 2.58714,-0.15464 5.60254,1.64898 7.70132,3.01793 l 0.57556,0.35193 c 2.24993,1.61565 3.83903,3.55318 4.92815,6.08721 -2.09684,-1.48445 -3.26153,-3.78535 -5.85059,-5.68548 -2.17242,-1.59279 -6.08121,-2.72957 -7.35442,-3.77159 z"
       fill="#68389a"
       id="path39"
       style="mix-blend-mode:normal;stroke-width:0.264583" />
    <path
       d="m 117.78866,195.47633 0.95152,0.47014 c -1.09686,0.76199 -2.18597,1.5358 -3.2654,2.32104 l -0.57556,-0.35193 c 0.49998,-0.52421 2.19372,-1.8261 2.88944,-2.43926 z"
       fill="#1f192b"
       id="path40"
       style="mix-blend-mode:normal;stroke-width:0.264583" />
    <path
       d="m 106.96535,191.50999 c 2.86038,-3.36424 14.62165,-1.54085 18.10409,1.16334 l 0.0213,0.23779 c -1.10461,0.061 -1.8856,-0.42945 -2.91077,-0.9087 l -1.31003,-0.4403 c -3.38555,-0.88698 -6.41647,-1.23464 -9.90279,-0.65074 -1.29841,0.21744 -2.69759,0.54378 -4.00181,0.59862 z"
       fill="#68389a"
       id="path41"
       style="mix-blend-mode:normal;stroke-width:0.264583" />
    <path
       d="m 107.63006,192.89967 c 1.87397,-1.0174 8.84469,0.73487 10.68377,1.89142 l 0.86432,0.38042 c 1.98831,1.14744 2.88751,1.57533 4.31576,3.37199 -1.48058,-0.48894 -3.31385,-1.76274 -4.75373,-2.59702 l -0.95152,-0.47014 c -4.04833,-1.80284 -5.84091,-1.99102 -10.18379,-2.25187 z"
       fill="#68389a"
       id="path42"
       style="mix-blend-mode:normal;stroke-width:0.264583" />
    <path
       d="m 120.86997,191.56211 1.31003,0.44029 c -0.94765,1.00811 -2.02707,2.21311 -3.00184,3.16909 l -0.86431,-0.38041 c 0.83524,-1.00869 1.83714,-2.15691 2.55612,-3.22897 z"
       fill="#1f192b"
       id="path43"
       style="mix-blend-mode:normal;stroke-width:0.264583" />
    <path
       d="m 75.377196,147.37589 c 3.104555,1.99257 6.693589,8.03328 8.491989,11.36456 -1.775142,-0.83155 -2.530934,-0.97691 -4.395217,-1.24336 1.248024,0.90926 1.734448,1.38697 2.829367,2.49739 -0.798431,0.0558 -2.76736,0.0287 -3.090995,0.76723 l 1.697617,1.03387 c -1.608476,1.56333 -3.201448,3.14216 -4.778914,4.73591 -1.703439,-6.19515 -2.387526,-12.87576 -0.753847,-19.1556 z"
       fill="#584a58"
       id="path44"
       style="mix-blend-mode:normal;stroke-width:0.264583" />
    <path
       d="m 80.504948,198.81034 c 0.333318,0.063 3.422368,1.54801 3.879727,1.83211 2.69178,1.6761 5.389367,1.60731 8.112156,2.58442 l 0.04458,0.3025 c -0.494177,1.17361 -1.734449,2.64838 -2.651085,3.53264 -0.102662,0.35967 -0.0079,0.19089 -0.319759,0.4839 -0.03294,-0.19224 -0.253862,-1.03757 -0.393394,-1.10152 -3.385551,-1.54802 -6.899005,-2.72743 -10.288445,-4.29405 0.12793,-0.77594 1.195701,-2.5972 1.616229,-3.34002 z"
       fill="#2d282e"
       id="path45"
       style="mix-blend-mode:normal;stroke-width:0.264583" />
    <path
       d="m 89.32249,197.91172 c -1.556153,-0.20542 -4.718839,-1.48678 -3.687872,-3.51074 2.075519,0.38971 2.955338,5.59323 7.106365,-0.25426 0.992217,1.48949 1.792579,2.62413 3.656862,3.03188 2.087149,0.45618 3.106487,-0.93834 4.412655,-2.11621 l 0.20929,0.11827 c -0.093,2.80301 -1.808083,2.12571 -2.833242,3.20765 -1.701493,1.4488 -3.608416,1.86913 -5.742066,2.06815 -1.083303,-0.45792 -2.72279,-1.21721 -3.28285,-2.28617 z"
       fill="#2d282e"
       id="path46"
       style="mix-blend-mode:normal;stroke-width:0.264583" />
    <path
       d="m 89.32249,197.91172 c 1.096863,-0.20911 1.240272,-0.24709 2.147224,-0.82382 l 1.166636,-0.7306 c 2.509608,1.52689 2.083272,2.12959 5.550211,2.03095 -1.701493,1.44879 -3.608416,1.86912 -5.742066,2.06815 -1.083303,-0.45793 -2.722789,-1.21721 -3.28285,-2.28618 z"
       fill="#584a58"
       id="path47"
       style="mix-blend-mode:normal;stroke-width:0.264583" />
    <path
       d="m 91.66739,166.54719 c 0.133712,1.36605 -0.720905,3.6743 1.370107,4.48494 4.837058,1.87379 4.03282,-1.34569 4.88745,-3.96537 1.523212,0.48428 1.422442,3.09099 1.304223,4.35762 -0.835248,2.10768 -2.333258,3.55667 -4.726592,3.50222 -1.342986,-0.0359 -2.612322,-0.61393 -3.519275,-1.60227 -2.034826,-2.20517 -1.354614,-4.87466 0.684087,-6.77712 z"
       fill="#e0a3b5"
       id="path48"
       style="mix-blend-mode:normal;stroke-width:0.264583" />
    <path
       d="m 90.175189,189.68698 c 0.343016,-0.0161 0.684087,-0.0275 1.027103,-0.0339 1.048416,-0.0221 5.304102,-0.23623 5.038598,1.39782 -1.193757,1.45616 -0.860438,0.088 -2.476667,0.57519 -0.197663,1.19492 -0.04657,1.73347 -1.168567,2.38286 l -0.420528,-0.12329 c -0.441841,-0.70251 -0.434089,-1.29047 -0.538748,-2.12009 -0.42828,-0.43391 -1.069729,-0.18449 -2.052262,-0.57189 l -0.149216,-0.40406 c 0.151161,-0.51917 0.381765,-0.70211 0.740287,-1.10268 z"
       fill="#e46f7f"
       id="path49"
       style="mix-blend-mode:normal;stroke-width:0.264583" />
    <path
       d="m 75.295808,194.41124 c 2.05807,-1.06353 3.484388,-1.31836 5.744011,-1.29685 -0.614328,1.0771 -3.893288,0.73428 -5.065732,1.78483 -1.627858,0.95636 -2.585189,1.57901 -4.067706,2.73498 -0.906953,0.70793 -1.83715,2.08753 -2.420468,2.38229 -1.042608,-1.59781 4.707224,-4.96341 5.809895,-5.60525 z"
       fill="#68389a"
       id="path411"
       style="mix-blend-mode:normal;stroke-width:0.264583" />
    <path
       d="m 70.793999,187.96532 c -1.558085,0.28682 -4.612262,1.12593 -5.930045,1.15288 l 0.147285,-0.0251 0.06787,-0.27266 c 2.211176,-1.05538 3.844842,-1.37243 6.251749,-1.56332 l 0.275188,0.34631 c -0.451538,0.11576 -0.439909,0.0787 -0.811991,0.362 z"
       fill="#68389a"
       id="path418"
       style="mix-blend-mode:normal;stroke-width:0.264583" />
  </g>
</svg>
