<?xml version="1.0" encoding="UTF-8" standalone="no"?>
<!-- Created with Inkscape (http://www.inkscape.org/) -->

<svg
   width="125.82629mm"
   height="136.70694mm"
   viewBox="0 0 125.82629 136.70694"
   version="1.1"
   id="svg1"
   inkscape:version="1.4.3 (0d15f75, 2025-12-25)"
   sodipodi:docname="support.svg"
   xmlns:inkscape="http://www.inkscape.org/namespaces/inkscape"
   xmlns:sodipodi="http://sodipodi.sourceforge.net/DTD/sodipodi-0.dtd"
   xmlns="http://www.w3.org/2000/svg"
   xmlns:svg="http://www.w3.org/2000/svg">
  <sodipodi:namedview
     id="namedview1"
     pagecolor="#ffffff"
     bordercolor="#000000"
     borderopacity="0.25"
     inkscape:showpageshadow="2"
     inkscape:pageopacity="0.0"
     inkscape:pagecheckerboard="0"
     inkscape:deskcolor="#d1d1d1"
     inkscape:document-units="mm"
     inkscape:zoom="0.023162177"
     inkscape:cx="237.45609"
     inkscape:cy="259.043"
     inkscape:window-width="944"
     inkscape:window-height="245"
     inkscape:window-x="0"
     inkscape:window-y="34"
     inkscape:window-maximized="0"
     inkscape:current-layer="layer1" />
  <defs
     id="defs1" />
  <g
     inkscape:label="Layer 1"
     inkscape:groupmode="layer"
     id="layer1"
     transform="translate(-45.508331,-80.168753)">
    <path
       d="m 137.02955,190.33779 c 3.17819,-1.47283 4.8797,-3.14332 6.1219,-6.4688 3.18207,-8.52493 -1.26353,-15.48595 -4.58319,-23.22021 -4.34095,-9.79039 -1.84685,-22.85393 8.28075,-27.92161 2.279,-1.1395 5.68974,-1.84103 8.04626,-0.99415 3.78477,1.36042 4.17428,6.71878 0.24225,8.23231 -1.32554,0.51161 -2.56388,0.86819 -3.89911,1.32941 -7.12187,2.95339 -6.84088,12.08296 -4.06189,17.8386 4.29638,8.90282 7.97262,17.78045 4.20336,27.60573 -2.73247,7.17031 -8.30013,11.31553 -15.67974,12.89301 1.36818,1.1957 3.65686,1.63561 5.24596,2.63171 1.2422,0.77904 2.38752,1.76739 2.70341,3.26734 0.19573,0.92827 -0.0251,1.82552 -0.54068,2.61038 -2.71504,4.13166 -13.50928,6.26338 -18.31145,7.12381 -14.15653,2.53869 -48.984913,3.01347 -60.87911,-5.68586 -0.971671,-0.71123 -1.842388,-1.76157 -1.995097,-2.99409 -0.112451,-0.90696 0.188362,-1.77902 0.751915,-2.48635 3.566174,-4.47661 15.830124,-6.7711 21.565602,-7.28079 0.155222,-2.69758 0.197081,-5.43588 0.387586,-8.11796 -0.08295,-0.99029 -0.109143,-2.16273 -0.154256,-3.16851 -2.977035,-2.12009 -5.062239,-4.28475 -7.565854,-6.89319 -7.165674,7.69161 -14.314096,1.90885 -21.188295,-2.74411 l -0.101868,0.18605 c -1.335418,2.47861 -2.929554,3.77896 -5.929463,3.68593 -3.258428,-0.10081 -4.464593,-3.49795 -4.124871,-6.31958 0.497074,-4.1239 3.593876,-8.39508 8.119709,-8.27687 4.048524,0.15116 7.887928,2.58131 11.892847,3.17043 l 0.27712,0.0388 c 3.22374,-6.65678 2.134233,-8.74973 2.168537,-15.54216 0.01058,-2.01544 0.820908,-5.84284 1.242401,-7.92805 -0.705598,-1.31391 -0.559861,-2.16466 -0.410063,-3.61617 l -0.0938,-0.65308 c 11.768622,5.68975 17.91165,4.9262 30.29751,2.01157 1.04454,-0.36627 2.1356,-0.79649 3.21308,-1.0116 l 0.51742,1.06973 c 4.59288,6.21686 8.80593,6.93389 15.2689,10.48998 14.28443,7.86216 19.97418,21.19702 18.97228,37.13839 z"
       fill="#343435"
       id="path244"
       style="mix-blend-mode:normal;stroke-width:0.264583" />
    <path
       d="m 135.70014,199.63207 c 1.36818,1.1957 3.65686,1.63561 5.24596,2.6317 1.2422,0.77905 2.38752,1.76739 2.70341,3.26735 0.19573,0.92826 -0.0251,1.82552 -0.54068,2.61037 -2.71504,4.13166 -13.50928,6.26338 -18.31145,7.12382 -14.15653,2.53869 -48.984913,3.01347 -60.87911,-5.68587 -0.971671,-0.71122 -1.842388,-1.76157 -1.995097,-2.99409 -0.112451,-0.90695 0.188362,-1.77901 0.751915,-2.48635 3.566174,-4.4766 15.830124,-6.7711 21.565602,-7.28078 -0.266271,2.18404 -0.507155,4.56769 -0.907535,6.7149 -1.667771,1.07361 -3.525281,2.34101 -3.885152,4.48824 -1.002099,5.97849 7.815457,6.43197 11.125043,3.62779 2.039284,-1.70731 2.591592,-3.25764 3.265982,-5.57153 1.625913,-0.001 3.154946,0.001 4.78086,-0.0968 -0.939895,2.53481 -1.04454,5.3351 2.164662,6.29632 4.88357,1.46506 10.53262,0.0446 15.41037,-0.85657 6.57732,-1.46894 13.57711,-2.71696 17.09056,-9.13343 0.62401,-1.13756 0.97866,-2.69371 2.41466,-2.65497 z"
       fill="#bfc1d3"
       id="path245"
       style="mix-blend-mode:normal;stroke-width:0.264583" />
    <path
       d="m 69.26423,144.90898 0.758504,0.70152 c 0.02514,2.69178 -0.958495,5.61804 -0.96257,8.52299 -0.01627,11.87559 5.69788,22.70665 15.105726,29.8479 0.0093,-0.48836 -0.05173,-1.23639 0.146504,-1.60848 l -0.114303,0.42635 0.246308,-0.14921 c 0.223632,1.60267 0.778268,4.62389 0.183904,6.05019 -0.08295,-0.99028 -0.109144,-2.16273 -0.154257,-3.1685 -2.977035,-2.12009 -5.062239,-4.28475 -7.565854,-6.8932 -7.165673,7.69161 -14.314095,1.90885 -21.188295,-2.7441 l -0.101867,0.18604 c -1.335419,2.47862 -2.929554,3.77896 -5.929463,3.68593 -3.258428,-0.10081 -4.464594,-3.49795 -4.124872,-6.31957 0.497074,-4.12391 3.593877,-8.39509 8.11971,-8.27688 4.048524,0.15116 7.887928,2.58131 11.892847,3.17044 l 0.27712,0.0388 c 3.22374,-6.65677 2.134232,-8.74973 2.168536,-15.54216 0.01058,-2.01544 0.820908,-5.84283 1.242402,-7.92805 z"
       fill="#2d282e"
       id="path246"
       style="mix-blend-mode:normal;stroke-width:0.264583" />
    <path
       d="m 68.760369,140.63973 c 11.768622,5.68975 17.91165,4.9262 30.29751,2.01157 1.044541,-0.36627 2.135591,-0.79649 3.213081,-1.0116 l 0.51742,1.06973 c -7.015282,8.50361 -23.9698,8.53849 -32.765646,2.90107 l -0.758504,-0.70152 c -0.705598,-1.31391 -0.559861,-2.16466 -0.410063,-3.61617 z"
       fill="#7738cb"
       id="path247"
       style="mix-blend-mode:normal;stroke-width:0.264583" />
    <path
       d="m 68.760369,140.63973 c 11.768622,5.68975 17.91165,4.9262 30.29751,2.01157 -1.246079,1.69569 -6.821295,3.65493 -8.991393,4.09483 -8.52415,1.72282 -14.251294,-0.8837 -21.212319,-5.45332 z"
       fill="#68389a"
       id="path248"
       style="mix-blend-mode:normal;stroke-width:0.264583" />
    <path
       d="m 99.3815,183.03181 c 0.215113,0.37596 0.302322,0.91276 0.432157,1.34492 0.432153,0.38952 1.397243,1.1802 1.959243,1.19376 l 0.45542,-0.69184 0.13565,0.0426 c -1.21313,4.74404 -2.02513,8.00749 0.18991,12.73215 0.44379,0.94765 1.65499,2.09103 2.25575,2.97085 0.66665,0.97478 1.20538,0.79843 1.22671,2.04451 -1.98831,-0.36433 -9.274902,-4.86225 -9.193513,-6.39709 0.182171,-3.43788 2.654961,-9.52684 2.538687,-13.2399 z"
       fill="#2d282e"
       id="path249"
       style="mix-blend-mode:normal;stroke-width:0.264583" />
    <path
       d="m 96.521123,197.37634 c 3.269277,2.35263 3.699497,3.26927 7.668367,5.40099 -1.57746,0.60075 -2.48247,0.99609 -3.97855,1.76545 -1.207329,0.53874 -4.91457,1.2112 -5.972683,0.47092 -0.156969,-1.20927 1.684057,-6.3874 2.28288,-7.63736 z"
       fill="#2d282e"
       id="path250"
       style="mix-blend-mode:normal;stroke-width:0.264583" />
    <path
       d="m 64.112454,136.65923 c -2.462128,-1.86816 -4.956429,-8.22067 -5.342851,-11.57909 -0.872067,-7.57729 0.786404,-13.61004 5.039179,-19.92186 0.289913,-0.43022 1.487546,-1.61042 1.632317,-1.9011 1.181942,-2.37395 1.821062,-5.170374 2.908043,-7.581158 0.487191,-1.081358 1.856914,-2.267375 2.476283,-3.302217 2.23442,-3.734375 5.848657,-10.022942 9.735158,-12.205052 2.259226,3.732443 3.552799,10.829124 4.811287,15.088673 2.940601,-4.379713 6.99746,-8.393152 10.895391,-11.953121 0.627889,-0.571689 2.288688,-2.052263 3.135565,-1.459261 1.393364,0.953455 1.664674,5.509518 1.773194,6.786607 0.29457,3.532835 0.3469,7.083107 0.15892,10.62564 8.20517,6.069579 7.88929,10.245809 10.0462,19.288159 0.36045,1.50964 4.91844,3.20145 4.83899,5.55991 0.28294,4.93007 -3.5561,11.80389 -7.83503,14.15265 -2.04644,1.56391 -3.79832,2.31195 -6.11414,3.38168 -1.07749,0.21511 -2.16854,0.64532 -3.213081,1.0116 -12.38586,2.91464 -18.528875,3.67817 -30.29751,-2.01157 -1.838115,-1.24027 -3.283035,-2.22281 -4.647915,-3.9805 z"
       fill="#343435"
       id="path282"
       style="mix-blend-mode:normal;stroke-width:0.264583" />
    <path
       d="m 64.112454,136.65923 c 1.744132,0.7558 3.363854,3.25184 5.200038,3.68981 l -0.06668,-0.17442 c -0.09499,-0.25386 -0.05993,-0.15116 -0.13682,-0.41472 2.044509,0.96896 3.864408,1.83715 6.051942,2.48442 7.8482,2.32745 17.364965,1.71507 25.018996,-0.98641 1.08911,-0.38177 2.14722,-0.84493 3.16851,-1.38368 l 0.14534,0.11827 c -0.33914,0.25193 -1.16276,0.77711 -1.30035,1.08524 1.61428,-0.24999 4.37389,-2.04839 5.81765,-2.88945 0.14728,-0.0872 0.25386,-0.004 0.37401,0.0697 -2.04644,1.56391 -3.79833,2.31195 -6.11415,3.38168 -1.07748,0.21511 -2.16853,0.64532 -3.213077,1.0116 -12.38586,2.91464 -18.528875,3.67817 -30.29751,-2.01157 -1.838115,-1.24027 -3.283035,-2.22281 -4.647915,-3.9805 z"
       fill="#1f192b"
       id="path283"
       style="mix-blend-mode:normal;stroke-width:0.264583" />
    <path
       d="m 75.176257,107.79773 c -0.07977,0.53292 -0.0093,0.35464 -0.32673,0.7868 l -0.332936,-0.0251 c -0.499786,-0.74609 -0.349789,-3.05998 -0.380998,-4.0677 -0.198827,-6.493985 0.93021,-12.848435 3.442147,-18.850198 0.303288,-0.724781 0.421309,-2.22086 1.218178,-2.242173 0.230618,0.418597 0.463551,0.83718 0.698627,1.253832 1.447049,0.965084 3.167144,10.04813 3.591747,12.199231 0.149414,0.744163 0.275955,1.494133 0.379635,2.247993 l -3.231876,-1.492202 c 0.602501,1.199578 1.122449,2.261554 1.831924,3.402997 -1.370305,-0.11245 -2.826456,-0.25968 -4.192898,-0.30425 1.243367,0.84493 1.40441,0.94377 2.430733,2.05614 -2.025909,1.82552 -3.233807,3.17819 -5.127553,5.03472 z"
       fill="#584a58"
       id="path284"
       style="mix-blend-mode:normal;stroke-width:0.264583" />
    <path
       d="m 75.176257,107.79773 c -0.07977,0.53292 -0.0093,0.35464 -0.32673,0.7868 l -0.332936,-0.0251 c -0.499786,-0.74609 -0.349789,-3.05998 -0.380998,-4.0677 -0.198827,-6.493985 0.93021,-12.848435 3.442147,-18.850198 0.303288,-0.724781 0.421309,-2.22086 1.218178,-2.242173 0.230618,0.418597 0.463551,0.83718 0.698627,1.253832 -3.871975,6.821493 -4.583766,15.454949 -4.318275,23.144629 z"
       fill="#1f192b"
       id="path285"
       style="mix-blend-mode:normal;stroke-width:0.264583" />
    <path
       d="m 75.796393,126.50257 c -1.744516,-0.0795 -3.046027,-0.093 -4.609735,-1.03486 -1.440647,-0.8585 -2.444889,-2.29449 -2.759409,-3.94173 -0.350954,-1.7829 -0.004,-3.66655 1.07903,-5.14131 1.093568,-1.46314 2.751272,-2.40109 4.56904,-2.58326 6.124613,-0.6337 9.071815,6.20523 4.923488,10.96283 -0.445532,-0.77905 -0.886209,-1.55808 -1.32166,-2.34101 -1.807886,-1.28484 -3.383804,-0.78485 -3.542916,1.49608 0.493396,0.68602 1.18775,1.8449 1.662162,2.58326 z"
       fill="#8085a1"
       id="path286"
       style="mix-blend-mode:normal;stroke-width:0.264583" />
    <path
       d="m 74.134231,123.91931 c -1.506927,-0.4089 -3.090016,-1.22864 -3.428957,-2.90689 -1.23117,-6.09671 6.436618,-6.99009 7.810998,-1.60655 0.215112,0.84106 -0.319375,2.31388 -0.839125,3.01735 -1.807886,-1.28484 -3.383804,-0.78486 -3.542916,1.49608 z"
       fill="#bfc1d3"
       id="path287"
       style="mix-blend-mode:normal;stroke-width:0.264583" />
    <path
       d="m 93.59874,119.38845 c -0.26356,-4.17235 3.100678,-5.7692 6.80793,-5.30603 1.8856,0.37015 3.30029,3.59872 3.47857,5.33897 l 0.0814,0.69572 c 0.0562,0.91858 0.20736,1.61428 -0.18217,2.42047 -0.5465,0.50191 -0.53293,0.49223 -1.20345,0.81004 -1.50771,0.62982 -3.191767,0.69377 -4.7421,0.1783 -2.216983,-0.75192 -3.292533,-2.15691 -4.24018,-4.13747 z"
       fill="#dbddf0"
       id="path288"
       style="mix-blend-mode:normal;stroke-width:0.264583" />
    <path
       d="m 100.40667,114.08242 c 1.8856,0.37015 3.30029,3.59872 3.47857,5.33897 l 0.0814,0.69572 c 0.0562,0.91858 0.20736,1.61428 -0.18217,2.42047 -0.5465,0.50191 -0.53293,0.49223 -1.20345,0.81004 l -0.26744,-0.22286 c -2.658836,0.37208 -3.463074,-2.32551 -3.916544,-4.41459 -0.129782,-0.43603 -0.249986,-2.54642 -0.122109,-2.97472 l 0.472851,-0.0892 z"
       fill="#1f4290"
       id="path289"
       style="mix-blend-mode:normal;stroke-width:0.264583" />
    <path
       d="m 100.40667,114.08242 c 1.8856,0.37015 3.30029,3.59872 3.47857,5.33897 -0.72478,-0.94958 -1.70537,-1.99994 -2.93208,-2.06389 -0.46122,-1.40111 -0.79843,-1.32166 -2.205356,-1.71119 z"
       fill="#1b2e76"
       id="path290"
       style="mix-blend-mode:normal;stroke-width:0.264583" />
    <path
       d="m 98.274953,115.73546 0.472851,-0.0892 c 1.406936,0.38952 1.744136,0.31007 2.205356,1.71119 -0.76355,1.1957 -1.02516,1.48057 -2.556124,1.35267 -0.129782,-0.43603 -0.249986,-2.54643 -0.122109,-2.97472 z"
       fill="#f6f6f2"
       id="path291"
       style="mix-blend-mode:normal;stroke-width:0.264583" />
    <path
       d="m 102.31358,123.12477 c 1.12593,-0.99997 1.09493,-1.64529 1.65305,-3.00766 0.0562,0.91858 0.20736,1.61428 -0.18217,2.42047 -0.5465,0.50191 -0.53293,0.49223 -1.20346,0.81004 z"
       fill="#f6f6f2"
       id="path292"
       style="mix-blend-mode:normal;stroke-width:0.264583" />
    <path
       d="m 93.59874,119.38845 c -0.26356,-4.17235 3.100678,-5.7692 6.80793,-5.30603 l -1.658866,1.5639 -0.472851,0.0892 c -1.854599,0.35077 -4.350634,1.5891 -4.676213,3.65299 z"
       fill="#a69ed0"
       id="path293"
       style="mix-blend-mode:normal;stroke-width:0.264583" />
    <path
       d="m 93.780911,126.36691 c 1.300347,-0.91083 2.224736,-0.74028 3.738251,-0.6027 1.920482,0.17442 3.976618,0.72091 3.209198,3.13944 -0.32363,1.01936 0.5213,1.46507 0.25386,2.5445 -0.76354,0.98834 -2.220855,0.7306 -2.48247,1.41274 l 0.302322,0.20154 c -1.236395,0.18411 -2.116214,-0.0407 -3.370046,-0.062 -0.664706,-0.0119 -1.707314,1.0019 -1.932111,0.99997 -1.208679,-0.0155 -3.603177,-0.56782 -4.74637,-0.90113 l -0.305616,-0.37984 0.147285,-0.33914 c 1.629022,-1.43406 5.069409,-2.45341 7.125547,-3.05223 l 0.04075,-0.20542 c 0.560061,-0.45541 2.784797,-0.49804 3.953364,-0.81004 l 0.06205,-0.20736 c -0.51549,-0.37596 -3.501826,-0.37596 -4.602565,-0.76935 -3.520625,-0.45929 -8.447988,1.45926 -11.653709,2.6879 3.023351,-2.81968 6.297483,-3.13362 10.260345,-3.65686 z"
       fill="#2d282e"
       id="path294"
       style="mix-blend-mode:normal;stroke-width:0.264583" />
    <path
       d="m 93.780911,126.36691 c 1.496078,-0.0504 5.338975,-0.16279 6.492049,0.80036 l 0.0349,0.25581 c -0.972839,0.21317 -3.701436,-0.18022 -5.133562,-0.0872 -3.520625,-0.45929 -8.447989,1.45926 -11.65371,2.6879 3.023352,-2.81968 6.297483,-3.13362 10.260346,-3.65686 z"
       fill="#68389a"
       id="path295"
       style="mix-blend-mode:normal;stroke-width:0.264583" />
    <path
       d="m 95.720761,129.32806 c 1.587164,-0.24999 2.476667,-0.44572 4.067707,-0.31781 l 0.09883,0.16084 c -1.610421,0.68021 -3.980497,0.91276 -5.773077,1.50964 -1.936371,0.64339 -3.605505,1.74606 -5.360684,2.41853 l -0.305616,-0.37983 0.147284,-0.33914 c 1.629022,-1.43406 5.06941,-2.45341 7.125548,-3.05223 z"
       fill="#68389a"
       id="path296"
       style="mix-blend-mode:normal;stroke-width:0.264583" />
    <path
       d="m 100.38341,130.81251 0.23643,0.14921 -0.091,0.29845 c -1.145309,0.75772 -2.864252,1.39531 -4.199485,1.7267 -0.187979,-0.0659 -0.08136,-0.0119 -0.284873,-0.21705 0.796486,-0.76354 3.259592,-1.57166 4.339018,-1.9573 z"
       fill="#68389a"
       id="path297"
       style="mix-blend-mode:normal;stroke-width:0.264583" />
    <path
       d="m 70.848285,94.354349 c 0.349208,0.372082 -0.16066,3.145249 -0.192053,3.974677 -0.205813,5.410674 0.919547,9.358234 2.728398,14.336754 l -1.925721,0.92634 c -0.109144,0 -0.355412,-0.0795 -0.474981,-0.11047 -1.379023,-2.1356 -2.483639,-9.15282 -2.465818,-11.78645 0.02156,-3.151075 0.08851,-5.009537 2.330162,-7.340864 z"
       fill="#bfc1d3"
       id="path298"
       style="mix-blend-mode:normal;stroke-width:0.264583" />
    <path
       d="m 75.420038,122.82245 c 0.247856,0.0155 0.925937,0.0175 1.083488,0.26743 3.420437,5.401 6.062024,9.65086 12.768009,11.10625 0.941244,0.20348 3.724492,0.8585 4.042319,1.15888 l -0.01191,0.86626 c -6.256392,-1.17244 -10.737258,-2.32357 -14.770661,-7.66255 -1.061976,-1.40499 -3.326639,-4.06964 -3.111527,-5.73626 z"
       fill="#bfc1d3"
       id="path299"
       style="mix-blend-mode:normal;stroke-width:0.264583" />
    <path
       d="m 99.189645,103.23004 c 0.697648,0.64532 0.715098,1.61428 1.889475,2.49604 1.98056,1.48445 3.24796,1.00578 4.56962,-1.12592 0.63177,1.03678 1.29454,1.99993 1.44569,3.19951 -3.02705,4.12196 -8.937709,-0.0251 -7.904798,-4.56962 z"
       fill="#e0a3b5"
       id="path300"
       style="mix-blend-mode:normal;stroke-width:0.264583" />
    <path
       d="m 95.594803,134.15543 c 1.313907,-0.0155 2.178221,-0.0737 3.426245,0.44572 2.071642,0.86238 1.877842,2.00187 0.162789,3.01735 -2.722789,0.39339 -7.341824,-1.24415 -3.589034,-3.46308 z"
       fill="#8085a1"
       id="path301"
       style="mix-blend-mode:normal;stroke-width:0.264583" />
    <path
       d="m 112.88302,122.84958 c 2.59876,0.0233 2.72279,2.25768 1.7984,4.11228 l -0.39727,0.1143 c -0.7306,-1.89917 -2.10846,-1.47282 -2.42822,-3.10843 0.23062,-0.66277 0.44184,-0.72478 1.02711,-1.11817 z"
       fill="#e46f7f"
       id="path302"
       style="mix-blend-mode:normal;stroke-width:0.264583" />
    <path
       d="m 90.350009,136.76969 0.645325,0.28294 c -0.157366,0.82555 -1.498592,2.21698 -2.100709,2.91657 -0.256773,0.11828 -0.105969,0.095 -0.457161,-0.0309 -0.08467,-0.80424 1.369723,-2.46311 1.912532,-3.16851 z"
       fill="#68389a"
       id="path303"
       style="mix-blend-mode:normal;stroke-width:0.264583" />
    <path
       d="m 118.80532,81.21328 c 9.27877,-0.360453 20.41603,-0.06787 29.8169,-0.07369 l 11.55584,-0.0013 c 2.58519,0.0013 7.25559,-0.523242 9.19544,1.242203 1.45151,1.317784 1.9108,3.207269 1.89142,5.110302 -0.0504,5.263408 0.36045,10.749668 -0.37401,15.958805 -0.095,0.65502 -1.01548,1.83909 -1.43213,2.28481 -1.84685,1.97475 -6.69359,1.50189 -9.3563,1.47477 -8.67415,-0.0194 -17.35024,10e-4 -26.02439,0.0697 -2.92045,1.9108 -5.6975,4.79054 -8.69353,6.63158 -0.7306,0.44959 -1.16469,0.48255 -1.9108,0.25774 -1.2674,-1.31198 -0.44184,-4.20917 -0.99221,-6.33119 -0.44767,-0.49804 -4.00957,-0.94765 -5.02117,-1.41857 -1.07748,-0.49998 -1.79452,-1.06585 -2.17822,-2.20923 -0.92245,-2.73828 -1.12592,-17.974251 0.10465,-20.313317 0.78486,-1.496078 1.84878,-2.160784 3.41849,-2.682082 z"
       fill="#c288f4"
       id="path360"
       style="mix-blend-mode:normal;stroke-width:0.264583" />
    <path
       d="m 118.95067,82.59696 c 5.432,-0.280996 12.87751,-0.0426 18.4374,-0.04842 9.85242,-0.0093 19.94124,-0.104646 29.78008,0.0426 2.0697,1.230587 2.52511,1.806139 2.64721,4.261493 0.12978,2.658838 0.10464,5.387435 0.0892,8.032699 -0.0582,10.567498 0.72091,11.055848 -9.62954,10.895008 l -26.68327,-0.008 c -3.09488,2.25575 -6.18393,5.32348 -9.41638,7.51139 0.0329,-2.46311 0.11046,-4.9921 -0.0213,-7.44744 -1.74219,-0.13759 -3.81966,0.26744 -5.49402,-0.21123 -0.86625,-0.24613 -1.69374,-1.09687 -2.10265,-1.87592 -0.8992,-1.71312 -0.76935,-17.216511 -0.095,-19.080794 0.38564,-1.065853 1.5426,-1.608477 2.4883,-2.071644 z"
       fill="#8452db"
       id="path361"
       style="mix-blend-mode:normal;stroke-width:0.264583" />
  </g>
</svg>
