<?xml version="1.0" encoding="UTF-8" standalone="no"?>
<!-- Created with Inkscape (http://www.inkscape.org/) -->

<svg
   width="121.01904mm"
   height="113.86889mm"
   viewBox="0 0 121.01904 113.86889"
   version="1.1"
   id="svg1"
   inkscape:version="1.4.3 (0d15f75, 2025-12-25)"
   sodipodi:docname="walking.svg"
   xmlns:inkscape="http://www.inkscape.org/namespaces/inkscape"
   xmlns:sodipodi="http://sodipodi.sourceforge.net/DTD/sodipodi-0.dtd"
   xmlns="http://www.w3.org/2000/svg"
   xmlns:svg="http://www.w3.org/2000/svg">
  <sodipodi:namedview
     id="namedview1"
     pagecolor="#ffffff"
     bordercolor="#000000"
     borderopacity="0.25"
     inkscape:showpageshadow="2"
     inkscape:pageopacity="0.0"
     inkscape:pagecheckerboard="0"
     inkscape:deskcolor="#d1d1d1"
     inkscape:document-units="mm"
     inkscape:zoom="0.023162177"
     inkscape:cx="237.45609"
     inkscape:cy="172.69534"
     inkscape:window-width="944"
     inkscape:window-height="245"
     inkscape:window-x="0"
     inkscape:window-y="34"
     inkscape:window-maximized="0"
     inkscape:current-layer="layer1" />
  <defs
     id="defs1" />
  <g
     inkscape:label="Layer 1"
     inkscape:groupmode="layer"
     id="layer1"
     transform="translate(-47.889583,-97.366681)">
    <path
       d="m 67.900255,156.90941 c -11.590724,-4.97659 -16.109969,-15.76695 -12.214736,-27.67162 2.178221,-6.65677 5.899035,-15.19331 -1.325536,-20.55749 -1.45926,-1.03098 -5.337043,-1.54453 -6.028883,-3.42431 -2.069699,-5.618044 3.587103,-6.951333 7.631539,-5.453323 8.50555,3.149123 11.602352,12.220543 10.354328,20.592383 -0.620135,4.15492 -2.474735,7.9106 -3.420437,11.97636 -2.216983,9.25359 1.20733,15.3813 10.139216,18.26494 17.282412,-11.95506 33.617164,3.35066 47.558594,-3.55415 0.34107,-0.72866 1.17051,-1.8953 1.64336,-2.60457 0.68602,0.3624 0.78486,0.53487 1.32166,1.12593 5.19946,5.07736 11.25159,8.26524 18.47812,9.25359 1.73057,0.23837 3.83709,0.59107 5.57347,0.41277 -0.11828,0.57557 -0.23062,1.13563 -0.37209,1.70732 -0.312,0.86238 -0.66083,2.02512 -1.15693,2.7596 -0.87788,3.68788 -0.98059,6.46297 -2.74991,10.06751 -0.61626,2.92626 -0.17055,5.82347 1.6201,8.3137 4.34095,6.03857 11.19926,9.95511 9.48614,18.51299 -0.86626,4.32544 -5.55796,5.61416 -8.17611,2.06776 -1.18407,-1.6046 -0.42635,-4.53668 -1.40694,-6.22849 -2.31969,-2.86618 -7.77689,-4.11808 -10.71865,-6.45522 -1.65305,-1.3139 -2.04839,-2.36039 -3.24409,-3.60259 -0.43409,0.20348 -0.7306,0.36433 -1.19182,0.50773 l -0.72091,0.62595 c -0.10663,0.89145 -0.96508,3.41268 -1.25578,4.39715 -0.48835,1.65887 -2.61813,11.0171 -2.12784,11.97831 l 0.1841,0.0271 c 3.49795,-0.6589 22.11172,1.72669 26.41198,2.62976 1.85847,0.38952 3.71888,1.03485 5.40875,1.96505 -1.14531,0.75967 -4.36034,2.0949 -4.60645,2.46891 l 0.32752,0.51743 c -0.6434,0.53099 -3.05417,0.8585 -3.96112,1.0019 -12.50348,1.9825 -25.15232,2.47861 -37.79146,2.64526 -13.425943,0.23449 -26.853817,-0.23642 -40.229367,-1.41081 -3.352609,-0.32364 -16.170044,-1.67436 -18.212609,-3.85647 -0.424404,-1.9011 4.034752,-2.94759 5.41068,-3.39137 -1.503831,-3.7402 -0.366274,-13.82516 1.356546,-17.60798 1.015474,-2.23056 5.224645,-3.45533 5.693619,-7.16257 0.317814,-2.51155 0.556184,-4.42428 0.222866,-7.03466 -0.457346,-5.42037 0.06205,-8.79236 2.08908,-13.80383 z"
       fill="#333334"
       id="path140"
       style="mix-blend-mode:normal;stroke-width:0.264583" />
    <path
       d="m 116.24565,198.6271 c 0.22092,1.58134 0.51549,5.52308 1.37593,6.67615 1.53872,2.59682 5.68781,2.38946 8.34083,2.04646 2.45535,-0.24999 4.44366,-1.91273 3.37004,-4.54637 -0.69764,-1.71312 -1.96699,-2.21505 -3.55221,-2.85456 3.49795,-0.65889 22.11171,1.7267 26.41197,2.62976 1.85848,0.38952 3.71888,1.03486 5.40875,1.96506 -1.14531,0.75966 -4.36033,2.0949 -4.60644,2.46891 l 0.32751,0.51742 c -0.64339,0.531 -3.05417,0.85851 -3.96112,1.0019 -12.50348,1.98251 -25.15232,2.47861 -37.79146,2.64527 -13.42594,0.23449 -26.853813,-0.23643 -40.229364,-1.41082 -3.352609,-0.32363 -16.170043,-1.67436 -18.212608,-3.85647 -0.424405,-1.9011 4.034751,-2.94758 5.410679,-3.39137 0.474796,0.78293 0.949578,1.48833 1.521267,2.19955 3.021222,3.7712 11.515143,2.88751 8.710966,-3.48439 2.038701,-0.28875 14.272805,-1.15306 15.146816,-1.60848 1.953424,2.59489 3.352609,5.28085 6.897073,6.01338 4.011508,0.8275 11.082991,-0.97283 6.70715,-6.24205 1.963122,-10e-4 17.983941,0.1783 18.615701,-0.0872 z"
       fill="#c4c4d7"
       id="path141"
       style="mix-blend-mode:normal;stroke-width:0.264583" />
    <path
       d="m 98.391551,182.0966 0.720905,-0.0659 c 2.614254,0.98446 12.877514,2.2635 15.846414,2.32357 0.19185,4.77699 0.62013,9.54041 1.28678,14.27281 l -0.10848,0.68215 c -0.63177,0.2655 -16.65258,0.0852 -18.615701,0.0872 -1.561961,-1.15889 -2.060015,-1.18601 -3.935927,-1.24608 -1.41469,-2.57744 -1.972806,-4.59869 -2.829367,-7.38349 3.695625,-2.43402 5.918417,-4.51924 7.635416,-8.67027 z"
       fill="#e8e7ec"
       id="path142"
       style="mix-blend-mode:normal;stroke-width:0.264583" />
    <path
       d="m 87.725216,180.87571 c 2.616199,-0.10663 8.402836,0.15309 10.666335,1.22089 -1.716999,4.15104 -3.939803,6.23625 -7.635415,8.67027 0.856561,2.7848 1.41469,4.80605 2.829366,7.38349 1.875913,0.0601 2.373953,0.0872 3.935927,1.24608 4.375841,5.26921 -2.695655,7.06954 -6.70715,6.24205 -3.544464,-0.73254 -4.943649,-3.41849 -6.897073,-6.01338 -2.937889,-4.55412 -4.868069,-6.38934 -4.418462,-11.86009 l 0.0053,-0.12595 c 2.788672,-1.34298 6.07733,-4.54636 8.220678,-6.76335 z"
       fill="#302d36"
       id="path143"
       style="mix-blend-mode:normal;stroke-width:0.264583" />
    <path
       d="m 130.89247,182.41248 -0.18217,-0.0775 0.0639,-0.60076 0.30813,-0.18991 c 0.091,0.16473 0.18217,0.32945 0.27324,0.49224 4.05801,-1.43213 10.92989,-7.88735 11.67211,-12.11202 l 0.30426,-0.12013 c -0.61626,2.92626 -0.17055,5.82347 1.6201,8.3137 4.34095,6.03856 11.19926,9.95511 9.48614,18.51298 -0.86626,4.32545 -5.55796,5.61416 -8.17611,2.06777 -1.18407,-1.6046 -0.42635,-4.53668 -1.40693,-6.22849 -2.3197,-2.86619 -7.7769,-4.11809 -10.71866,-6.45522 -1.65305,-1.31391 -2.04839,-2.36039 -3.24409,-3.6026 z"
       fill="#302d36"
       id="path144"
       style="mix-blend-mode:normal;stroke-width:0.264583" />
    <path
       d="m 66.72199,199.61932 c 0.594947,-2.06583 1.195701,-4.93396 2.046455,-6.83893 0.93021,-2.0794 4.410709,-2.60845 6.375775,-3.32355 1.377859,-0.49998 2.904948,-1.26158 4.354511,-1.69181 -0.449594,5.47076 1.480573,7.30598 4.418462,11.86009 -0.873998,0.45542 -13.108115,1.31973 -15.146817,1.60848 -0.643393,-0.62982 -1.321659,-1.08523 -2.048386,-1.61428 z"
       fill="#e8e7ec"
       id="path145"
       style="mix-blend-mode:normal;stroke-width:0.264583" />
    <path
       d="m 122.2377,144.47763 c 0.68602,0.3624 0.78486,0.53487 1.32166,1.12593 5.19946,5.07736 11.25159,8.26524 18.47812,9.25359 1.73057,0.23837 3.83709,0.59107 5.57347,0.41277 -0.11828,0.57557 -0.23062,1.13563 -0.37209,1.70732 -0.312,0.86238 -0.66083,2.02512 -1.15693,2.7596 -1.43406,-0.24998 -3.15688,-0.22286 -4.64715,-0.43603 -8.04433,-1.1395 -16.57507,-4.9417 -20.84044,-12.21861 0.34107,-0.72866 1.17051,-1.8953 1.64336,-2.60457 z"
       fill="#7c29de"
       id="path146"
       style="mix-blend-mode:normal;stroke-width:0.264583" />
    <path
       d="m 123.55938,145.60356 c 5.19945,5.07736 11.25158,8.26524 18.47811,9.25359 1.73057,0.23837 3.83709,0.59107 5.57347,0.41277 -0.11827,0.57557 -0.23062,1.13563 -0.37208,1.70732 -6.75948,0.15116 -12.55,-0.78681 -18.00525,-5.09868 -1.61429,-1.27321 -5.43976,-4.2266 -5.67424,-6.27499 z"
       fill="#6c31a8"
       id="path147"
       style="mix-blend-mode:normal;stroke-width:0.264583" />
    <path
       d="m 79.504539,187.63907 c -0.554253,-0.11046 -0.372082,-0.008 -0.784857,-0.36045 0.748039,-0.64727 2.501855,-1.82552 3.368114,-2.45341 3.430121,-2.49022 4.994027,-4.55994 6.995911,-8.21292 0.844933,-1.54065 1.201509,-3.74601 2.009624,-4.58513 l 0.32169,0.0755 c 0.265491,1.94762 -2.269307,6.33119 -3.331297,7.95324 2.565808,-0.0136 9.348551,0.51162 11.412429,1.81389 l -0.38371,0.16085 -0.720905,0.0659 c -2.263499,-1.0678 -8.050136,-1.32748 -10.666335,-1.22089 -2.143348,2.21699 -5.432005,5.42038 -8.220678,6.76335 z"
       fill="#1d1a26"
       id="path148"
       style="mix-blend-mode:normal;stroke-width:0.264583" />
    <path
       d="m 117.62157,205.30325 0.23255,-0.031 c 0.96702,0.92827 5.73238,2.15304 6.91838,0.94765 0.18991,-1.07943 -1.0581,-2.22668 -0.73448,-3.05029 1.68406,0.66278 1.0678,2.83325 1.9108,4.06577 0.005,0.0388 0.009,0.0755 0.0136,0.1143 -2.65302,0.34302 -6.80211,0.55038 -8.34083,-2.04644 z"
       fill="#1d1a26"
       id="path149"
       style="mix-blend-mode:normal;stroke-width:0.264583" />
    <path
       d="m 128.97974,183.54618 c -0.12595,-0.39534 -0.24418,-0.52324 -0.0523,-0.96315 0.64533,-1.47477 3.03092,-7.40481 4.12584,-8.0327 l 0.19766,0.15116 c -0.15116,2.38946 -3.06966,5.52695 -3.55027,8.21873 z"
       fill="#1d1a26"
       id="path150"
       style="mix-blend-mode:normal;stroke-width:0.264583" />
    <path
       d="m 127.33832,97.366681 c 2.99797,1.775143 7.74201,8.984219 9.59661,12.187599 0.51742,0.81587 0.82749,1.48058 1.63561,1.99219 1.23059,-1.43213 1.98056,-4.11421 3.07354,-5.71106 1.3643,-1.99024 3.86423,-7.437749 6.20524,-7.817583 0.44766,0.135656 0.93989,0.344948 1.09105,0.860438 1.28872,4.433965 1.74801,9.129565 2.20148,13.718565 0.0119,0.11629 0.46317,0.57362 0.5465,0.65115 1.09686,-0.12793 3.684,1.9011 4.56962,2.54062 4.03089,2.90689 5.69557,7.74975 6.556,12.46859 0.90696,4.97465 2.28869,4.33708 5.23628,6.99979 0.90307,1.21896 0.98059,1.93599 0.74416,3.49214 -0.0988,0.67246 -0.22092,1.34104 -0.36627,2.00382 -0.70735,2.72472 -1.19183,4.11227 -3.00184,6.31375 -4.93202,6.17035 -12.09264,5.57542 -17.81534,8.20323 -1.73638,0.1783 -3.84291,-0.17442 -5.57347,-0.41277 -7.22652,-0.98835 -13.27866,-4.17623 -18.47811,-9.25359 -0.53681,-0.59107 -0.63564,-0.76355 -1.32166,-1.12593 -3.44951,-5.43782 -4.01344,-12.81356 -2.06389,-18.87926 0.27712,-0.86044 1.59104,-3.091 1.61042,-3.84484 0.14341,-5.20527 0.62982,-10.25549 1.99024,-15.30186 0.87012,-3.27509 1.57941,-6.23042 3.56385,-9.084989 z"
       fill="#333334"
       id="path310"
       style="mix-blend-mode:normal;stroke-width:0.264583" />
    <path
       d="m 138.57054,111.54648 c 1.23059,-1.43212 1.98056,-4.11421 3.07354,-5.71105 1.3643,-1.99025 3.86423,-7.437756 6.20524,-7.81759 0.44766,0.135656 0.93989,0.344948 1.09105,0.860438 1.28872,4.433962 1.74801,9.129562 2.20148,13.718562 0.0119,0.11629 0.46317,0.57362 0.5465,0.65115 l -0.38371,0.3062 c -0.43797,-0.10848 -0.32364,-0.031 -0.6744,-0.27325 0.0697,-0.24612 0.0349,-0.0775 0.0368,-0.51354 -2.18404,-1.14143 -9.99387,-1.85072 -12.09651,-1.22089 z"
       fill="#302d36"
       id="path311"
       style="mix-blend-mode:normal;stroke-width:0.264583" />
    <path
       d="m 165.42628,147.06669 c -0.75579,-0.5368 -1.25965,-0.98059 -2.40108,-0.65502 -1.7732,0.50386 -5.55021,-1.60267 -4.37002,-3.50765 0.96896,0.28295 1.77515,1.90693 3.03673,2.46504 2.85843,1.26353 5.16845,-1.99799 6.0095,-4.32157 0.11047,-0.30425 0.22092,-0.23255 0.55231,-0.34107 l 0.17442,0.0466 c -0.70735,2.72472 -1.19183,4.11228 -3.00184,6.31376 z"
       fill="#1d1a26"
       id="path312"
       style="mix-blend-mode:normal;stroke-width:0.264583" />
    <path
       d="m 168.05024,135.25698 c 0.90307,1.21896 0.98058,1.93599 0.74416,3.49214 -0.0988,0.67246 -0.22092,1.34104 -0.36628,2.00382 l -0.17441,-0.0466 c -1.87979,-0.96508 -0.81393,-1.2519 -1.8546,-2.42628 -1.01548,-0.0388 -2.16466,-0.0795 -1.83328,-1.52902 1.0523,-1.20926 2.16661,-0.98253 3.48439,-1.49413 z"
       fill="#f86e90"
       id="path313"
       style="mix-blend-mode:normal;stroke-width:0.264583" />
    <path
       d="m 150.63024,113.28092 c -2.96697,-0.79261 -8.67222,-2.0697 -11.66436,-0.97091 -0.22092,0.83718 0.44184,0.75773 0.30619,1.73832 l -0.44766,0.0504 c -0.98059,-0.46317 -2.30612,-3.3933 -1.88947,-4.54443 0.51742,0.81586 0.8275,1.48057 1.63561,1.99218 2.10265,-0.62982 9.91249,0.0795 12.09652,1.22089 -0.001,0.43604 0.0329,0.26744 -0.0368,0.51355 z"
       fill="#1d1a26"
       id="path314"
       style="mix-blend-mode:normal;stroke-width:0.264583" />
    <path
       d="m 127.62707,101.65918 c 2.63751,1.57554 7.58309,10.13147 8.75748,13.19727 -0.76354,-0.27131 -2.62976,-1.15306 -3.23827,-0.59687 0.15504,0.68796 0.95153,1.33135 1.48252,1.86428 -1.45344,-0.0349 -2.59101,-0.17635 -3.92817,0.4244 l 1.98831,1.16469 c -2.01738,1.54065 -2.59101,2.18792 -4.1491,4.21886 -1.80808,-6.9494 -2.52511,-13.22246 -0.91276,-20.27263 z"
       fill="#5e4a55"
       id="path315"
       style="mix-blend-mode:normal;stroke-width:0.264583" />
    <path
       d="m 145.76024,129.62924 c 1.89334,-1.6763 4.04057,-3.61616 6.73622,-3.63942 3.36617,-0.0291 5.42813,3.29641 5.55991,6.35057 0.0193,0.45542 -0.12396,0.4806 -0.41472,0.75967 -0.11629,4.08514 -3.6898,3.71888 -6.63932,2.70341 -2.25187,0.92633 -4.71496,-4.54831 -5.24208,-6.17423 z"
       fill="#e8e7ec"
       id="path316"
       style="mix-blend-mode:normal;stroke-width:0.264583" />
    <path
       d="m 145.76024,129.62924 c 1.89334,-1.6763 4.04057,-3.61616 6.73622,-3.63942 3.36617,-0.0291 5.42813,3.29641 5.55991,6.35057 0.0193,0.45542 -0.12396,0.4806 -0.41472,0.75967 -0.0872,-0.96315 -0.10848,-1.15694 -0.43603,-2.06002 -0.85851,0.001 -1.717,0.0213 -2.57356,0.0582 0.0504,-1.58909 -0.56587,-1.72862 -1.89529,-2.25962 -2.20924,0.0484 -3.24409,1.08136 -4.75761,2.5445 0.68409,2.20923 1.124,2.95146 3.02317,4.4204 -2.25187,0.92634 -4.71496,-4.54831 -5.24208,-6.17422 z"
       fill="#1d1a26"
       id="path317"
       style="mix-blend-mode:normal;stroke-width:0.264583" />
    <path
       d="m 154.18245,127.27273 c 1.78483,0.54262 2.47667,2.09683 3.02317,3.76733 -0.85851,10e-4 -1.717,0.0213 -2.57356,0.0581 0.0504,-1.5891 -0.56587,-1.72863 -1.89529,-2.25963 0.47285,-0.47092 0.98834,-1.06585 1.44568,-1.56583 z"
       fill="#152673"
       id="path318"
       style="mix-blend-mode:normal;stroke-width:0.264583" />
    <path
       d="m 147.97915,131.38307 c 0.31394,-3.26346 3.24021,-4.47273 6.20329,-4.11033 -0.45735,0.49999 -0.97284,1.09493 -1.44569,1.56584 -2.20923,0.0484 -3.24408,1.08136 -4.7576,2.54449 z"
       fill="#a2a4c2"
       id="path319"
       style="mix-blend-mode:normal;stroke-width:0.264583" />
    <path
       d="m 154.63205,131.09819 c 0.85656,-0.0368 1.71506,-0.0562 2.57356,-0.0582 0.32751,0.90307 0.34882,1.09686 0.43603,2.06001 -0.81005,0.95346 -0.47673,2.06583 -1.94374,2.70922 -1.9108,0.0679 -3.71306,-3.06579 -2.6317,-4.277 0.69377,-0.0601 0.73835,-0.0872 1.39918,-0.3624 z"
       fill="#183b8c"
       id="path320"
       style="mix-blend-mode:normal;stroke-width:0.264583" />
    <path
       d="m 153.35108,117.97069 c 0.74416,1.12788 1.1802,2.79643 2.93208,3.10843 1.08524,0.19379 1.88367,-0.39534 2.70341,-1.03485 0.58525,0.92245 1.02516,1.46313 1.26158,2.52899 -0.22092,0.18798 -0.45153,0.3682 -0.68989,0.5368 -0.81974,0.57169 -1.71894,0.68796 -2.69371,0.49418 -1.20733,-0.24999 -2.26543,-0.97284 -2.93401,-2.00963 -0.80424,-1.23058 -0.8992,-2.24411 -0.57945,-3.62392 z"
       fill="#ebabbf"
       id="path321"
       style="mix-blend-mode:normal;stroke-width:0.264583" />
    <path
       d="m 145.31838,138.84214 c 2.28288,-0.30425 7.17807,-0.10663 9.10243,1.24995 -0.52712,0.45929 -5.83508,-0.46122 -7.38543,-0.50773 -1.22671,0.0872 -2.05614,0.16279 -3.2654,0.41665 -1.39143,0.29262 -3.83516,1.22864 -5.18201,1.1298 l 0.0775,-0.24805 c 1.59685,-1.10074 4.71303,-1.81389 6.65289,-2.04063 z"
       fill="#6c31a8"
       id="path322"
       style="mix-blend-mode:normal;stroke-width:0.264583" />
    <path
       d="m 151.23874,141.35757 c 0.72478,-0.0833 1.74026,-0.0833 2.42822,0.19766 l 0.0271,0.31201 c -0.34689,0.18604 -0.2403,0.18217 -0.58331,0.1996 -4.36809,0.21317 -7.4959,1.08718 -11.30586,3.1782 -0.84493,0.47867 -1.68598,0.7868 -2.58518,1.14725 2.51155,-3.33323 8.10827,-4.50762 12.019,-5.03472 z"
       fill="#6c31a8"
       id="path323"
       style="mix-blend-mode:normal;stroke-width:0.264583" />
    <path
       d="m 153.04683,143.4389 0.42635,0.0833 0.13758,0.29457 c -0.59882,0.54068 -3.39718,1.2364 -4.61419,1.86622 -2.73828,1.42049 -4.03088,2.68402 -6.20716,4.77698 l -0.26356,0.0484 -0.25969,-0.19961 c 0.281,-2.9282 8.04239,-6.28081 10.78068,-6.86994 z"
       fill="#6c31a8"
       id="path324"
       style="mix-blend-mode:normal;stroke-width:0.264583" />
  </g>
</svg>
