<?xml version="1.0" encoding="UTF-8" standalone="no"?>
<!-- Created with Inkscape (http://www.inkscape.org/) -->

<svg
   width="300mm"
   height="345.03018mm"
   viewBox="0 0 300 345.03018"
   version="1.1"
   id="svg1"
   inkscape:version="1.4.3 (0d15f75, 2025-12-25)"
   sodipodi:docname="working.svg"
   xmlns:inkscape="http://www.inkscape.org/namespaces/inkscape"
   xmlns:sodipodi="http://sodipodi.sourceforge.net/DTD/sodipodi-0.dtd"
   xmlns="http://www.w3.org/2000/svg"
   xmlns:svg="http://www.w3.org/2000/svg">
  <sodipodi:namedview
     id="namedview1"
     pagecolor="#ffffff"
     bordercolor="#000000"
     borderopacity="0.25"
     inkscape:showpageshadow="2"
     inkscape:pageopacity="0.0"
     inkscape:pagecheckerboard="0"
     inkscape:deskcolor="#d1d1d1"
     inkscape:document-units="mm"
     inkscape:zoom="2.8928779"
     inkscape:cx="38.370095"
     inkscape:cy="43.209567"
     inkscape:window-width="1446"
     inkscape:window-height="783"
     inkscape:window-x="0"
     inkscape:window-y="34"
     inkscape:window-maximized="0"
     inkscape:current-layer="g717" />
  <defs
     id="defs1">
    <linearGradient
       x1="163.69189"
       y1="280.87207"
       x2="140.91475"
       y2="208.56738"
       gradientUnits="userSpaceOnUse"
       id="color-11"
       gradientTransform="matrix(12.559859,0,0,12.559859,-1244.1023,-2086.8843)">
      <stop
         offset="0"
         stop-color="#322d34"
         id="stop21" />
      <stop
         offset="1"
         stop-color="#3b3d38"
         id="stop22" />
    </linearGradient>
    <linearGradient
       x1="168.23438"
       y1="243.84521"
       x2="167.65723"
       y2="247.1001"
       gradientUnits="userSpaceOnUse"
       id="color-12"
       gradientTransform="matrix(12.559859,0,0,12.559859,-1244.1023,-2086.8843)">
      <stop
         offset="0"
         stop-color="#552c8e"
         id="stop23" />
      <stop
         offset="1"
         stop-color="#7a45b9"
         id="stop24" />
    </linearGradient>
    <linearGradient
       x1="169.07666"
       y1="267.51562"
       x2="180.43506"
       y2="266.12695"
       gradientUnits="userSpaceOnUse"
       id="color-13"
       gradientTransform="matrix(12.559859,0,0,12.559859,-1244.1023,-2086.8843)">
      <stop
         offset="0"
         stop-color="#9997ae"
         id="stop25" />
      <stop
         offset="1"
         stop-color="#a8aebc"
         id="stop26" />
    </linearGradient>
  </defs>
  <g
     inkscape:label="Layer 1"
     inkscape:groupmode="layer"
     id="layer1"
     transform="translate(-79.375014,-237.59582)">
    <g
       id="g717"
       style="mix-blend-mode:normal"
       transform="matrix(0.26458333,0,0,0.26458333,50.899864,189.831)">
      <path
         d="m 923.33812,549.93174 c 13.2651,-15.43606 124.62958,-138.13395 140.76488,-111.5117 20.8268,34.34946 21.6179,129.50521 18.7662,172.81462 -0.736,10.33978 -1.6191,20.66122 -2.6494,30.98266 15.1969,25.95985 34.8647,63.80509 39.133,94.0702 4.25,17.1839 3.6429,23.25533 5.1148,39.40907 1.0123,11.05733 -2.1527,50.94467 0.3491,56.57451 7.0466,0.77243 8.316,0.11303 14.9761,-1.6559 -0.038,3.31166 -0.5337,5.6851 0.5703,8.35281 4.1947,11.83001 2.2445,64.35697 1.0123,77.91647 0.6066,56.16982 -0.4785,112.54202 -0.147,168.65652 0.147,25.4816 -1.3614,63.3084 1.1957,87.8148 30.5228,40.9176 56.6481,20.8268 96.6091,13.6331 -4.1396,84.0247 2.0054,170.57 -1.6559,254.7787 -0.8641,20.2749 -12.9707,41.1569 -35.4901,41.8928 -37.3852,1.2321 -75.2488,0.6619 -112.7996,0.6808 l -223.40978,0.075 -686.58331,0.013 c -20.33918,-0.05 -43.9055,2.7966 -58.54138,-14.2035 -16.42591,-19.0789 -11.69385,-57.4024 -11.6921,-82.0192 l 0.002,-95.1741 0.21728,-180.7994 c -0.009,-27.1742 -1.2183,-53.7964 -0.51495,-81.0075 -1.81955,-14.3874 -0.53505,-88.16429 -0.0251,-104.83311 l 0.8704,-7.70886 c -1.93548,-18.83979 -0.9646,-55.19468 -0.85784,-75.08322 l 0.36298,-9.40155 c 12.58623,-2.66772 94.06832,-1.28789 112.47756,-1.15928 12.57329,-19.04213 22.02999,-33.20877 37.54895,-49.80398 l 1.0814,2.07903 c 12.05458,-16.24568 61.16865,-42.84947 63.35985,-46.17959 l -3.37798,-0.69958 c 68.29059,-35.74775 148.48479,-24.87443 215.73392,6.60498 33.50505,15.67533 74.13381,36.64929 109.23761,44.59729 0.16579,-28.27802 0.25748,-50.57679 8.55515,-77.56692 4.04767,-18.60065 2.00543,-40.23689 2.09737,-59.48149 0.0502,-39.55614 6.89938,-78.79967 20.25642,-116.01918 4.85715,-16.98156 19.44693,-54.01719 34.58872,-63.89703 26.23591,-4.87548 83.43602,73.77687 95.85483,94.08854 46.03239,-15.12332 68.69904,-16.46647 117.0128,-16.83435 z"
         fill="url(#color-11)"
         id="path278"
         style="fill:url(#color-11);stroke-width:1" />
      <path
         d="m 1096.0791,899.29578 c 10.6894,-2.35498 33.5952,11.84847 45.2965,17.5887 0.6067,56.16982 -0.4785,112.54202 -0.1469,168.65652 0.1469,25.4816 -1.3615,63.3084 1.1957,87.8148 30.5227,40.9176 56.6481,20.8268 96.609,13.6331 -4.1396,84.0247 2.0055,170.57 -1.6558,254.7787 -0.8642,20.2749 -12.9707,41.1569 -35.4902,41.8928 -37.3852,1.2321 -75.2487,0.6619 -112.7996,0.6808 l -223.40973,0.075 -686.58331,0.013 c -20.33918,-0.05 -43.9055,2.7966 -58.54138,-14.2035 -16.42591,-19.0789 -11.69385,-57.4024 -11.69209,-82.0192 l 0.002,-95.1741 0.21729,-180.7994 c -0.009,-27.1742 -1.21831,-53.7964 -0.51496,-81.0075 1.0814,11.9589 1.09271,21.2131 1.08768,33.1904 75.00598,8.5552 125.22758,42.9599 206.07677,28.3517 44.07669,-7.948 113.07189,24.5064 160.20628,36.6493 29.05258,7.488 58.28013,14.2953 87.65839,20.3852 18.3541,3.6244 53.56089,9.3648 69.27303,14.5898 19.11572,6.3474 51.09187,28.6828 71.27468,37.9923 7.61693,3.5142 46.41873,19.631 49.63845,22.7771 -22.86899,7.8193 -79.60916,12.7132 -75.61676,43.1439 14.93933,21.8755 140.69127,110.7941 169.83404,135.4661 15.87767,13.4491 32.04975,17.5519 52.37976,12.2901 49.50958,-12.8052 101.15346,-30.5964 150.07436,-46.0692 l 89.0842,-28.2414 c 13.8907,-4.434 76.2054,-17.4231 61.8916,-40.4945 -15.3993,-24.8008 -55.3787,-43.475 -79.9587,-61.3212 -30.0075,-21.7651 -64.2283,-42.6655 -95.6156,-62.7932 -8.4632,-5.4458 -17.9014,-4.6363 -26.80623,-8.3711 -27.87334,-16.1168 -55.54422,-29.4923 -85.14706,-41.9479 22.9058,-11.4254 69.01178,6.1082 93.84939,8.5 31.1114,3.0172 89.9857,3.3852 93.2791,-38.8571 l 1.0123,-4.1396 c 4.4523,-17.7542 5.1699,-25.2056 -4.6364,-41.0465 -16.7239,-32.7673 -93.7573,-45.5172 -130.14897,-67.90787 54.36667,-16.94476 96.75627,-34.86467 128.82447,-84.07997 z"
         fill="#e4b887"
         id="path279"
         style="stroke-width:1" />
      <path
         d="m 108.53561,926.39631 c 2.43963,29.82351 1.00102,75.11999 0.83397,105.78979 7.01519,-4.3419 14.72229,-9.3647 21.96745,-13.1363 72.63442,30.0811 129.52907,51.0918 207.05731,18.7846 1.82332,-0.7548 3.63922,-1.527 5.4496,-2.3182 82.56386,38.2132 239.31505,89.8386 331.24731,85.5886 56.18817,50.8895 56.29857,60.9349 134.0495,87.318 -13.61464,4.7099 -42.20553,14.9761 -55.36022,16.7424 -3.21972,-3.1461 -42.02152,-19.2629 -49.63845,-22.777 -20.18281,-9.3095 -52.15896,-31.645 -71.27468,-37.9924 -15.71214,-5.2251 -50.91893,-10.9653 -69.27303,-14.5897 -29.37826,-6.0898 -58.60568,-12.8973 -87.65839,-20.3853 -47.13439,-12.1429 -116.12959,-44.5973 -160.20628,-36.6493 -80.84919,14.6082 -131.0708,-19.7965 -206.07677,-28.3516 0.006,-11.9772 -0.006,-21.2316 -1.08768,-33.1905 -1.81955,-14.3874 -0.53505,-88.16427 -0.0251,-104.83309 z"
         fill="#be8e6a"
         id="path280"
         style="stroke-width:1" />
      <path
         d="m 995.5327,1011.6906 c 38.5995,9.2727 111.5853,28.4436 100.3808,80.0691 l 2.7781,-0.3316 c 6.2002,-11.9772 1.2321,-26.4383 -1.2879,-40.145 9.8062,15.8409 9.0887,23.2922 4.6363,41.0465 l -1.0123,4.1396 c -11.3149,12.9156 -17.2759,15.2522 -34.2022,19.447 l 6.5313,-10.5974 c -3.0357,-6.605 1.0124,-5.4458 -3.1644,-14.0747 -1.6559,7.3961 -0.736,9.3463 -5.1331,13.8171 -4.1396,-2.2078 -2.9253,-1.0299 -5.4458,-4.9859 l -5.7771,2.9805 c -3.0357,-1.6743 -13.3387,-5.0595 -15.4545,-6.7522 -15.1786,-12.0876 -46.12431,-29.29 -57.5681,-43.5302 -2.85172,-3.5508 -0.75485,-27.5606 2.07903,-31.9026 4.23154,-6.5129 5.42749,-6.6601 12.63961,-9.1807 z"
         fill="#383837"
         id="path281"
         style="stroke-width:1" />
      <path
         d="m 1095.9135,1091.7597 2.7781,-0.3316 c 6.2002,-11.9772 1.2321,-26.4383 -1.2879,-40.145 9.8062,15.8409 9.0887,23.2922 4.6363,41.0465 l -1.0123,4.1396 c -11.3149,12.9156 -17.2759,15.2522 -34.2022,19.447 l 6.5313,-10.5974 c 21.2131,-25.0584 2.2078,-34.6991 5.4827,-47.4307 l 3.5692,1.2879 c 10.119,11.5909 8.8679,15.6201 10.9102,31.2586 z"
         fill="#1e1a28"
         id="path282"
         style="stroke-width:1" />
      <path
         d="m 1059.6138,1100.0757 c -2.9069,-14.0011 -12.9706,-17.9383 -13.081,-28.2597 l 2.8517,-2.4837 4.3787,0.6619 c 8.5184,7.5801 10.5974,11.7749 16.4297,21.2499 -1.6559,7.3961 -0.736,9.3463 -5.1331,13.8171 -4.1396,-2.2078 -2.9253,-1.0299 -5.4458,-4.9859 z"
         fill="#1e1a28"
         id="path283"
         style="stroke-width:1" />
      <path
         d="m 894.89444,1073.6742 c 23.43933,4.3236 46.62107,9.9903 69.41658,17 39.57458,12.3637 60.93488,27.3582 102.51498,25.2425 16.9264,-4.1948 22.8874,-6.5314 34.2022,-19.447 -3.2933,42.2424 -62.1676,41.8744 -93.279,38.8571 -24.83766,-2.3918 -70.94364,-19.9253 -93.84943,-8.5 -22.44585,-9.0519 -38.93067,-16.448 -59.57342,-28.922 13.7803,-7.6169 27.32133,-15.6936 40.56809,-24.2305 z"
         fill="#be8e6a"
         id="path284"
         style="stroke-width:1" />
      <path
         d="m 1086.2544,894.43863 9.8247,4.85715 c -32.068,49.2153 -74.4576,67.13508 -128.82442,84.07996 36.39172,22.39056 113.42502,35.14056 130.14902,67.90786 2.5205,13.7067 7.4881,28.1678 1.2879,40.145 l -2.7781,0.3316 c 11.2045,-51.6254 -61.7813,-70.7964 -100.3808,-80.0691 -14.03791,-10.4319 -20.66122,-11.0206 -36.26295,-17.80954 -3.21972,-0.0126 -1.96864,0.25748 -5.66664,3.8084 l -1.32468,-1.65589 1.17685,1.1957 c -1.93183,-3.6244 -1.52702,-1.63743 -1.01232,-5.97937 l 0.97464,-3.9556 c -6.45777,-1.63743 -22.16991,1.85823 -30.44911,2.55731 -27.87334,2.37331 -95.81804,2.15263 -118.79743,-12.93402 l 9.6039,-6.71538 c 79.8483,18.95019 171.41632,11.25967 239.43464,-39.62974 9.1071,-6.82578 25.0031,-26.8614 33.0432,-36.13409 z"
         fill="#22182c"
         id="path285"
         style="stroke-width:1" />
      <path
         d="m 108.54855,843.60436 c 26.67563,0.42327 53.35666,0.47853 80.03418,0.16579 l 25.82747,0.6619 c -2.92168,7.39613 -5.88932,15.49133 -9.23778,22.68499 -22.4348,48.16656 -57.51285,11.59087 -95.76641,51.57028 -1.93548,-18.83979 -0.9646,-55.19468 -0.85784,-75.08321 z"
         fill="#e4b887"
         id="path286"
         style="stroke-width:1" />
      <path
         d="m 959.26987,993.88106 c 15.60173,6.78894 22.22505,7.37764 36.26295,17.80954 -7.21212,2.5205 -8.40795,2.6677 -12.63961,9.1807 -2.83338,4.342 -4.93075,28.3516 -2.07904,31.9026 11.44367,14.2402 42.38953,31.4426 57.56813,43.5302 2.1158,1.6927 12.4188,5.0779 15.4545,6.7522 -15.6753,0.8641 -60.71409,-11.2414 -75.94782,-17.4783 -14.71852,-6.0162 -28.53562,-5.8507 -44.21095,-12.1245 7.58012,-1.6742 14.64504,-3.4956 22.15144,-5.501 l 0.68075,-1.7662 c -14.86572,-2.9989 -42.15039,1.527 -51.47822,-4.4156 l 1.32469,-3.4405 c 18.65579,-12.6211 41.65364,-41.8928 51.86456,-62.27804 z"
         fill="#2d2b31"
         id="path287"
         style="stroke-width:1" />
      <path
         d="m 803.08727,976.66036 1.08517,0.25748 c 22.97939,15.08653 90.92409,15.30733 118.79743,12.93402 8.27921,-0.69959 23.99134,-4.19474 30.44912,-2.55731 l -0.97465,3.9556 c -46.51066,43.32785 -118.31902,29.63955 -171.12192,6.49458 1.67423,-6.12658 2.92531,-8.07687 8.44474,-10.74459 4.04767,1.50869 7.85607,3.27486 11.68293,5.26196 l 1.23213,-1.43509 c -4.39721,-2.48372 -3.42206,-1.60063 -6.99132,-5.02269 z"
         fill="url(#color-12)"
         id="path288"
         style="fill:url(#color-12);stroke-width:1" />
      <path
         d="m 736.90887,970.79127 c -17.3311,-14.57145 -20.55082,-22.44585 -34.79106,-35.82135 l -6.45778,1.30623 -2.07903,-1.63743 6.36584,-6.27378 c -1.71103,-4.2132 -3.64286,-8.18727 -5.57469,-12.29007 5.24349,3.14612 7.28572,5.7587 11.44366,10.10064 l 1.91337,2.94378 1.47189,-0.38684 9.47503,-5.74024 c 8.86789,6.16338 37.80832,23.73374 42.40786,29.71311 l -8.27921,5.6851 5.16989,1.43509 1.67423,1.25096 c 3.64286,-2.68618 7.45126,-4.74675 11.37007,-6.99132 13.48589,5.97937 20.80842,8.70235 34.90146,13.04429 l -4.98589,5.44583 2.15263,4.08447 -7.39612,9.14395 c 3.56926,3.42206 2.59411,2.53898 6.99132,5.02269 l -1.23212,1.43509 c -3.82686,-1.98697 -7.63527,-3.75326 -11.68293,-5.26195 -5.51943,2.66771 -6.77052,4.618 -8.44475,10.74458 -3.03572,8.684 -17.97504,18.9502 -25.55517,24.8928 8.29755,-11.2414 12.58435,-16.5032 22.24351,-26.56703 -14.20344,-7.45126 -22.50098,-12.80515 -35.85814,-21.85705 -9.7879,8.24241 -13.50436,10.52379 -24.35922,16.94476 5.8323,-7.30406 12.54755,-13.72504 19.11573,-20.36681 z"
         fill="#7644b8"
         id="path289"
         style="stroke-width:1" />
      <path
         d="m 718.67623,922.99272 c 8.86788,6.16337 37.80831,23.73373 42.40786,29.7131 l -8.27921,5.6851 C 739.07984,953.49697 720.5896,937.9873 709.20107,928.73295 Z"
         fill="#22182c"
         id="path290"
         style="stroke-width:1" />
      <path
         d="m 771.01919,954.08565 c 13.48589,5.97937 20.80842,8.70235 34.90146,13.04429 l -4.98589,5.44583 -7.17532,5.5747 c -12.12441,-5.66664 -22.42739,-10.59738 -34.11032,-17.0735 3.64287,-2.68618 7.45127,-4.74675 11.37007,-6.99132 z"
         fill="#22182c"
         id="path291"
         style="stroke-width:1" />
      <path
         d="m 757.97477,959.82601 1.67423,1.25096 c 11.68293,6.47624 21.98591,11.40686 34.11031,17.07362 -4.618,5.28029 -1.89503,3.7716 -7.78246,5.70343 -12.12441,-2.74131 -25.97831,-5.46429 -35.89495,-13.20995 2.24457,-9.18076 1.47189,1.37982 7.89287,-10.81819 z"
         fill="#5d2e9c"
         id="path292"
         style="stroke-width:1" />
      <path
         d="m 707.72918,929.11929 1.47189,-0.38684 c 11.38853,9.25435 29.87877,24.76402 43.60381,29.65797 l 5.16989,1.43509 c -7.98481,-0.57022 -10.87332,5.15155 -14.1115,4.45234 -12.89722,-2.77811 -29.56591,-26.01511 -36.13409,-35.15906 z"
         fill="#5d2e9c"
         id="path293"
         style="stroke-width:1" />
      <path
         d="m 1140.3636,838.96801 c 4.1947,11.83001 2.2445,64.35697 1.0123,77.91647 -11.7013,-5.74023 -34.6071,-19.94368 -45.2965,-17.5887 l -9.8247,-4.85715 c -5.4458,-3.07252 -5.5194,-3.45886 -9.7143,-7.764 l 4.3051,-0.9018 3.183,2.39177 c 5.1147,1.87657 10.0821,4.10281 15.4545,4.65481 l 1.3983,-0.77243 13.1363,-26.14385 1.7663,-5.75869 3.8452,-14.29538 2.2078,-3.79007 c 5.6115,-0.62548 12.842,-2.09737 18.527,-3.09085 z"
         fill="#5b3b4e"
         id="path294"
         style="stroke-width:1" />
      <path
         d="m 1114.0174,865.90301 c 8.8312,1.71103 17.7174,3.18292 26.6406,4.41554 l -0.075,37.16437 c -15.6569,-7.50652 -22.7034,-10.81818 -39.7033,-15.43606 z"
         fill="#e4b887"
         id="path295"
         style="stroke-width:1" />
      <path
         d="m 1121.8366,842.05887 c 5.6115,-0.62548 12.842,-2.09737 18.5271,-3.09086 0.3316,6.99132 1.6374,14.86573 -1.3798,20.90036 -7.4145,3.42206 -13.7987,1.12285 -23.2002,0.27632 l 3.8452,-14.29538 z"
         fill="#eec9c5"
         id="path296"
         style="stroke-width:1" />
      <path
         d="m 675.8819,536.57459 c 1.60063,4.41554 -3.44052,25.6471 -3.51413,37.77151 l 2.66772,-11.33326 c -1.98697,29.25317 -9.36476,63.78662 -9.23589,92.39597 0.14695,31.77381 4.96755,66.068 5.35389,98.96403 -5.96104,-14.77379 -8.37115,-31.73701 -17.3311,-41.76404 -0.0879,-0.18338 -0.20221,-0.34917 -0.2939,-0.5338 4.04766,-18.60065 2.00543,-40.23689 2.09737,-59.48148 0.0502,-39.55615 6.89938,-78.79968 20.25641,-116.01919 z"
         fill="#1e1a28"
         id="path297"
         style="stroke-width:1" />
      <path
         d="m 1109.6018,845.46259 c 7.1201,-1.69269 3.9005,-2.13417 10.0271,0.38684 l -3.8452,14.29538 -1.7662,5.7587 -13.1363,26.14385 -1.3983,0.77243 c -5.3723,-0.55138 -10.3398,-2.77812 -15.4546,-4.65481 l -3.1829,-2.39177 -4.3051,0.90179 c -2.8334,-6.10823 -2.7598,-5.64829 -2.7045,-12.38201 l 0.013,-3.12765 c 0.5891,-6.42098 0.7913,-7.70887 0.2575,-14.33218 7.6169,1.49022 6.2738,0.20221 15.1786,-4.72829 5.3907,-2.15263 14.5162,-4.76508 20.3117,-6.64178 z"
         fill="#22182c"
         id="path298"
         style="stroke-width:1" />
      <path
         d="m 1074.1116,856.83265 c 7.6169,1.49023 6.2737,0.20222 15.1786,-4.72828 2.6677,5.61149 4.0292,7.54332 4.4708,13.83544 l 13.5227,0.0377 c -4.8019,7.37766 -8.2424,6.84411 -16.7976,7.54332 -1.987,5.05949 -3.6797,9.95344 -6.4578,14.64505 l -3.1829,-2.39177 -4.3051,0.90179 c -2.8334,-6.10823 -2.7598,-5.64829 -2.7045,-12.38201 l 0.013,-3.12765 c 0.5891,-6.42098 0.7913,-7.70887 0.2575,-14.33219 z"
         fill="#604978"
         id="path299"
         style="stroke-width:1" />
      <path
         d="m 1074.1116,856.83265 c 7.6169,1.49023 6.2737,0.20222 15.1786,-4.72828 2.6677,5.61149 4.0292,7.54332 4.4708,13.83544 -5.7955,1.32469 -14.6634,3.01725 -19.9069,5.22515 0.589,-6.42098 0.7913,-7.70887 0.2575,-14.33218 z"
         fill="#353557"
         id="path300"
         style="stroke-width:1" />
      <path
         d="m 1073.8356,874.29262 c 7.3226,0.368 9.3095,0.16579 16.6504,-0.77244 -1.987,5.05949 -3.6797,9.95344 -6.4578,14.64505 l -3.1829,-2.39177 -4.3052,0.90179 c -2.8333,-6.10823 -2.7597,-5.64829 -2.7045,-12.38201 z"
         fill="#353557"
         id="path301"
         style="stroke-width:1" />
      <path
         d="m 705.81581,926.17563 c 34.97506,-23.93607 123.21297,-47.08113 164.22267,-31.88408 -7.00978,4.67315 -77.51179,0.49737 -94.64055,10.21104 0.27632,-0.16579 -58.91114,18.50859 -56.7217,18.49025 l -9.47504,5.74023 -1.47189,0.38685 z"
         fill="#604978"
         id="path302"
         style="stroke-width:1" />
      <path
         d="m 1111.5888,837.90093 c -0.3316,-7.24893 -0.038,-104.52039 -1.3615,-102.57009 4.1764,8.26074 6.605,48.9209 6.5682,60.29096 -0.05,11.86681 -3.698,21.70997 -1.5638,36.00535 l 1.9501,1.06759 c 10.7998,-14.44258 -1.4351,-84.72391 2.171,-96.40672 4.25,17.1839 3.6429,23.25534 5.1148,39.40907 1.0123,11.05733 -2.1527,50.94468 0.3491,56.57451 7.0466,0.77243 8.316,0.11304 14.9761,-1.65589 -0.038,3.31165 -0.5337,5.68509 0.5703,8.3528 -5.6851,0.99349 -12.9156,2.46538 -18.5271,3.09086 -5.0043,-3.14612 -4.4523,-2.48371 -10.2478,-4.15794 z"
         fill="#22182c"
         id="path303"
         style="stroke-width:1" />
      <path
         d="m 761.08409,952.70582 c 27.96528,-17.75424 52.5453,-31.5898 85.12859,-37.80831 7.67206,-1.45343 17.42316,-5.7955 24.70888,-1.45343 l -0.60664,2.28138 c -28.84836,7.30406 -75.9663,18.74785 -99.29523,38.36032 -3.9188,2.24457 -7.7272,4.30514 -11.37006,6.99132 l -1.67423,-1.25097 -5.16989,-1.43508 z"
         fill="#604978"
         id="path304"
         style="stroke-width:1" />
      <path
         d="m 108.91102,834.2028 c 28.07568,1.93183 59.41529,-0.53379 86.41095,1.74783 -9.90005,0.88296 -19.81116,1.61909 -29.73333,2.20777 7.32064,2.99892 14.58614,2.59412 22.6556,3.25652 l 0.33786,2.35498 c -26.67739,0.31274 -53.35855,0.25747 -80.03418,-0.16579 z"
         fill="#0d0a11"
         id="path305"
         style="stroke-width:1" />
      <path
         d="m 805.92052,967.13007 c 21.43391,-14.75532 38.91221,-28.73809 64.55944,-34.93826 l 1.43509,2.66771 -0.20222,-2.85171 2.00544,0.95706 c -8.97829,7.96646 -43.84296,25.6839 -59.94143,37.23797 l -9.6039,6.71538 -1.08517,-0.25748 -2.15263,-4.08446 z"
         fill="#604978"
         id="path306"
         style="stroke-width:1" />
      <path
         d="m 1111.5888,837.90093 c 5.7955,1.67423 5.2435,1.01232 10.2478,4.15794 l -2.2077,3.79006 c -6.1266,-2.52051 -2.907,-2.07903 -10.0271,-0.38684 -5.7955,1.87657 -14.9209,4.48914 -20.3116,6.64178 -8.9047,4.93075 -7.5617,6.21863 -15.1786,4.72828 9.6958,-13.7435 21.6547,-14.92099 37.4772,-18.93173 z"
         fill="#604978"
         id="path307"
         style="stroke-width:1" />
      <path
         d="m 1007.5652,1178.7465 c 19.1893,9.3463 179.6219,114.5657 184.5159,124.556 1.5454,3.1644 1.1228,1.8398 -0.3681,5.7219 -5.3354,4.3419 -11.83,8.0584 -18.3798,10.2478 -85.7174,28.6645 -172.5754,54.3299 -258.53189,82.4424 -16.37441,5.3539 -37.31157,8.3712 -52.5453,-0.9382 -15.30733,-9.8062 -35.89494,-26.5302 -49.41764,-37.8268 -18.34305,-15.3256 -120.8948,-87.2444 -124.8136,-101.6686 7.00978,-11.0758 70.98041,-26.0519 87.81477,-30.7066 16.90795,-6.4395 37.73471,-11.5541 55.41548,-16.3929 7.08325,2.3918 30.50425,9.2175 34.60705,12.7683 -2.48371,10.0639 -9.38309,27.2478 -0.86411,37.3301 37.95551,44.8917 158.88714,91.1449 197.85454,26.1623 9.7879,-38.8939 -16.448,-61.7077 -46.7499,-79.5539 -2.2262,-14.737 -3.2933,-18.4167 -8.5368,-32.1417 z"
         fill="#9c7cc0"
         id="path308"
         style="stroke-width:1" />
      <path
         d="m 775.83954,1230.5744 c 16.90795,-6.4395 37.73471,-11.5541 55.41548,-16.3929 7.08325,2.3918 30.50425,9.2175 34.60705,12.7683 -2.48371,10.0639 -9.38309,27.2478 -0.86411,37.3301 37.95551,44.8917 158.88714,91.1449 197.85454,26.1623 2.2446,27.2662 -23.3289,36.3917 -46.2715,40.8072 -47.3018,9.1072 -102.423,-7.1936 -142.65989,-32.0313 -17.97504,-11.1125 -25.16883,-28.5724 -28.38842,-48.1482 -12.98916,-3.0908 -58.83754,-16.0985 -69.69253,-20.4957 z"
         fill="#7d5ea5"
         id="path309"
         style="stroke-width:1" />
      <path
         d="m 711.90558,530.83435 9.47504,-27.92848 c 30.43065,32.50969 57.51285,65.38726 75.70869,106.50736 -12.36355,-5.66663 -22.77705,-10.72612 -35.78455,-14.84739 7.32253,8.90469 16.20888,20.29322 24.08328,28.37009 -16.61355,0.4421 -26.91665,0.91938 -43.03347,5.96103 l 23.1634,6.86258 c -23.14493,20.91882 -34.58872,36.09729 -53.46531,54.422 0.0502,1.10401 0.11304,0.23863 -0.8277,3.38525 -16.76075,-18.91338 -15.47286,-140.15772 -1.32468,-162.36443 z"
         fill="#574b54"
         id="path310"
         style="stroke-width:1" />
      <path
         d="m 712.05278,690.18154 c 0.0502,1.10401 0.11304,0.23863 -0.82769,3.38525 -16.76076,-18.91338 -15.47287,-140.15772 -1.32469,-162.36443 l 2.00543,-0.36801 c -8.83108,52.74777 -8.79441,106.61776 0.14695,159.34706 z"
         fill="#0d0a11"
         id="path311"
         style="stroke-width:1" />
      <path
         d="m 813.29831,825.88679 c -2.94365,-38.52586 52.98691,-57.32885 84.41104,-38.24992 3.20126,2.33664 7.24893,5.07795 10.19258,7.61693 8.31601,7.85607 12.03247,15.74893 16.09848,26.38311 3.51412,8.61042 8.50001,17.91991 7.9112,26.76946 -3.93727,7.74566 -5.51943,7.74566 -14.60825,11.55406 -11.33326,7.23046 -15.96961,8.18727 -29.41883,9.1991 -39.22507,1.34302 -56.40896,-9.08869 -74.58647,-43.27261 z"
         fill="#c9cce5"
         id="path312"
         style="stroke-width:1" />
      <path
         d="m 887.88466,869.15953 -0.40443,-1.61909 c -14.20344,-5.18836 -39.96095,-30.50426 -25.49991,-41.74558 9.7879,4.89394 17.03682,8.48154 25.31603,-0.69959 1.54549,-5.77703 1.85823,-5.46429 0.11304,-11.11259 -3.8452,-4.5812 -6.86258,-4.74674 -12.69475,-6.43944 l -2.29984,-0.64432 -0.95706,-2.13417 c 11.38853,-13.8171 20.29322,-12.27161 36.44695,-9.51183 8.31601,7.85607 12.03248,15.74893 16.09848,26.38311 3.51412,8.61042 8.50001,17.91991 7.9112,26.76946 -3.93726,7.74567 -5.51943,7.74567 -14.60824,11.55407 -11.33327,7.23046 -15.96961,8.18727 -29.41884,9.19909 z"
         fill="#204d91"
         id="path313"
         style="stroke-width:1" />
      <path
         d="m 924.00041,821.63679 c 3.51412,8.61041 8.50001,17.9199 7.9112,26.76945 -3.93727,7.74567 -5.51943,7.74567 -14.60825,11.55407 4.48915,-17.8463 5.44583,-19.99894 6.69692,-38.32352 z"
         fill="#fcfdfd"
         id="path314"
         style="stroke-width:1" />
      <path
         d="m 813.29831,825.88679 c -2.94365,-38.52586 52.98691,-57.32885 84.41104,-38.24992 -28.46202,5.5379 -47.09947,-3.9556 -68.93817,21.19477 -4.13961,4.74674 -11.05733,13.09955 -15.47287,17.05515 z"
         fill="#9fa3be"
         id="path315"
         style="stroke-width:1" />
      <path
         d="m 1049.9364,465.92538 2.8149,1.76629 c 21.0107,43.36467 15.1969,106.43375 7.6537,152.3742 -1.3983,-1.80297 -2.8334,-3.53246 -4.2683,-5.29863 -7.5434,-9.23589 -26.9718,-17.6255 -30.7802,-26.64059 l 2.4837,-3.6244 c 4.6548,-2.20777 7.8192,-2.61257 10.3214,-7.28572 l -3.054,-2.31817 c -9.8063,-1.32469 -17.9751,-0.31274 -27.5974,1.25096 7.8192,-8.79441 16.08,-17.23916 24.12,-25.81277 -11.2045,3.53246 -21.6363,7.15686 -32.06805,12.62115 12.54755,-35.1774 28.14925,-66.87761 50.37435,-97.03232 z"
         fill="#574b54"
         id="path316"
         style="stroke-width:1" />
      <path
         d="m 1037.7199,768.37394 c 11.0758,-23.07133 36.1157,-35.6926 48.6449,-5.04115 4.5445,20.77162 1.2146,46.71313 -15.0681,61.8548 -2.723,2.37331 -6.1266,4.74674 -7.764,7.6904 l 0.736,2.04223 c -7.7457,5.74023 -28.4253,5.53789 -36.0237,-1.06759 l 0.6807,-4.04766 c 0.6996,-7.39613 -0.075,-19.57567 -0.3316,-27.3766 l -0.1281,-8.79442 c 2.6309,-8.48154 2.8885,-9.40155 7.4881,-16.85281 z"
         fill="#204d91"
         id="path317"
         style="stroke-width:1" />
      <path
         d="m 1037.7199,768.37394 c 11.0758,-23.07133 36.1157,-35.6926 48.6449,-5.04115 4.5445,20.77162 1.2146,46.71313 -15.0681,61.8548 8.0768,-26.32785 12.014,-51.84622 -17.9568,-63.82343 -5.317,3.07252 -9.6406,6.32904 -15.62,7.00978 z"
         fill="#e4e5ef"
         id="path318"
         style="stroke-width:1" />
      <path
         d="m 1037.7199,768.37394 c 11.0758,-23.07133 36.1157,-35.6926 48.6449,-5.04115 -11.83,-4.58121 -18.2694,-7.9848 -30.725,-4.70994 l -2.2999,2.74131 c -5.317,3.07252 -9.6406,6.32904 -15.62,7.00978 z"
         fill="#9fa3be"
         id="path319"
         style="stroke-width:1" />
      <path
         d="m 1035.9537,776.78189 c 9.8247,1.82143 7.3041,0.0377 14.3507,5.77703 2.5205,7.23046 2.5941,3.79007 0.3127,10.67098 -9.7694,7.21213 -11.5725,4.65481 -22.1514,0.40443 2.6309,-8.48155 2.8885,-9.40156 7.488,-16.85282 z"
         fill="#e4e5ef"
         id="path320"
         style="stroke-width:1" />
      <path
         d="m 1028.9256,829.80559 c 8.2975,2.83338 9.1255,3.12766 17.7727,3.71647 l 16.8344,-0.64432 0.736,2.04223 c -7.7457,5.74023 -28.4253,5.53789 -36.0237,-1.06759 z"
         fill="#0d0a11"
         id="path321"
         style="stroke-width:1" />
      <path
         d="m 1028.5944,802.42912 1.987,0.9018 c 2.5389,12.62115 7.1936,21.01076 16.1168,30.19151 -8.6472,-0.58905 -9.4751,-0.88295 -17.7727,-3.71646 0.6996,-7.39612 -0.075,-19.57567 -0.3316,-27.3766 z"
         fill="#e4e5ef"
         id="path322"
         style="stroke-width:1" />
      <path
         d="m 878.09688,1228.7529 c 20.97396,4.9676 38.10272,16.908 58.1568,23.8074 19.92534,6.8441 36.68609,4.6363 55.34188,-4.1764 9.01504,7.7824 19.37334,13.6882 27.74444,22.2435 7.5617,7.7088 12.0325,17.6806 12.0508,28.5173 -62.03875,11.3149 -65.57121,-30.0627 -111.69566,-49.5281 -13.43076,-5.6666 -32.12335,-5.7955 -46.73147,-7.3408 -0.2939,-5.5747 2.52051,-8.7209 5.13309,-13.5227 z"
         fill="url(#color-13)"
         id="path323"
         style="fill:url(#color-13);stroke-width:1" />
      <path
         d="m 983.46355,644.36983 c 4.85715,2.63091 8.92315,6.01617 12.41881,10.30298 7.23044,8.86788 10.72614,18.72938 8.88634,30.17305 -1.9134,11.25966 -8.40793,21.23156 -17.90143,27.5606 -10.13744,6.82578 -22.66665,9.08869 -34.53346,6.23697 -14.97612,-3.64286 -24.00967,-14.33218 -31.553,-27.00859 -3.40372,-11.05733 -3.5876,-21.10283 0.0879,-32.32569 1.47189,-4.47081 3.8084,-5.59303 7.81927,-7.48806 3.23805,5.68509 3.07251,12.30841 4.434,18.65579 1.60063,7.37766 3.90047,12.91555 10.76292,16.85281 7.23046,4.15795 20.64276,3.29333 28.14928,0.47854 6.36584,-2.41012 12.32688,-8.16881 14.53465,-14.68185 3.27486,-9.65904 0.51495,-19.64927 -3.10932,-28.75643 z"
         fill="#ce99a6"
         id="path324"
         style="stroke-width:1" />
      <path
         d="m 870.38802,1252.4314 c 66.1784,-2.1158 74.69687,41.2672 127.90445,59.9782 -11.25966,1.5087 -24.21201,-1.0123 -35.067,-4.1764 -30.37551,-8.9047 -77.05184,-26.5854 -92.83745,-55.8018 z"
         fill="#5d647b"
         id="path325"
         style="stroke-width:1" />
      <path
         d="m 1013.1582,1222.3688 c 7.6904,4.25 14.5162,8.9783 21.1028,14.7553 9.9167,8.7208 20.1277,20.7899 20.5693,34.6623 0.2575,8.4632 -3.1277,13.1179 -8.6104,19.1525 l -3.4773,1.6191 c -12.0508,-3.3116 -16.3744,-43.383 -25.9967,-53.6308 -2.6126,-2.7781 -4.7467,-5.078 -6.6969,-8.4264 z"
         fill="#9fa3be"
         id="path326"
         style="stroke-width:1" />
      <path
         d="m 1007.786,857.5502 c 7.488,0.2939 13.2835,0.40443 19.2446,5.61149 -1.4903,2.63092 -0.7725,2.02377 -2.8886,3.5876 -8.2424,6.07144 -10.8365,7.8008 -13.4859,18.32458 -0.221,0.88296 -0.4232,1.74783 -0.6254,2.63092 -4.6548,3.34845 -9.3648,2.52051 -14.81062,2.31817 -0.91938,-4.76509 -1.14043,-7.50653 -4.1764,-11.48046 -0.66191,-0.1658 -1.36149,-0.25748 -2.02377,-0.47854 -5.59303,-1.95016 -9.5303,-6.62331 -12.10607,-11.75653 l 2.09737,-3.20125 c 9.05189,-4.19474 18.95019,-4.52595 28.77489,-5.55623 z"
         fill="#d67c7b"
         id="path327"
         style="stroke-width:1" />
      <path
         d="m 1002.3033,893.72108 c 3.0358,3.7348 4.3052,11.16773 7.3594,15.76727 3.3669,5.05949 6.2554,7.37767 12.1612,8.66555 6.0346,-1.52702 9.4382,-4.85714 14.093,-8.90468 2.6862,-2.33664 1.0852,-1.6927 4.526,-2.00544 0.8829,4.45235 0,7.06492 -1.3431,11.33327 -3.7164,3.66119 -4.8019,5.04115 -10.2478,5.66663 -10.7078,1.21454 -18.8581,-4.06601 -26.2911,-10.89179 -0.7724,1.15928 -1.5638,2.29984 -2.3733,3.44053 -5.7402,7.948 -18.47175,20.36681 -28.9772,20.44041 -5.28029,0.0377 -7.04658,-2.42857 -10.56058,-5.77703 l 0.55138,-2.04223 c 5.04115,-0.5338 10.28464,-0.97465 15.03139,-2.85172 13.8539,-5.46429 20.20128,-20.27488 26.07021,-32.84089 z"
         fill="#1e1a28"
         id="path328"
         style="stroke-width:1" />
      <path
         d="m 1017.2059,650.25726 c 1.5823,1.52703 2.6677,2.79658 3.1276,5.07795 2.1527,10.91012 2.8517,45.57245 -2.1526,55.28674 -5.3907,-8.90469 -2.4654,-48.29529 -0.9747,-60.36456 z"
         fill="#2d2b31"
         id="path329"
         style="stroke-width:1" />
      <path
         d="m 996.13984,1187.872 c 1.85823,1.9501 3.23806,3.8268 4.47076,6.2002 3.3302,6.4026 6.4763,12.9706 4.2316,20.0724 l -3.1093,-0.883 c -1.6927,-3.9556 -3.21975,-7.4145 -6.18187,-10.6157 -3.23805,-3.4773 -6.82578,-6.789 -7.02812,-11.6645 z"
         fill="#3d4053"
         id="path330"
         style="stroke-width:1" />
      <path
         d="m 716.43153,181.78319 c 87.81476,-3.31166 179.67707,1.02991 267.74944,0.58905 28.86683,-0.14695 21.91233,55.15788 21.93063,74.14487 l -0.075,101.5766 c -0.2211,42.97833 -2.2263,53.17091 -49.62003,51.66222 -7.948,-0.25748 -17.5151,-0.18463 -25.55517,-0.2939 l -34.97506,0.12811 c -1.14044,13.28356 -0.33158,49.12324 -14.14818,53.06051 -11.35172,-4.43401 -34.25752,-40.51296 -43.60381,-52.89497 -25.29757,-0.42327 -117.34387,6.62332 -132.5408,-8.04007 -4.43401,-4.2868 -6.89938,-9.45669 -7.92967,-15.50967 -3.34846,-19.90687 -1.26942,-42.9782 -1.23212,-63.16114 l 0.49737,-120.14045 c 6.07144,-11.86681 7.81927,-14.93933 19.50207,-21.12116 z"
         fill="#4c505e"
         id="path589"
         style="stroke-width:1" />
      <path
         d="m 721.54628,191.68136 c 83.58322,-2.15263 167.73667,0.80886 251.35669,-1.12285 22.90579,-0.5338 31.79213,22.97939 20.36682,36.28129 l -10.87333,0.25747 c -64.48583,0.0879 -201.69978,1.14044 -272.16498,-0.23863 -0.91938,-0.77243 -1.85823,-1.52703 -2.77812,-2.29984 -3.58759,-15.38093 -3.53246,-28.68282 14.09305,-32.87769 z"
         fill="#878aa0"
         id="path590"
         style="stroke-width:1" />
      <path
         d="m 863.37824,317.43331 4.1764,3.31165 c -1.43509,8.83122 -1.67423,9.43824 -0.23864,18.08545 l -5.00435,3.31166 c 0.0126,-8.50001 0.5338,-16.24568 1.06759,-24.70889 z"
         fill="#455d52"
         id="path593"
         style="stroke-width:1" />
      <path
         d="m 852.70725,343.06208 c 0.16579,-6.25544 -0.34916,-13.32036 2.44692,-18.67425 2.68617,6.51291 2.00543,11.53572 1.93183,18.60064 z"
         fill="#455d52"
         id="path594"
         style="stroke-width:1" />
      <path
         d="m 746.54944,257.27108 1.28789,2.37331 c -3.5508,5.96103 -10.10064,9.73263 -15.63853,13.7435 3.93726,2.37331 8.20561,4.67315 11.59086,7.8008 3.56926,3.31166 3.42206,3.698 3.45886,8.33435 -4.3972,-2.70452 -9.38309,-5.35389 -13.39396,-8.59195 -4.0292,-3.25652 -4.63634,-4.80188 -4.94908,-9.84304 4.1028,-6.51291 11.22286,-9.86149 17.64396,-13.8171 z"
         fill="#bebfd3"
         id="path598"
         style="stroke-width:1" />
      <path
         d="m 783.62188,256.9032 c 5.04115,1.15928 12.17967,4.89395 16.08001,8.22407 3.8452,3.29332 3.38525,5.26195 3.55079,9.8983 -3.18292,6.49458 -9.30949,9.21756 -15.30732,12.78682 l -1.5823,-2.13418 c 2.87018,-5.61149 9.0887,-8.72081 14.25858,-12.23481 -6.67857,-4.434 -14.46104,-8.53681 -17.00002,-16.53995 z"
         fill="#c9cce5"
         id="path600"
         style="stroke-width:1" />
      <path
         d="m 773.22696,249.01033 1.56383,1.45343 c 2.22623,9.47503 -8.64721,32.60163 -11.92207,42.22399 l -1.61909,-1.63743 c -3.33012,-10.28464 7.89286,-31.82895 11.9772,-42.03999 z"
         fill="#bebfd3"
         id="path602"
         style="stroke-width:1" />
      <path
         d="m 1139.7932,830.6152 c 2.1895,-9.19909 1.6559,-51.44141 1.6927,-62.738 l -0.1293,-159.7334 c -0.075,-104.20751 -15.1418,-113.14913 95.3028,-128.53006 2.6126,-0.368 3.9372,4.74675 4.8203,6.62332 -0.7912,5.74023 -1.6191,10.21104 -1.4719,16.04321 l -0.4597,8.97829 -0.4232,438.28268 -0.2575,142.54946 c 0,25.0032 -0.6619,60.4567 0.9571,84.9446 l -0.7913,9.9535 c -39.961,7.1936 -66.0865,27.2845 -96.6091,-13.6331 -2.5573,-24.5065 -1.0487,-62.3332 -1.1957,-87.8148 -0.3315,-56.1146 0.7549,-112.48672 0.147,-168.65655 1.2321,-13.55949 3.1829,-66.08646 -1.0123,-77.91646 -1.104,-2.66772 -0.6067,-5.04115 -0.5703,-8.35281 z"
         fill="#5d647b"
         id="path603"
         style="stroke-width:1" />
      <path
         d="m 1139.7932,830.6152 c 2.1895,-9.19909 1.6559,-51.44141 1.6927,-62.738 l -0.1293,-159.7334 c -0.075,-104.20751 -15.1418,-113.14913 95.3028,-128.53006 2.6126,-0.368 3.9372,4.74675 4.8203,6.62332 -0.7912,5.74023 -1.6191,10.21104 -1.4719,16.04321 -23.1634,5.22515 -50.1351,7.9848 -65.6448,25.4631 2.9621,13.94584 0.4961,100.28872 0.8465,121.98022 2.2078,132.06252 -2.1342,267.5471 0.368,399.33361 3.9924,32.9696 -1.7295,119.5333 6.1819,139.9921 1.1228,-6.7337 -0.1834,-6.8073 0.8465,-13.0811 1.1593,3.0726 2.1894,8.0401 4.5444,8.6288 14.8657,3.6797 36.0421,-5.7955 52.6742,-7.5617 l -0.7913,9.9535 c -39.961,7.1936 -66.0865,27.2845 -96.6091,-13.6331 -2.5573,-24.5065 -1.0487,-62.3332 -1.1957,-87.8148 -0.3315,-56.1146 0.7549,-112.48672 0.147,-168.65655 1.2321,-13.55949 3.1829,-66.08646 -1.0123,-77.91646 -1.104,-2.66772 -0.6067,-5.04115 -0.5703,-8.35281 z"
         fill="#70728a"
         id="path604"
         style="stroke-width:1" />
      <path
         d="m 1139.7932,830.6152 c 2.1895,-9.19909 1.6559,-51.44141 1.6927,-62.738 l -0.1293,-159.7334 c -0.075,-104.20751 -15.1418,-113.14913 95.3028,-128.53006 2.6126,-0.368 3.9372,4.74675 4.8203,6.62332 -0.7912,5.74023 -1.6191,10.21104 -1.4719,16.04321 -23.1634,5.22515 -50.1351,7.9848 -65.6448,25.4631 l -0.7913,-1.28789 0.1846,-2.42857 c -4.1947,-6.20017 -9.2727,-8.83109 -15.5096,-13.02596 -3.5876,6.05298 -6.2002,11.11259 -6.3106,18.26945 -0.6996,50.41113 -0.4974,101.59507 -0.4785,151.95093 l 0.2939,303.20291 -0.4961,120.39806 c -0.088,18.7478 -0.9571,42.3159 1.2509,60.9166 1.0488,8.8127 15.4729,17.2759 22.8139,21.9306 -0.147,-44.6341 -1.104,-94.2909 0.2574,-138.6122 3.9924,32.9696 -1.7294,119.5333 6.1819,139.9922 1.1228,-6.7338 -0.1834,-6.8074 0.8465,-13.0811 1.1593,3.0725 2.1895,8.04 4.5444,8.6287 14.8657,3.6797 36.0422,-5.7955 52.6742,-7.5616 l -0.7913,9.9534 c -39.9609,7.1937 -66.0864,27.2845 -96.609,-13.6331 -2.5573,-24.5064 -1.0488,-62.3332 -1.1957,-87.8148 -0.3316,-56.1145 0.7548,-112.4867 0.1469,-168.65652 1.2321,-13.5595 3.1829,-66.08646 -1.0123,-77.91647 -1.104,-2.66771 -0.6066,-5.04115 -0.5702,-8.35281 z"
         fill="#22182c"
         id="path605"
         style="stroke-width:1" />
      <path
         d="m 1241.4804,486.23706 c -0.7913,5.74023 -1.6191,10.21104 -1.4719,16.04321 -23.1634,5.22515 -50.1352,7.9848 -65.6449,25.4631 l -0.7913,-1.28789 0.1847,-2.42857 c -4.1948,-6.20017 -9.2727,-8.83109 -15.5097,-13.02596 14.9761,-10.54224 60.8798,-16.68715 83.2336,-24.76402 z"
         fill="#878aa0"
         id="path606"
         style="stroke-width:1" />
      <path
         d="m 1174.3636,527.7435 c 15.5097,-17.4783 42.4815,-20.23808 65.6449,-25.46311 l -0.4597,8.97829 c -14.8842,2.83338 -43.2358,6.23698 -54.0357,15.17859 -5.0963,13.9275 -2.9804,133.05601 -2.9621,156.77128 l 0.038,329.65955 c -0.013,48.9945 2.171,115.3385 0.013,163.1003 -1.0299,6.2737 0.2764,6.3473 -0.8465,13.0811 -7.9112,-20.4589 -2.1894,-107.0226 -6.1818,-139.9922 -2.5022,-131.78661 1.8397,-267.27119 -0.368,-399.33358 -0.3492,-21.69151 2.1158,-108.03438 -0.8466,-121.98022 z"
         fill="#1e1a28"
         id="path607"
         style="stroke-width:1" />
      <path
         d="M 258.93753,783.23979 C 169.38411,720.13391 156.23494,610.29644 208.14735,517.64298 c 27.85864,-50.88953 77.83558,-102.42301 27.84382,-159.08945 -6.66941,-7.30406 -14.08751,-14.01944 -20.63183,-21.4339 -43.25979,-48.7369 11.08672,-95.24769 61.7665,-63.47389 51.4948,32.52803 71.13854,99.51604 60.429,157.43369 -14.16111,76.57344 -87.60866,125.80709 -80.31012,207.20088 3.43122,38.24992 29.1042,81.46739 62.75634,100.15997 l 3.37797,0.69959 c -2.19119,3.33012 -51.30527,29.93391 -63.35984,46.17958 z"
         fill="#383837"
         id="path610"
         style="stroke-width:1" />
      <path
         d="m 455.37913,347.40402 c 27.91931,-0.71717 154.17717,-3.9924 171.74753,1.32469 6.53138,1.98697 13.5963,7.28572 16.59522,13.54116 4.2132,8.81275 4.89395,142.5495 0.47853,152.411 -8.11367,18.1775 -28.71963,6.89938 -40.77044,14.68184 -2.20777,1.41663 -1.71103,6.21864 -1.91336,8.72082 0.20221,6.20017 1.50869,15.21539 -0.25748,21.19476 -1.45343,4.89395 -3.16446,5.51943 -7.40165,7.37766 -12.66172,-1.85823 -35.08911,-29.03236 -46.45365,-38.37866 -27.1411,-1.43509 -72.14684,4.56275 -96.41588,-3.10932 -5.3245,-1.67423 -8.71152,-4.01086 -11.20641,-9.08869 -3.16445,-6.43944 -4.30702,-14.42424 -4.91969,-21.5075 -1.62638,-18.78465 -2.14159,-121.20754 1.9631,-132.48566 3.01361,-8.27921 11.19712,-11.37007 18.55456,-14.68185 z"
         fill="#4c505e"
         id="path615"
         style="stroke-width:1" />
      <path
         d="m 500.1181,357.04472 c 34.61447,-0.49612 69.32088,-1.30623 103.9371,-1.14044 30.76186,0.14695 34.29432,5.15155 33.20877,33.57677 -35.95008,0.23864 -107.7087,2.57578 -141.87428,-0.22105 -16.3027,0.49611 -34.07904,0.25748 -50.50872,0.368 -4.48914,-42.73906 22.27102,-33.33763 55.237,-32.58328 z"
         fill="#878aa0"
         id="path616"
         style="stroke-width:1" />
      <path
         d="m 444.8811,389.628 c -4.48915,-42.73906 22.27101,-33.33763 55.237,-32.58328 -4.33642,1.95016 -7.13488,3.33012 -11.68846,4.85714 4.88102,3.18292 4.15795,1.43509 6.05675,5.5747 1.76629,1.78463 2.59047,4.30514 2.22623,6.78898 -0.36424,2.48371 -1.87481,4.65481 -4.07894,5.85063 -4.39721,3.16446 -7.16427,3.12766 -12.32311,3.75326 l 15.07925,5.3907 c -16.3027,0.49611 -34.07905,0.25747 -50.50872,0.368 z"
         fill="#a18fa0"
         id="path617"
         style="stroke-width:1" />
      <path
         d="m 492.63368,380.11605 c -3.62264,1.98697 -8.15411,0.88295 -10.45935,-2.53898 -2.30712,-3.42206 -1.63014,-8.04007 1.56019,-10.65252 3.19209,-2.61257 7.85054,-2.37331 10.75187,0.55264 1.76629,1.78463 2.59047,4.30514 2.22623,6.78898 -0.36424,2.48371 -1.87481,4.65481 -4.07894,5.85063 z"
         fill="#ece5c8"
         id="path618"
         style="stroke-width:1" />
      <path
         d="m 511.06866,368.32284 c 2.99892,-2.41011 7.38683,-1.91337 9.7879,1.08517 2.40283,2.99892 1.90785,7.39613 -1.10526,9.7879 -3.00081,2.37331 -7.36485,1.89503 -9.75663,-1.10401 -2.39366,-2.99892 -1.91161,-7.35932 1.07513,-9.76944 z"
         fill="#9fc09e"
         id="path619"
         style="stroke-width:1" />
      <path
         d="m 550.24776,415.53271 5.23068,2.96212 c 2.08456,14.33218 -19.03296,59.86782 -25.2276,74.73367 l -4.40085,-2.39177 c -2.82409,-11.51727 19.19485,-62.16766 24.3979,-75.30402 z"
         fill="#d2e5ed"
         id="path620"
         style="stroke-width:1" />
      <path
         d="m 505.87667,429.66255 3.27486,2.22624 0.14946,3.42206 c -5.31156,7.8008 -14.1115,13.5227 -21.44131,19.39179 6.93618,5.97937 20.98137,13.8539 22.11464,23.18173 l -3.49013,2.68618 c -10.78502,-7.9848 -20.87825,-16.26401 -30.84463,-25.24243 9.18252,-9.82469 19.5297,-17.5887 30.23749,-25.66557 z"
         fill="#d2e5ed"
         id="path621"
         style="stroke-width:1" />
      <path
         d="m 568.72696,429.42329 c 12.39306,2.06057 25.60666,17.05516 34.5739,25.37117 -9.08869,8.48154 -19.12126,16.22721 -28.6773,24.19367 -1.51597,0.36801 -3.09827,0.0754 -4.65104,-0.0377 l -0.52626,-2.63092 c 5.77892,-8.59195 14.48855,-15.19693 22.1772,-22.04104 -5.73107,-4.21321 -12.00849,-8.33435 -17.28325,-13.0811 -4.47081,-4.0292 -5.22515,-5.85063 -5.61325,-11.77486 z"
         fill="#d2e5ed"
         id="path622"
         style="stroke-width:1" />
      <path
         d="m 715.40225,223.15348 c -4.48915,-42.73907 22.27101,-33.33764 55.237,-32.58329 -4.33642,1.95017 -7.13488,3.33012 -11.68845,4.85715 4.88101,3.18292 4.15794,1.43509 6.05674,5.57469 1.76629,1.78463 2.59047,4.30514 2.22623,6.78898 -0.36423,2.48371 -1.87481,4.65481 -4.07894,5.85064 -4.3972,3.16445 -7.16427,3.12765 -12.3231,3.75326 l 15.07924,5.39069 c -16.3027,0.49611 -34.07905,0.25748 -50.50872,0.368 z"
         fill="#a18fa0"
         id="path1"
         style="stroke-width:1" />
      <path
         d="m 763.15483,213.64152 c -3.62264,1.98697 -8.15411,0.88296 -10.45935,-2.53898 -2.30712,-3.42205 -1.63014,-8.04006 1.56019,-10.65251 3.19209,-2.61258 7.85054,-2.37332 10.75187,0.55263 1.76629,1.78463 2.59047,4.30514 2.22623,6.78898 -0.36423,2.48371 -1.87481,4.65481 -4.07894,5.85063 z"
         fill="#ece5c8"
         id="path2"
         style="stroke-width:1" />
      <path
         d="m 781.58982,201.84831 c 2.99891,-2.41011 7.38683,-1.91336 9.78789,1.08518 2.40283,2.99891 1.90785,7.39612 -1.10526,9.78789 -3.00081,2.37332 -7.36485,1.89504 -9.75663,-1.10401 -2.39366,-2.99891 -1.91161,-7.35932 1.07513,-9.76943 z"
         fill="#9fc09e"
         id="path3"
         style="stroke-width:1" />
    </g>
  </g>
</svg>
